<?xml version="1.0" encoding="UTF-8" standalone="no"?>
<svg width="3000px" height="3058px" viewBox="0 0 3000 3058" version="1.1" xmlns="http://www.w3.org/2000/svg" xmlns:xlink="http://www.w3.org/1999/xlink">
    <!-- Generator: Sketch 3.6.1 (26313) - http://www.bohemiancoding.com/sketch -->
    <title>birds</title>
    <desc>Created with Sketch.</desc>
    <defs></defs>
    <g id="Page-1" stroke="none" stroke-width="1" fill="none" fill-rule="evenodd" opacity="0.053463153">
        <g id="site" transform="translate(0.000000, 2.000000)" fill="#000000">
            <g id="Birds" transform="translate(0.000000, -2.000000)">
                <g transform="translate(1982.000000, 598.000000)" id="bird">
                    <path d="M0.735953687,1.44323541 L2.69927621,0.85654627 L4.97569651,2.84276037 L7.08781433,0.785656204 L9,1.68544313 L7.08781446,1.73990296 L4.97569642,3.47386315 L2.69669167,1.73990295 L0.735953687,1.44323541 Z"></path>
                    <path d="M0.735953687,1.44323541 L2.69927621,0.85654627 L4.97569651,2.84276037 L7.08781433,0.785656204 L9,1.68544313 L7.08781446,1.73990296 L4.97569642,3.47386315 L2.69669167,1.73990295 L0.735953687,1.44323541 Z"></path>
                    <path d="M0.735953687,1.44323541 L2.69927621,0.85654627 L4.97569651,2.84276037 L7.08781433,0.785656204 L9,1.68544313 L7.08781446,1.73990296 L4.97569642,3.47386315 L2.69669167,1.73990295 L0.735953687,1.44323541 Z"></path>
                    <path d="M0.735953687,1.44323541 L2.69927621,0.85654627 L4.97569651,2.84276037 L7.08781433,0.785656204 L9,1.68544313 L7.08781446,1.73990296 L4.97569642,3.47386315 L2.69669167,1.73990295 L0.735953687,1.44323541 Z"></path>
                    <path d="M0.735953687,1.44323541 L2.69927621,0.85654627 L4.97569651,2.84276037 L7.08781433,0.785656204 L9,1.68544313 L7.08781446,1.73990296 L4.97569642,3.47386315 L2.69669167,1.73990295 L0.735953687,1.44323541 Z"></path>
                </g>
            </g>
        </g>
    </g>
</svg>