<?xml version="1.0" encoding="UTF-8" standalone="no"?>
<svg width="3000px" height="3058px" viewBox="0 0 3000 3058" version="1.1" xmlns="http://www.w3.org/2000/svg" xmlns:xlink="http://www.w3.org/1999/xlink">
    <!-- Generator: Sketch 3.6.1 (26313) - http://www.bohemiancoding.com/sketch -->
    <title>birds</title>
    <desc>Created with Sketch.</desc>
    <defs></defs>
    <g id="Page-1" stroke="none" stroke-width="1" fill="none" fill-rule="evenodd">
        <g id="site" transform="translate(0.000000, -600.000000)" fill="#5E6147">
            <g id="art" transform="translate(-670.000000, -948.000000)">
                <g id="Birds" transform="translate(670.000000, 1548.000000)">
                    <g transform="translate(1982.000000, 598.000000)" id="bird">
                        <path d="M0.739990234,1.44323541 L2.70331275,0.85654627 L4.97973306,2.84276037 L7.09185087,0.785656204 L9.00403655,1.68544313 L7.09185101,1.73990296 L4.97973297,3.47386315 L2.70072822,1.73990295 L0.739990234,1.44323541 Z"></path>
                        <path d="M0.739990234,1.44323541 L2.70331275,0.85654627 L4.97973306,2.84276037 L7.09185087,0.785656204 L9.00403655,1.68544313 L7.09185101,1.73990296 L4.97973297,3.47386315 L2.70072822,1.73990295 L0.739990234,1.44323541 Z"></path>
                        <path d="M0.739990234,1.44323541 L2.70331275,0.85654627 L4.97973306,2.84276037 L7.09185087,0.785656204 L9.00403655,1.68544313 L7.09185101,1.73990296 L4.97973297,3.47386315 L2.70072822,1.73990295 L0.739990234,1.44323541 Z"></path>
                        <path d="M0.739990234,1.44323541 L2.70331275,0.85654627 L4.97973306,2.84276037 L7.09185087,0.785656204 L9.00403655,1.68544313 L7.09185101,1.73990296 L4.97973297,3.47386315 L2.70072822,1.73990295 L0.739990234,1.44323541 Z"></path>
                        <path d="M0.739990234,1.44323541 L2.70331275,0.85654627 L4.97973306,2.84276037 L7.09185087,0.785656204 L9.00403655,1.68544313 L7.09185101,1.73990296 L4.97973297,3.47386315 L2.70072822,1.73990295 L0.739990234,1.44323541 Z"></path>
                    </g>
                </g>
            </g>
        </g>
    </g>
</svg>