<svg xmlns="http://www.w3.org/2000/svg" viewBox="0 0 1359.6 1048.6" enable-background="new 0 0 1359.6 1048.6"><symbol id="h" viewBox="-1.8 -1.8 3.6 3.6"><path fill="#AE9BCC" d="M1.8 0C1.8-1 1-1.8 0-1.8S-1.8-1-1.8 0-1 1.8 0 1.8 1.8 1 1.8 0z"/></symbol><symbol id="a" viewBox="-2.6 -1.4 5.2 2.7"><path fill="#7A826B" d="M-2.6 1.1c.3.1.7.1 1 .1.3 0 .7-.2 1-.4.4-.4.6-.9.7-1.4 0 .2.1.4.1.6l.3.6c0 .1.1.2.2.3.1.1.2.1.3.1.2.1.4.2.5.2.2.1.4.1.6.1s.4-.1.5-.3c-.3.1-.6 0-.9-.2C1.4.7 1.2.7.9.5.8.4.6-.1.6-.2.4-.4.6-.8.5-1c0-.2-.1-.3-.3-.4l-.3.9c0 .2-.1.3-.2.4-.2.4-.7.5-1 .8l-.6.3c-.2.1-.5.2-.7.1z"/></symbol><g fill="#FFF"><path d="M2547.5 61.4c-1.3-4.2 2.9-6.2 7.3-6.6 0 0 2-6.1 7.7-7.9 5.7-1.7 13.5-.4 13.5-.4s3.9-5.2 10-5.2 9.2 3.9 9.2 3.9 22.3-10 38.9-14.8c16.6-4.8 42.3-9.2 61.6-2.6 19.2 6.5 24 15.3 24 15.3s3.5-2.6 9.2-2.6 8.3 3.1 8.3 3.1 21.8-3.1 35.4-.9 33.2 12.7 33.2 12.7 3.5-2.2 10.5-1.3c7 .9 10 4.8 10 4.8s24.4-14 55-11.3 35.8 14.8 30.6 17c-5.2 2.2-27.5-.4-45.8 1.7-18.3 2.2-41.9 8.3-55 7-13.1-1.3-22.3-6.1-22.3-6.1s-5.2 11.3-47.1 12.7c-41.9 1.3-54.1-11.8-54.1-11.8s-.4 3.9-6.5 3.9-8.3-4.8-8.3-4.8 1.7 5.7-4.4 9.2-46.7 6.1-69.8-1.3c-23.5-7.7-49.2-7.4-51.1-13.7zM1949.3 71.4c7.2-4.8-7.4-32.5-42.3-18.9 0 0-43.3-48.1-100.1-44.3S1718 55.6 1718 55.6s-6.2-7.4-15.5-6.8c-8.2.5-14.1 6.8-14.1 6.8s-15.7-20.7-45.6-21.9c-32.2-1.4-55 21.9-55 21.9s-3.8-5.7-12.7-6.3c-8.9-.5-15 6.5-15 6.5s-6.6-11.4-43.3-8.6c-36.7 2.7-48.4 10.8-46.1 14.6 2.4 3.8 7.5 5.4 7.5 5.4s-.5 5.9 9.4 7c9.9 1.1 33.9-3.2 50.8-2.7s29.2 5.9 41.4 7.6c12.2 1.6 22.1-.5 22.1-.5s.9 7.6 9.4 9.2c8.5 1.6 17.9-5.4 17.9-5.4s.9 5.9 4.7 8.1c3.8 2.2 11.8.5 17.4-4.9 0 0 12.8 12.5 41.8 15.1 53.1 4.9 60.7-14.7 94.5-16.2 24-1.1 40.4 10.8 65.8 8.6 28.7-2.4 61.6-17.3 61.6-17.3s23 3.2 34.3-4.4z"/><path d="M2277.5 47.5c8.9-.6 15.5 1.9 15.5 1.9s5.2-4.7 12.2-6.6c7-1.9 15-.9 15-.9s9.8-12.7 25.8-19.2 50.2-17.8 82.5 1.9c0 0 12.4 7.8 20 15.2.7.7 1.4 1.5 2.1 2.2 0 0 4.1-5.5 11.2-5.5 7 0 11.3 7.9 11.3 7.9s16.4-11.3 33.8-9.4c17.4 1.9 56.3 16.4 71.8 16.4 0 0-5.2 6.6-14.5 5.6 0 0-5.2 16.9-17.8 19.2-12.7 2.3-33.3 3.8-39.9-3.3 0 0-7.5 6.1-24.4 6.1s-56.7-6.6-86.8-13.6c0 0-5.6 10.8-25.8 13.1-20.2 2.3-65.7-18.8-65.7-18.8s-10.3 5.2-21.6 3.3-32.8-13.6-4.7-15.5zM1919.1 64.3c0-3.5 7-10.4 13.4-10.4s13.9 4 13.9 4 32.8-32.9 77.1-36.3c58.2-4.5 81 29.3 81 29.3s8.9-1 16.4 1 11.9 9.4 11.4 11.4-26.4 8-43.8 8-41.3-8-41.3-8 4.5 6-12.9 9.4c-17.4 3.5-43.3 3-62.2-3 0 0-20.9 4.5-35.8 3s-17.2-8.4-17.2-8.4z"/><path d="M2115.3 60c1.6 6.4 26.4 4.1 38.6 9.1 12.3 5 47.3 13.2 62.3 10 15-3.2 8.6-7.3 8.6-7.3s17.7 7.3 37.7 2.7c20-4.5 29.1-11.4 29.5-20s-21.4-23.6-52.3-25.5c-30.9-1.8-48.6 3.6-64.1 8.2-15.5 4.5-17.3 8.6-17.3 8.6s-9.1-7.3-24.1-.9c-14.8 6.4-19.8 11.4-18.9 15.1z"/></g><g fill="#FFF"><path d="M1187.5 61.4c-1.3-4.2 2.9-6.2 7.3-6.6 0 0 2-6.1 7.7-7.9s13.5-.4 13.5-.4 3.9-5.2 10-5.2 9.2 3.9 9.2 3.9 22.3-10 38.9-14.8c16.6-4.8 42.3-9.2 61.6-2.6 19.2 6.5 24 15.3 24 15.3s3.5-2.6 9.2-2.6c5.7 0 8.3 3.1 8.3 3.1s21.8-3.1 35.4-.9c13.5 2.2 33.2 12.7 33.2 12.7s3.5-2.2 10.5-1.3c7 .9 10 4.8 10 4.8s24.4-14 55-11.3 35.8 14.8 30.6 17c-5.2 2.2-27.5-.4-45.8 1.7-18.3 2.2-41.9 8.3-55 7-13.1-1.3-22.3-6.1-22.3-6.1s-5.2 11.3-47.1 12.7c-41.9 1.3-54.1-11.8-54.1-11.8s-.4 3.9-6.5 3.9-8.3-4.8-8.3-4.8 1.7 5.7-4.4 9.2-46.7 6.1-69.8-1.3c-23.5-7.7-49.2-7.4-51.1-13.7zM589.3 71.4c7.2-4.8-7.4-32.5-42.3-18.9 0 0-43.3-48.1-100.1-44.3S358 55.6 358 55.6s-6.2-7.4-15.5-6.8c-8.2.5-14.1 6.8-14.1 6.8s-15.7-20.7-45.6-21.9c-32.2-1.4-55 21.9-55 21.9s-3.8-5.7-12.7-6.3c-8.9-.5-15 6.5-15 6.5s-6.6-11.4-43.3-8.6-48.4 10.8-46.1 14.6c2.4 3.8 7.5 5.4 7.5 5.4s-.5 5.9 9.4 7c9.9 1.1 33.9-3.2 50.8-2.7s29.2 5.9 41.4 7.6 22.1-.5 22.1-.5.9 7.6 9.4 9.2 17.9-5.4 17.9-5.4.9 5.9 4.7 8.1c3.8 2.2 11.8.5 17.4-4.9 0 0 12.8 12.5 41.8 15.1 53.1 4.9 60.7-14.7 94.5-16.2 24-1.1 40.4 10.8 65.8 8.6 28.7-2.4 61.6-17.3 61.6-17.3s23 3.2 34.3-4.4z"/><path d="M917.5 47.5c8.9-.6 15.5 1.9 15.5 1.9s5.2-4.7 12.2-6.6 15-.9 15-.9S970 29.2 986 22.7c15.9-6.6 50.2-17.8 82.5 1.9 0 0 12.4 7.8 20 15.2.7.7 1.4 1.5 2.1 2.2 0 0 4.1-5.5 11.2-5.5s11.3 7.9 11.3 7.9 16.4-11.3 33.8-9.4c17.4 1.9 56.3 16.4 71.8 16.4 0 0-5.2 6.6-14.5 5.6 0 0-5.2 16.9-17.8 19.2s-33.3 3.8-39.9-3.3c0 0-7.5 6.1-24.4 6.1s-56.7-6.6-86.8-13.6c0 0-5.6 10.8-25.8 13.1-20.2 2.3-65.7-18.8-65.7-18.8s-10.3 5.2-21.6 3.3c-11.2-1.9-32.8-13.6-4.7-15.5zM559.1 64.3c0-3.5 7-10.4 13.4-10.4s13.9 4 13.9 4 32.8-32.9 77.1-36.3c58.2-4.5 81 29.3 81 29.3s8.9-1 16.4 1c7.5 2 11.9 9.4 11.4 11.4s-26.4 8-43.8 8-41.3-8-41.3-8 4.5 6-12.9 9.4c-17.4 3.5-43.3 3-62.2-3 0 0-20.9 4.5-35.8 3s-17.2-8.4-17.2-8.4z"/><path d="M755.3 60c1.6 6.4 26.4 4.1 38.6 9.1 12.3 5 47.3 13.2 62.3 10 15-3.2 8.6-7.3 8.6-7.3s17.7 7.3 37.7 2.7c20-4.5 29.1-11.4 29.5-20 .5-8.6-21.4-23.6-52.3-25.5-30.9-1.8-48.6 3.6-64.1 8.2-15.5 4.5-17.3 8.6-17.3 8.6s-9.1-7.3-24.1-.9-19.8 11.4-18.9 15.1z"/></g><g fill="#FFF"><path d="M-172.5 61.4c-1.3-4.2 2.9-6.2 7.3-6.6 0 0 2-6.1 7.7-7.9 5.7-1.7 13.5-.4 13.5-.4s3.9-5.2 10-5.2 9.2 3.9 9.2 3.9 22.3-10 38.9-14.8 42.3-9.2 61.6-2.6S-.4 43-.4 43s3.5-2.6 9.2-2.6 8.3 3.1 8.3 3.1 21.8-3.1 35.4-.9 33.2 12.7 33.2 12.7S89.1 53 96 53.9c7 .9 10 4.8 10 4.8s24.4-14 55-11.3 35.8 14.8 30.6 17c-5.2 2.2-27.5-.4-45.8 1.7-18.3 2.2-41.9 8.3-55 7S68.5 67 68.5 67s-5.2 11.3-47.1 12.7C-20.5 81-32.7 67.9-32.7 67.9s-.4 3.9-6.5 3.9-8.3-4.8-8.3-4.8 1.7 5.7-4.4 9.2-46.7 6.1-69.8-1.3c-23.2-7.5-48.9-7.2-50.8-13.5zM-770.7 71.4c7.2-4.8-7.4-32.5-42.3-18.9 0 0-43.3-48.1-100.1-44.3s-88.9 47.4-88.9 47.4-6.2-7.4-15.5-6.8c-8.2.5-14.1 6.8-14.1 6.8s-15.7-20.7-45.6-21.9c-32.2-1.4-55 21.9-55 21.9s-3.8-5.7-12.7-6.3c-8.9-.5-15 6.5-15 6.5s-6.6-11.4-43.3-8.6c-36.7 2.7-48.4 10.8-46.1 14.6 2.4 3.8 7.5 5.4 7.5 5.4s-.5 5.9 9.4 7c9.9 1.1 33.9-3.2 50.8-2.7s29.2 5.9 41.4 7.6c12.2 1.6 22.1-.5 22.1-.5s.9 7.6 9.4 9.2c8.5 1.6 17.9-5.4 17.9-5.4s.9 5.9 4.7 8.1c3.8 2.2 11.8.5 17.4-4.9 0 0 12.8 12.5 41.8 15.1 53.1 4.9 60.7-14.7 94.5-16.2 24-1.1 40.4 10.8 65.8 8.6 28.7-2.4 61.6-17.3 61.6-17.3s23 3.2 34.3-4.4z"/><path d="M-442.5 47.5c8.9-.6 15.5 1.9 15.5 1.9s5.2-4.7 12.2-6.6 15-.9 15-.9 9.8-12.7 25.8-19.2 50.2-17.8 82.5 1.9c0 0 12.4 7.8 20 15.2.7.7 1.4 1.5 2.1 2.2 0 0 4.1-5.5 11.2-5.5 7 0 11.3 7.9 11.3 7.9s16.4-11.3 33.8-9.4 56.3 16.4 71.8 16.4c0 0-5.2 6.6-14.5 5.6 0 0-5.2 16.9-17.8 19.2-12.7 2.3-33.3 3.8-39.9-3.3 0 0-7.5 6.1-24.4 6.1s-56.7-6.6-86.8-13.6c0 0-5.6 10.8-25.8 13.1-20.2 2.3-65.7-18.8-65.7-18.8s-10.3 5.2-21.6 3.3c-11.2-1.9-32.8-13.6-4.7-15.5zM-800.9 64.3c0-3.5 7-10.4 13.4-10.4s13.9 4 13.9 4 32.8-32.9 77.1-36.3c58.2-4.5 81 29.3 81 29.3s8.9-1 16.4 1c7.5 2 11.9 9.4 11.4 11.4s-26.4 8-43.8 8-41.3-8-41.3-8 4.5 6-12.9 9.4c-17.4 3.5-43.3 3-62.2-3 0 0-20.9 4.5-35.8 3s-17.2-8.4-17.2-8.4z"/><path d="M-604.7 60c1.6 6.4 26.4 4.1 38.6 9.1 12.3 5 47.3 13.2 62.3 10 15-3.2 8.6-7.3 8.6-7.3s17.7 7.3 37.7 2.7c20-4.5 29.1-11.4 29.5-20s-21.4-23.6-52.3-25.5c-30.9-1.8-48.6 3.6-64.1 8.2-15.5 4.5-17.3 8.6-17.3 8.6s-9.1-7.3-24.1-.9-19.8 11.4-18.9 15.1z"/></g><path fill="#FFF" d="M-1463.4 58.8h4375.5v4562.1h-4375.5z"/></svg>