<?xml version="1.0" encoding="UTF-8" standalone="no"?>
<svg width="3000px" height="610px" viewBox="0 0 3000 610" version="1.1" xmlns="http://www.w3.org/2000/svg" xmlns:xlink="http://www.w3.org/1999/xlink">
    <!-- Generator: Sketch 3.6.1 (26313) - http://www.bohemiancoding.com/sketch -->
    <title>footer-stone</title>
    <desc>Created with Sketch.</desc>
    <defs></defs>
    <g id="Page-1" stroke="none" stroke-width="1" fill="none" fill-rule="evenodd">
        <g id="site" transform="translate(0.000000, -5451.000000)">
            <g id="art" transform="translate(-670.000000, -955.000000)">
                <g id="FooterStone" transform="translate(670.000000, 6406.000000)">
                    <g transform="translate(561.000000, 277.000000)">
                        <g id="stone" transform="translate(1103.344359, 376.797060) rotate(-3.000000) translate(-1103.344359, -376.797060) translate(15.844359, 57.297060)">
                            <path d="M823.3794,165.7602 L464.3724,166.2162 L358.6474,176.5142 L141.2894,184.9042 L128.2654,192.2842 L0.0004,434.0912 L24.7504,518.5062 L118.9124,562.0122 L627.4234,538.2632 L1218.1414,494.1122 L1692.1824,638.7392 L1737.9254,617.9372 L1859.2544,576.9432 L1896.6784,572.6672 L1967.6564,546.4232 L2087.5974,461.3272 L2174.6904,315.3052 L2149.6084,290.5362 L1961.8604,256.9452 L1450.9224,168.4702 L1441.0634,171.1032 L1432.0154,164.4172 L1024.8564,109.0762 L823.3794,165.7602 Z" id="Fill-1" fill="#213136"></path>
                            <path d="M155.0854,278.2283 L278.3304,133.6243 L451.6704,125.7773 L493.0434,282.7103 L399.5964,331.9303 L321.8434,330.5033 L308.2904,324.7973 L155.0854,278.2283 Z" id="Fill-2" fill="#162329"></path>
                            <path d="M423.1554,182.6795 L482.3824,34.8525 L488.1604,30.5195 L583.0204,29.5565 L629.2464,25.2225 L785.7404,31.9635 L874.3404,0.6645 L1051.0574,43.0385 L1054.9104,47.3725 L1059.2434,45.9275 L1280.7434,110.9335 L1362.1204,135.4905 L1372.7134,151.3805 L1332.7474,240.4615 L1279.2984,291.0215 L1247.9994,305.9485 L1231.6284,307.8745 L1178.1794,330.9875 L1157.9554,343.0255 L953.3094,243.8325 L695.2144,259.7225 L473.2334,264.5375 L432.7854,235.6465 L423.1554,182.6795 Z" id="Fill-3" fill="#233338"></path>
                            <path d="M387.7985,331.6149 L451.4895,246.3339 L530.2935,213.9489 L698.1575,259.8279 L705.7135,329.9959 L680.8845,358.0629 L681.4245,364.5399 L664.6925,404.4819 L620.4325,398.0049 L494.1305,393.1469 L486.0335,385.5899 L405.0705,347.2679 L387.7985,331.6149 Z" id="Fill-4" fill="#2C373B"></path>
                            <path d="M428.9092,278.16 L413.8382,255.553 L428.9092,217.122 L469.6012,238.975 L466.2102,258.568 L458.6742,273.262 L428.9092,278.16 Z" id="Fill-6" fill="#273236"></path>
                            <path d="M1311.3206,243.8733 L1323.7546,220.1363 L1358.0406,152.3163 L1386.2996,130.8403 L1446.5836,103.3353 L1454.1186,96.5533 L1493.3036,106.7263 L1587.8746,145.1573 L1595.7866,164.3733 L1533.9956,278.5363 L1521.5616,283.8113 L1489.5356,289.0863 L1453.7426,298.8823 L1419.4556,313.2003 L1311.3206,269.8713 L1311.3206,243.8733 Z" id="Fill-9" fill="#122227"></path>
                            <path d="M1527.9672,283.4349 L1524.5762,278.5369 L1550.1972,237.4679 L1587.8742,166.2569 L1591.2652,154.5769 L1601.0622,150.4329 L1723.8912,201.2979 L1769.4812,219.7599 L1910.0192,249.1479 L1835.7942,320.3589 L1697.8932,325.2569 L1527.9672,283.4349 Z" id="Fill-10" fill="#343F41"></path>
                            <path d="M1352.6086,143.6106 L1370.4416,125.0636 L1396.8356,122.9236 L1401.8286,127.9176 L1371.1556,164.2976 L1352.6086,143.6106 Z" id="Fill-344" fill="#1A2A2F"></path>
                            <path d="M1272.8893,294.3614 L1290.9743,247.2644 L1314.7113,237.8444 L1325.2613,276.6524 L1294.3653,290.5934 L1272.8893,294.3614 Z" id="Fill-346" fill="#1E2E33"></path>
                        </g>
                        <g id="footer" transform="translate(539.063663, 293.011983)" font-size="14.8608242" font-family="HelveticaNeue, Helvetica Neue" fill="#FFFFFF" font-weight="normal">
                            <text id="Оферта-курса" text-decoration="underline">
                                <tspan x="0.0739684623" y="14.156336">Оферта курса</tspan>
                            </text>
                            <text id="Сайт-сделал-Иван-Диа">
                                <tspan x="478.938105" y="16.4482854">Сайт сделал </tspan>
                                <tspan x="570.62939" y="16.4482854" text-decoration="underline">Иван Дианов</tspan>
                                <tspan x="662.038319" y="16.4482854"> в </tspan>
                                <tspan x="678.325783" y="16.4482854" text-decoration="underline">Школе стажёров</tspan>
                            </text>
                        </g>
                        <g id="form" transform="translate(538.534770, 118.542027)">
                            <g id="input" transform="translate(0.000000, 82.000000)">
                                <path d="M0.571649363,44.3008093 L411,44.3008093 L411,0.467919884 L0.571649363,0.467919884 L0.571649363,44.3008093 Z" id="Fill-349" fill="#FFFFFF"></path>
                                <path d="M411,44.2299623 L662.643393,44.2299623 L662.643393,0.468743687 L411,0.468743687 L411,44.2299623 Z" id="Fill-351" fill="#FF604D"></path>
                                <text id="your@mail.com" stroke="#979797" font-family="Helvetica" font-size="17" font-weight="normal" line-spacing="20" fill="#000000">
                                    <tspan x="10" y="28">your@mail.com</tspan>
                                </text>
                                <text id="Узнать-о-наличии-мес" font-family="Helvetica" font-size="17" font-weight="normal" line-spacing="20" fill="#FFFFFF">
                                    <tspan x="444.641357" y="28">Узнать о наличии мест </tspan>
                                </text>
                                <text id="Или-спросите" font-family="HelveticaNeue, Helvetica Neue" font-size="17" font-weight="normal" line-spacing="20" text-decoration="underline" fill="#FFFFFF">
                                    <tspan x="683" y="17.5863381">Или спросите</tspan>
                                    <tspan x="683" y="37.5863381">во «Вконтакте»</tspan>
                                </text>
                            </g>
                        </g>
                    </g>
                </g>
            </g>
        </g>
    </g>
</svg>