<?xml version="1.0" encoding="UTF-8" standalone="no"?>
<svg width="3000px" height="308px" viewBox="0 0 3000 308" version="1.1" xmlns="http://www.w3.org/2000/svg" xmlns:xlink="http://www.w3.org/1999/xlink">
    <!-- Generator: Sketch 3.6.1 (26313) - http://www.bohemiancoding.com/sketch -->
    <title>footer-stone</title>
    <desc>Created with Sketch.</desc>
    <defs></defs>
    <g id="Page-1" stroke="none" stroke-width="1" fill="none" fill-rule="evenodd">
        <g id="site" transform="translate(0.000000, -5760.000000)">
            <g id="FooterStone" transform="translate(0.000000, 5458.000000)">
                <g id="stone">
                    <g>
                        <path d="M1430.70141,497.26097 L1071.69441,497.71697 L965.969409,508.01497 L748.611409,516.40497 L735.587409,523.78497 L607.322409,765.59197 L632.072409,850.00697 L726.234409,893.51297 L1234.74541,869.76397 L1825.46341,825.61297 L2299.50441,970.23997 L2345.24741,949.43797 L2466.57641,908.44397 L2504.00041,904.16797 L2574.97841,877.92397 L2694.91941,792.82797 L2782.01241,646.80597 L2756.93041,622.03697 L2569.18241,588.44597 L2058.24441,499.97097 L2048.38541,502.60397 L2039.33741,495.91797 L1632.17841,440.57697 L1430.70141,497.26097 Z" id="Fill-1" fill="#213136"></path>
                        <path d="M763.068938,601.58966 L886.313938,456.98566 L1059.65394,449.13866 L1101.02694,606.07166 L1007.57994,655.29166 L929.826938,653.86466 L916.273938,648.15866 L763.068938,601.58966 Z" id="Fill-2" fill="#162329"></path>
                        <path d="M1024.22366,492.182623 L1083.45066,344.355623 L1089.22866,340.022623 L1184.08866,339.059623 L1230.31466,334.725623 L1386.80866,341.466623 L1475.40866,310.167623 L1652.10202,352.419226 L1694.97958,352.419226 L1881.81166,420.436623 L1963.18866,444.993623 L1973.78166,460.883623 L1933.81566,549.964623 L1880.36666,600.524623 L1849.06766,615.451623 L1832.69666,617.377623 L1779.24766,640.490623 L1759.02366,652.528623 L1554.37766,553.335623 L1296.28266,569.225623 L1074.30166,574.040623 L1033.85366,545.149623 L1024.22366,492.182623 Z" id="Fill-3" fill="#233338"></path>
                        <path d="M1000.07766,642.676162 L1000.93093,596.06713 L1063.76866,557.395162 L1142.57266,525.010162 L1310.43666,570.889162 L1317.99266,641.057162 L1293.16366,669.124162 L1293.70366,675.601162 L1276.97166,715.543162 L1232.71166,709.066162 L1106.40966,704.208162 L1098.31266,696.651162 L1017.34966,658.329162 L1000.07766,642.676162 Z" id="Fill-4" fill="#2C373B"></path>
                        <path d="M1000.71309,596.024987 L1001.84309,582.460987 L1027.25104,564.518433 L1044.00814,584.298293 L1027.25104,597.749349 L1000.71309,596.024987 Z" id="Fill-5" fill="#425C59"></path>
                        <path d="M1041.31874,587.8541 L1026.24774,565.2471 L1041.31874,526.8161 L1082.01074,548.6691 L1078.61974,568.2621 L1071.08374,582.9561 L1041.31874,587.8541 Z" id="Fill-6" fill="#273236"></path>
                        <path d="M1026.552,597.711398 L1036.93825,581.531958 L1072.02752,581.531958 L1065.36,611.652398 L1034.464,618.434398 L1026.552,597.711398 Z" id="Fill-7" fill="#14272E"></path>
                        <path d="M2716.85247,793.091423 L2103.391,624.002 L2100,619.104 L2125.621,578.035 L2163.298,506.824 L2166.689,495.144 L2176.486,491 L2299.315,541.865 L2376.08801,541.865002 L2602.11395,581.713768 L2791.33081,628.507996 L2810.06866,818.78476 L2716.85247,793.091423 Z" id="Fill-10" fill="#343F41"></path>
                        <path d="M1958,460.687 L1975.833,442.14 L2002.227,440 L2007.22,444.994 L1976.547,481.374 L1958,460.687 Z" id="Fill-344" fill="#1A2A2F"></path>
                        <path d="M1853,629.517 L1871.085,582.42 L1894.822,573 L1905.372,611.808 L1874.476,625.749 L1853,629.517 Z" id="Fill-346" fill="#1E2E33"></path>
                        <path d="M1884,577.32 L1896.434,553.583 L1930.72,485.763 L1958.979,464.287 L2028.86113,432.048128 L2065.983,440.173 L2160.554,478.604 L2168.466,497.82 L2106.675,611.983 L2094.241,617.258 L2062.215,622.533 L2026.422,632.329 L1992.135,646.647 L1884,603.318 L1884,577.32 Z" id="Fill-9" fill="#122227"></path>
                    </g>
                </g>
            </g>
        </g>
    </g>
</svg>