<?xml version="1.0" encoding="UTF-8" standalone="no"?>
<svg width="3000px" height="610px" viewBox="0 0 3000 610" version="1.1" xmlns="http://www.w3.org/2000/svg" xmlns:xlink="http://www.w3.org/1999/xlink">
    <!-- Generator: Sketch 3.6.1 (26313) - http://www.bohemiancoding.com/sketch -->
    <title>footer-stone</title>
    <desc>Created with Sketch.</desc>
    <defs></defs>
    <g id="Page-1" stroke="none" stroke-width="1" fill="none" fill-rule="evenodd">
        <g id="site" transform="translate(0.000000, -2656.000000)">
            <g id="FooterStone" transform="translate(0.000000, 2656.000000)">
                <g transform="translate(417.000000, 88.000000)">
                    <path d="M823.3794,305.7602 L464.3724,306.2162 L358.6474,316.5142 L141.2894,324.9042 L128.2654,332.2842 L0.0004,574.0912 L24.7504,658.5062 L118.9124,702.0122 L627.4234,678.2632 L1218.1414,634.1122 L1692.1824,778.7392 L1737.9254,757.9372 L1859.2544,716.9432 L1896.6784,712.6672 L1967.6564,686.4232 L2087.5974,601.3272 L2174.6904,455.3052 L2149.6084,430.5362 L1961.8604,396.9452 L1450.9224,308.4702 L1441.0634,311.1032 L1432.0154,304.4172 L1024.8564,249.0762 L823.3794,305.7602 Z" id="Fill-1" fill="#213136"></path>
                    <path d="M155.0854,418.2283 L278.3304,273.6243 L451.6704,265.7773 L493.0434,422.7103 L399.5964,471.9303 L321.8434,470.5033 L308.2904,464.7973 L155.0854,418.2283 Z" id="Fill-2" fill="#162329"></path>
                    <path d="M423.1554,322.6795 L482.3824,174.8525 L488.1604,170.5195 L583.0204,169.5565 L629.2464,165.2225 L785.7404,171.9635 L874.3404,140.6645 L1051.0574,183.0385 L1054.9104,187.3725 L1059.2434,185.9275 L1280.7434,250.9335 L1362.1204,275.4905 L1372.7134,291.3805 L1332.7474,380.4615 L1279.2984,431.0215 L1247.9994,445.9485 L1231.6284,447.8745 L1178.1794,470.9875 L1157.9554,483.0255 L953.3094,383.8325 L695.2144,399.7225 L473.2334,404.5375 L432.7854,375.6465 L423.1554,322.6795 Z" id="Fill-3" fill="#233338"></path>
                    <path d="M387.7985,471.6149 L451.4895,386.3339 L530.2935,353.9489 L698.1575,399.8279 L705.7135,469.9959 L680.8845,498.0629 L681.4245,504.5399 L664.6925,544.4819 L620.4325,538.0049 L494.1305,533.1469 L486.0335,525.5899 L405.0705,487.2679 L387.7985,471.6149 Z" id="Fill-4" fill="#2C373B"></path>
                    <path d="M386.3334,424.942 L387.4634,411.378 L419.8664,394.046 L436.4444,419.29 L420.2434,435.869 L386.3334,424.942 Z" id="Fill-5" fill="#425C59"></path>
                    <path d="M428.9092,418.16 L413.8382,395.553 L428.9092,357.122 L469.6012,378.975 L466.2102,398.568 L458.6742,413.262 L428.9092,418.16 Z" id="Fill-6" fill="#273236"></path>
                    <path d="M411.2007,427.9562 L428.1557,414.0152 L458.6747,413.2622 L450.0087,441.8972 L419.1127,448.6792 L411.2007,427.9562 Z" id="Fill-7" fill="#14272E"></path>
                    <path d="M345.6415,473.1694 L341.8735,467.8944 L348.6555,448.3024 L372.7695,445.2884 L373.5235,449.0554 L372.7695,466.3874 L370.5085,472.7924 L345.6415,473.1694 Z" id="Fill-8" fill="#425C59"></path>
                    <path d="M1311.3206,383.8733 L1323.7546,360.1363 L1358.0406,292.3163 L1386.2996,270.8403 L1446.5836,243.3353 L1454.1186,236.5533 L1493.3036,246.7263 L1587.8746,285.1573 L1595.7866,304.3733 L1533.9956,418.5363 L1521.5616,423.8113 L1489.5356,429.0863 L1453.7426,438.8823 L1419.4556,453.2003 L1311.3206,409.8713 L1311.3206,383.8733 Z" id="Fill-9" fill="#122227"></path>
                    <path d="M1527.9672,423.4349 L1524.5762,418.5369 L1550.1972,377.4679 L1587.8742,306.2569 L1591.2652,294.5769 L1601.0622,290.4329 L1723.8912,341.2979 L1769.4812,359.7599 L1910.0192,389.1479 L1835.7942,460.3589 L1697.8932,465.2569 L1527.9672,423.4349 Z" id="Fill-10" fill="#343F41"></path>
                    <path d="M1352.6086,283.6106 L1370.4416,265.0636 L1396.8356,262.9236 L1401.8286,267.9176 L1371.1556,304.2976 L1352.6086,283.6106 Z" id="Fill-344" fill="#1A2A2F"></path>
                    <path d="M1272.8893,434.3614 L1290.9743,387.2644 L1314.7113,377.8444 L1325.2613,416.6524 L1294.3653,430.5934 L1272.8893,434.3614 Z" id="Fill-346" fill="#1E2E33"></path>
                    <g id="lavanda" transform="translate(0.000000, 0.739000)">
                        <path d="M446.9945,0.7059 C446.9945,0.7059 450.3855,13.8929 450.3855,19.5449 C450.3855,25.1959 448.8785,48.1799 450.7625,62.8739 C452.6465,77.5679 458.6745,99.4219 454.1535,125.0419 C449.6315,150.6629 444.3575,158.9519 444.3575,186.8339 C444.3575,214.7149 446.2405,269.7249 446.2405,269.7249 C446.2405,269.7249 431.5465,229.7859 431.1695,204.9189 C430.7935,180.0519 432.3005,182.3119 432.3005,171.0089 C432.3005,159.7059 429.6625,160.0829 429.6625,151.4169 C429.6625,142.7509 434.9375,115.9999 434.9375,115.9999" id="Stroke-11" stroke="#798847"></path>
                        <path d="M459.0514,220.3668 C466.2104,210.5708 492.5844,210.1938 498.9894,213.5848 C505.3954,216.9758 508.7864,259.9288 503.8874,266.3338 C498.9894,272.7388 493.7144,271.9848 493.7144,271.9848 C493.7144,271.9848 500.4964,267.0868 501.6274,262.1888 C502.7574,257.2908 505.0184,221.8738 498.2364,215.8458 C491.4544,209.8168 465.0794,216.9758 460.9354,222.6278 C456.7904,228.2788 446.2414,269.7248 446.2414,269.7248 C446.2414,269.7248 451.8924,230.1628 459.0514,220.3668" id="Fill-13" fill="#798847"></path>
                        <path d="M481.658,108.4641 C481.658,108.4641 457.544,149.5331 453.777,160.0821 C450.009,170.6321 449.632,228.6561 448.125,241.8431 C446.618,255.0301 446.241,269.7241 446.241,269.7241" id="Stroke-15" stroke="#798847"></path>
                    </g>
                </g>
                <g id="Payment" transform="translate(1079.063663, 172.381422)">
                    <g transform="translate(21.000000, 144.000000)">
                        <g id="footer" transform="translate(0.000000, 243.630561)">
                            <text id="Сайт-сделал-Иван-Дианов-в-Школе-стажёров" font-family="HelveticaNeue, Helvetica Neue" font-size="12.6316388" font-weight="normal" fill="#FFFFFF">
                                <tspan x="425.00178" y="14.7528147">Сайт сделал Иван Дианов в Школе стажёров</tspan>
                            </text>
                            <text id="Оферта-курса" font-family="HelveticaNeue, Helvetica Neue" font-size="14.8608242" font-weight="normal" fill="#FFFFFF">
                                <tspan x="0.0739684623" y="14.156336">Оферта курса</tspan>
                            </text>
                            <path id="Stroke-358" stroke="#FFFFFF" d="M0.0741332027,23.2436731 L99.0600803,23.2436731 L0.0741332027,23.2436731 L0.0741332027,23.2436731 Z"></path>
                            <text id="Школе-стажёров" font-family="HelveticaNeue, Helvetica Neue" font-size="12.6316388" font-weight="normal" fill="#FFFFFF">
                                <tspan x="594.478518" y="14.7528147">Школе стажёров</tspan>
                            </text>
                            <path id="Stroke-359" stroke="#FFFFFF" d="M594.478683,21.1910041 L696.199322,21.1910041 L594.478683,21.1910041 L594.478683,21.1910041 Z"></path>
                            <text id="Иван-Дианов" font-family="HelveticaNeue, Helvetica Neue" font-size="12.6316388" font-weight="normal" fill="#FFFFFF">
                                <tspan x="502.828793" y="14.7528147">Иван Дианов</tspan>
                            </text>
                            <path id="Stroke-360" stroke="#FFFFFF" d="M502.828875,21.1910041 L580.525414,21.1910041 L502.828875,21.1910041 L502.828875,21.1910041 Z"></path>
                        </g>
                        <text id="во-«Вконтакте»" font-family="HelveticaNeue, Helvetica Neue" font-size="12.6316388" font-weight="normal" fill="#425A4D">
                            <tspan x="539.687904" y="100.183535">во «Вконтакте»</tspan>
                        </text>
                        <path id="Stroke-353" stroke="#425A4D" d="M539.687986,106.621724 L630.495394,106.621724 L539.687986,106.621724 L539.687986,106.621724 Z"></path>
                        <text id="Или-спросите" font-family="HelveticaNeue, Helvetica Neue" font-size="12.6316388" font-weight="normal" fill="#425A4D">
                            <tspan x="539.687904" y="83.7469425">Или спросите</tspan>
                        </text>
                        <path id="Stroke-355" stroke="#425A4D" d="M539.687986,90.1847201 L621.717199,90.1847201 L539.687986,90.1847201 L539.687986,90.1847201 Z"></path>
                        <text id="Мы-берём-предоплату-" font-family="Helvetica" font-size="14.8858287" font-weight="normal" fill="#FFFFFF">
                            <tspan x="0.862333888" y="145.890529">Мы берём предоплату 5000 </tspan>
                            <tspan x="198.826412" y="145.890529" font-family=".HelveticaNeueDeskInterface-Regular, .Helvetica Neue DeskInterface">₽</tspan>
                            <tspan x="207.23751" y="145.890529">. Перед оплатой оставьте заявку и дождитесь подтверждения. Если места </tspan>
                            <tspan x="0.862333888" y="162.890529">остались, мы пришлём номера карты Сбербанка и Яндекс Денег.</tspan>
                            <tspan x="0.862333888" y="185.890529">Сделаем скидку 1000 </tspan>
                            <tspan x="158.355565" y="185.890529" font-family=".HelveticaNeueDeskInterface-Regular, .Helvetica Neue DeskInterface">₽</tspan>
                            <tspan x="166.766663" y="185.890529">, если отправите предоплату до 20 октября.</tspan>
                        </text>
                        <g id="form" transform="translate(2.471107, 68.160604)">
                            <path d="M0.571649363,44.3008093 L288.374864,44.3008093 L288.374864,0.467919884 L0.571649363,0.467919884 L0.571649363,44.3008093 Z" id="Fill-349" fill="#FFFFFF"></path>
                            <path d="M294.669596,44.2299623 L482.643393,44.2299623 L482.643393,0.468743687 L294.669596,0.468743687 L294.669596,44.2299623 Z" id="Fill-351" fill="#FF604D"></path>
                            <text id="your@mail.com" font-family="HelveticaNeue, Helvetica Neue" font-size="14.8608242" font-weight="normal" fill="#000000">
                                <tspan x="11.5318315" y="26.3570392">your@mail.com</tspan>
                            </text>
                        </g>
                        <path d="M24.3795621,25.4850945 L24.3795621,8.6552298 L18.9553673,4.12268344 L7.92121755,4.12268344 L2.49702274,8.6552298 L2.49702274,25.4850945 L8.10697765,30.1290969 L18.7324552,30.1290969 C20.6272082,28.6058642 22.4848091,27.0083273 24.3795621,25.4850945 L24.3795621,25.4850945 Z M15.7231416,10.5499828 L16.7262461,11.3301752 L16.7262461,22.8844532 L15.6859896,23.7389496 L11.1905953,23.7389496 L10.1503387,22.8844532 L10.1503387,11.3301752 L11.1534432,10.5499828 L15.7231416,10.5499828 Z M38.1629613,9.8069424 L44.4416525,9.8069424 L44.4416525,23.7389496 L42.7698117,24.48199 L42.7698117,30.1290969 L54.992826,30.1290969 L54.992826,24.48199 L52.1692725,23.7389496 L52.1692725,10.5499828 L54.992826,9.8069424 L54.992826,4.12268344 L27.6489398,4.12268344 L27.6489398,9.8069424 L30.4724933,10.5499828 L30.4724933,23.7389496 L27.6489398,24.48199 L27.6489398,30.1290969 L39.8719541,30.1290969 L39.8719541,24.48199 L38.1629613,23.7389496 L38.1629613,9.8069424 Z M83.7113369,30.1290969 L83.7113369,24.48199 L80.8877834,23.7389496 L80.8877834,10.5499828 L82.9682965,9.8069424 L82.9682965,4.12268344 L66.2870399,4.12268344 L60.3055648,9.10105403 L60.3055648,23.7389496 L57.4820113,24.48199 L57.4820113,30.1290969 L62.0145576,30.1290969 L67.9960328,25.1507264 L68.0331848,11.4044792 L69.1105933,10.5499828 L73.1601634,10.5499828 L73.1601634,23.7389496 L70.33661,24.48199 L70.33661,30.1290969 L83.7113369,30.1290969 Z M111.649655,24.444838 L108.826102,23.7017976 L108.826102,8.35801364 L103.773427,4.12268344 L92.4049094,4.12268344 L87.3522348,8.35801364 L87.3522348,13.2620802 L94.2996624,13.2620802 L95.0427028,10.5499828 L100.206833,10.5499828 L101.172786,11.2930232 L101.172786,13.7822085 L91.4018049,15.3054413 L87.0550187,18.686275 L87.0550187,25.7451587 L92.3677574,30.1290969 L99.7981613,30.1290969 L102.250195,28.0857359 L102.993235,30.1290969 L111.649655,30.1290969 L111.649655,24.444838 Z M95.488527,20.9525482 L101.172786,19.6522275 L101.172786,22.9587572 L100.206833,23.7389496 L95.7114391,23.7389496 L94.7826387,22.9587572 L94.7826387,21.5841325 L95.488527,20.9525482 Z M138.882086,14.859617 L138.882086,4.12268344 L113.02428,4.12268344 L113.02428,14.859617 L118.522779,14.859617 L119.265819,10.1413106 L122.126525,10.1413106 L122.126525,23.7389496 L118.968603,24.48199 L118.968603,30.1290969 L133.012067,30.1290969 L133.012067,24.48199 L129.816993,23.7389496 L129.816993,10.1413106 L132.677698,10.1413106 L133.420739,14.859617 L138.882086,14.859617 Z M166.040212,24.444838 L163.216658,23.7017976 L163.216658,8.35801364 L158.163984,4.12268344 L146.795466,4.12268344 L141.742791,8.35801364 L141.742791,13.2620802 L148.690219,13.2620802 L149.433259,10.5499828 L154.59739,10.5499828 L155.563342,11.2930232 L155.563342,13.7822085 L145.792361,15.3054413 L141.445575,18.686275 L141.445575,25.7451587 L146.758314,30.1290969 L154.188718,30.1290969 L156.640751,28.0857359 L157.383791,30.1290969 L166.040212,30.1290969 L166.040212,24.444838 Z M149.879083,20.9525482 L155.563342,19.6522275 L155.563342,22.9587572 L154.59739,23.7389496 L150.101995,23.7389496 L149.173195,22.9587572 L149.173195,21.5841325 L149.879083,20.9525482 Z" id="Оплата" fill="#FFFFFF"></path>
                    </g>
                </g>
            </g>
        </g>
    </g>
</svg>