<svg xmlns="http://www.w3.org/2000/svg" xmlns:xlink="http://www.w3.org/1999/xlink" viewBox="0 0 3333.7 1789.6" enable-background="new 0 0 3333.7 1789.6"><symbol id="h" viewBox="-1.8 -1.8 3.6 3.6"><path fill="#AE9BCC" d="M1.8 0C1.8-1 1-1.8 0-1.8S-1.8-1-1.8 0-1 1.8 0 1.8 1.8 1 1.8 0z"/></symbol><symbol id="a" viewBox="-2.6 -1.4 5.2 2.7"><path fill="#7A826B" d="M-2.6 1.1c.3.1.7.1 1 .1.3 0 .7-.2 1-.4.4-.4.6-.9.7-1.4 0 .2.1.4.1.6l.3.6c0 .1.1.2.2.3.1.1.2.1.3.1.2.1.4.2.5.2.2.1.4.1.6.1s.4-.1.5-.3c-.3.1-.6 0-.9-.2C1.4.7 1.2.7.9.5.8.4.6-.1.6-.2.4-.4.6-.8.5-1c0-.2-.1-.3-.3-.4l-.3.9c0 .2-.1.3-.2.4-.2.4-.7.5-1 .8l-.6.3c-.2.1-.5.2-.7.1z"/></symbol><path fill="#AAB2AB" d="M817.5 1020.1l43.9-23.2 31 2.5 19 18.1 22.3 20.7 43.5-38.1 72.8 20 49 33.4 60-7.8 84.7-15.3 33.5-15.5 56.8 12.9 49.1 5.2h56.8l192.7-5.6 118.5-5.9 85.4-21.1 55.9-2.2 69.4 5.4 3.7 28 61.7-12.7 70.8-.1 65.5 23.6 76.1-10.5 119.8-4.1 61.9 54.3-18 789.5-1598.7-51.7"/><path fill="#AAB2AB" d="M1036.8 1017.7s-17.7-11.9-24.6-32.4h13.7l-.1-.1h.1c-.7-.7-1.4-2-1.4-2l-.1-.1h.1s-2.8-2.2-6.2-6.2c-3.8-4.9-6.4-9.5-8.1-13.3-1.3-3-2.3-6.2-3-9.8h8.4l.9-.7s-2.3-4.4-5.2-10.3c-.3-.7-.6-1.5-1-2.2l-9.6-23.6c-.1-.5-.3-1-.4-1.5l-.1.3-.1-.3c-.1.5-.3 1-.4 1.5l-9.6 23.6c-.4.8-.7 1.5-1 2.2-2.9 6-5.2 10.3-5.2 10.3H985.1l8.1.7c-.7 3.5-1.7 6.8-3 9.8-1.7 3.8-4.3 8.4-8.1 13.3-3.4 4.1-6.2 6.2-6.2 6.2h.1l-.1.1s-.7 1.3-1.4 2h.1l-.1.1h13.7c-7 20.5-24.6 32.4-24.6 32.4l2.5.2c-.8.6 31.7 2.1 33.7 2.2H1000.6c2-.1 34.5-1.6 33.7-2.2l2.5-.2zM913.9 1017.3s-17.7-11.9-24.6-32.4H903l-.1-.1h.1c-.7-.7-1.4-2-1.4-2l-.1-.1h.1s-2.8-2.2-6.2-6.2c-3.8-4.9-6.4-9.5-8.1-13.3-1.3-3-2.3-6.2-3-9.8h8.4l.9-.7s-2.3-4.4-5.2-10.3c-.3-.7-.6-1.5-1-2.2l-9.6-23.6c-.1-.5-.3-1-.4-1.5l-.1.3-.1-.3c-.1.5-.3 1-.4 1.5l-9.6 23.6c-.4.8-.7 1.5-1 2.2-2.9 6-5.2 10.3-5.2 10.3H862.2l8.1.7c-.7 3.5-1.7 6.8-3 9.8-1.7 3.8-4.3 8.4-8.1 13.3-3.4 4.1-6.2 6.2-6.2 6.2h.1l-.1.1s-.7 1.3-1.4 2h.1l-.1.1h13.7c-7 20.5-24.6 32.4-24.6 32.4l2.5.2c-.8.6 31.7 2.1 33.7 2.2H877.7c2-.1 34.5-1.6 33.7-2.2l2.5-.2z"/><path fill="#AAB2AB" d="M994.8 1041.1s-17.7-11.9-24.6-32.4h13.7l-.1-.1h.1c-.7-.7-1.4-2-1.4-2l-.1-.1h.1s-2.8-2.2-6.2-6.2c-3.8-4.9-6.4-9.5-8.1-13.3-1.3-3-2.3-6.2-3-9.8h8.4l.9-.7s-2.3-4.4-5.2-10.3c-.3-.7-.6-1.5-1-2.2l-9.6-23.6c-.1-.5-.3-1-.4-1.5l-.1.3-.1-.3c-.1.5-.3 1-.4 1.5l-9.6 23.6c-.4.8-.7 1.5-1 2.2-2.9 6-5.2 10.3-5.2 10.3H943.1l8.1.7c-.7 3.5-1.7 6.8-3 9.8-1.7 3.8-4.3 8.4-8.1 13.3-3.4 4.1-6.2 6.2-6.2 6.2h.1l-.1.1s-.7 1.3-1.4 2h.1l-.1.1h13.7c-7 20.5-24.6 32.4-24.6 32.4l2.5.2c-.8.6 31.7 2.1 33.7 2.2H958.6c2-.1 34.5-1.6 33.7-2.2l2.5-.2zM1102.8 1041s-17.7-11.9-24.6-32.4h13.7l-.1-.1h.1c-.7-.7-1.4-2-1.4-2l-.1-.1h.1s-2.8-2.2-6.2-6.2c-3.8-4.9-6.4-9.5-8.1-13.3-1.3-3-2.3-6.2-3-9.8h8.4l.9-.7s-2.3-4.4-5.2-10.3c-.3-.7-.6-1.5-1-2.2l-9.6-23.6c-.1-.5-.3-1-.4-1.5l-.1.3-.1-.3c-.1.5-.3 1-.4 1.5l-9.6 23.6c-.4.8-.7 1.5-1 2.2-2.9 6-5.2 10.3-5.2 10.3H1051.1l8.1.7c-.7 3.5-1.7 6.8-3 9.8-1.7 3.8-4.3 8.4-8.1 13.3-3.4 4.1-6.2 6.2-6.2 6.2h.1l-.1.1s-.7 1.3-1.4 2h.1l-.1.1h13.7c-7 20.5-24.6 32.4-24.6 32.4l2.5.2c-.8.6 31.7 2.1 33.7 2.2H1066.6c2-.1 34.5-1.6 33.7-2.2l2.5-.2z"/><path fill="#AAB2AB" d="M1151.8 1052.5s-17.7-11.9-24.6-32.4h13.7l-.1-.1h.1c-.7-.7-1.4-2-1.4-2l-.1-.1h.1s-2.8-2.2-6.2-6.2c-3.8-4.9-6.4-9.5-8.1-13.3-1.3-3-2.3-6.2-3-9.8h8.4l.9-.7s-2.3-4.4-5.2-10.3c-.3-.7-.6-1.5-1-2.2l-9.6-23.6c-.1-.5-.3-1-.4-1.5l-.1.3-.1-.3c-.1.5-.3 1-.4 1.5l-9.6 23.6c-.4.8-.7 1.5-1 2.2-2.9 6-5.2 10.3-5.2 10.3H1100.1l8.1.7c-.7 3.5-1.7 6.8-3 9.8-1.7 3.8-4.3 8.4-8.1 13.3-3.4 4.1-6.2 6.2-6.2 6.2h.1l-.1.1s-.7 1.3-1.4 2h.1l-.1.1h13.7c-7 20.5-24.6 32.4-24.6 32.4l2.5.2c-.8.6 31.7 2.1 33.7 2.2H1115.6c2-.1 34.5-1.6 33.7-2.2l2.5-.2zM1252 1019.1s-17.7-11.9-24.6-32.4h13.7l-.1-.1h.1c-.7-.7-1.4-2-1.4-2l-.1-.1h.1s-2.8-2.2-6.2-6.2c-3.8-4.9-6.4-9.5-8.1-13.3-1.3-3-2.3-6.2-3-9.8h8.4l.9-.7s-2.3-4.4-5.2-10.3c-.3-.7-.6-1.5-1-2.2l-9.6-23.6c-.1-.5-.3-1-.4-1.5l-.1.3-.1-.3c-.1.5-.3 1-.4 1.5l-9.6 23.6c-.4.8-.7 1.5-1 2.2-2.9 6-5.2 10.3-5.2 10.3H1200.3l8.1.7c-.7 3.5-1.7 6.8-3 9.8-1.7 3.8-4.3 8.4-8.1 13.3-3.4 4.1-6.2 6.2-6.2 6.2h.1l-.1.1s-.7 1.3-1.4 2h.1l-.1.1h13.7c-7 20.5-24.6 32.4-24.6 32.4l2.5.2c-.8.6 31.7 2.1 33.7 2.2H1215.8c2-.1 34.5-1.6 33.7-2.2l2.5-.2z"/><path fill="#AAB2AB" d="M1196.1 1043.4s-17.7-11.9-24.6-32.4h13.7l-.1-.1h.1c-.7-.7-1.4-2-1.4-2l-.1-.1h.1s-2.8-2.2-6.2-6.2c-3.8-4.9-6.4-9.5-8.1-13.3-1.3-3-2.3-6.2-3-9.8h8.4l.9-.7s-2.3-4.4-5.2-10.3c-.3-.7-.6-1.5-1-2.2l-9.6-23.6c-.1-.5-.3-1-.4-1.5l-.1.3-.1-.3c-.1.5-.3 1-.4 1.5l-9.6 23.6c-.4.8-.7 1.5-1 2.2-2.9 6-5.2 10.3-5.2 10.3H1144.4l8.1.7c-.7 3.5-1.7 6.8-3 9.8-1.7 3.8-4.3 8.4-8.1 13.3-3.4 4.1-6.2 6.2-6.2 6.2h.1l-.1.1s-.7 1.3-1.4 2h.1l-.1.1h13.7c-7 20.5-24.6 32.4-24.6 32.4l2.5.2c-.8.6 31.7 2.1 33.7 2.2H1159.9c2-.1 34.5-1.6 33.7-2.2l2.5-.2s-.1 0 0 0zM1023.8 1054.1s-17.7-11.9-24.6-32.4h13.7l-.1-.1h.1c-.7-.7-1.4-2-1.4-2l-.1-.1h.1s-2.8-2.2-6.2-6.2c-3.8-4.9-6.4-9.5-8.1-13.3-1.3-3-2.3-6.2-3-9.8h8.4l.9-.7s-2.3-4.4-5.2-10.3c-.3-.7-.6-1.5-1-2.2l-9.6-23.6c-.1-.5-.3-1-.4-1.5l-.1.3-.1-.3c-.1.5-.3 1-.4 1.5l-9.6 23.6c-.4.8-.7 1.5-1 2.2-2.9 6-5.2 10.3-5.2 10.3H972.1l8.1.7c-.7 3.5-1.7 6.8-3 9.8-1.7 3.8-4.3 8.4-8.1 13.3-3.4 4.1-6.2 6.2-6.2 6.2h.1l-.1.1s-.7 1.3-1.4 2h.1l-.1.1h13.7c-7 20.5-24.6 32.4-24.6 32.4l2.5.2c-.8.6 31.7 2.1 33.7 2.2H987.6c2-.1 34.5-1.6 33.7-2.2l2.5-.2z"/><path fill="#AAB2AB" d="M1169.8 1053.3s-17.7-11.9-24.6-32.4h13.7l-.1-.1h.1c-.7-.7-1.4-2-1.4-2l-.1-.1h.1s-2.8-2.2-6.2-6.2c-3.8-4.9-6.4-9.5-8.1-13.3-1.3-3-2.3-6.2-3-9.8h8.4l.9-.7s-2.3-4.4-5.2-10.3c-.3-.7-.6-1.5-1-2.2l-9.6-23.6c-.1-.5-.3-1-.4-1.5l-.1.3-.1-.3c-.1.5-.3 1-.4 1.5l-9.6 23.6c-.4.8-.7 1.5-1 2.2-2.9 6-5.2 10.3-5.2 10.3H1118.1l8.1.7c-.7 3.5-1.7 6.8-3 9.8-1.7 3.8-4.3 8.4-8.1 13.3-3.4 4.1-6.2 6.2-6.2 6.2h.1l-.1.1s-.7 1.3-1.4 2h.1l-.1.1h13.7c-7 20.5-24.6 32.4-24.6 32.4l2.5.2c-.8.6 31.7 2.1 33.7 2.2H1133.6c2-.1 34.5-1.6 33.7-2.2l2.5-.2zM1405.9 1056.2s-17.7-11.9-24.6-32.4h13.7l-.1-.1h.1c-.7-.7-1.4-2-1.4-2l-.1-.1h.1s-2.8-2.2-6.2-6.2c-3.8-4.9-6.4-9.5-8.1-13.3-1.3-3-2.3-6.2-3-9.8h8.4l.9-.7s-2.3-4.4-5.2-10.3c-.3-.7-.6-1.5-1-2.2l-9.6-23.6c-.1-.5-.3-1-.4-1.5l-.1.3-.1-.3c-.1.5-.3 1-.4 1.5l-9.6 23.6c-.4.8-.7 1.5-1 2.2-2.9 6-5.2 10.3-5.2 10.3H1354.2l8.1.7c-.7 3.5-1.7 6.8-3 9.8-1.7 3.8-4.3 8.4-8.1 13.3-3.4 4.1-6.2 6.2-6.2 6.2h.1l-.1.1s-.7 1.3-1.4 2h.1l-.1.1h13.7c-7 20.5-24.6 32.4-24.6 32.4l2.5.2c-.8.6 31.7 2.1 33.7 2.2H1369.7c2-.1 34.5-1.6 33.7-2.2l2.5-.2zM1289.7 1026.8s-17.7-11.9-24.6-32.4h13.7l-.1-.1h.1c-.7-.7-1.4-2-1.4-2l-.1-.1h.1s-2.8-2.2-6.2-6.2c-3.8-4.9-6.4-9.5-8.1-13.3-1.3-3-2.3-6.2-3-9.8h8.4l.9-.7s-2.3-4.4-5.2-10.3c-.3-.7-.6-1.5-1-2.2l-9.6-23.6c-.1-.5-.3-1-.4-1.5l-.1.3-.1-.3c-.1.5-.3 1-.4 1.5l-9.6 23.6c-.4.8-.7 1.5-1 2.2-2.9 6-5.2 10.3-5.2 10.3H1238l8.1.7c-.7 3.5-1.7 6.8-3 9.8-1.7 3.8-4.3 8.4-8.1 13.3-3.4 4.1-6.2 6.2-6.2 6.2h.1l-.1.1s-.7 1.3-1.4 2h.1l-.1.1h13.7c-7 20.5-24.6 32.4-24.6 32.4l2.5.2c-.8.6 31.7 2.1 33.7 2.2H1253.5c2-.1 34.5-1.6 33.7-2.2l2.5-.2z"/><path fill="#AAB2AB" d="M1264.1 1038.9s-17.7-11.9-24.6-32.4h13.7l-.1-.1h.1c-.7-.7-1.4-2-1.4-2l-.1-.1h.1s-2.8-2.2-6.2-6.2c-3.8-4.9-6.4-9.5-8.1-13.3-1.3-3-2.3-6.2-3-9.8h8.4l.9-.7s-2.3-4.4-5.2-10.3c-.3-.7-.6-1.5-1-2.2l-9.6-23.6c-.1-.5-.3-1-.4-1.5l-.1.3-.1-.3c-.1.5-.3 1-.4 1.5l-9.6 23.6c-.4.8-.7 1.5-1 2.2-2.9 6-5.2 10.3-5.2 10.3H1212.4l8.1.7c-.7 3.5-1.7 6.8-3 9.8-1.7 3.8-4.3 8.4-8.1 13.3-3.4 4.1-6.2 6.2-6.2 6.2h.1l-.1.1s-.7 1.3-1.4 2h.1l-.1.1h13.7c-7 20.5-24.6 32.4-24.6 32.4l2.5.2c-.8.6 31.7 2.1 33.7 2.2H1227.9c2-.1 34.5-1.6 33.7-2.2l2.5-.2zM1402.4 1039.9s-17.7-11.9-24.6-32.4h13.7l-.1-.1h.1c-.7-.7-1.4-2-1.4-2l-.1-.1h.1s-2.8-2.2-6.2-6.2c-3.8-4.9-6.4-9.5-8.1-13.3-1.3-3-2.3-6.2-3-9.8h8.4l.9-.7s-2.3-4.4-5.2-10.3c-.3-.7-.6-1.5-1-2.2l-9.6-23.6c-.1-.5-.3-1-.4-1.5l-.1.3-.1-.3c-.1.5-.3 1-.4 1.5l-9.6 23.6c-.4.8-.7 1.5-1 2.2-2.9 6-5.2 10.3-5.2 10.3H1350.7l8.1.7c-.7 3.5-1.7 6.8-3 9.8-1.7 3.8-4.3 8.4-8.1 13.3-3.4 4.1-6.2 6.2-6.2 6.2h.1l-.1.1s-.7 1.3-1.4 2h.1l-.1.1h13.7c-7 20.5-24.6 32.4-24.6 32.4l2.5.2c-.8.6 31.7 2.1 33.7 2.2H1366.2c2-.1 34.5-1.6 33.7-2.2l2.5-.2s-.1 0 0 0z"/><path fill="#AAB2AB" d="M1353.7 1039.5s-17.7-11.9-24.6-32.4h13.7l-.1-.1h.1c-.7-.7-1.4-2-1.4-2l-.1-.1h.1s-2.8-2.2-6.2-6.2c-3.8-4.9-6.4-9.5-8.1-13.3-1.3-3-2.3-6.2-3-9.8h8.4l.9-.7s-2.3-4.4-5.2-10.3c-.3-.7-.6-1.5-1-2.2l-9.6-23.6c-.1-.5-.3-1-.4-1.5l-.1.3-.1-.3c-.1.5-.3 1-.4 1.5l-9.6 23.6c-.4.8-.7 1.5-1 2.2-2.9 6-5.2 10.3-5.2 10.3H1302l8.1.7c-.7 3.5-1.7 6.8-3 9.8-1.7 3.8-4.3 8.4-8.1 13.3-3.4 4.1-6.2 6.2-6.2 6.2h.1l-.1.1s-.7 1.3-1.4 2h.1l-.1.1h13.7c-7 20.5-24.6 32.4-24.6 32.4l2.5.2c-.8.6 31.7 2.1 33.7 2.2H1317.5c2-.1 34.5-1.6 33.7-2.2l2.5-.2z"/><path fill="#AAB2AB" d="M1354.4 1022.9s-17.7-11.9-24.6-32.4h13.7l-.1-.1h.1c-.7-.7-1.4-2-1.4-2l-.1-.1h.1s-2.8-2.2-6.2-6.2c-3.8-4.9-6.4-9.5-8.1-13.3-1.3-3-2.3-6.2-3-9.8h8.4l.9-.7s-2.3-4.4-5.2-10.3c-.3-.7-.6-1.5-1-2.2l-9.6-23.6c-.1-.5-.3-1-.4-1.5l-.1.3-.1-.3c-.1.5-.3 1-.4 1.5l-9.6 23.6c-.4.8-.7 1.5-1 2.2-2.9 6-5.2 10.3-5.2 10.3H1302.7l8.1.7c-.7 3.5-1.7 6.8-3 9.8-1.7 3.8-4.3 8.4-8.1 13.3-3.4 4.1-6.2 6.2-6.2 6.2h.1l-.1.1s-.7 1.3-1.4 2h.1l-.1.1h13.7c-7 20.5-24.6 32.4-24.6 32.4l2.5.2c-.8.6 31.7 2.1 33.7 2.2H1318.2c2-.1 34.5-1.6 33.7-2.2l2.5-.2zM1510.7 1013.3s-17.7-11.9-24.6-32.4h13.7l-.1-.1h.1c-.7-.7-1.4-2-1.4-2l-.1-.1h.1s-2.8-2.2-6.2-6.2c-3.8-4.9-6.4-9.5-8.1-13.3-1.3-3-2.3-6.2-3-9.8h8.4l.9-.7s-2.3-4.4-5.2-10.3c-.3-.7-.6-1.5-1-2.2l-9.6-23.6c-.1-.5-.3-1-.4-1.5l-.1.3-.1-.3c-.1.5-.3 1-.4 1.5l-9.6 23.6c-.4.8-.7 1.5-1 2.2-2.9 6-5.2 10.3-5.2 10.3H1459l8.1.7c-.7 3.5-1.7 6.8-3 9.8-1.7 3.8-4.3 8.4-8.1 13.3-3.4 4.1-6.2 6.2-6.2 6.2h.1l-.1.1s-.7 1.3-1.4 2h.1l-.1.1h13.7c-7 20.5-24.6 32.4-24.6 32.4l2.5.2c-.8.6 31.7 2.1 33.7 2.2H1474.5c2-.1 34.5-1.6 33.7-2.2l2.5-.2z"/><path fill="#AAB2AB" d="M1539.5 1011.2s-17.7-11.9-24.6-32.4h13.7l-.1-.1h.1c-.7-.7-1.4-2-1.4-2l-.1-.1h.1s-2.8-2.2-6.2-6.2c-3.8-4.9-6.4-9.5-8.1-13.3-1.3-3-2.3-6.2-3-9.8h8.4l.9-.7s-2.3-4.4-5.2-10.3c-.3-.7-.6-1.5-1-2.2l-9.6-23.6c-.1-.5-.3-1-.4-1.5l-.1.3-.1-.3c-.1.5-.3 1-.4 1.5l-9.6 23.6c-.4.8-.7 1.5-1 2.2-2.9 6-5.2 10.3-5.2 10.3H1487.8l8.1.7c-.7 3.5-1.7 6.8-3 9.8-1.7 3.8-4.3 8.4-8.1 13.3-3.4 4.1-6.2 6.2-6.2 6.2h.1l-.1.1s-.7 1.3-1.4 2h.1l-.1.1h13.7c-7 20.5-24.6 32.4-24.6 32.4l2.5.2c-.8.6 31.7 2.1 33.7 2.2H1503.3c2-.1 34.5-1.6 33.7-2.2l2.5-.2z"/><path fill="#AAB2AB" d="M1494.4 1032.5s-17.7-11.9-24.6-32.4h13.7l-.1-.1h.1c-.7-.7-1.4-2-1.4-2l-.1-.1h.1s-2.8-2.2-6.2-6.2c-3.8-4.9-6.4-9.5-8.1-13.3-1.3-3-2.3-6.2-3-9.8h8.4l.9-.7s-2.3-4.4-5.2-10.3c-.3-.7-.6-1.5-1-2.2l-9.6-23.6c-.1-.5-.3-1-.4-1.5l-.1.3-.1-.3c-.1.5-.3 1-.4 1.5l-9.6 23.6c-.4.8-.7 1.5-1 2.2-2.9 6-5.2 10.3-5.2 10.3H1442.7l8.1.7c-.7 3.5-1.7 6.8-3 9.8-1.7 3.8-4.3 8.4-8.1 13.3-3.4 4.1-6.2 6.2-6.2 6.2h.1l-.1.1s-.7 1.3-1.4 2h.1l-.1.1h13.7c-7 20.5-24.6 32.4-24.6 32.4l2.5.2c-.8.6 31.7 2.1 33.7 2.2H1458.2c2-.1 34.5-1.6 33.7-2.2l2.5-.2zM1420.6 1046.7s-17.7-11.9-24.6-32.4h13.7l-.1-.1h.1c-.7-.7-1.4-2-1.4-2l-.1-.1h.1s-2.8-2.2-6.2-6.2c-3.8-4.9-6.4-9.5-8.1-13.3-1.3-3-2.3-6.2-3-9.8h8.4l.9-.7s-2.3-4.4-5.2-10.3c-.3-.7-.6-1.5-1-2.2l-9.6-23.6c-.1-.5-.3-1-.4-1.5l-.1.3-.1-.3c-.1.5-.3 1-.4 1.5l-9.6 23.6c-.4.8-.7 1.5-1 2.2-2.9 6-5.2 10.3-5.2 10.3H1368.9l8.1.7c-.7 3.5-1.7 6.8-3 9.8-1.7 3.8-4.3 8.4-8.1 13.3-3.4 4.1-6.2 6.2-6.2 6.2h.1l-.1.1s-.7 1.3-1.4 2h.1l-.1.1h13.7c-7 20.5-24.6 32.4-24.6 32.4l2.5.2c-.8.6 31.7 2.1 33.7 2.2H1384.4c2-.1 34.5-1.6 33.7-2.2l2.5-.2zM1565.1 1060.5s-17.7-11.9-24.6-32.4h13.7l-.1-.1h.1c-.7-.7-1.4-2-1.4-2l-.1-.1h.1s-2.8-2.2-6.2-6.2c-3.8-4.9-6.4-9.5-8.1-13.3-1.3-3-2.3-6.2-3-9.8h8.4l.9-.7s-2.3-4.4-5.2-10.3c-.3-.7-.6-1.5-1-2.2l-9.6-23.6c-.1-.5-.3-1-.4-1.5l-.1.3-.1-.3c-.1.5-.3 1-.4 1.5l-9.6 23.6c-.4.8-.7 1.5-1 2.2-2.9 6-5.2 10.3-5.2 10.3H1513.4l8.1.7c-.7 3.5-1.7 6.8-3 9.8-1.7 3.8-4.3 8.4-8.1 13.3-3.4 4.1-6.2 6.2-6.2 6.2h.1l-.1.1s-.7 1.3-1.4 2h.1l-.1.1h13.7c-7 20.5-24.6 32.4-24.6 32.4l2.5.2c-.8.6 31.7 2.1 33.7 2.2H1528.9c2-.1 34.5-1.6 33.7-2.2l2.5-.2z"/><path fill="#AAB2AB" d="M1605.5 1043.9s-17.7-11.9-24.6-32.4h13.7l-.1-.1h.1c-.7-.7-1.4-2-1.4-2l-.1-.1h.1s-2.8-2.2-6.2-6.2c-3.8-4.9-6.4-9.5-8.1-13.3-1.3-3-2.3-6.2-3-9.8h8.4l.9-.7s-2.3-4.4-5.2-10.3c-.3-.7-.6-1.5-1-2.2l-9.6-23.6c-.1-.5-.3-1-.4-1.5l-.1.3-.1-.3c-.1.5-.3 1-.4 1.5l-9.6 23.6c-.4.8-.7 1.5-1 2.2-2.9 6-5.2 10.3-5.2 10.3H1553.8l8.1.7c-.7 3.5-1.7 6.8-3 9.8-1.7 3.8-4.3 8.4-8.1 13.3-3.4 4.1-6.2 6.2-6.2 6.2h.1l-.1.1s-.7 1.3-1.4 2h.1l-.1.1h13.7c-7 20.5-24.6 32.4-24.6 32.4l2.5.2c-.8.6 31.7 2.1 33.7 2.2H1569.3c2-.1 34.5-1.6 33.7-2.2l2.5-.2s-.1 0 0 0z"/><path fill="#AAB2AB" d="M1541.4 1030.6s-17.7-11.9-24.6-32.4h13.7l-.1-.1h.1c-.7-.7-1.4-2-1.4-2l-.1-.1h.1s-2.8-2.2-6.2-6.2c-3.8-4.9-6.4-9.5-8.1-13.3-1.3-3-2.3-6.2-3-9.8h8.4l.9-.7s-2.3-4.4-5.2-10.3c-.3-.7-.6-1.5-1-2.2l-9.6-23.6c-.1-.5-.3-1-.4-1.5l-.1.3-.1-.3c-.1.5-.3 1-.4 1.5l-9.6 23.6c-.4.8-.7 1.5-1 2.2-2.9 6-5.2 10.3-5.2 10.3H1489.7l8.1.7c-.7 3.5-1.7 6.8-3 9.8-1.7 3.8-4.3 8.4-8.1 13.3-3.4 4.1-6.2 6.2-6.2 6.2h.1l-.1.1s-.7 1.3-1.4 2h.1l-.1.1h13.7c-7 20.5-24.6 32.4-24.6 32.4l2.5.2c-.8.6 31.7 2.1 33.7 2.2H1505.2c2-.1 34.5-1.6 33.7-2.2l2.5-.2c0 .1 0 0 0 0zM1687.4 1068.2s-17.7-11.9-24.6-32.4h13.7l-.1-.1h.1c-.7-.7-1.4-2-1.4-2l-.1-.1h.1s-2.8-2.2-6.2-6.2c-3.8-4.9-6.4-9.5-8.1-13.3-1.3-3-2.3-6.2-3-9.8h8.4l.9-.7s-2.3-4.4-5.2-10.3c-.3-.7-.6-1.5-1-2.2l-9.6-23.6c-.1-.5-.3-1-.4-1.5l-.1.3-.1-.3c-.1.5-.3 1-.4 1.5l-9.6 23.6c-.4.8-.7 1.5-1 2.2-2.9 6-5.2 10.3-5.2 10.3H1635.7l8.1.7c-.7 3.5-1.7 6.8-3 9.8-1.7 3.8-4.3 8.4-8.1 13.3-3.4 4.1-6.2 6.2-6.2 6.2h.1l-.1.1s-.7 1.3-1.4 2h.1l-.1.1h13.7c-7 20.5-24.6 32.4-24.6 32.4l2.5.2c-.8.6 31.7 2.1 33.7 2.2H1651.2c2-.1 34.5-1.6 33.7-2.2l2.5-.2z"/><path fill="#AAB2AB" d="M1612.2 1027.2s-17.7-11.9-24.6-32.4h13.7l-.1-.1h.1c-.7-.7-1.4-2-1.4-2l-.1-.1h.1s-2.8-2.2-6.2-6.2c-3.8-4.9-6.4-9.5-8.1-13.3-1.3-3-2.3-6.2-3-9.8h8.4l.9-.7s-2.3-4.4-5.2-10.3c-.3-.7-.6-1.5-1-2.2l-9.6-23.6c-.1-.5-.3-1-.4-1.5l-.1.3-.1-.3c-.1.5-.3 1-.4 1.5l-9.6 23.6c-.4.8-.7 1.5-1 2.2-2.9 6-5.2 10.3-5.2 10.3H1560.5l8.1.7c-.7 3.5-1.7 6.8-3 9.8-1.7 3.8-4.3 8.4-8.1 13.3-3.4 4.1-6.2 6.2-6.2 6.2h.1l-.1.1s-.7 1.3-1.4 2h.1l-.1.1h13.7c-7 20.5-24.6 32.4-24.6 32.4l2.5.2c-.8.6 31.7 2.1 33.7 2.2H1576c2-.1 34.5-1.6 33.7-2.2l2.5-.2zM1703.2 1050.4s-17.7-11.9-24.6-32.4h13.7l-.1-.1h.1c-.7-.7-1.4-2-1.4-2l-.1-.1h.1s-2.8-2.2-6.2-6.2c-3.8-4.9-6.4-9.5-8.1-13.3-1.3-3-2.3-6.2-3-9.8h8.4l.9-.7s-2.3-4.4-5.2-10.3c-.3-.7-.6-1.5-1-2.2l-9.6-23.6c-.1-.5-.3-1-.4-1.5l-.1.3-.1-.3c-.1.5-.3 1-.4 1.5l-9.6 23.6c-.4.8-.7 1.5-1 2.2-2.9 6-5.2 10.3-5.2 10.3H1651.5l8.1.7c-.7 3.5-1.7 6.8-3 9.8-1.7 3.8-4.3 8.4-8.1 13.3-3.4 4.1-6.2 6.2-6.2 6.2h.1l-.1.1s-.7 1.3-1.4 2h.1l-.1.1h13.7c-7 20.5-24.6 32.4-24.6 32.4l2.5.2c-.8.6 31.7 2.1 33.7 2.2H1667c2-.1 34.5-1.6 33.7-2.2l2.5-.2z"/><path fill="#AAB2AB" d="M1768.8 1033.6s-17.7-11.9-24.6-32.4h13.7l-.1-.1h.1c-.7-.7-1.4-2-1.4-2l-.1-.1h.1s-2.8-2.2-6.2-6.2c-3.8-4.9-6.4-9.5-8.1-13.3-1.3-3-2.3-6.2-3-9.8h8.4l.9-.7s-2.3-4.4-5.2-10.3c-.3-.7-.6-1.5-1-2.2l-9.6-23.6c-.1-.5-.3-1-.4-1.5l-.1.3-.1-.3c-.1.5-.3 1-.4 1.5l-9.6 23.6c-.4.8-.7 1.5-1 2.2-2.9 6-5.2 10.3-5.2 10.3H1717.1l8.1.7c-.7 3.5-1.7 6.8-3 9.8-1.7 3.8-4.3 8.4-8.1 13.3-3.4 4.1-6.2 6.2-6.2 6.2h.1l-.1.1s-.7 1.3-1.4 2h.1l-.1.1h13.7c-7 20.5-24.6 32.4-24.6 32.4l2.5.2c-.8.6 31.7 2.1 33.7 2.2H1732.6c2-.1 34.5-1.6 33.7-2.2l2.5-.2zM1643.3 1039.5s-17.7-11.9-24.6-32.4h13.7l-.1-.1h.1c-.7-.7-1.4-2-1.4-2l-.1-.1h.1s-2.8-2.2-6.2-6.2c-3.8-4.9-6.4-9.5-8.1-13.3-1.3-3-2.3-6.2-3-9.8h8.4l.9-.7s-2.3-4.4-5.2-10.3c-.3-.7-.6-1.5-1-2.2l-9.6-23.6c-.1-.5-.3-1-.4-1.5l-.1.3-.1-.3c-.1.5-.3 1-.4 1.5l-9.6 23.6c-.4.8-.7 1.5-1 2.2-2.9 6-5.2 10.3-5.2 10.3H1591.6l8.1.7c-.7 3.5-1.7 6.8-3 9.8-1.7 3.8-4.3 8.4-8.1 13.3-3.4 4.1-6.2 6.2-6.2 6.2h.1l-.1.1s-.7 1.3-1.4 2h.1l-.1.1h13.7c-7 20.5-24.6 32.4-24.6 32.4l2.5.2c-.8.6 31.7 2.1 33.7 2.2H1607.1c2-.1 34.5-1.6 33.7-2.2l2.5-.2c0 .1 0 0 0 0z"/><path fill="#AAB2AB" d="M1581.1 1005.7s-17.7-11.9-24.6-32.4h13.7l-.1-.1h.1c-.7-.7-1.4-2-1.4-2l-.1-.1h.1s-2.8-2.2-6.2-6.2c-3.8-4.9-6.4-9.5-8.1-13.3-1.3-3-2.3-6.2-3-9.8h8.4l.9-.7s-2.3-4.4-5.2-10.3c-.3-.7-.6-1.5-1-2.2L1545 905c-.1-.5-.3-1-.4-1.5l-.1.3-.1-.3c-.1.5-.3 1-.4 1.5l-9.6 23.6c-.4.8-.7 1.5-1 2.2-2.9 6-5.2 10.3-5.2 10.3H1529.4l8.1.7c-.7 3.5-1.7 6.8-3 9.8-1.7 3.8-4.3 8.4-8.1 13.3-3.4 4.1-6.2 6.2-6.2 6.2h.1l-.1.1s-.7 1.3-1.4 2h.1l-.1.1h13.7c-7 20.5-24.6 32.4-24.6 32.4l2.5.2c-.8.6 31.7 2.1 33.7 2.2H1544.9c2-.1 34.5-1.6 33.7-2.2l2.5-.2zM1683.8 1019.1s-17.7-11.9-24.6-32.4h13.7l-.1-.1h.1c-.7-.7-1.4-2-1.4-2l-.1-.1h.1s-2.8-2.2-6.2-6.2c-3.8-4.9-6.4-9.5-8.1-13.3-1.3-3-2.3-6.2-3-9.8h8.4l.9-.7s-2.3-4.4-5.2-10.3c-.3-.7-.6-1.5-1-2.2l-9.6-23.6c-.1-.5-.3-1-.4-1.5l-.1.3-.1-.3c-.1.5-.3 1-.4 1.5l-9.6 23.6c-.4.8-.7 1.5-1 2.2-2.9 6-5.2 10.3-5.2 10.3H1632.1l8.1.7c-.7 3.5-1.7 6.8-3 9.8-1.7 3.8-4.3 8.4-8.1 13.3-3.4 4.1-6.2 6.2-6.2 6.2h.1l-.1.1s-.7 1.3-1.4 2h.1l-.1.1h13.7c-7 20.5-24.6 32.4-24.6 32.4l2.5.2c-.8.6 31.7 2.1 33.7 2.2H1647.6c2-.1 34.5-1.6 33.7-2.2l2.5-.2zM1924.5 1003.9s-17.7-11.9-24.6-32.4h13.7l-.1-.1h.1c-.7-.7-1.4-2-1.4-2l-.1-.1h.1s-2.8-2.2-6.2-6.2c-3.8-4.9-6.4-9.5-8.1-13.3-1.3-3-2.3-6.2-3-9.8h8.4l.9-.7s-2.3-4.4-5.2-10.3c-.3-.7-.6-1.5-1-2.2l-9.6-23.6c-.1-.5-.3-1-.4-1.5l-.1.3-.1-.3c-.1.5-.3 1-.4 1.5l-9.6 23.6c-.4.8-.7 1.5-1 2.2-2.9 6-5.2 10.3-5.2 10.3H1872.8l8.1.7c-.7 3.5-1.7 6.8-3 9.8-1.7 3.8-4.3 8.4-8.1 13.3-3.4 4.1-6.2 6.2-6.2 6.2h.1l-.1.1s-.7 1.3-1.4 2h.1l-.1.1h13.7c-7 20.5-24.6 32.4-24.6 32.4l2.5.2c-.8.6 31.7 2.1 33.7 2.2H1888.3c2-.1 34.5-1.6 33.7-2.2l2.5-.2s-.1 0 0 0z"/><path fill="#AAB2AB" d="M1964.3 1003.5s-17.7-11.9-24.6-32.4h13.7l-.1-.1h.1c-.7-.7-1.4-2-1.4-2l-.1-.1h.1s-2.8-2.2-6.2-6.2c-3.8-4.9-6.4-9.5-8.1-13.3-1.3-3-2.3-6.2-3-9.8h8.4l.9-.7s-2.3-4.4-5.2-10.3c-.3-.7-.6-1.5-1-2.2l-9.6-23.6c-.1-.5-.3-1-.4-1.5l-.1.3-.1-.3c-.1.5-.3 1-.4 1.5l-9.6 23.6c-.4.8-.7 1.5-1 2.2-2.9 6-5.2 10.3-5.2 10.3H1912.6l8.1.7c-.7 3.5-1.7 6.8-3 9.8-1.7 3.8-4.3 8.4-8.1 13.3-3.4 4.1-6.2 6.2-6.2 6.2h.1l-.1.1s-.7 1.3-1.4 2h.1l-.1.1h13.7c-7 20.5-24.6 32.4-24.6 32.4l2.5.2c-.8.6 31.7 2.1 33.7 2.2H1928.1c2-.1 34.5-1.6 33.7-2.2l2.5-.2zM1748.8 1022s-17.7-11.9-24.6-32.4h13.7l-.1-.1h.1c-.7-.7-1.4-2-1.4-2l-.1-.1h.1s-2.8-2.2-6.2-6.2c-3.8-4.9-6.4-9.5-8.1-13.3-1.3-3-2.3-6.2-3-9.8h8.4l.9-.7s-2.3-4.4-5.2-10.3c-.3-.7-.6-1.5-1-2.2l-9.6-23.6c-.1-.5-.3-1-.4-1.5l-.1.3-.1-.3c-.1.5-.3 1-.4 1.5l-9.6 23.6c-.4.8-.7 1.5-1 2.2-2.9 6-5.2 10.3-5.2 10.3H1697.1l8.1.7c-.7 3.5-1.7 6.8-3 9.8-1.7 3.8-4.3 8.4-8.1 13.3-3.4 4.1-6.2 6.2-6.2 6.2h.1l-.1.1s-.7 1.3-1.4 2h.1l-.1.1h13.7c-7 20.5-24.6 32.4-24.6 32.4l2.5.2c-.8.6 31.7 2.1 33.7 2.2H1712.6c2-.1 34.5-1.6 33.7-2.2l2.5-.2zM1816.2 1051.5s-17.7-11.9-24.6-32.4h13.7l-.1-.1h.1c-.7-.7-1.4-2-1.4-2l-.1-.1h.1s-2.8-2.2-6.2-6.2c-3.8-4.9-6.4-9.5-8.1-13.3-1.3-3-2.3-6.2-3-9.8h8.4l.9-.7s-2.3-4.4-5.2-10.3c-.3-.7-.6-1.5-1-2.2l-9.6-23.6c-.1-.5-.3-1-.4-1.5l-.1.3-.1-.3c-.1.5-.3 1-.4 1.5l-9.6 23.6c-.4.8-.7 1.5-1 2.2-2.9 6-5.2 10.3-5.2 10.3H1764.5l8.1.7c-.7 3.5-1.7 6.8-3 9.8-1.7 3.8-4.3 8.4-8.1 13.3-3.4 4.1-6.2 6.2-6.2 6.2h.1l-.1.1s-.7 1.3-1.4 2h.1l-.1.1h13.7c-7 20.5-24.6 32.4-24.6 32.4l2.5.2c-.8.6 31.7 2.1 33.7 2.2H1780c2-.1 34.5-1.6 33.7-2.2l2.5-.2z"/><path fill="#AAB2AB" d="M1912.7 1062.8s-17.7-11.9-24.6-32.4h13.7l-.1-.1h.1c-.7-.7-1.4-2-1.4-2l-.1-.1h.1s-2.8-2.2-6.2-6.2c-3.8-4.9-6.4-9.5-8.1-13.3-1.3-3-2.3-6.2-3-9.8h8.4l.9-.7s-2.3-4.4-5.2-10.3c-.3-.7-.6-1.5-1-2.2l-9.6-23.6c-.1-.5-.3-1-.4-1.5l-.1.3-.1-.3c-.1.5-.3 1-.4 1.5l-9.6 23.6c-.4.8-.7 1.5-1 2.2-2.9 6-5.2 10.3-5.2 10.3H1861l8.1.7c-.7 3.5-1.7 6.8-3 9.8-1.7 3.8-4.3 8.4-8.1 13.3-3.4 4.1-6.2 6.2-6.2 6.2h.1l-.1.1s-.7 1.3-1.4 2h.1l-.1.1h13.7c-7 20.5-24.6 32.4-24.6 32.4l2.5.2c-.8.6 31.7 2.1 33.7 2.2H1876.5c2-.1 34.5-1.6 33.7-2.2l2.5-.2zM1807 1023.1s-17.7-11.9-24.6-32.4h13.7l-.1-.1h.1c-.7-.7-1.4-2-1.4-2l-.1-.1h.1s-2.8-2.2-6.2-6.2c-3.8-4.9-6.4-9.5-8.1-13.3-1.3-3-2.3-6.2-3-9.8h8.4l.9-.7s-2.3-4.4-5.2-10.3c-.3-.7-.6-1.5-1-2.2l-9.6-23.6c-.1-.5-.3-1-.4-1.5l-.1.3-.1-.3c-.1.5-.3 1-.4 1.5l-9.6 23.6c-.4.8-.7 1.5-1 2.2-2.9 6-5.2 10.3-5.2 10.3H1755.3l8.1.7c-.7 3.5-1.7 6.8-3 9.8-1.7 3.8-4.3 8.4-8.1 13.3-3.4 4.1-6.2 6.2-6.2 6.2h.1l-.1.1s-.7 1.3-1.4 2h.1l-.1.1h13.7c-7 20.5-24.6 32.4-24.6 32.4l2.5.2c-.8.6 31.7 2.1 33.7 2.2H1770.8c2-.1 34.5-1.6 33.7-2.2l2.5-.2zM1986.2 1048.8s-17.7-11.9-24.6-32.4h13.7l-.1-.1h.1c-.7-.7-1.4-2-1.4-2l-.1-.1h.1s-2.8-2.2-6.2-6.2c-3.8-4.9-6.4-9.5-8.1-13.3-1.3-3-2.3-6.2-3-9.8h8.4l.9-.7s-2.3-4.4-5.2-10.3c-.3-.7-.6-1.5-1-2.2l-9.6-23.6c-.1-.5-.3-1-.4-1.5l-.1.3-.1-.3c-.1.5-.3 1-.4 1.5l-9.6 23.6c-.4.8-.7 1.5-1 2.2-2.9 6-5.2 10.3-5.2 10.3H1934.5l8.1.7c-.7 3.5-1.7 6.8-3 9.8-1.7 3.8-4.3 8.4-8.1 13.3-3.4 4.1-6.2 6.2-6.2 6.2h.1l-.1.1s-.7 1.3-1.4 2h.1l-.1.1h13.7c-7 20.5-24.6 32.4-24.6 32.4l2.5.2c-.8.6 31.7 2.1 33.7 2.2H1950c2-.1 34.5-1.6 33.7-2.2l2.5-.2zM2072.8 1049.6s-17.7-11.9-24.6-32.4h13.7l-.1-.1h.1c-.7-.7-1.4-2-1.4-2l-.1-.1h.1s-2.8-2.2-6.2-6.2c-3.8-4.9-6.4-9.5-8.1-13.3-1.3-3-2.3-6.2-3-9.8h8.4l.9-.7s-2.3-4.4-5.2-10.3c-.3-.7-.6-1.5-1-2.2l-9.6-23.6c-.1-.5-.3-1-.4-1.5l-.1.3-.1-.3c-.1.5-.3 1-.4 1.5l-9.6 23.6c-.4.8-.7 1.5-1 2.2-2.9 6-5.2 10.3-5.2 10.3H2021.1l8.1.7c-.7 3.5-1.7 6.8-3 9.8-1.7 3.8-4.3 8.4-8.1 13.3-3.4 4.1-6.2 6.2-6.2 6.2h.1l-.1.1s-.7 1.3-1.4 2h.1l-.1.1h13.7c-7 20.5-24.6 32.4-24.6 32.4l2.5.2c-.8.6 31.7 2.1 33.7 2.2H2036.6c2-.1 34.5-1.6 33.7-2.2l2.5-.2s-.1 0 0 0z"/><path fill="#AAB2AB" d="M2011.5 1019.9s-17.7-11.9-24.6-32.4h13.7l-.1-.1h.1c-.7-.7-1.4-2-1.4-2l-.1-.1h.1s-2.8-2.2-6.2-6.2c-3.8-4.9-6.4-9.5-8.1-13.3-1.3-3-2.3-6.2-3-9.8h8.4l.9-.7s-2.3-4.4-5.2-10.3c-.3-.7-.6-1.5-1-2.2l-9.6-23.6c-.1-.5-.3-1-.4-1.5l-.1.3-.1-.3c-.1.5-.3 1-.4 1.5l-9.6 23.6c-.4.8-.7 1.5-1 2.2-2.9 6-5.2 10.3-5.2 10.3H1959.8l8.1.7c-.7 3.5-1.7 6.8-3 9.8-1.7 3.8-4.3 8.4-8.1 13.3-3.4 4.1-6.2 6.2-6.2 6.2h.1l-.1.1s-.7 1.3-1.4 2h.1l-.1.1h13.7c-7 20.5-24.6 32.4-24.6 32.4l2.5.2c-.8.6 31.7 2.1 33.7 2.2H1975.3c2-.1 34.5-1.6 33.7-2.2l2.5-.2zM2098 1018.8s-17.7-11.9-24.6-32.4h13.7l-.1-.1h.1c-.7-.7-1.4-2-1.4-2l-.1-.1h.1s-2.8-2.2-6.2-6.2c-3.8-4.9-6.4-9.5-8.1-13.3-1.3-3-2.3-6.2-3-9.8h8.4l.9-.7s-2.3-4.4-5.2-10.3c-.3-.7-.6-1.5-1-2.2l-9.6-23.6c-.1-.5-.3-1-.4-1.5l-.1.3-.1-.3c-.1.5-.3 1-.4 1.5l-9.6 23.6c-.4.8-.7 1.5-1 2.2-2.9 6-5.2 10.3-5.2 10.3H2046.3l8.1.7c-.7 3.5-1.7 6.8-3 9.8-1.7 3.8-4.3 8.4-8.1 13.3-3.4 4.1-6.2 6.2-6.2 6.2h.1l-.1.1s-.7 1.3-1.4 2h.1l-.1.1h13.7c-7 20.5-24.6 32.4-24.6 32.4l2.5.2c-.8.6 31.7 2.1 33.7 2.2H2061.8c2-.1 34.5-1.6 33.7-2.2l2.5-.2z"/><path fill="#AAB2AB" d="M2081.4 1022.5s-17.7-11.9-24.6-32.4h13.7l-.1-.1h.1c-.7-.7-1.4-2-1.4-2l-.1-.1h.1s-2.8-2.2-6.2-6.2c-3.8-4.9-6.4-9.5-8.1-13.3-1.3-3-2.3-6.2-3-9.8h8.4l.9-.7s-2.3-4.4-5.2-10.3c-.3-.7-.6-1.5-1-2.2l-9.6-23.6c-.1-.5-.3-1-.4-1.5l-.1.3-.1-.3c-.1.5-.3 1-.4 1.5l-9.6 23.6c-.4.8-.7 1.5-1 2.2-2.9 6-5.2 10.3-5.2 10.3H2029.7l8.1.7c-.7 3.5-1.7 6.8-3 9.8-1.7 3.8-4.3 8.4-8.1 13.3-3.4 4.1-6.2 6.2-6.2 6.2h.1l-.1.1s-.7 1.3-1.4 2h.1l-.1.1h13.7c-7 20.5-24.6 32.4-24.6 32.4l2.5.2c-.8.6 31.7 2.1 33.7 2.2H2045.2c2-.1 34.5-1.6 33.7-2.2l2.5-.2zM1861.2 1032.8s-17.7-11.9-24.6-32.4h13.7l-.1-.1h.1c-.7-.7-1.4-2-1.4-2l-.1-.1h.1s-2.8-2.2-6.2-6.2c-3.8-4.9-6.4-9.5-8.1-13.3-1.3-3-2.3-6.2-3-9.8h8.4l.9-.7s-2.3-4.4-5.2-10.3c-.3-.7-.6-1.5-1-2.2l-9.6-23.6c-.1-.5-.3-1-.4-1.5l-.1.3-.1-.3c-.1.5-.3 1-.4 1.5l-9.6 23.6c-.4.8-.7 1.5-1 2.2-2.9 6-5.2 10.3-5.2 10.3H1809.5l8.1.7c-.7 3.5-1.7 6.8-3 9.8-1.7 3.8-4.3 8.4-8.1 13.3-3.4 4.1-6.2 6.2-6.2 6.2h.1l-.1.1s-.7 1.3-1.4 2h.1l-.1.1h13.7c-7 20.5-24.6 32.4-24.6 32.4l2.5.2c-.8.6 31.7 2.1 33.7 2.2H1825c2-.1 34.5-1.6 33.7-2.2l2.5-.2s-.1 0 0 0z"/><path fill="#AAB2AB" d="M1832 1027.5s-17.7-11.9-24.6-32.4h13.7l-.1-.1h.1c-.7-.7-1.4-2-1.4-2l-.1-.1h.1s-2.8-2.2-6.2-6.2c-3.8-4.9-6.4-9.5-8.1-13.3-1.3-3-2.3-6.2-3-9.8h8.4l.9-.7s-2.3-4.4-5.2-10.3c-.3-.7-.6-1.5-1-2.2l-9.6-23.6c-.1-.5-.3-1-.4-1.5l-.1.3-.1-.3c-.1.5-.3 1-.4 1.5l-9.6 23.6c-.4.8-.7 1.5-1 2.2-2.9 6-5.2 10.3-5.2 10.3H1780.3l8.1.7c-.7 3.5-1.7 6.8-3 9.8-1.7 3.8-4.3 8.4-8.1 13.3-3.4 4.1-6.2 6.2-6.2 6.2h.1l-.1.1s-.7 1.3-1.4 2h.1l-.1.1h13.7c-7 20.5-24.6 32.4-24.6 32.4l2.5.2c-.8.6 31.7 2.1 33.7 2.2H1795.8c2-.1 34.5-1.6 33.7-2.2l2.5-.2z"/><path fill="#AAB2AB" d="M1805.8 1062.3s-17.7-11.9-24.6-32.4h13.7l-.1-.1h.1c-.7-.7-1.4-2-1.4-2l-.1-.1h.1s-2.8-2.2-6.2-6.2c-3.8-4.9-6.4-9.5-8.1-13.3-1.3-3-2.3-6.2-3-9.8h8.4l.9-.7s-2.3-4.4-5.2-10.3c-.3-.7-.6-1.5-1-2.2l-9.6-23.6c-.1-.5-.3-1-.4-1.5l-.1.3-.1-.3c-.1.5-.3 1-.4 1.5l-9.6 23.6c-.4.8-.7 1.5-1 2.2-2.9 6-5.2 10.3-5.2 10.3H1754.1l8.1.7c-.7 3.5-1.7 6.8-3 9.8-1.7 3.8-4.3 8.4-8.1 13.3-3.4 4.1-6.2 6.2-6.2 6.2h.1l-.1.1s-.7 1.3-1.4 2h.1l-.1.1h13.7c-7 20.5-24.6 32.4-24.6 32.4l2.5.2c-.8.6 31.7 2.1 33.7 2.2H1769.6c2-.1 34.5-1.6 33.7-2.2l2.5-.2zM2026.4 1066.2s-17.7-11.9-24.6-32.4h13.7l-.1-.1h.1c-.7-.7-1.4-2-1.4-2l-.1-.1h.1s-2.8-2.2-6.2-6.2c-3.8-4.9-6.4-9.5-8.1-13.3-1.3-3-2.3-6.2-3-9.8h8.4l.9-.7s-2.3-4.4-5.2-10.3c-.3-.7-.6-1.5-1-2.2l-9.6-23.6c-.1-.5-.3-1-.4-1.5l-.1.3-.1-.3c-.1.5-.3 1-.4 1.5l-9.6 23.6c-.4.8-.7 1.5-1 2.2-2.9 6-5.2 10.3-5.2 10.3H1974.7l8.1.7c-.7 3.5-1.7 6.8-3 9.8-1.7 3.8-4.3 8.4-8.1 13.3-3.4 4.1-6.2 6.2-6.2 6.2h.1l-.1.1s-.7 1.3-1.4 2h.1l-.1.1h13.7c-7 20.5-24.6 32.4-24.6 32.4l2.5.2c-.8.6 31.7 2.1 33.7 2.2H1990.2c2-.1 34.5-1.6 33.7-2.2l2.5-.2zM2190.8 1070.5s-17.7-11.9-24.6-32.4h13.7l-.1-.1h.1c-.7-.7-1.4-2-1.4-2l-.1-.1h.1s-2.8-2.2-6.2-6.2c-3.8-4.9-6.4-9.5-8.1-13.3-1.3-3-2.3-6.2-3-9.8h8.4l.9-.7s-2.3-4.4-5.2-10.3c-.3-.7-.6-1.5-1-2.2l-9.6-23.6c-.1-.5-.3-1-.4-1.5l-.1.3-.1-.3c-.1.5-.3 1-.4 1.5l-9.6 23.6c-.4.8-.7 1.5-1 2.2-2.9 6-5.2 10.3-5.2 10.3H2139.1l8.1.7c-.7 3.5-1.7 6.8-3 9.8-1.7 3.8-4.3 8.4-8.1 13.3-3.4 4.1-6.2 6.2-6.2 6.2h.1l-.1.1s-.7 1.3-1.4 2h.1l-.1.1h13.7c-7 20.5-24.6 32.4-24.6 32.4l2.5.2c-.8.6 31.7 2.1 33.7 2.2H2154.6c2-.1 34.5-1.6 33.7-2.2l2.5-.2z"/><path fill="#AAB2AB" d="M2182.9 1061.5s-17.7-11.9-24.6-32.4h13.7l-.1-.1h.1c-.7-.7-1.4-2-1.4-2l-.1-.1h.1s-2.8-2.2-6.2-6.2c-3.8-4.9-6.4-9.5-8.1-13.3-1.3-3-2.3-6.2-3-9.8h8.4l.9-.7s-2.3-4.4-5.2-10.3c-.3-.7-.6-1.5-1-2.2l-9.6-23.6c-.1-.5-.3-1-.4-1.5l-.1.3-.1-.3c-.1.5-.3 1-.4 1.5l-9.6 23.6c-.4.8-.7 1.5-1 2.2-2.9 6-5.2 10.3-5.2 10.3H2131.2l8.1.7c-.7 3.5-1.7 6.8-3 9.8-1.7 3.8-4.3 8.4-8.1 13.3-3.4 4.1-6.2 6.2-6.2 6.2h.1l-.1.1s-.7 1.3-1.4 2h.1l-.1.1h13.7c-7 20.5-24.6 32.4-24.6 32.4l2.5.2c-.8.6 31.7 2.1 33.7 2.2H2146.7c2-.1 34.5-1.6 33.7-2.2l2.5-.2z"/><path fill="#AAB2AB" d="M2137.3 1061.6s-17.7-11.9-24.6-32.4h13.7l-.1-.1h.1c-.7-.7-1.4-2-1.4-2l-.1-.1h.1s-2.8-2.2-6.2-6.2c-3.8-4.9-6.4-9.5-8.1-13.3-1.3-3-2.3-6.2-3-9.8h8.4l.9-.7s-2.3-4.4-5.2-10.3c-.3-.7-.6-1.5-1-2.2l-9.6-23.6c-.1-.5-.3-1-.4-1.5l-.1.3-.1-.3c-.1.5-.3 1-.4 1.5l-9.6 23.6c-.4.8-.7 1.5-1 2.2-2.9 6-5.2 10.3-5.2 10.3H2085.6l8.1.7c-.7 3.5-1.7 6.8-3 9.8-1.7 3.8-4.3 8.4-8.1 13.3-3.4 4.1-6.2 6.2-6.2 6.2h.1l-.1.1s-.7 1.3-1.4 2h.1l-.1.1h13.7c-7 20.5-24.6 32.4-24.6 32.4l2.5.2c-.8.6 31.7 2.1 33.7 2.2H2101.1c2-.1 34.5-1.6 33.7-2.2l2.5-.2zM2219.7 1038.4s-17.7-11.9-24.6-32.4h13.7l-.1-.1h.1c-.7-.7-1.4-2-1.4-2l-.1-.1h.1s-2.8-2.2-6.2-6.2c-3.8-4.9-6.4-9.5-8.1-13.3-1.3-3-2.3-6.2-3-9.8h8.4l.9-.7s-2.3-4.4-5.2-10.3c-.3-.7-.6-1.5-1-2.2l-9.6-23.6c-.1-.5-.3-1-.4-1.5l-.1.3-.1-.3c-.1.5-.3 1-.4 1.5l-9.6 23.6c-.4.8-.7 1.5-1 2.2-2.9 6-5.2 10.3-5.2 10.3H2168l8.1.7c-.7 3.5-1.7 6.8-3 9.8-1.7 3.8-4.3 8.4-8.1 13.3-3.4 4.1-6.2 6.2-6.2 6.2h.1l-.1.1s-.7 1.3-1.4 2h.1l-.1.1h13.7c-7 20.5-24.6 32.4-24.6 32.4l2.5.2c-.8.6 31.7 2.1 33.7 2.2H2183.5c2-.1 34.5-1.6 33.7-2.2l2.5-.2zM2350.2 1038.1s-17.7-11.9-24.6-32.4h13.7l-.1-.1h.1c-.7-.7-1.4-2-1.4-2l-.1-.1h.1s-2.8-2.2-6.2-6.2c-3.8-4.9-6.4-9.5-8.1-13.3-1.3-3-2.3-6.2-3-9.8h8.4l.9-.7s-2.3-4.4-5.2-10.3c-.3-.7-.6-1.5-1-2.2l-9.6-23.6c-.1-.5-.3-1-.4-1.5l-.1.3-.1-.3c-.1.5-.3 1-.4 1.5l-9.6 23.6c-.4.8-.7 1.5-1 2.2-2.9 6-5.2 10.3-5.2 10.3H2298.5l8.1.7c-.7 3.5-1.7 6.8-3 9.8-1.7 3.8-4.3 8.4-8.1 13.3-3.4 4.1-6.2 6.2-6.2 6.2h.1l-.1.1s-.7 1.3-1.4 2h.1l-.1.1h13.7c-7 20.5-24.6 32.4-24.6 32.4l2.5.2c-.8.6 31.7 2.1 33.7 2.2H2314c2-.1 34.5-1.6 33.7-2.2l2.5-.2z"/><path fill="#AAB2AB" d="M2378.9 1038.3s-17.7-11.9-24.6-32.4h13.7l-.1-.1h.1c-.7-.7-1.4-2-1.4-2l-.1-.1h.1s-2.8-2.2-6.2-6.2c-3.8-4.9-6.4-9.5-8.1-13.3-1.3-3-2.3-6.2-3-9.8h8.4l.9-.7s-2.3-4.4-5.2-10.3c-.3-.7-.6-1.5-1-2.2l-9.6-23.6c-.1-.5-.3-1-.4-1.5l-.1.3-.1-.3c-.1.5-.3 1-.4 1.5l-9.6 23.6c-.4.8-.7 1.5-1 2.2-2.9 6-5.2 10.3-5.2 10.3H2327.2l8.1.7c-.7 3.5-1.7 6.8-3 9.8-1.7 3.8-4.3 8.4-8.1 13.3-3.4 4.1-6.2 6.2-6.2 6.2h.1l-.1.1s-.7 1.3-1.4 2h.1l-.1.1h13.7c-7 20.5-24.6 32.4-24.6 32.4l2.5.2c-.8.6 31.7 2.1 33.7 2.2H2342.7c2-.1 34.5-1.6 33.7-2.2l2.5-.2zM2199.7 1040s-17.7-11.9-24.6-32.4h13.7l-.1-.1h.1c-.7-.7-1.4-2-1.4-2l-.1-.1h.1s-2.8-2.2-6.2-6.2c-3.8-4.9-6.4-9.5-8.1-13.3-1.3-3-2.3-6.2-3-9.8h8.4l.9-.7s-2.3-4.4-5.2-10.3c-.3-.7-.6-1.5-1-2.2l-9.6-23.6c-.1-.5-.3-1-.4-1.5l-.1.3-.1-.3c-.1.5-.3 1-.4 1.5L2153 963c-.4.8-.7 1.5-1 2.2-2.9 6-5.2 10.3-5.2 10.3H2148l8.1.7c-.7 3.5-1.7 6.8-3 9.8-1.7 3.8-4.3 8.4-8.1 13.3-3.4 4.1-6.2 6.2-6.2 6.2h.1l-.1.1s-.7 1.3-1.4 2h.1l-.1.1h13.7c-7 20.5-24.6 32.4-24.6 32.4l2.5.2c-.8.6 31.7 2.1 33.7 2.2H2163.5c2-.1 34.5-1.6 33.7-2.2l2.5-.3z"/><path fill="#AAB2AB" d="M2254.6 1053.9s-17.7-11.9-24.6-32.4h13.7l-.1-.1h.1c-.7-.7-1.4-2-1.4-2l-.1-.1h.1s-2.8-2.2-6.2-6.2c-3.8-4.9-6.4-9.5-8.1-13.3-1.3-3-2.3-6.2-3-9.8h8.4l.9-.7s-2.3-4.4-5.2-10.3c-.3-.7-.6-1.5-1-2.2l-9.6-23.6c-.1-.5-.3-1-.4-1.5l-.1.3-.1-.3c-.1.5-.3 1-.4 1.5l-9.6 23.6c-.4.8-.7 1.5-1 2.2-2.9 6-5.2 10.3-5.2 10.3H2202.9l8.1.7c-.7 3.5-1.7 6.8-3 9.8-1.7 3.8-4.3 8.4-8.1 13.3-3.4 4.1-6.2 6.2-6.2 6.2h.1l-.1.1s-.7 1.3-1.4 2h.1l-.1.1h13.7c-7 20.5-24.6 32.4-24.6 32.4l2.5.2c-.8.6 31.7 2.1 33.7 2.2H2218.4c2-.1 34.5-1.6 33.7-2.2l2.5-.2c0 .1 0 0 0 0z"/><path fill="#AAB2AB" d="M2298.1 1053.4s-17.7-11.9-24.6-32.4h13.7l-.1-.1h.1c-.7-.7-1.4-2-1.4-2l-.1-.1h.1s-2.8-2.2-6.2-6.2c-3.8-4.9-6.4-9.5-8.1-13.3-1.3-3-2.3-6.2-3-9.8h8.4l.9-.7s-2.3-4.4-5.2-10.3c-.3-.7-.6-1.5-1-2.2l-9.6-23.6c-.1-.5-.3-1-.4-1.5l-.1.3-.1-.3c-.1.5-.3 1-.4 1.5l-9.6 23.6c-.4.8-.7 1.5-1 2.2-2.9 6-5.2 10.3-5.2 10.3H2246.4l8.1.7c-.7 3.5-1.7 6.8-3 9.8-1.7 3.8-4.3 8.4-8.1 13.3-3.4 4.1-6.2 6.2-6.2 6.2h.1l-.1.1s-.7 1.3-1.4 2h.1l-.1.1h13.7c-7 20.5-24.6 32.4-24.6 32.4l2.5.2c-.8.6 31.7 2.1 33.7 2.2H2261.9c2-.1 34.5-1.6 33.7-2.2l2.5-.2z"/><path fill="#AAB2AB" d="M2275.8 1029.6s-17.7-11.9-24.6-32.4h13.7l-.1-.1h.1c-.7-.7-1.4-2-1.4-2l-.1-.1h.1s-2.8-2.2-6.2-6.2c-3.8-4.9-6.4-9.5-8.1-13.3-1.3-3-2.3-6.2-3-9.8h8.4l.9-.7s-2.3-4.4-5.2-10.3c-.3-.7-.6-1.5-1-2.2l-9.6-23.6c-.1-.5-.3-1-.4-1.5l-.1.3-.1-.3c-.1.5-.3 1-.4 1.5l-9.6 23.6c-.4.8-.7 1.5-1 2.2-2.9 6-5.2 10.3-5.2 10.3H2224.1l8.1.7c-.7 3.5-1.7 6.8-3 9.8-1.7 3.8-4.3 8.4-8.1 13.3-3.4 4.1-6.2 6.2-6.2 6.2h.1l-.1.1s-.7 1.3-1.4 2h.1l-.1.1h13.7c-7 20.5-24.6 32.4-24.6 32.4l2.5.2c-.8.6 31.7 2.1 33.7 2.2H2239.6c2-.1 34.5-1.6 33.7-2.2l2.5-.2z"/><g><path fill="#A1BCB1" d="M-230.7 781.5l1.2-19.7 23.4-9 24.1-5.3 11.5 1.6 5.7 7-4.1 9.8-25.4 17.6"/><path fill="#96B5AB" d="M-252.8 831l2.9-13.5 3.2-9 .4-16 .4-9.4 26.7-16 30.7 5.4 17.2-12.3 4.1 1.2 4.1-.8 6.5 20.9 5.7 11.8-13.9 14.4-5.7 11-13.5 11.9"/><path fill="#96B7AA" d="M-270.4 836.7l12.7-7.3 14.7-13.1 9-12.3 35.6 10.6 2.9 7 6.2 4.1-8.2 10.6-25.4 62.3-28.7 37.6-16-2.8-2.4-16.4.8-20.1-.4-21.7 1.6-20.9"/><path fill="#9FBAAF" d="M-231.5 912.9l2-22.1 13.9-49.6v-4.9l5.8-6.1 8.6-1.2 21.3-11.9 8.6-6.2 5.7 9.9 3.3 22.9 5.3 16.8-8.2 4.5-11 14.7"/><path fill="#95B4A8" d="M-282.3 1010.3l-3.3-23.3 47.1-89.7 53.2-26.6 4.1 3.3 7.4 2 .8 13.6v25.7l7 36.9-14.3 44.6"/><path fill="#C1CFBD" d="M-259 923.9l3.3-7.7 7.8-3.3 2.9 7.4-9 8.1"/><path fill="#9DB8AD" d="M-283.5 925.2l19.2-8.6 11.9 13.1-2 10.6 2.8 7-17.6 26.6-17.6-6.6"/><path fill="#A1BCB1" d="M-190.6 988.2l23-37.2 15.1 4.1 5.3-.4 4.9 27.8 3.7 9-31.1 11.9"/></g><g><use xlink:href="#a" width="5.2" height="2.7" x="-2.6" y="-1.4" transform="matrix(1.6394 0 0 -1.6394 2002.727 524.667)" overflow="visible"/><use xlink:href="#a" width="5.2" height="2.7" x="-2.6" y="-1.4" transform="matrix(1.6394 0 0 -1.6394 2095.595 487.32)" overflow="visible"/><use xlink:href="#a" width="5.2" height="2.7" x="-2.6" y="-1.4" transform="matrix(1.6394 0 0 -1.6394 2218.743 494.242)" overflow="visible"/><use xlink:href="#a" width="5.2" height="2.7" x="-2.6" y="-1.4" transform="matrix(1.6394 0 0 -1.6394 2031.517 504.287)" overflow="visible"/><use xlink:href="#a" width="5.2" height="2.7" x="-2.6" y="-1.4" transform="matrix(1.6394 0 0 -1.6394 2122.925 524.625)" overflow="visible"/><use xlink:href="#a" width="5.2" height="2.7" x="-2.6" y="-1.4" transform="matrix(1.6394 0 0 -1.6394 2107.227 528.14)" overflow="visible"/><use xlink:href="#a" width="5.2" height="2.7" x="-2.6" y="-1.4" transform="matrix(1.6394 0 0 -1.6394 2178.192 305.484)" overflow="visible"/></g></svg>