<svg xmlns="http://www.w3.org/2000/svg" viewBox="0 0 3333.7 1789.6" enable-background="new 0 0 3333.7 1789.6"><symbol id="h" viewBox="-1.8 -1.8 3.6 3.6"><path fill="#AE9BCC" d="M1.8 0C1.8-1 1-1.8 0-1.8S-1.8-1-1.8 0-1 1.8 0 1.8 1.8 1 1.8 0z"/></symbol><symbol id="a" viewBox="-2.6 -1.4 5.2 2.7"><path fill="#7A826B" d="M-2.6 1.1c.3.1.7.1 1 .1.3 0 .7-.2 1-.4.4-.4.6-.9.7-1.4 0 .2.1.4.1.6l.3.6c0 .1.1.2.2.3.1.1.2.1.3.1.2.1.4.2.5.2.2.1.4.1.6.1s.4-.1.5-.3c-.3.1-.6 0-.9-.2C1.4.7 1.2.7.9.5.8.4.6-.1.6-.2.4-.4.6-.8.5-1c0-.2-.1-.3-.3-.4l-.3.9c0 .2-.1.3-.2.4-.2.4-.7.5-1 .8l-.6.3c-.2.1-.5.2-.7.1z"/></symbol><path fill="#A0A8A1" d="M2789.6 1128.2l-56.9-30.1-40.1 3.4-24.5 23.3-28.9 26.8-56.2-49.3-94.2 25.9-63.5 43.2-77.6-10.1-109.5-19.7-43.5-20.1-73.5 16.7-63.5 6.7h-73.5l-249.4-7.3-153.2-7.6-110.5-27.3-72.4-2.8-89.8 7-4.8 36.2-79.8-16.4-91.6-.2-84.8 30.5-98.4-13.5-155-5.3-80.2 70.2-12.9 4471.7 2084.2-7.7"/><path fill="#A0A8A1" d="M2505.8 1129.9s22.9-15.4 31.9-41.9H2520l.1-.1h-.1c.9-.9 1.8-2.6 1.8-2.6l.1-.1h-.1s3.6-2.8 8-8.1c4.9-6.3 8.3-12.3 10.5-17.2 1.6-3.8 3-8 3.9-12.6h-10.9l-1.2-.9s3-5.6 6.8-13.4c.4-.9.8-1.9 1.3-2.9l12.4-30.6c.2-.7.4-1.4.5-2l.1.3.1-.3c.1.6.3 1.3.5 2l12.4 30.6c.5 1 .9 1.9 1.3 2.9 3.8 7.7 6.8 13.4 6.8 13.4h-1.6l-10.5.9c.9 4.6 2.2 8.8 3.9 12.6 2.3 4.9 5.6 10.9 10.5 17.2 4.4 5.3 8 8.1 8 8.1h-.1l.1.1s.9 1.7 1.8 2.6h-.1l.1.1h-17.7c9 26.5 31.9 41.9 31.9 41.9l-3.2.2c1.1.7-41 2.7-43.6 2.8h-1-.1c-2.6-.1-44.7-2.1-43.6-2.8l-3.3-.2c0 .1 0 0 0 0zM2664.9 1129.5s22.9-15.4 31.9-41.9H2679l.1-.1h-.1c.9-.9 1.8-2.6 1.8-2.6l.1-.1h-.1s3.6-2.8 8-8.1c4.9-6.3 8.3-12.3 10.5-17.2 1.6-3.8 3-8 3.9-12.6h-10.9l-1.2-.9s3-5.6 6.8-13.4c.4-.9.8-1.9 1.3-2.9l12.4-30.6c.2-.7.4-1.4.5-2l.1.3.1-.3c.1.6.3 1.3.5 2l12.4 30.6c.5 1 .9 1.9 1.3 2.9 3.8 7.7 6.8 13.4 6.8 13.4h-1.6l-10.5.9c.9 4.6 2.2 8.8 3.9 12.6 2.3 4.9 5.6 10.9 10.5 17.2 4.4 5.3 8 8.1 8 8.1h-.1l.1.1s.9 1.7 1.8 2.6h-.1l.1.1h-17.7c9 26.5 31.9 41.9 31.9 41.9l-3.2.2c1.1.7-41 2.7-43.6 2.8h-.9-.1c-2.6-.1-44.7-2.1-43.6-2.8l-3.3-.2z"/><path fill="#A0A8A1" d="M2560.2 1160.3s22.9-15.4 31.9-41.9h-17.7l.1-.1h-.1c.9-.9 1.8-2.6 1.8-2.6l.1-.1h-.1s3.6-2.8 8-8.1c4.9-6.3 8.3-12.3 10.5-17.2 1.6-3.8 3-8 3.9-12.6h-10.9l-1.2-.9s3-5.6 6.8-13.4c.4-.9.8-1.9 1.3-2.9l12.4-30.6c.2-.7.4-1.4.5-2l.1.3.1-.3c.1.6.3 1.3.5 2l12.4 30.6c.5 1 .9 1.9 1.3 2.9 3.8 7.7 6.8 13.4 6.8 13.4h-1.6l-10.5.9c.9 4.6 2.2 8.8 3.9 12.6 2.3 4.9 5.6 10.9 10.5 17.2 4.4 5.3 8 8.1 8 8.1h-.1l.1.1s.9 1.7 1.8 2.6h-.1l.1.1h-17.7c9 26.5 31.9 41.9 31.9 41.9l-3.2.2c1.1.7-41 2.7-43.6 2.8h-1-.1c-2.6-.1-44.7-2.1-43.6-2.8l-3.3-.2zM2420.4 1160.1s22.9-15.4 31.9-41.9h-17.7l.1-.1h-.1c.9-.9 1.8-2.6 1.8-2.6l.1-.1h-.1s3.6-2.8 8-8.1c4.9-6.3 8.3-12.3 10.5-17.2 1.6-3.8 3-8 3.9-12.6h-10.9l-1.2-.9s3-5.6 6.8-13.4c.4-.9.8-1.9 1.3-2.9l12.4-30.6c.2-.7.4-1.4.5-2l.1.3.1-.3c.1.6.3 1.3.5 2l12.4 30.6c.5 1 .9 1.9 1.3 2.9 3.8 7.7 6.8 13.4 6.8 13.4h-1.6l-10.5.9c.9 4.6 2.2 8.8 3.9 12.6 2.3 4.9 5.6 10.9 10.5 17.2 4.4 5.3 8 8.1 8 8.1h-.1l.1.1s.9 1.7 1.8 2.6h-.1l.1.1h-17.7c9 26.5 31.9 41.9 31.9 41.9l-3.2.2c1.1.7-41 2.7-43.6 2.8h-1-.1c-2.6-.1-44.7-2.1-43.6-2.8l-3.3-.2z"/><path fill="#A0A8A1" d="M2357 1175.1s22.9-15.4 31.9-41.9h-17.7l.1-.1h-.1c.9-.9 1.8-2.6 1.8-2.6l.1-.1h-.1s3.6-2.8 8-8.1c4.9-6.3 8.3-12.3 10.5-17.2 1.6-3.8 3-8 3.9-12.6h-10.9l-1.2-.9s3-5.6 6.8-13.4c.4-.9.8-1.9 1.3-2.9l12.4-30.6c.2-.7.4-1.4.5-2l.1.3.1-.3c.1.6.3 1.3.5 2l12.4 30.6c.5 1 .9 1.9 1.3 2.9 3.8 7.7 6.8 13.4 6.8 13.4h-1.6l-10.5.9c.9 4.6 2.2 8.8 3.9 12.6 2.3 4.9 5.6 10.9 10.5 17.2 4.4 5.3 8 8.1 8 8.1h-.1l.1.1s.9 1.7 1.8 2.6h-.1l.1.1h-17.7c9 26.5 31.9 41.9 31.9 41.9l-3.2.2c1.1.7-41 2.7-43.6 2.8h-1-.1c-2.6-.1-44.7-2.1-43.6-2.8l-3.3-.2zM2227.4 1131.9s22.9-15.4 31.9-41.9h-17.7l.1-.1h-.1c.9-.9 1.8-2.6 1.8-2.6l.1-.1h-.1s3.6-2.8 8-8.1c4.9-6.3 8.3-12.3 10.5-17.2 1.6-3.8 3-8 3.9-12.6h-10.9l-1.2-.9s3-5.6 6.8-13.4c.4-.9.8-1.9 1.3-2.9l12.4-30.6c.2-.7.4-1.4.5-2l.1.3.1-.3c.1.6.3 1.3.5 2l12.4 30.6c.5 1 .9 1.9 1.3 2.9 3.8 7.7 6.8 13.4 6.8 13.4h-1.6l-10.5.9c.9 4.6 2.2 8.8 3.9 12.6 2.3 4.9 5.6 10.9 10.5 17.2 4.4 5.3 8 8.1 8 8.1h-.1l.1.1s.9 1.7 1.8 2.6h-.1l.1.1h-17.7c9 26.5 31.9 41.9 31.9 41.9l-3.2.2c1.1.7-41 2.7-43.6 2.8h-1-.1c-2.6-.1-44.7-2.1-43.6-2.8l-3.3-.2z"/><path fill="#A0A8A1" d="M2299.8 1163.3s22.9-15.4 31.9-41.9H2314l.1-.1h-.1c.9-.9 1.8-2.6 1.8-2.6l.1-.1h-.1s3.6-2.8 8-8.1c4.9-6.3 8.3-12.3 10.5-17.2 1.6-3.8 3-8 3.9-12.6h-10.9l-1.2-.9s3-5.6 6.8-13.4c.4-.9.8-1.9 1.3-2.9l12.4-30.6c.2-.7.4-1.4.5-2l.1.3.1-.3c.1.6.3 1.3.5 2l12.4 30.6c.5 1 .9 1.9 1.3 2.9 3.8 7.7 6.8 13.4 6.8 13.4h-1.6l-10.5.9c.9 4.6 2.2 8.8 3.9 12.6 2.3 4.9 5.6 10.9 10.5 17.2 4.4 5.3 8 8.1 8 8.1h-.1l.1.1s.9 1.7 1.8 2.6h-.1l.1.1h-17.7c9 26.5 31.9 41.9 31.9 41.9l-3.2.2c1.1.7-41 2.7-43.6 2.8h-.9-.1c-2.6-.1-44.7-2.1-43.6-2.8l-3.4-.2zM2522.7 1177.2s22.9-15.4 31.9-41.9h-17.7l.1-.1h-.1c.9-.9 1.8-2.6 1.8-2.6l.1-.1h-.1s3.6-2.8 8-8.1c4.9-6.3 8.3-12.3 10.5-17.2 1.6-3.8 3-8 3.9-12.6h-10.9l-1.2-.9s3-5.6 6.8-13.4c.4-.9.8-1.9 1.3-2.9l12.4-30.6c.2-.7.4-1.4.5-2l.1.3.1-.3c.1.6.3 1.3.5 2l12.4 30.6c.5 1 .9 1.9 1.3 2.9 3.8 7.7 6.8 13.4 6.8 13.4h-1.6l-10.5.9c.9 4.6 2.2 8.8 3.9 12.6 2.3 4.9 5.6 10.9 10.5 17.2 4.4 5.3 8 8.1 8 8.1h-.1l.1.1s.9 1.7 1.8 2.6h-.1l.1.1h-17.7c9 26.5 31.9 41.9 31.9 41.9l-3.2.2c1.1.7-41 2.7-43.6 2.8h-.9-.1c-2.6-.1-44.7-2.1-43.6-2.8l-3.4-.2z"/><path fill="#A0A8A1" d="M2333.8 1176.1s22.9-15.4 31.9-41.9H2348l.1-.1h-.1c.9-.9 1.8-2.6 1.8-2.6l.1-.1h-.1s3.6-2.8 8-8.1c4.9-6.3 8.3-12.3 10.5-17.2 1.6-3.8 3-8 3.9-12.6h-10.9l-1.2-.9s3-5.6 6.8-13.4c.4-.9.8-1.9 1.3-2.9l12.4-30.6c.2-.7.4-1.4.5-2l.1.3.1-.3c.1.6.3 1.3.5 2l12.4 30.6c.5 1 .9 1.9 1.3 2.9 3.8 7.7 6.8 13.4 6.8 13.4h-1.6l-10.5.9c.9 4.6 2.2 8.8 3.9 12.6 2.3 4.9 5.6 10.9 10.5 17.2 4.4 5.3 8 8.1 8 8.1h-.1l.1.1s.9 1.7 1.8 2.6h-.1l.1.1h-17.7c9 26.5 31.9 41.9 31.9 41.9l-3.2.2c1.1.7-41 2.7-43.6 2.8h-.9-.1c-2.6-.1-44.7-2.1-43.6-2.8l-3.4-.2zM2028.2 1179.9s22.9-15.4 31.9-41.9h-17.7l.1-.1h-.1c.9-.9 1.8-2.6 1.8-2.6l.1-.1h-.1s3.6-2.8 8-8.1c4.9-6.3 8.3-12.3 10.5-17.2 1.6-3.8 3-8 3.9-12.6h-10.9l-1.2-.9s3-5.6 6.8-13.4c.4-.9.8-1.9 1.3-2.9l12.4-30.6c.2-.7.4-1.4.5-2l.1.3.1-.3c.1.6.3 1.3.5 2l12.4 30.6c.5 1 .9 1.9 1.3 2.9 3.8 7.7 6.8 13.4 6.8 13.4h-1.6l-10.5.9c.9 4.6 2.2 8.8 3.9 12.6 2.3 4.9 5.6 10.9 10.5 17.2 4.4 5.3 8 8.1 8 8.1h-.1l.1.1s.9 1.7 1.8 2.6h-.1l.1.1h-17.7c9 26.5 31.9 41.9 31.9 41.9l-3.2.2c1.1.7-41 2.7-43.6 2.8h-.9-.1c-2.6-.1-44.7-2.1-43.6-2.8l-3.4-.2zM2178.6 1141.8s22.9-15.4 31.9-41.9h-17.7l.1-.1h-.1c.9-.9 1.8-2.6 1.8-2.6l.1-.1h-.1s3.6-2.8 8-8.1c4.9-6.3 8.3-12.3 10.5-17.2 1.6-3.8 3-8 3.9-12.6h-10.9l-1.2-.9s3-5.6 6.8-13.4c.4-.9.8-1.9 1.3-2.9l12.4-30.6c.2-.7.4-1.4.5-2l.1.3.1-.3c.1.6.3 1.3.5 2l12.4 30.6c.5 1 .9 1.9 1.3 2.9 3.8 7.7 6.8 13.4 6.8 13.4h-1.6l-10.5.9c.9 4.6 2.2 8.8 3.9 12.6 2.3 4.9 5.6 10.9 10.5 17.2 4.4 5.3 8 8.1 8 8.1h-.1l.1.1s.9 1.7 1.8 2.6h-.1l.1.1h-17.7c9 26.5 31.9 41.9 31.9 41.9l-3.2.2c1.1.7-41 2.7-43.6 2.8h-1-.1c-2.6-.1-44.7-2.1-43.6-2.8l-3.3-.2z"/><path fill="#A0A8A1" d="M2211.7 1157.5s22.9-15.4 31.9-41.9h-17.7l.1-.1h-.1c.9-.9 1.8-2.6 1.8-2.6l.1-.1h-.1s3.6-2.8 8-8.1c4.9-6.3 8.3-12.3 10.5-17.2 1.6-3.8 3-8 3.9-12.6h-10.9l-1.2-.9s3-5.6 6.8-13.4c.4-.9.8-1.9 1.3-2.9l12.4-30.6c.2-.7.4-1.4.5-2l.1.3.1-.3c.1.6.3 1.3.5 2l12.4 30.6c.5 1 .9 1.9 1.3 2.9 3.8 7.7 6.8 13.4 6.8 13.4h-1.6l-10.5.9c.9 4.6 2.2 8.8 3.9 12.6 2.3 4.9 5.6 10.9 10.5 17.2 4.4 5.3 8 8.1 8 8.1h-.1l.1.1s.9 1.7 1.8 2.6h-.1l.1.1h-17.7c9 26.5 31.9 41.9 31.9 41.9l-3.2.2c1.1.7-41 2.7-43.6 2.8h-.9-.1c-2.6-.1-44.7-2.1-43.6-2.8l-3.4-.2zM2032.8 1158.8s22.9-15.4 31.9-41.9H2047l.1-.1h-.1c.9-.9 1.8-2.6 1.8-2.6l.1-.1h-.1s3.6-2.8 8-8.1c4.9-6.3 8.3-12.3 10.5-17.2 1.6-3.8 3-8 3.9-12.6h-10.9l-1.2-.9s3-5.6 6.8-13.4c.4-.9.8-1.9 1.3-2.9l12.4-30.6c.2-.7.4-1.4.5-2l.1.3.1-.3c.1.6.3 1.3.5 2l12.4 30.6c.5 1 .9 1.9 1.3 2.9 3.8 7.7 6.8 13.4 6.8 13.4h-1.6l-10.5.9c.9 4.6 2.2 8.8 3.9 12.6 2.3 4.9 5.6 10.9 10.5 17.2 4.4 5.3 8 8.1 8 8.1h-.1l.1.1s.9 1.7 1.8 2.6h-.1l.1.1h-17.7c9 26.5 31.9 41.9 31.9 41.9l-3.2.2c1.1.7-41 2.7-43.6 2.8h-.9-.1c-2.6-.1-44.7-2.1-43.6-2.8l-3.4-.2z"/><path fill="#A0A8A1" d="M2095.8 1158.2s22.9-15.4 31.9-41.9H2110l.1-.1h-.1c.9-.9 1.8-2.6 1.8-2.6l.1-.1h-.1s3.6-2.8 8-8.1c4.9-6.3 8.3-12.3 10.5-17.2 1.6-3.8 3-8 3.9-12.6h-10.9l-1.2-.9s3-5.6 6.8-13.4c.4-.9.8-1.9 1.3-2.9l12.4-30.6c.2-.7.4-1.4.5-2l.1.3.1-.3c.1.6.3 1.3.5 2l12.4 30.6c.5 1 .9 1.9 1.3 2.9 3.8 7.7 6.8 13.4 6.8 13.4h-1.6l-10.5.9c.9 4.6 2.2 8.8 3.9 12.6 2.3 4.9 5.6 10.9 10.5 17.2 4.4 5.3 8 8.1 8 8.1h-.1l.1.1s.9 1.7 1.8 2.6h-.1l.1.1h-17.7c9 26.5 31.9 41.9 31.9 41.9l-3.2.2c1.1.7-41 2.7-43.6 2.8h-1-.1c-2.6-.1-44.7-2.1-43.6-2.8l-3.3-.2z"/><path fill="#A0A8A1" d="M2094.9 1136.7s22.9-15.4 31.9-41.9H2109l.1-.1h-.1c.9-.9 1.8-2.6 1.8-2.6l.1-.1h-.1s3.6-2.8 8-8.1c4.9-6.3 8.3-12.3 10.5-17.2 1.6-3.8 3-8 3.9-12.6h-10.9l-1.2-.9s3-5.6 6.8-13.4c.4-.9.8-1.9 1.3-2.9l12.4-30.6c.2-.7.4-1.4.5-2l.1.3.1-.3c.1.6.3 1.3.5 2l12.4 30.6c.5 1 .9 1.9 1.3 2.9 3.8 7.7 6.8 13.4 6.8 13.4h-1.6l-10.5.9c.9 4.6 2.2 8.8 3.9 12.6 2.3 4.9 5.6 10.9 10.5 17.2 4.4 5.3 8 8.1 8 8.1h-.1l.1.1s.9 1.7 1.8 2.6h-.1l.1.1h-17.7c9 26.5 31.9 41.9 31.9 41.9l-3.2.2c1.1.7-41 2.7-43.6 2.8h-.9-.1c-2.6-.1-44.7-2.1-43.6-2.8l-3.3-.2c0 .1 0 0 0 0zM1892.6 1124.4s22.9-15.4 31.9-41.9h-17.7l.1-.1h-.1c.9-.9 1.8-2.6 1.8-2.6l.1-.1h-.1s3.6-2.8 8-8.1c4.9-6.3 8.3-12.3 10.5-17.2 1.6-3.8 3-8 3.9-12.6h-11l-1.2-.9s3-5.6 6.8-13.4c.4-.9.8-1.9 1.3-2.9l12.4-30.6c.2-.7.4-1.4.5-2l.1.3.1-.3c.1.6.3 1.3.5 2l12.4 30.6c.5 1 .9 1.9 1.3 2.9 3.8 7.7 6.8 13.4 6.8 13.4h-1.6l-10.5.9c.9 4.6 2.2 8.8 3.9 12.6 2.3 4.9 5.6 10.9 10.5 17.2 4.4 5.3 8 8.1 8 8.1h-.1l.1.1s.9 1.7 1.8 2.6h-.1l.1.1h-17.7c9 26.5 31.9 41.9 31.9 41.9l-3.2.2c1.1.7-41 2.7-43.6 2.8h-1-.1c-2.6-.1-44.7-2.1-43.6-2.8l-3.2-.2z"/><path fill="#A0A8A1" d="M1855.3 1121.6s22.9-15.4 31.9-41.9h-17.7l.1-.1h-.1c.9-.9 1.8-2.6 1.8-2.6l.1-.1h-.1s3.6-2.8 8-8.1c4.9-6.3 8.3-12.3 10.5-17.2 1.6-3.8 3-8 3.9-12.6h-10.9l-1.2-.9s3-5.6 6.8-13.4c.4-.9.8-1.9 1.3-2.9l12.4-30.6c.2-.7.4-1.4.5-2l.1.3.1-.3c.1.6.3 1.3.5 2l12.4 30.6c.5 1 .9 1.9 1.3 2.9 3.8 7.7 6.8 13.4 6.8 13.4h-1.6l-10.5.9c.9 4.6 2.2 8.8 3.9 12.6 2.3 4.9 5.6 10.9 10.5 17.2 4.4 5.3 8 8.1 8 8.1h-.1l.1.1s.9 1.7 1.8 2.6h-.1l.1.1h-17.7c9 26.5 31.9 41.9 31.9 41.9l-3.2.2c1.1.7-41 2.7-43.6 2.8h-1.1-.1c-2.6-.1-44.7-2.1-43.6-2.8l-3.2-.2s.1 0 0 0z"/><path fill="#A0A8A1" d="M1913.7 1149.1s22.9-15.4 31.9-41.9h-17.7l.1-.1h-.1c.9-.9 1.8-2.6 1.8-2.6l.1-.1h-.1s3.6-2.8 8-8.1c4.9-6.3 8.3-12.3 10.5-17.2 1.6-3.8 3-8 3.9-12.6h-10.9l-1.2-.9s3-5.6 6.8-13.4c.4-.9.8-1.9 1.3-2.9l12.4-30.6c.2-.7.4-1.4.5-2l.1.3.1-.3c.1.6.3 1.3.5 2l12.4 30.6c.5 1 .9 1.9 1.3 2.9 3.8 7.7 6.8 13.4 6.8 13.4h-1.6l-10.5.9c.9 4.6 2.2 8.8 3.9 12.6 2.3 4.9 5.6 10.9 10.5 17.2 4.4 5.3 8 8.1 8 8.1h-.1l.1.1s.9 1.7 1.8 2.6h-.1l.1.1h-17.7c9 26.5 31.9 41.9 31.9 41.9l-3.2.2c1.1.7-41 2.7-43.6 2.8h-1-.1c-2.6-.1-44.7-2.1-43.6-2.8l-3.3-.2zM2009.3 1167.5s22.9-15.4 31.9-41.9h-17.7l.1-.1h-.1c.9-.9 1.8-2.6 1.8-2.6l.1-.1h-.1s3.6-2.8 8-8.1c4.9-6.3 8.3-12.3 10.5-17.2 1.6-3.8 3-8 3.9-12.6h-10.9l-1.2-.9s3-5.6 6.8-13.4c.4-.9.8-1.9 1.3-2.9l12.4-30.6c.2-.7.4-1.4.5-2l.1.3.1-.3c.1.6.3 1.3.5 2l12.4 30.6c.5 1 .9 1.9 1.3 2.9 3.8 7.7 6.8 13.4 6.8 13.4h-1.6l-10.5.9c.9 4.6 2.2 8.8 3.9 12.6 2.3 4.9 5.6 10.9 10.5 17.2 4.4 5.3 8 8.1 8 8.1h-.1l.1.1s.9 1.7 1.8 2.6h-.1l.1.1h-17.7c9 26.5 31.9 41.9 31.9 41.9l-3.2.2c1.1.7-41 2.7-43.6 2.8h-.9-.1c-2.6-.1-44.7-2.1-43.6-2.8l-3.4-.2zM1822.3 1185.3s22.9-15.4 31.9-41.9h-17.7l.1-.1h-.1c.9-.9 1.8-2.6 1.8-2.6l.1-.1h-.1s3.6-2.8 8-8.1c4.9-6.3 8.3-12.3 10.5-17.2 1.6-3.8 3-8 3.9-12.6h-10.9l-1.2-.9s3-5.6 6.8-13.4c.4-.9.8-1.9 1.3-2.9l12.4-30.6c.2-.7.4-1.4.5-2l.1.3.1-.3c.1.6.3 1.3.5 2l12.4 30.6c.5 1 .9 1.9 1.3 2.9 3.8 7.7 6.8 13.4 6.8 13.4h-1.6l-10.5.9c.9 4.6 2.2 8.8 3.9 12.6 2.3 4.9 5.6 10.9 10.5 17.2 4.4 5.3 8 8.1 8 8.1h-.1l.1.1s.9 1.7 1.8 2.6h-.1l.1.1h-17.7c9 26.5 31.9 41.9 31.9 41.9l-3.2.2c1.1.7-41 2.7-43.6 2.8h-1-.1c-2.6-.1-44.7-2.1-43.6-2.8l-3.3-.2c0 .1 0 0 0 0z"/><path fill="#A0A8A1" d="M1770 1163.9s22.9-15.4 31.9-41.9h-17.7l.1-.1h-.1c.9-.9 1.8-2.6 1.8-2.6l.1-.1h-.1s3.6-2.8 8-8.1c4.9-6.3 8.3-12.3 10.5-17.2 1.6-3.8 3-8 3.9-12.6h-10.9l-1.2-.9s3-5.6 6.8-13.4c.4-.9.8-1.9 1.3-2.9l12.4-30.6c.2-.7.4-1.4.5-2l.1.3.1-.3c.1.6.3 1.3.5 2l12.4 30.6c.5 1 .9 1.9 1.3 2.9 3.8 7.7 6.8 13.4 6.8 13.4h-1.6l-10.5.9c.9 4.6 2.2 8.8 3.9 12.6 2.3 4.9 5.6 10.9 10.5 17.2 4.4 5.3 8 8.1 8 8.1h-.1l.1.1s.9 1.7 1.8 2.6h-.1l.1.1h-17.7c9 26.5 31.9 41.9 31.9 41.9l-3.2.2c1.1.7-41 2.7-43.6 2.8h-1.1-.1c-2.6-.1-44.7-2.1-43.6-2.8l-3.2-.2z"/><path fill="#A0A8A1" d="M1852.8 1146.8s22.9-15.4 31.9-41.9H1867l.1-.1h-.1c.9-.9 1.8-2.6 1.8-2.6l.1-.1h-.1s3.6-2.8 8-8.1c4.9-6.3 8.3-12.3 10.5-17.2 1.6-3.8 3-8 3.9-12.6h-10.9l-1.2-.9s3-5.6 6.8-13.4c.4-.9.8-1.9 1.3-2.9l12.4-30.6c.2-.7.4-1.4.5-2l.1.3.1-.3c.1.6.3 1.3.5 2l12.4 30.6c.5 1 .9 1.9 1.3 2.9 3.8 7.7 6.8 13.4 6.8 13.4h-1.6l-10.5.9c.9 4.6 2.2 8.8 3.9 12.6 2.3 4.9 5.6 10.9 10.5 17.2 4.4 5.3 8 8.1 8 8.1h-.1l.1.1s.9 1.7 1.8 2.6h-.1l.1.1h-17.7c9 26.5 31.9 41.9 31.9 41.9l-3.2.2c1.1.7-41 2.7-43.6 2.8h-1.1-.1c-2.6-.1-44.7-2.1-43.6-2.8l-3.2-.2s.1 0 0 0zM1664 1195.3s22.9-15.4 31.9-41.9h-17.7l.1-.1h-.1c.9-.9 1.8-2.6 1.8-2.6l.1-.1h-.1s3.6-2.8 8-8.1c4.9-6.3 8.3-12.3 10.5-17.2 1.6-3.8 3-8 3.9-12.6h-10.9l-1.2-.9s3-5.6 6.8-13.4c.4-.9.8-1.9 1.3-2.9l12.4-30.6c.2-.7.4-1.4.5-2l.1.3.1-.3c.1.6.3 1.3.5 2l12.4 30.6c.5 1 .9 1.9 1.3 2.9 3.8 7.7 6.8 13.4 6.8 13.4h-1.6l-10.5.9c.9 4.6 2.2 8.8 3.9 12.6 2.3 4.9 5.6 10.9 10.5 17.2 4.4 5.3 8 8.1 8 8.1h-.1l.1.1s.9 1.7 1.8 2.6h-.1l.1.1h-17.7c9 26.5 31.9 41.9 31.9 41.9l-3.2.2c1.1.7-41 2.7-43.6 2.8h-1.1-.1c-2.6-.1-44.7-2.1-43.6-2.8l-3.2-.2z"/><path fill="#A0A8A1" d="M1761.3 1142.3s22.9-15.4 31.9-41.9h-17.7l.1-.1h-.1c.9-.9 1.8-2.6 1.8-2.6l.1-.1h-.1s3.6-2.8 8-8.1c4.9-6.3 8.3-12.3 10.5-17.2 1.6-3.8 3-8 3.9-12.6h-10.9l-1.2-.9s3-5.6 6.8-13.4c.4-.9.8-1.9 1.3-2.9l12.4-30.6c.2-.7.4-1.4.5-2l.1.3.1-.3c.1.6.3 1.3.5 2l12.4 30.6c.5 1 .9 1.9 1.3 2.9 3.8 7.7 6.8 13.4 6.8 13.4h-1.6l-10.5.9c.9 4.6 2.2 8.8 3.9 12.6 2.3 4.9 5.6 10.9 10.5 17.2 4.4 5.3 8 8.1 8 8.1h-.1l.1.1s.9 1.7 1.8 2.6h-.1l.1.1h-17.7c9 26.5 31.9 41.9 31.9 41.9l-3.2.2c1.1.7-41 2.7-43.6 2.8h-1.1-.1c-2.6-.1-44.7-2.1-43.6-2.8l-3.2-.2zM1643.5 1172.3s22.9-15.4 31.9-41.9h-17.7l.1-.1h-.1c.9-.9 1.8-2.6 1.8-2.6l.1-.1h-.1s3.6-2.8 8-8.1c4.9-6.3 8.3-12.3 10.5-17.2 1.6-3.8 3-8 3.9-12.6H1671l-1.2-.9s3-5.6 6.8-13.4c.4-.9.8-1.9 1.3-2.9l12.4-30.6c.2-.7.4-1.4.5-2l.1.3.1-.3c.1.6.3 1.3.5 2l12.4 30.6c.5 1 .9 1.9 1.3 2.9 3.8 7.7 6.8 13.4 6.8 13.4h-1.6l-10.5.9c.9 4.6 2.2 8.8 3.9 12.6 2.3 4.9 5.6 10.9 10.5 17.2 4.4 5.3 8 8.1 8 8.1h-.1l.1.1s.9 1.7 1.8 2.6h-.1l.1.1h-17.7c9 26.5 31.9 41.9 31.9 41.9l-3.2.2c1.1.7-41 2.7-43.6 2.8h-1-.1c-2.6-.1-44.7-2.1-43.6-2.8l-3.3-.2z"/><path fill="#A0A8A1" d="M1558.6 1150.5s22.9-15.4 31.9-41.9h-17.7l.1-.1h-.1c.9-.9 1.8-2.6 1.8-2.6l.1-.1h-.1s3.6-2.8 8-8.1c4.9-6.3 8.3-12.3 10.5-17.2 1.6-3.8 3-8 3.9-12.6h-10.9l-1.2-.9s3-5.6 6.8-13.4c.4-.9.8-1.9 1.3-2.9l12.4-30.6c.2-.7.4-1.4.5-2l.1.3.1-.3c.1.6.3 1.3.5 2l12.4 30.6c.5 1 .9 1.9 1.3 2.9 3.8 7.7 6.8 13.4 6.8 13.4h-1.6l-10.5.9c.9 4.6 2.2 8.8 3.9 12.6 2.3 4.9 5.6 10.9 10.5 17.2 4.4 5.3 8 8.1 8 8.1h-.1l.1.1s.9 1.7 1.8 2.6h-.1l.1.1h-17.7c9 26.5 31.9 41.9 31.9 41.9l-3.2.2c1.1.7-41 2.7-43.6 2.8h-1.1-.1c-2.6-.1-44.7-2.1-43.6-2.8l-3.2-.2c0 .1 0 0 0 0zM1721.1 1158.3s22.9-15.4 31.9-41.9h-17.7l.1-.1h-.1c.9-.9 1.8-2.6 1.8-2.6l.1-.1h-.1s3.6-2.8 8-8.1c4.9-6.3 8.3-12.3 10.5-17.2 1.6-3.8 3-8 3.9-12.6h-10.9l-1.2-.9s3-5.6 6.8-13.4c.4-.9.8-1.9 1.3-2.9l12.4-30.6c.2-.7.4-1.4.5-2l.1.3.1-.3c.1.6.3 1.3.5 2l12.4 30.6c.5 1 .9 1.9 1.3 2.9 3.8 7.7 6.8 13.4 6.8 13.4h-1.6l-10.5.9c.9 4.6 2.2 8.8 3.9 12.6 2.3 4.9 5.6 10.9 10.5 17.2 4.4 5.3 8 8.1 8 8.1h-.1l.1.1s.9 1.7 1.8 2.6h-.1l.1.1H1784c9 26.5 31.9 41.9 31.9 41.9l-3.2.2c1.1.7-41 2.7-43.6 2.8h-1-.1c-2.6-.1-44.7-2.1-43.6-2.8l-3.3-.2z"/><path fill="#A0A8A1" d="M1801.6 1114.5s22.9-15.4 31.9-41.9h-17.7l.1-.1h-.1c.9-.9 1.8-2.6 1.8-2.6l.1-.1h-.1s3.6-2.8 8-8.1c4.9-6.3 8.3-12.3 10.5-17.2 1.6-3.8 3-8 3.9-12.6h-11l-1.2-.9s3-5.6 6.8-13.4c.4-.9.8-1.9 1.3-2.9l12.4-30.6c.2-.7.4-1.4.5-2l.1.3.1-.3c.1.6.3 1.3.5 2l12.4 30.6c.5 1 .9 1.9 1.3 2.9 3.8 7.7 6.8 13.4 6.8 13.4h-1.6l-10.5.9c.9 4.6 2.2 8.8 3.9 12.6 2.3 4.9 5.6 10.9 10.5 17.2 4.4 5.3 8 8.1 8 8.1h-.1l.1.1s.9 1.7 1.8 2.6h-.1l.1.1h-17.7c9 26.5 31.9 41.9 31.9 41.9l-3.2.2c1.1.7-41 2.7-43.6 2.8h-1-.1c-2.6-.1-44.7-2.1-43.6-2.8l-3.2-.2zM1668.6 1131.8s22.9-15.4 31.9-41.9h-17.7l.1-.1h-.1c.9-.9 1.8-2.6 1.8-2.6l.1-.1h-.1s3.6-2.8 8-8.1c4.9-6.3 8.3-12.3 10.5-17.2 1.6-3.8 3-8 3.9-12.6h-10.9l-1.2-.9s3-5.6 6.8-13.4c.4-.9.8-1.9 1.3-2.9l12.4-30.6c.2-.7.4-1.4.5-2l.1.3.1-.3c.1.6.3 1.3.5 2l12.4 30.6c.5 1 .9 1.9 1.3 2.9 3.8 7.7 6.8 13.4 6.8 13.4h-1.6l-10.5.9c.9 4.6 2.2 8.8 3.9 12.6 2.3 4.9 5.6 10.9 10.5 17.2 4.4 5.3 8 8.1 8 8.1h-.1l.1.1s.9 1.7 1.8 2.6h-.1l.1.1h-17.7c9 26.5 31.9 41.9 31.9 41.9l-3.2.2c1.1.7-41 2.7-43.6 2.8h-1-.1c-2.6-.1-44.7-2.1-43.6-2.8l-3.3-.2zM1357.3 1112.1s22.9-15.4 31.9-41.9h-17.7l.1-.1h-.1c.9-.9 1.8-2.6 1.8-2.6l.1-.1h-.1s3.6-2.8 8-8.1c4.9-6.3 8.3-12.3 10.5-17.2 1.6-3.8 3-8 3.9-12.6h-10.9l-1.2-.9s3-5.6 6.8-13.4c.4-.9.8-1.9 1.3-2.9l12.4-30.6c.2-.7.4-1.4.5-2l.1.3.1-.3c.1.6.3 1.3.5 2l12.4 30.6c.5 1 .9 1.9 1.3 2.9 3.8 7.7 6.8 13.4 6.8 13.4h-1.6l-10.5.9c.9 4.6 2.2 8.8 3.9 12.6 2.3 4.9 5.6 10.9 10.5 17.2 4.4 5.3 8 8.1 8 8.1h-.1l.1.1s.9 1.7 1.8 2.6h-.1l.1.1h-17.7c9 26.5 31.9 41.9 31.9 41.9l-3.2.2c1.1.7-41 2.7-43.6 2.8h-1-.1c-2.6-.1-44.7-2.1-43.6-2.8l-3.3-.2z"/><path fill="#A0A8A1" d="M1305.7 1111.6s22.9-15.4 31.9-41.9h-17.7l.1-.1h-.1c.9-.9 1.8-2.6 1.8-2.6l.1-.1h-.1s3.6-2.8 8-8.1c4.9-6.3 8.3-12.3 10.5-17.2 1.6-3.8 3-8 3.9-12.6h-10.9l-1.2-.9s3-5.6 6.8-13.4c.4-.9.8-1.9 1.3-2.9l12.4-30.6c.2-.7.4-1.4.5-2l.1.3.1-.3c.1.6.3 1.3.5 2l12.4 30.6c.5 1 .9 1.9 1.3 2.9 3.8 7.7 6.8 13.4 6.8 13.4h-1.6l-10.5.9c.9 4.6 2.2 8.8 3.9 12.6 2.3 4.9 5.6 10.9 10.5 17.2 4.4 5.3 8 8.1 8 8.1h-.1l.1.1s.9 1.7 1.8 2.6h-.1l.1.1h-17.7c9 26.5 31.9 41.9 31.9 41.9l-3.2.2c1.1.7-41 2.7-43.6 2.8h-1.1-.1c-2.6-.1-44.7-2.1-43.6-2.8l-3.2-.2zM1584.6 1135.6s22.9-15.4 31.9-41.9h-17.7l.1-.1h-.1c.9-.9 1.8-2.6 1.8-2.6l.1-.1h-.1s3.6-2.8 8-8.1c4.9-6.3 8.3-12.3 10.5-17.2 1.6-3.8 3-8 3.9-12.6h-11l-1.2-.9s3-5.6 6.8-13.4c.4-.9.8-1.9 1.3-2.9l12.4-30.6c.2-.7.4-1.4.5-2l.1.3.1-.3c.1.6.3 1.3.5 2l12.4 30.6c.5 1 .9 1.9 1.3 2.9 3.8 7.7 6.8 13.4 6.8 13.4h-1.6l-10.5.9c.9 4.6 2.2 8.8 3.9 12.6 2.3 4.9 5.6 10.9 10.5 17.2 4.4 5.3 8 8.1 8 8.1h-.1l.1.1s.9 1.7 1.8 2.6h-.1l.1.1h-17.7c9 26.5 31.9 41.9 31.9 41.9l-3.2.2c1.1.7-41 2.7-43.6 2.8h-1-.1c-2.6-.1-44.7-2.1-43.6-2.8l-3.2-.2zM1497.3 1173.7s22.9-15.4 31.9-41.9h-17.7l.1-.1h-.1c.9-.9 1.8-2.6 1.8-2.6l.1-.1h-.1s3.6-2.8 8-8.1c4.9-6.3 8.3-12.3 10.5-17.2 1.6-3.8 3-8 3.9-12.6h-10.9l-1.2-.9s3-5.6 6.8-13.4c.4-.9.8-1.9 1.3-2.9l12.4-30.6c.2-.7.4-1.4.5-2l.1.3.1-.3c.1.6.3 1.3.5 2l12.4 30.6c.5 1 .9 1.9 1.3 2.9 3.8 7.7 6.8 13.4 6.8 13.4h-1.6l-10.5.9c.9 4.6 2.2 8.8 3.9 12.6 2.3 4.9 5.6 10.9 10.5 17.2 4.4 5.3 8 8.1 8 8.1h-.1l.1.1s.9 1.7 1.8 2.6h-.1l.1.1h-17.7c9 26.5 31.9 41.9 31.9 41.9l-3.2.2c1.1.7-41 2.7-43.6 2.8h-1.1-.1c-2.6-.1-44.7-2.1-43.6-2.8l-3.2-.2z"/><path fill="#A0A8A1" d="M1372.4 1188.3s22.9-15.4 31.9-41.9h-17.7l.1-.1h-.1c.9-.9 1.8-2.6 1.8-2.6l.1-.1h-.1s3.6-2.8 8-8.1c4.9-6.3 8.3-12.3 10.5-17.2 1.6-3.8 3-8 3.9-12.6h-10.9l-1.2-.9s3-5.6 6.8-13.4c.4-.9.8-1.9 1.3-2.9l12.4-30.6c.2-.7.4-1.4.5-2l.1.3.1-.3c.1.6.3 1.3.5 2l12.4 30.6c.5 1 .9 1.9 1.3 2.9 3.8 7.7 6.8 13.4 6.8 13.4h-1.6l-10.5.9c.9 4.6 2.2 8.8 3.9 12.6 2.3 4.9 5.6 10.9 10.5 17.2 4.4 5.3 8 8.1 8 8.1h-.1l.1.1s.9 1.7 1.8 2.6h-.1l.1.1h-17.7c9 26.5 31.9 41.9 31.9 41.9l-3.2.2c1.1.7-41 2.7-43.6 2.8h-1-.1c-2.6-.1-44.7-2.1-43.6-2.8l-3.3-.2zM1509.2 1137s22.9-15.4 31.9-41.9h-17.7l.1-.1h-.1c.9-.9 1.8-2.6 1.8-2.6l.1-.1h-.1s3.6-2.8 8-8.1c4.9-6.3 8.3-12.3 10.5-17.2 1.6-3.8 3-8 3.9-12.6h-10.9l-1.2-.9s3-5.6 6.8-13.4c.4-.9.8-1.9 1.3-2.9l12.4-30.6c.2-.7.4-1.4.5-2l.1.3.1-.3c.1.6.3 1.3.5 2l12.4 30.6c.5 1 .9 1.9 1.3 2.9 3.8 7.7 6.8 13.4 6.8 13.4h-1.6l-10.5.9c.9 4.6 2.2 8.8 3.9 12.6 2.3 4.9 5.6 10.9 10.5 17.2 4.4 5.3 8 8.1 8 8.1h-.1l.1.1s.9 1.7 1.8 2.6h-.1l.1.1h-17.7c9 26.5 31.9 41.9 31.9 41.9l-3.2.2c1.1.7-41 2.7-43.6 2.8h-1-.1c-2.6-.1-44.7-2.1-43.6-2.8l-3.3-.2zM1277.3 1170.2s22.9-15.4 31.9-41.9h-17.7l.1-.1h-.1c.9-.9 1.8-2.6 1.8-2.6l.1-.1h-.1s3.6-2.8 8-8.1c4.9-6.3 8.3-12.3 10.5-17.2 1.6-3.8 3-8 3.9-12.6h-10.9l-1.2-.9s3-5.6 6.8-13.4c.4-.9.8-1.9 1.3-2.9l12.4-30.6c.2-.7.4-1.4.5-2l.1.3.1-.3c.1.6.3 1.3.5 2l12.4 30.6c.5 1 .9 1.9 1.3 2.9 3.8 7.7 6.8 13.4 6.8 13.4h-1.6l-10.5.9c.9 4.6 2.2 8.8 3.9 12.6 2.3 4.9 5.6 10.9 10.5 17.2 4.4 5.3 8 8.1 8 8.1h-.1l.1.1s.9 1.7 1.8 2.6h-.1l.1.1h-17.7c9 26.5 31.9 41.9 31.9 41.9l-3.2.2c1.1.7-41 2.7-43.6 2.8h-1-.1c-2.6-.1-44.7-2.1-43.6-2.8l-3.3-.2zM1165.4 1171.3s22.9-15.4 31.9-41.9h-17.7l.1-.1h-.1c.9-.9 1.8-2.6 1.8-2.6l.1-.1h-.1s3.6-2.8 8-8.1c4.9-6.3 8.3-12.3 10.5-17.2 1.6-3.8 3-8 3.9-12.6h-10.9l-1.2-.9s3-5.6 6.8-13.4c.4-.9.8-1.9 1.3-2.9l12.4-30.6c.2-.7.4-1.4.5-2l.1.3.1-.3c.1.6.3 1.3.5 2l12.4 30.6c.5 1 .9 1.9 1.3 2.9 3.8 7.7 6.8 13.4 6.8 13.4h-1.6l-10.5.9c.9 4.6 2.2 8.8 3.9 12.6 2.3 4.9 5.6 10.9 10.5 17.2 4.4 5.3 8 8.1 8 8.1h-.1l.1.1s.9 1.7 1.8 2.6h-.1l.1.1h-17.7c9 26.5 31.9 41.9 31.9 41.9l-3.2.2c1.1.7-41 2.7-43.6 2.8h-1-.1c-2.6-.1-44.7-2.1-43.6-2.8l-3.3-.2z"/><path fill="#A0A8A1" d="M1244.7 1132.8s22.9-15.4 31.9-41.9h-17.7l.1-.1h-.1c.9-.9 1.8-2.6 1.8-2.6l.1-.1h-.1s3.6-2.8 8-8.1c4.9-6.3 8.3-12.3 10.5-17.2 1.6-3.8 3-8 3.9-12.6h-10.9l-1.2-.9s3-5.6 6.8-13.4c.4-.9.8-1.9 1.3-2.9l12.4-30.6c.2-.7.4-1.4.5-2l.1.3.1-.3c.1.6.3 1.3.5 2l12.4 30.6c.5 1 .9 1.9 1.3 2.9 3.8 7.7 6.8 13.4 6.8 13.4h-1.6l-10.5.9c.9 4.6 2.2 8.8 3.9 12.6 2.3 4.9 5.6 10.9 10.5 17.2 4.4 5.3 8 8.1 8 8.1h-.1l.1.1s.9 1.7 1.8 2.6h-.1l.1.1h-17.7c9 26.5 31.9 41.9 31.9 41.9l-3.2.2c1.1.7-41 2.7-43.6 2.8h-1-.1c-2.6-.1-44.7-2.1-43.6-2.8l-3.3-.2zM1132.7 1131.4s22.9-15.4 31.9-41.9h-17.7l.1-.1h-.1c.9-.9 1.8-2.6 1.8-2.6l.1-.1h-.1s3.6-2.8 8-8.1c4.9-6.3 8.3-12.3 10.5-17.2 1.6-3.8 3-8 3.9-12.6h-10.9l-1.2-.9s3-5.6 6.8-13.4c.4-.9.8-1.9 1.3-2.9l12.4-30.6c.2-.7.4-1.4.5-2l.1.3.1-.3c.1.6.3 1.3.5 2l12.4 30.6c.5 1 .9 1.9 1.3 2.9 3.8 7.7 6.8 13.4 6.8 13.4h-1.6l-10.5.9c.9 4.6 2.2 8.8 3.9 12.6 2.3 4.9 5.6 10.9 10.5 17.2 4.4 5.3 8 8.1 8 8.1h-.1l.1.1s.9 1.7 1.8 2.6h-.1l.1.1h-17.7c9 26.5 31.9 41.9 31.9 41.9l-3.2.2c1.1.7-41 2.7-43.6 2.8h-1.1-.1c-2.6-.1-44.7-2.1-43.6-2.8l-3.2-.2z"/><path fill="#A0A8A1" d="M1154.2 1136.2s22.9-15.4 31.9-41.9h-17.7l.1-.1h-.1c.9-.9 1.8-2.6 1.8-2.6l.1-.1h-.1s3.6-2.8 8-8.1c4.9-6.3 8.3-12.3 10.5-17.2 1.6-3.8 3-8 3.9-12.6h-10.9l-1.2-.9s3-5.6 6.8-13.4c.4-.9.8-1.9 1.3-2.9l12.4-30.6c.2-.7.4-1.4.5-2l.1.3.1-.3c.1.6.3 1.3.5 2l12.4 30.6c.5 1 .9 1.9 1.3 2.9 3.8 7.7 6.8 13.4 6.8 13.4h-1.6l-10.5.9c.9 4.6 2.2 8.8 3.9 12.6 2.3 4.9 5.6 10.9 10.5 17.2 4.4 5.3 8 8.1 8 8.1h-.1l.1.1s.9 1.7 1.8 2.6h-.1l.1.1h-17.7c9 26.5 31.9 41.9 31.9 41.9l-3.2.2c1.1.7-41 2.7-43.6 2.8h-1-.1c-2.6-.1-44.7-2.1-43.6-2.8l-3.3-.2zM1439.2 1149.5s22.9-15.4 31.9-41.9h-17.7l.1-.1h-.1c.9-.9 1.8-2.6 1.8-2.6l.1-.1h-.1s3.6-2.8 8-8.1c4.9-6.3 8.3-12.3 10.5-17.2 1.6-3.8 3-8 3.9-12.6h-10.9l-1.2-.9s3-5.6 6.8-13.4c.4-.9.8-1.9 1.3-2.9l12.4-30.6c.2-.7.4-1.4.5-2l.1.3.1-.3c.1.6.3 1.3.5 2l12.4 30.6c.5 1 .9 1.9 1.3 2.9 3.8 7.7 6.8 13.4 6.8 13.4h-1.6l-10.5.9c.9 4.6 2.2 8.8 3.9 12.6 2.3 4.9 5.6 10.9 10.5 17.2 4.4 5.3 8 8.1 8 8.1h-.1l.1.1s.9 1.7 1.8 2.6h-.1l.1.1h-17.7c9 26.5 31.9 41.9 31.9 41.9l-3.2.2c1.1.7-41 2.7-43.6 2.8h-1.1-.1c-2.6-.1-44.7-2.1-43.6-2.8l-3.2-.2z"/><path fill="#A0A8A1" d="M1476.9 1142.7s22.9-15.4 31.9-41.9h-17.7l.1-.1h-.1c.9-.9 1.8-2.6 1.8-2.6l.1-.1h-.1s3.6-2.8 8-8.1c4.9-6.3 8.3-12.3 10.5-17.2 1.6-3.8 3-8 3.9-12.6h-10.9l-1.2-.9s3-5.6 6.8-13.4c.4-.9.8-1.9 1.3-2.9l12.4-30.6c.2-.7.4-1.4.5-2l.1.3.1-.3c.1.6.3 1.3.5 2l12.4 30.6c.5 1 .9 1.9 1.3 2.9 3.8 7.7 6.8 13.4 6.8 13.4h-1.6l-10.5.9c.9 4.6 2.2 8.8 3.9 12.6 2.3 4.9 5.6 10.9 10.5 17.2 4.4 5.3 8 8.1 8 8.1h-.1l.1.1s.9 1.7 1.8 2.6h-.1l.1.1h-17.7c9 26.5 31.9 41.9 31.9 41.9l-3.2.2c1.1.7-41 2.7-43.6 2.8h-1.1-.1c-2.6-.1-44.7-2.1-43.6-2.8l-3.2-.2z"/><path fill="#A0A8A1" d="M1510.7 1187.7s22.9-15.4 31.9-41.9h-17.7l.1-.1h-.1c.9-.9 1.8-2.6 1.8-2.6l.1-.1h-.1s3.6-2.8 8-8.1c4.9-6.3 8.3-12.3 10.5-17.2 1.6-3.8 3-8 3.9-12.6h-10.9l-1.2-.9s3-5.6 6.8-13.4c.4-.9.8-1.9 1.3-2.9l12.4-30.6c.2-.7.4-1.4.5-2l.1.3.1-.3c.1.6.3 1.3.5 2l12.4 30.6c.5 1 .9 1.9 1.3 2.9 3.8 7.7 6.8 13.4 6.8 13.4h-1.6l-10.5.9c.9 4.6 2.2 8.8 3.9 12.6 2.3 4.9 5.6 10.9 10.5 17.2 4.4 5.3 8 8.1 8 8.1h-.1l.1.1s.9 1.7 1.8 2.6h-.1l.1.1h-17.7c9 26.5 31.9 41.9 31.9 41.9l-3.2.2c1.1.7-41 2.7-43.6 2.8h-1-.1c-2.6-.1-44.7-2.1-43.6-2.8l-3.3-.2zM1225.3 1192.7s22.9-15.4 31.9-41.9h-17.7l.1-.1h-.1c.9-.9 1.8-2.6 1.8-2.6l.1-.1h-.1s3.6-2.8 8-8.1c4.9-6.3 8.3-12.3 10.5-17.2 1.6-3.8 3-8 3.9-12.6h-10.9l-1.2-.9s3-5.6 6.8-13.4c.4-.9.8-1.9 1.3-2.9l12.4-30.6c.2-.7.4-1.4.5-2l.1.3.1-.3c.1.6.3 1.3.5 2l12.4 30.6c.5 1 .9 1.9 1.3 2.9 3.8 7.7 6.8 13.4 6.8 13.4h-1.6l-10.5.9c.9 4.6 2.2 8.8 3.9 12.6 2.3 4.9 5.6 10.9 10.5 17.2 4.4 5.3 8 8.1 8 8.1h-.1l.1.1s.9 1.7 1.8 2.6h-.1l.1.1h-17.7c9 26.5 31.9 41.9 31.9 41.9l-3.2.2c1.1.7-41 2.7-43.6 2.8h-1.1-.1c-2.6-.1-44.7-2.1-43.6-2.8l-3.2-.2zM1012.6 1198.3s22.9-15.4 31.9-41.9h-17.7l.1-.1h-.1c.9-.9 1.8-2.6 1.8-2.6l.1-.1h-.1s3.6-2.8 8-8.1c4.9-6.3 8.3-12.3 10.5-17.2 1.6-3.8 3-8 3.9-12.6h-11l-1.2-.9s3-5.6 6.8-13.4c.4-.9.8-1.9 1.3-2.9l12.4-30.6c.2-.7.4-1.4.5-2l.1.3.1-.3c.1.6.3 1.3.5 2l12.4 30.6c.5 1 .9 1.9 1.3 2.9 3.8 7.7 6.8 13.4 6.8 13.4h-1.6l-10.5.9c.9 4.6 2.2 8.8 3.9 12.6 2.3 4.9 5.6 10.9 10.5 17.2 4.4 5.3 8 8.1 8 8.1h-.1l.1.1s.9 1.7 1.8 2.6h-.1l.1.1h-17.7c9 26.5 31.9 41.9 31.9 41.9l-3.2.2c1.1.7-41 2.7-43.6 2.8h-1.1-.1c-2.6-.1-44.7-2.1-43.6-2.8l-3.1-.2z"/><path fill="#A0A8A1" d="M1022.8 1186.7s22.9-15.4 31.9-41.9H1037l.1-.1h-.1c.9-.9 1.8-2.6 1.8-2.6l.1-.1h-.1s3.6-2.8 8-8.1c4.9-6.3 8.3-12.3 10.5-17.2 1.6-3.8 3-8 3.9-12.6h-10.9l-1.2-.9s3-5.6 6.8-13.4c.4-.9.8-1.9 1.3-2.9l12.4-30.6c.2-.7.4-1.4.5-2l.1.3.1-.3c.1.6.3 1.3.5 2l12.4 30.6c.5 1 .9 1.9 1.3 2.9 3.8 7.7 6.8 13.4 6.8 13.4h-1.6l-10.5.9c.9 4.6 2.2 8.8 3.9 12.6 2.3 4.9 5.6 10.9 10.5 17.2 4.4 5.3 8 8.1 8 8.1h-.1l.1.1s.9 1.7 1.8 2.6h-.1l.1.1h-17.7c9 26.5 31.9 41.9 31.9 41.9l-3.2.2c1.1.7-41 2.7-43.6 2.8h-1-.1c-2.6-.1-44.7-2.1-43.6-2.8l-3.3-.2z"/><path fill="#A0A8A1" d="M1081.9 1186.8s22.9-15.4 31.9-41.9h-17.7l.1-.1h-.1c.9-.9 1.8-2.6 1.8-2.6l.1-.1h-.1s3.6-2.8 8-8.1c4.9-6.3 8.3-12.3 10.5-17.2 1.6-3.8 3-8 3.9-12.6h-10.9l-1.2-.9s3-5.6 6.8-13.4c.4-.9.8-1.9 1.3-2.9l12.4-30.6c.2-.7.4-1.4.5-2l.1.3.1-.3c.1.6.3 1.3.5 2l12.4 30.6c.5 1 .9 1.9 1.3 2.9 3.8 7.7 6.8 13.4 6.8 13.4h-1.6l-10.5.9c.9 4.6 2.2 8.8 3.9 12.6 2.3 4.9 5.6 10.9 10.5 17.2 4.4 5.3 8 8.1 8 8.1h-.1l.1.1s.9 1.7 1.8 2.6h-.1l.1.1h-17.7c9 26.5 31.9 41.9 31.9 41.9l-3.2.2c1.1.7-41 2.7-43.6 2.8h-1-.1c-2.6-.1-44.7-2.1-43.6-2.8l-3.3-.2zM975.2 1156.8s22.9-15.4 31.9-41.9h-17.7l.1-.1h-.1c.9-.9 1.8-2.6 1.8-2.6l.1-.1h-.1s3.6-2.8 8-8.1c4.9-6.3 8.3-12.3 10.5-17.2 1.6-3.8 3-8 3.9-12.6h-10.9l-1.2-.9s3-5.6 6.8-13.4c.4-.9.8-1.9 1.3-2.9l12.4-30.6c.2-.7.4-1.4.5-2l.1.3.1-.3c.1.6.3 1.3.5 2l12.4 30.6c.5 1 .9 1.9 1.3 2.9 3.8 7.7 6.8 13.4 6.8 13.4h-1.6l-10.5.9c.9 4.6 2.2 8.8 3.9 12.6 2.3 4.9 5.6 10.9 10.5 17.2 4.4 5.3 8 8.1 8 8.1h-.1l.1.1s.9 1.7 1.8 2.6h-.1l.1.1h-17.7c9 26.5 31.9 41.9 31.9 41.9l-3.2.2c1.1.7-41 2.7-43.6 2.8h-1.1-.1c-2.6-.1-44.7-2.1-43.6-2.8l-3.2-.2zM806.4 1156.4s22.9-15.4 31.9-41.9h-17.7l.1-.1h-.1c.9-.9 1.8-2.6 1.8-2.6l.1-.1h-.1s3.6-2.8 8-8.1c4.9-6.3 8.3-12.3 10.5-17.2 1.6-3.8 3-8 3.9-12.6h-10.9l-1.2-.9s3-5.6 6.8-13.4c.4-.9.8-1.9 1.3-2.9l12.4-30.6c.2-.7.4-1.4.5-2l.1.3.1-.3c.1.6.3 1.3.5 2l12.4 30.6c.5 1 .9 1.9 1.3 2.9 3.8 7.7 6.8 13.4 6.8 13.4h-1.6l-10.5.9c.9 4.6 2.2 8.8 3.9 12.6 2.3 4.9 5.6 10.9 10.5 17.2 4.4 5.3 8 8.1 8 8.1h-.1l.1.1s.9 1.7 1.8 2.6h-.1l.1.1h-17.7c9 26.5 31.9 41.9 31.9 41.9l-3.2.2c1.1.7-41 2.7-43.6 2.8h-1.1-.1c-2.6-.1-44.7-2.1-43.6-2.8l-3.2-.2z"/><path fill="#A0A8A1" d="M769.2 1156.7s22.9-15.4 31.9-41.9h-17.7l.1-.1h-.1c.9-.9 1.8-2.6 1.8-2.6l.1-.1h-.1s3.6-2.8 8-8.1c4.9-6.3 8.3-12.3 10.5-17.2 1.6-3.8 3-8 3.9-12.6h-10.9l-1.2-.9s3-5.6 6.8-13.4c.4-.9.8-1.9 1.3-2.9l12.4-30.6c.2-.7.4-1.4.5-2l.1.3.1-.3c.1.6.3 1.3.5 2l12.4 30.6c.5 1 .9 1.9 1.3 2.9 3.8 7.7 6.8 13.4 6.8 13.4h-1.6l-10.5.9c.9 4.6 2.2 8.8 3.9 12.6 2.3 4.9 5.6 10.9 10.5 17.2 4.4 5.3 8 8.1 8 8.1h-.1l.1.1s.9 1.7 1.8 2.6h-.1l.1.1h-17.7c9 26.5 31.9 41.9 31.9 41.9l-3.2.2c1.1.7-41 2.7-43.6 2.8h-1.1-.1c-2.6-.1-44.7-2.1-43.6-2.8l-3.2-.2zM1001.1 1158.9s22.9-15.4 31.9-41.9h-17.7l.1-.1h-.1c.9-.9 1.8-2.6 1.8-2.6l.1-.1h-.1s3.6-2.8 8-8.1c4.9-6.3 8.3-12.3 10.5-17.2 1.6-3.8 3-8 3.9-12.6h-10.9l-1.2-.9s3-5.6 6.8-13.4c.4-.9.8-1.9 1.3-2.9l12.4-30.6c.2-.7.4-1.4.5-2l.1.3.1-.3c.1.6.3 1.3.5 2l12.4 30.6c.5 1 .9 1.9 1.3 2.9 3.8 7.7 6.8 13.4 6.8 13.4h-1.6l-10.5.9c.9 4.6 2.2 8.8 3.9 12.6 2.3 4.9 5.6 10.9 10.5 17.2 4.4 5.3 8 8.1 8 8.1h-.1l.1.1s.9 1.7 1.8 2.6h-.1l.1.1H1064c9 26.5 31.9 41.9 31.9 41.9l-3.2.2c1.1.7-41 2.7-43.6 2.8h-1.1-.1c-2.6-.1-44.7-2.1-43.6-2.8l-3.2-.2z"/><path fill="#A0A8A1" d="M930 1176.9s22.9-15.4 31.9-41.9h-17.7l.1-.1h-.1c.9-.9 1.8-2.6 1.8-2.6l.1-.1h-.1s3.6-2.8 8-8.1c4.9-6.3 8.3-12.3 10.5-17.2 1.6-3.8 3-8 3.9-12.6h-10.9l-1.2-.9s3-5.6 6.8-13.4c.4-.9.8-1.9 1.3-2.9l12.4-30.6c.2-.7.4-1.4.5-2l.1.3.1-.3c.1.6.3 1.3.5 2l12.4 30.6c.5 1 .9 1.9 1.3 2.9 3.8 7.7 6.8 13.4 6.8 13.4h-1.6l-10.5.9c.9 4.6 2.2 8.8 3.9 12.6 2.3 4.9 5.6 10.9 10.5 17.2 4.4 5.3 8 8.1 8 8.1h-.1l.1.1s.9 1.7 1.8 2.6h-.1l.1.1h-17.7c9 26.5 31.9 41.9 31.9 41.9l-3.2.2c1.1.7-41 2.7-43.6 2.8h-1.1-.1c-2.6-.1-44.7-2.1-43.6-2.8l-3.2-.2z"/><path fill="#A0A8A1" d="M873.8 1176.2s22.9-15.4 31.9-41.9H888l.1-.1h-.1c.9-.9 1.8-2.6 1.8-2.6l.1-.1h-.1s3.6-2.8 8-8.1c4.9-6.3 8.3-12.3 10.5-17.2 1.6-3.8 3-8 3.9-12.6h-10.9l-1.2-.9s3-5.6 6.8-13.4c.4-.9.8-1.9 1.3-2.9l12.4-30.6c.2-.7.4-1.4.5-2l.1.3.1-.3c.1.6.3 1.3.5 2l12.4 30.6c.5 1 .9 1.9 1.3 2.9 3.8 7.7 6.8 13.4 6.8 13.4h-1.6l-10.5.9c.9 4.6 2.2 8.8 3.9 12.6 2.3 4.9 5.6 10.9 10.5 17.2 4.4 5.3 8 8.1 8 8.1h-.1l.1.1s.9 1.7 1.8 2.6h-.1l.1.1h-17.7c9 26.5 31.9 41.9 31.9 41.9l-3.2.2c1.1.7-41 2.7-43.6 2.8h-1.1-.1c-2.6-.1-44.7-2.1-43.6-2.8l-3.2-.2z"/><path fill="#A0A8A1" d="M902.7 1145.4s22.9-15.4 31.9-41.9h-17.7l.1-.1h-.1c.9-.9 1.8-2.6 1.8-2.6l.1-.1h-.1s3.6-2.8 8-8.1c4.9-6.3 8.3-12.3 10.5-17.2 1.6-3.8 3-8 3.9-12.6h-10.9l-1.2-.9s3-5.6 6.8-13.4c.4-.9.8-1.9 1.3-2.9l12.4-30.6c.2-.7.4-1.4.5-2l.1.3.1-.3c.1.6.3 1.3.5 2l12.4 30.6c.5 1 .9 1.9 1.3 2.9 3.8 7.7 6.8 13.4 6.8 13.4h-1.6l-10.5.9c.9 4.6 2.2 8.8 3.9 12.6 2.3 4.9 5.6 10.9 10.5 17.2 4.4 5.3 8 8.1 8 8.1h-.1l.1.1s.9 1.7 1.8 2.6h-.1l.1.1h-17.7c9 26.5 31.9 41.9 31.9 41.9l-3.2.2c1.1.7-41 2.7-43.6 2.8h-1.1-.1c-2.6-.1-44.7-2.1-43.6-2.8l-3.2-.2z"/><g fill="#A0A8A1"><path d="M2050.8 977.3l-17.9-65.6 6-26.4 2.6-36.6v-71.6l28.9-29.8 11.9 9.4 15.4 17.9-4.6 25.1 8.2 16.6-2.3 5.7 6.1 3 11.2 45.8-.9 6.4 8.7 24.2L2135 941l-7.5 16.7-3.4 7"/><path d="M2032.1 1028.4l17-54.5 78.4-16.2 10.2 22.1-6 18.8 2.6 4.2-12.8 35.8v18.7l-11.1 33.2 1.7 16.2-8.5 7.7-5.1 12.7-21.3-8.5"/><path d="M2089.1 1116.1l14.5-1.7 6.8 3.4 8.5 3.4 6.9 22.1-2.6 34.9-11.1 24.7-53.6-53.6"/><path d="M2073.8 1150.1l12.8 2.6 29.8 37.5 11.1 8.5-3.4 17 8.5 53.6-89.4-1.7 4.2-74.9"/><path d="M1977.6 1128l4.2-78.4-2.5-12.7 5.9-28.1 32.4-5.1 17 20.4 21.3 21.3 14.5 6.8 25.6 67.3-29.9 55.3-5.9 11.9-26.4-13.6-31.5-28.1-20.5-13.6"/><path d="M1975 1242.1l-15.3-95.4 20.4-23 69 43.5 17.9 24.7-15.3 29.8 5.1 17-5.1 27.2"/></g></svg>