<?xml version="1.0" encoding="UTF-8" standalone="no"?>
<svg width="3000px" height="3059px" viewBox="0 0 3000 3059" version="1.1" xmlns="http://www.w3.org/2000/svg" xmlns:xlink="http://www.w3.org/1999/xlink">
    <!-- Generator: Sketch 3.6.1 (26313) - http://www.bohemiancoding.com/sketch -->
    <title>forest2</title>
    <desc>Created with Sketch.</desc>
    <defs></defs>
    <g id="Page-1" stroke="none" stroke-width="1" fill="none" fill-rule="evenodd">
        <g id="site" transform="translate(0.000000, -599.000000)">
            <g id="Forest-2" transform="translate(-0.250000, 599.159408)">
                <path d="M2172.18994,1292.30486 C2166.7688,1287.6026 2159.10419,1280.05296 2152.25506,1270.01704 C2168.01783,1269.23874 2195.3402,1267.79134 2194.39097,1267.15406 L2198.29662,1266.91064 L2198.28572,1266.90216 L2198.29662,1266.90216 C2198.29662,1266.90216 2170.58407,1248.23739 2159.67369,1216.16263 L2181.15536,1216.16263 C2181.11297,1216.12145 2181.07543,1216.08149 2181.03304,1216.04152 L2181.15536,1216.04152 C2180.05088,1214.99517 2178.93913,1212.90005 2178.93913,1212.90005 C2178.93913,1212.90005 2178.881,1212.85282 2178.78048,1212.77168 L2178.93913,1212.77168 C2178.93913,1212.77168 2174.59145,1209.34803 2169.30156,1202.98636 C2163.35045,1195.34946 2159.26919,1188.11825 2156.53827,1182.14776 C2154.56304,1177.51063 2152.90147,1172.4242 2151.84301,1166.86425 L2164.60268,1165.78157 L2164.69472,1165.77673 L2166.45922,1165.77673 C2166.45922,1165.77673 2162.83454,1158.95486 2158.27855,1149.58736 C2157.78565,1148.46471 2157.26853,1147.31058 2156.71871,1146.1189 L2141.69438,1109.08002 C2141.46912,1108.26741 2141.2366,1107.4451 2141.05979,1106.6894 L2140.89145,1107.10237 L2140.72432,1106.6894 C2140.54751,1107.4451 2140.31499,1108.26741 2140.08973,1109.08002 L2125.11285,1145.99893 L2122.72733,1140.11801 C2122.50208,1139.30539 2122.26956,1138.48308 2122.09274,1137.72739 L2121.92441,1138.14035 L2121.75728,1137.72739 C2121.58047,1138.48308 2121.34794,1139.30539 2121.12269,1140.11801 L2106.52923,1176.09175 C2105.17171,1173.48632 2102.44675,1168.19077 2099.26861,1161.65709 C2098.77571,1160.53444 2098.25859,1159.37909 2097.70878,1158.18742 L2082.68444,1121.14975 C2082.45918,1120.33713 2082.22666,1119.51483 2082.04985,1118.75913 L2081.88151,1119.1721 L2081.71439,1118.75913 C2081.53757,1119.51483 2081.30505,1120.33713 2081.07979,1121.14975 L2066.05425,1158.18742 C2065.50564,1159.37909 2064.98852,1160.53444 2064.49562,1161.65709 C2059.93964,1171.02338 2056.31495,1177.84524 2056.31495,1177.84524 L2057.73188,1178.93277 L2070.93116,1178.93277 C2069.8727,1184.49393 2068.21113,1189.57915 2066.23469,1194.21748 C2063.50498,1200.18798 2059.42373,1207.41918 2053.47261,1215.05488 C2048.18272,1221.41776 2043.83383,1224.84141 2043.83383,1224.84141 L2043.99248,1224.84141 C2043.89317,1224.92255 2043.83383,1224.96978 2043.83383,1224.96978 C2043.83383,1224.96978 2042.72329,1227.06369 2041.61881,1228.11004 L2041.74113,1228.11004 C2041.69753,1228.15122 2041.6612,1228.19118 2041.61881,1228.23236 L2063.10049,1228.23236 C2059.3799,1239.17027 2053.70539,1248.54874 2047.84226,1256.15937 L2043.96947,1254.37199 L2022.45506,1259.26173 C2019.41279,1256.06277 2016.19421,1252.32774 2013.07188,1248.0888 L2021.83213,1248.0888 C2021.78974,1248.04762 2021.7522,1248.00766 2021.70981,1247.96648 L2021.83213,1247.96648 C2020.72764,1246.92013 2019.6159,1244.82622 2019.6159,1244.82622 C2019.6159,1244.82622 2019.55777,1244.77899 2019.45725,1244.69785 L2019.6159,1244.69785 C2019.6159,1244.69785 2015.26821,1241.2742 2009.97833,1234.91132 C2006.49281,1230.43915 2003.64871,1226.10574 2001.34167,1222.08311 L2020.74327,1222.08311 C2020.70088,1222.04193 2020.66334,1222.00197 2020.62095,1221.962 L2020.74327,1221.962 C2019.63879,1220.91565 2018.52704,1218.82053 2018.52704,1218.82053 C2018.52704,1218.82053 2018.46891,1218.7733 2018.36839,1218.69216 L2018.52704,1218.69216 C2018.52704,1218.69216 2014.17935,1215.26972 2008.88947,1208.90684 C2005.96291,1205.15126 2003.48854,1201.4938 2001.40459,1198.03613 L2005.27944,1197.70774 L2005.37148,1197.70169 L2007.13599,1197.70169 C2007.13599,1197.70169 2005.50483,1194.63175 2003.0556,1189.78316 L2011.46832,1166.23095 L2008.1592,1160.71722 L2015.87962,1136.45839 L2002.64572,1107.7891 L2012.46986,1086.22342 L1998.29569,1034.85436 L1987.07576,1003.56028 L1988.25694,995.294875 L1973.63464,935.999677 L1965.81579,932.116244 L1968.76874,924.752094 L1958.13811,903.185377 L1964.04402,870.710343 L1944.19188,847.553478 L1928.75105,835.424061 L1891.25242,874.017542 L1891.25242,966.645004 L1887.9433,1014.05941 L1880.22289,1048.24372 L1902.1273,1128.54345 L1901.1781,1128.73944 L1886.74761,1174.90895 L1877.57343,1152.29297 C1877.34818,1151.48036 1877.11566,1150.65805 1876.93884,1149.90235 L1876.7705,1150.31532 L1876.60338,1149.90235 C1876.42657,1150.65805 1876.19404,1151.48036 1875.96879,1152.29297 L1866.75811,1174.99711 L1860.37075,1167.33343 L1818.46083,1173.95042 L1810.74041,1210.33867 L1814.04953,1226.87984 L1811.05627,1281.94245 C1805.31617,1276.93488 1797.17107,1268.81748 1790.12238,1258.00357 L1792.8774,1257.83185 C1792.8774,1257.83185 1792.8665,1257.82458 1792.8665,1257.82337 L1792.8774,1257.82337 C1792.8774,1257.82337 1790.73891,1256.38307 1787.41615,1253.61511 C1784.48911,1248.58618 1781.85877,1243.05313 1779.81691,1237.0504 L1801.29859,1237.0504 C1801.2562,1237.00923 1801.21866,1236.96926 1801.17627,1236.92809 L1801.29859,1236.92809 C1800.19411,1235.88174 1799.08236,1233.78782 1799.08236,1233.78782 C1799.08236,1233.78782 1799.02423,1233.74059 1798.92371,1233.65945 L1799.08236,1233.65945 C1799.08236,1233.65945 1794.73468,1230.2358 1789.44479,1223.87414 C1783.49367,1216.23723 1779.41242,1209.00603 1776.68149,1203.03553 C1774.70627,1198.3984 1773.0447,1193.31198 1771.98624,1187.75203 L1784.7459,1186.66935 L1784.83794,1186.66329 L1786.60245,1186.66329 C1786.60245,1186.66329 1782.97776,1179.84142 1778.42178,1170.47513 C1777.92888,1169.35249 1777.41176,1168.19714 1776.86194,1167.00667 L1761.83761,1129.9678 C1761.61235,1129.15518 1761.37983,1128.33288 1761.20301,1127.57718 L1761.03468,1127.99015 L1760.86755,1127.57718 C1760.69074,1128.33288 1760.45822,1129.15518 1760.23296,1129.9678 L1754.55455,1143.96541 C1754.00843,1142.86062 1753.44149,1141.70537 1752.85934,1140.50857 C1752.36644,1139.38592 1751.84932,1138.23058 1751.2995,1137.04011 L1736.27516,1100.00124 C1736.04991,1099.18862 1735.81738,1098.36631 1735.64057,1097.61062 L1735.47223,1098.02359 L1735.30511,1097.61062 C1735.12829,1098.36631 1734.89577,1099.18862 1734.67052,1100.00124 L1719.64497,1137.04011 C1719.09636,1138.23058 1718.57924,1139.38592 1718.08634,1140.50857 C1716.49275,1143.78471 1715.0131,1146.74955 1713.76265,1149.22004 C1712.27449,1146.32511 1710.14496,1142.11974 1707.76029,1137.21729 C1707.26739,1136.09464 1706.75027,1134.9393 1706.20045,1133.74762 L1691.17612,1096.70996 C1690.95086,1095.89734 1690.71834,1095.07503 1690.54153,1094.31933 L1690.37319,1094.7323 L1690.20606,1094.31933 C1690.02925,1095.07503 1689.79673,1095.89734 1689.57147,1096.70996 L1674.54592,1133.74762 C1673.99732,1134.9393 1673.4802,1136.09464 1672.9873,1137.21729 C1668.43131,1146.58358 1664.80542,1153.40545 1664.80542,1153.40545 L1666.22356,1154.49297 L1675.43987,1154.49297 L1671.51659,1164.16409 C1670.96799,1165.35577 1670.45087,1166.5099 1669.95797,1167.63255 C1665.40198,1176.99884 1661.77609,1183.82192 1661.77609,1183.82192 L1663.19423,1184.90944 L1666.13116,1184.90944 C1664.85602,1186.77616 1663.46947,1188.68267 1661.96307,1190.61508 C1661.95859,1190.62047 1661.95411,1190.62586 1661.94964,1190.63124 C1660.50532,1189.35273 1658.02215,1187.01687 1655.12893,1183.71308 L1651.13189,1173.86015 C1650.90663,1173.04753 1650.67411,1172.22523 1650.4973,1171.46953 L1650.32896,1171.8825 L1650.16184,1171.46953 C1649.98502,1172.22523 1649.7525,1173.04753 1649.52724,1173.86015 L1648.89882,1175.40925 C1645.43113,1170.22653 1642.82325,1165.37163 1640.89122,1161.14772 C1638.91478,1156.50938 1637.25442,1151.42416 1636.19596,1145.863 L1648.95563,1144.78153 L1649.04767,1144.77548 L1650.81217,1144.77548 C1650.81217,1144.77548 1647.18749,1137.95361 1642.6315,1128.58732 C1642.1386,1127.46467 1641.62148,1126.30933 1641.07167,1125.11765 L1626.04733,1088.07998 C1625.82207,1087.26737 1625.58955,1086.44506 1625.41274,1085.68936 L1625.2444,1086.10233 L1625.07728,1085.68936 C1624.90046,1086.44506 1624.66794,1087.26737 1624.44268,1088.07998 L1609.41714,1125.11765 C1608.86853,1126.30933 1608.35141,1127.46467 1607.85851,1128.58732 C1603.30252,1137.95361 1599.67784,1144.77548 1599.67784,1144.77548 L1601.09477,1145.863 L1614.29405,1145.863 C1613.23559,1151.42416 1611.57402,1156.50938 1609.59758,1161.14772 C1607.5472,1165.63236 1604.73428,1170.82829 1600.93916,1176.37267 C1599.53989,1173.68256 1596.89087,1168.52313 1593.81828,1162.20642 C1593.32538,1161.08377 1592.80826,1159.92843 1592.25844,1158.73796 L1587.80474,1147.75843 C1587.58974,1146.98399 1587.37088,1146.20408 1587.20253,1145.48455 L1587.04206,1145.87823 L1577.2341,1121.69909 C1577.00885,1120.88647 1576.77632,1120.06416 1576.59951,1119.30847 L1576.43117,1119.72143 L1576.26405,1119.30847 C1576.08724,1120.06416 1575.85471,1120.88647 1575.62946,1121.69909 L1560.60391,1158.73796 C1560.0553,1159.92843 1559.53818,1161.08377 1559.04528,1162.20642 C1554.4893,1171.57271 1550.8634,1178.39458 1550.8634,1178.39458 L1552.28155,1179.4821 L1565.48082,1179.4821 C1564.42115,1185.04326 1562.7608,1190.12848 1560.78436,1194.76682 C1558.05464,1200.73731 1553.97339,1207.96852 1548.02106,1215.60542 C1547.15602,1216.64597 1546.31612,1217.60791 1545.51629,1218.48912 C1544.73001,1216.97746 1544.02305,1215.52307 1543.3889,1214.13666 C1541.41367,1209.49832 1539.7521,1204.4131 1538.69243,1198.85194 L1551.45331,1197.77047 L1551.54535,1197.76442 L1553.30985,1197.76442 C1553.30985,1197.76442 1549.68517,1190.94255 1545.12918,1181.57626 C1544.63628,1180.45361 1544.11916,1179.29827 1543.57056,1178.1078 L1528.54501,1141.06893 C1528.31975,1140.25631 1528.08723,1139.434 1527.91042,1138.6783 L1527.74208,1139.09127 L1527.57496,1138.6783 C1527.39814,1139.434 1527.16562,1140.25631 1526.94036,1141.06893 L1511.91482,1178.1078 C1511.36621,1179.29827 1510.84909,1180.45361 1510.35619,1181.57626 C1505.8002,1190.94255 1502.17552,1197.76442 1502.17552,1197.76442 L1503.59245,1198.85194 L1516.79173,1198.85194 C1515.73206,1204.4131 1514.0717,1209.49832 1512.09526,1214.13666 C1509.36555,1220.10715 1505.2843,1227.33836 1499.33197,1234.97526 C1497.82654,1236.78612 1496.39726,1238.35891 1495.12276,1239.68245 C1490.42205,1232.92909 1486.06208,1225.01429 1483.01374,1216.05267 L1504.49542,1216.05267 C1504.45303,1216.01149 1504.41549,1215.97152 1504.3731,1215.93035 L1504.49542,1215.93035 C1503.39093,1214.884 1502.27919,1212.78887 1502.27919,1212.78887 C1502.27919,1212.78887 1502.22106,1212.74285 1502.12054,1212.66171 L1502.27919,1212.66171 C1502.27919,1212.66171 1497.9315,1209.23806 1492.64162,1202.87519 C1486.6905,1195.23949 1482.60925,1188.00829 1479.87832,1182.03779 C1477.90309,1177.39946 1476.24153,1172.31424 1475.18185,1166.75308 L1487.94273,1165.67161 L1488.03477,1165.66555 L1489.79928,1165.66555 C1489.79928,1165.66555 1486.17459,1158.84369 1481.61861,1149.47739 C1481.12571,1148.35475 1480.60859,1147.1994 1480.05877,1146.00772 L1465.03443,1108.97006 C1464.80918,1108.15744 1464.57665,1107.33514 1464.39984,1106.57944 L1464.2315,1106.99241 L1464.06438,1106.57944 C1463.88756,1107.33514 1463.65504,1108.15744 1463.42979,1108.97006 L1448.40424,1146.00772 C1447.85563,1147.1994 1447.33851,1148.35475 1446.84561,1149.47739 C1442.28963,1158.84369 1438.66494,1165.66555 1438.66494,1165.66555 L1440.08188,1166.75308 L1453.28115,1166.75308 C1452.22148,1172.31424 1450.56113,1177.39946 1448.58469,1182.03779 C1447.89872,1183.53816 1447.1274,1185.11814 1446.26248,1186.76415 L1434.60379,1158.02247 C1434.37854,1157.20985 1434.14602,1156.38755 1433.9692,1155.63185 L1433.80087,1156.04482 L1433.63374,1155.63185 C1433.45693,1156.38755 1433.2244,1157.20985 1432.99915,1158.02247 L1417.9736,1195.06135 C1417.42499,1196.25302 1416.90787,1197.40716 1416.41497,1198.5298 C1411.85899,1207.89731 1408.2343,1214.71917 1408.2343,1214.71917 L1409.65124,1215.8067 L1422.85052,1215.8067 C1421.79084,1221.36665 1420.13049,1226.45308 1418.15405,1231.0902 C1415.42433,1237.0607 1411.34308,1244.2919 1405.39075,1251.92881 C1404.30364,1253.23648 1403.25624,1254.42001 1402.27815,1255.47518 C1394.58069,1246.9384 1386.19553,1235.16435 1381.25529,1220.64086 L1402.73697,1220.64086 C1402.69458,1220.59969 1402.65704,1220.55972 1402.61465,1220.51976 L1402.73697,1220.51976 C1401.63249,1219.4722 1400.52074,1217.37828 1400.52074,1217.37828 C1400.52074,1217.37828 1400.46261,1217.33105 1400.36209,1217.24991 L1400.52074,1217.24991 C1400.52074,1217.24991 1396.17305,1213.82626 1390.88317,1207.4646 C1384.93205,1199.82769 1380.8508,1192.59649 1378.11987,1186.62599 C1376.14343,1181.98887 1374.48308,1176.90244 1373.42341,1171.34249 L1386.18428,1170.25981 L1386.27632,1170.25496 L1388.04083,1170.25496 C1388.04083,1170.25496 1384.41614,1163.43189 1379.86016,1154.06559 C1379.36726,1152.94295 1378.85014,1151.7876 1378.30032,1150.59713 L1363.27598,1113.55826 C1363.05073,1112.74564 1362.81821,1111.92334 1362.64139,1111.16764 L1362.47306,1111.58061 L1362.30593,1111.16764 C1362.12912,1111.92334 1361.89659,1112.74564 1361.67134,1113.55826 L1346.64579,1150.59713 C1346.09718,1151.7876 1345.58006,1152.94295 1345.08716,1154.06559 C1344.28893,1155.70663 1343.51928,1157.26959 1342.7927,1158.73147 L1331.83436,1131.71632 C1331.6091,1130.9037 1331.37658,1130.0814 1331.19977,1129.3257 L1331.03143,1129.73867 L1330.8643,1129.3257 C1330.68749,1130.0814 1330.45497,1130.9037 1330.22971,1131.71632 L1315.20416,1168.75519 C1314.65556,1169.94566 1314.13844,1171.10101 1313.64554,1172.22365 C1309.08955,1181.58994 1305.46487,1188.41181 1305.46487,1188.41181 L1306.8818,1189.50055 L1320.08108,1189.50055 C1319.02141,1195.0605 1317.36105,1200.14692 1315.38461,1204.78405 C1313.58103,1208.72889 1311.18743,1213.2241 1308.05395,1218.02305 C1306.40786,1216.57708 1303.22892,1213.59941 1299.6087,1209.24569 C1293.65758,1201.60879 1289.57632,1194.37758 1286.8454,1188.40709 C1284.87017,1183.76996 1283.2086,1178.68354 1282.15014,1173.12359 L1294.90981,1172.0409 L1295.00185,1172.03606 L1296.76635,1172.03606 C1296.76635,1172.03606 1293.14167,1165.21298 1288.58568,1155.84669 C1288.09278,1154.72404 1287.57566,1153.56991 1287.02706,1152.37823 L1272.00151,1115.33936 C1271.77625,1114.52674 1271.54373,1113.70443 1271.36692,1112.94874 L1271.19858,1113.36171 L1271.03145,1112.94874 C1270.85464,1113.70443 1270.62212,1114.52674 1270.39686,1115.33936 L1255.37132,1152.37823 C1254.82271,1153.56991 1254.30559,1154.72404 1253.81269,1155.84669 C1252.40599,1158.7386 1251.08808,1161.38807 1249.93823,1163.66911 C1249.78162,1163.34858 1249.62376,1163.02477 1249.46476,1162.69787 C1248.97186,1161.57522 1248.45474,1160.42108 1247.90614,1159.22941 L1232.88059,1122.19053 C1232.65533,1121.37791 1232.42281,1120.55561 1232.246,1119.79991 L1232.07766,1120.21288 L1231.91054,1119.79991 C1231.73372,1120.55561 1231.5012,1121.37791 1231.27594,1122.19053 L1216.2504,1159.22941 C1215.70179,1160.42108 1215.18467,1161.57522 1214.69177,1162.69787 C1211.22311,1169.82974 1208.29426,1175.48606 1207.09385,1177.77969 C1206.07333,1175.7458 1204.93935,1173.45804 1203.74094,1170.99431 C1203.24804,1169.87166 1202.73092,1168.71632 1202.18231,1167.52585 L1187.15676,1130.48698 C1186.93151,1129.67436 1186.69898,1128.85205 1186.52217,1128.09636 L1186.35383,1128.50933 L1186.18671,1128.09636 C1186.00989,1128.85205 1185.77737,1129.67436 1185.55212,1130.48698 L1170.52657,1167.52585 C1169.97796,1168.71632 1169.46084,1169.87166 1168.96794,1170.99431 C1164.41196,1180.3606 1160.78727,1187.18368 1160.78727,1187.18368 L1162.20421,1188.27121 L1175.40348,1188.27121 C1174.34502,1193.83116 1172.68346,1198.91758 1170.70702,1203.55471 C1167.9773,1209.52521 1163.89605,1216.75641 1157.94493,1224.39332 C1155.63738,1227.1684 1153.50889,1229.38441 1151.84234,1231.00105 L1129.84328,1230.14398 C1129.23012,1229.51007 1128.60876,1228.85385 1127.98152,1228.1756 C1126.59054,1225.44627 1124.8277,1221.93522 1122.89775,1217.96758 C1122.40485,1216.84494 1121.88773,1215.68959 1121.33792,1214.49913 L1112.30263,1192.22481 L1127.4208,1192.22481 C1127.37841,1192.18364 1127.34087,1192.14367 1127.29848,1192.1025 L1127.4208,1192.1025 C1126.31632,1191.05615 1125.20457,1188.96224 1125.20457,1188.96224 C1125.20457,1188.96224 1125.14644,1188.915 1125.04592,1188.83386 L1125.20457,1188.83386 C1125.20457,1188.83386 1120.85688,1185.41021 1115.567,1179.04734 C1109.61588,1171.41164 1105.53463,1164.18044 1102.8037,1158.20994 C1100.82726,1153.5716 1099.16691,1148.48639 1098.10724,1142.92523 L1110.86811,1141.84376 L1110.96015,1141.8377 L1112.72466,1141.8377 C1112.72466,1141.8377 1109.09997,1135.01584 1104.54399,1125.64954 C1104.05109,1124.5269 1103.53397,1123.37155 1102.98415,1122.17987 L1087.95981,1085.14221 C1087.73456,1084.32959 1087.50204,1083.50729 1087.32522,1082.75159 L1087.15689,1083.16456 L1086.98976,1082.75159 C1086.81295,1083.50729 1086.58042,1084.32959 1086.35517,1085.14221 L1071.32962,1122.17987 C1070.78101,1123.37155 1070.26389,1124.5269 1069.77099,1125.64954 C1065.21501,1135.01584 1061.59032,1141.8377 1061.59032,1141.8377 L1063.00726,1142.92523 L1076.20654,1142.92523 C1075.14686,1148.48639 1073.48651,1153.5716 1071.51007,1158.20994 C1068.78035,1164.18044 1064.6991,1171.41164 1058.74677,1179.04734 C1057.88227,1180.08743 1057.04288,1181.04899 1056.24349,1181.92989 C1055.27389,1180.88271 1054.2366,1179.70978 1053.1603,1178.41517 C1047.20918,1170.77947 1043.12793,1163.54827 1040.397,1157.57777 C1038.42177,1152.93943 1036.76021,1147.85422 1035.70174,1142.29306 L1048.46141,1141.21159 L1048.55345,1141.20553 L1050.31796,1141.20553 C1050.31796,1141.20553 1046.69327,1134.38367 1042.13729,1125.01737 C1041.64439,1123.89473 1041.12727,1122.73938 1040.57745,1121.5477 L1025.55311,1084.51004 C1025.32786,1083.69742 1025.09533,1082.87512 1024.91852,1082.11942 L1024.75018,1082.53239 L1024.58306,1082.11942 C1024.40624,1082.87512 1024.17372,1083.69742 1023.94847,1084.51004 L1008.92292,1121.5477 C1008.37431,1122.73938 1007.85719,1123.89473 1007.36429,1125.01737 C1002.80831,1134.38367 999.183623,1141.20553 999.183623,1141.20553 L1000.60056,1142.29306 L1013.79983,1142.29306 C1012.74016,1147.85422 1011.07981,1152.93943 1009.10337,1157.57777 C1006.80251,1162.61027 1003.54142,1168.53846 999.009701,1174.8496 L991.168625,1155.51995 C990.943369,1154.70612 990.710847,1153.88503 990.534033,1153.12812 L990.365696,1153.54109 L990.198571,1153.12812 C990.021757,1153.88503 989.789235,1154.70612 989.563979,1155.51995 L974.538432,1192.55761 C974.061269,1193.5941 973.607927,1194.60218 973.173623,1195.58585 C970.338872,1191.14346 968.140082,1186.98015 966.455252,1183.29668 C964.478812,1178.65956 962.818457,1173.57313 961.758785,1168.01318 L974.519661,1166.9305 L974.611701,1166.92565 L976.376206,1166.92565 C976.376206,1166.92565 972.751522,1160.10379 968.195537,1150.73628 C967.702638,1149.61364 967.185518,1148.4595 966.635699,1147.26783 L951.611363,1110.22895 C951.386107,1109.41633 951.153585,1108.59403 950.976771,1107.83833 L950.808435,1108.2513 L950.641309,1107.83833 C950.464495,1108.59403 950.231973,1109.41633 950.006717,1110.22895 L934.98117,1147.26783 C934.432562,1148.4595 933.915442,1149.61364 933.422543,1150.73628 C928.866558,1160.10379 925.241874,1166.92565 925.241874,1166.92565 L926.658807,1168.01318 L939.858084,1168.01318 C938.798412,1173.57313 937.138057,1178.65956 935.161617,1183.29668 C934.115142,1185.58556 932.870035,1188.05971 931.397024,1190.67098 L928.192486,1182.77096 C927.96723,1181.95835 927.734707,1181.13604 927.557893,1180.38034 L927.389557,1180.79331 L927.222431,1180.38034 C927.045618,1181.13604 926.813095,1181.95835 926.587839,1182.77096 L914.591114,1212.34361 C913.441204,1213.38492 912.760751,1213.9206 912.760751,1213.9206 L912.919399,1213.9206 C912.820093,1214.00175 912.760751,1214.04898 912.760751,1214.04898 C912.760751,1214.04898 911.650215,1216.1441 910.545734,1217.19045 L910.66805,1217.19045 C910.624452,1217.23042 910.58812,1217.27038 910.545734,1217.31156 L912.57577,1217.31156 L911.562292,1219.80984 C911.013685,1221.00152 910.496565,1222.15565 910.003666,1223.2783 C905.447681,1232.64459 901.822996,1239.46767 901.822996,1239.46767 L903.239929,1240.55519 L916.439207,1240.55519 C915.951428,1243.11743 915.335566,1245.5791 914.619831,1247.94258 C907.12946,1257.08009 899.682144,1263.31048 895.92168,1266.20362 L889.682787,1264.91997 C889.327806,1264.59891 888.965791,1264.26756 888.597421,1263.92599 L895.03625,1263.92599 C894.993863,1263.88482 894.95632,1263.84485 894.913933,1263.80489 L895.03625,1263.80489 C893.931768,1262.75854 892.820021,1260.66341 892.820021,1260.66341 C892.820021,1260.66341 892.76189,1260.61618 892.661373,1260.53504 L892.820021,1260.53504 C892.820021,1260.53504 888.472337,1257.11139 883.182453,1250.74973 C877.231334,1243.11282 873.150082,1235.88162 870.419155,1229.91112 C869.27659,1227.22879 868.238977,1224.39612 867.362337,1221.40843 L881.479106,1221.40843 C881.436719,1221.36725 881.399176,1221.32729 881.356789,1221.28733 L881.479106,1221.28733 C880.374624,1220.24097 879.262877,1218.14585 879.262877,1218.14585 C879.262877,1218.14585 879.204746,1218.09862 879.104229,1218.01748 L879.262877,1218.01748 C879.262877,1218.01748 877.449113,1216.5892 874.739206,1213.86351 L878.483564,1213.54615 L878.575604,1213.54009 L880.340109,1213.54009 C880.340109,1213.54009 876.715425,1206.71822 872.15944,1197.35072 C871.666541,1196.22807 871.149421,1195.07394 870.599602,1193.88226 L861.448232,1171.3225 L864.92642,1171.02737 L865.01846,1171.02253 L866.782966,1171.02253 C866.782966,1171.02253 863.158281,1164.19945 858.602296,1154.83316 C858.109397,1153.71051 857.592277,1152.55638 857.043669,1151.3647 L842.018123,1114.32583 C841.792866,1113.51321 841.560344,1112.6909 841.38353,1111.93521 L841.215194,1112.34817 L841.048068,1111.93521 C840.871254,1112.6909 840.638732,1113.51321 840.413476,1114.32583 L829.40632,1141.45913 L816.033022,1108.49048 C815.807765,1107.67787 815.575243,1106.85556 815.398429,1106.09986 L815.230093,1106.51283 L815.062967,1106.09986 C814.886153,1106.85556 814.653631,1107.67787 814.428375,1108.49048 L799.402828,1145.52936 C798.854221,1146.72104 798.337101,1147.87517 797.844202,1148.99782 C793.288217,1158.36532 789.663532,1165.18719 789.663532,1165.18719 L791.080465,1166.27471 L804.279743,1166.27471 C803.22007,1171.83466 801.559715,1176.92109 799.583275,1181.55821 C796.85356,1187.52871 792.772308,1194.75991 786.819977,1202.39682 C781.531304,1208.75849 777.18241,1212.18214 777.18241,1212.18214 L777.341058,1212.18214 C777.241751,1212.26328 777.18241,1212.31051 777.18241,1212.31051 C777.18241,1212.31051 776.071873,1214.40563 774.967392,1215.45198 L775.089708,1215.45198 C775.04611,1215.49195 775.009779,1215.53191 774.967392,1215.57309 L796.449067,1215.57309 C790.761444,1232.29378 780.507707,1245.3702 771.994174,1254.05793 C770.989591,1252.17971 770.105673,1250.38351 769.330541,1248.68887 C767.355312,1244.05175 765.693746,1238.96532 764.634074,1233.40537 L777.39495,1232.32269 L777.48699,1232.31785 L779.251495,1232.31785 C779.251495,1232.31785 775.626811,1225.49477 771.070826,1216.12848 C770.577927,1215.00583 770.060807,1213.8517 769.510988,1212.66002 L754.486652,1175.62114 C754.261396,1174.80853 754.028874,1173.98622 753.85206,1173.23052 L753.683723,1173.64349 L753.516598,1173.23052 C753.339784,1173.98622 753.107262,1174.80853 752.882006,1175.62114 L737.856459,1212.66002 C737.307851,1213.8517 736.790731,1215.00583 736.297832,1216.12848 C731.741847,1225.49477 728.117163,1232.31785 728.117163,1232.31785 L729.534096,1233.40537 L742.733373,1233.40537 C741.673701,1238.96532 740.013346,1244.05175 738.036906,1248.68887 C735.30719,1254.65937 731.225938,1261.89057 725.273608,1269.52748 C724.116197,1270.91971 723.003796,1272.17123 721.972138,1273.27695 L716.059604,1275.4059 C714.49616,1273.855 712.598242,1271.84038 710.560513,1269.38978 C704.609394,1261.75288 700.528142,1254.52167 697.797215,1248.55118 C695.821986,1243.91284 694.16042,1238.82763 693.100748,1233.26647 L705.861624,1232.18499 L705.953664,1232.17894 L707.718169,1232.17894 C707.718169,1232.17894 704.093485,1225.35707 699.5375,1215.99078 C699.044601,1214.86813 698.527481,1213.71279 697.977662,1212.52232 L682.953326,1175.48345 C682.72807,1174.67083 682.495548,1173.84852 682.318734,1173.09283 L682.150398,1173.5058 L681.983272,1173.09283 C681.806458,1173.84852 681.573936,1174.67083 681.34868,1175.48345 L676.155289,1188.28547 C675.24938,1186.47307 674.264185,1184.48 673.231106,1182.35618 C672.738207,1181.23353 672.221087,1180.0794 671.67248,1178.88772 L656.646933,1141.84884 C656.421677,1141.03623 656.189154,1140.21392 656.01234,1139.45822 L655.844004,1139.87119 L655.676878,1139.45822 C655.500065,1140.21392 655.267542,1141.03623 655.042286,1141.84884 L640.695911,1177.21352 C640.554684,1176.90246 640.411376,1176.58891 640.265853,1176.27281 L625.240306,1139.23515 C625.01505,1138.42253 624.782528,1137.60022 624.605714,1136.84453 L624.437377,1137.2575 L624.270252,1136.84453 C624.093438,1137.60022 623.860916,1138.42253 623.63566,1139.23515 L608.610113,1176.27281 C608.061505,1177.46449 607.544385,1178.61983 607.051486,1179.74248 C602.495501,1189.10877 598.870817,1195.93064 598.870817,1195.93064 L600.28775,1197.01817 L613.487027,1197.01817 C612.427355,1202.57933 610.767,1207.66454 608.79056,1212.30288 C606.060844,1218.27337 601.979592,1225.50458 596.027262,1233.14027 C592.604544,1237.25819 589.575443,1240.14505 587.864051,1241.66952 C586.947366,1239.93678 586.133955,1238.27591 585.414311,1236.70259 C583.439082,1232.06425 581.777516,1226.97904 580.717844,1221.41788 L593.47872,1220.33641 L593.57076,1220.33035 L595.335266,1220.33035 C595.335266,1220.33035 591.710581,1213.50848 587.154596,1204.14219 C586.661697,1203.01954 586.144577,1201.8642 585.594758,1200.67252 L570.570423,1163.63486 C570.345167,1162.82224 570.112644,1161.99993 569.93583,1161.24424 L569.767494,1161.65721 L569.600368,1161.24424 C569.423555,1161.99993 569.191032,1162.82224 568.965776,1163.63486 L561.781427,1181.34413 C560.698481,1179.28005 557.657654,1173.42915 554.02464,1165.96032 C553.531741,1164.83647 553.014621,1163.68233 552.464802,1162.49065 L537.440466,1125.45299 C537.21521,1124.63916 536.982688,1123.81807 536.805874,1123.06116 L536.637538,1123.47534 L536.470412,1123.06116 C536.293598,1123.81807 536.061076,1124.63916 535.83582,1125.45299 L520.810273,1162.49065 C520.261666,1163.68233 519.744546,1164.83647 519.251647,1165.96032 C514.695661,1175.32662 511.070977,1182.14848 511.070977,1182.14848 L512.48791,1183.23601 L525.687187,1183.23601 C524.627515,1188.79717 522.96716,1193.88238 520.99072,1198.51951 C520.358802,1199.90166 519.654455,1201.35136 518.871233,1202.85802 C518.439389,1201.87993 517.988713,1200.87717 517.514511,1199.84816 L502.488964,1162.80928 C502.263708,1161.99666 502.031186,1161.17436 501.854372,1160.41866 L501.686035,1160.83163 L501.51891,1160.41866 C501.342096,1161.17436 501.109573,1161.99666 500.884317,1162.80928 L485.858771,1199.84816 C485.310163,1201.03862 484.793043,1202.19397 484.300144,1203.31662 C479.744159,1212.68291 476.119474,1219.50477 476.119474,1219.50477 L477.536408,1220.59351 L490.735685,1220.59351 C489.676013,1226.15346 488.015658,1231.23989 486.039218,1235.87701 C483.309502,1241.84751 479.22825,1249.07871 473.27592,1256.71562 C467.987247,1263.07729 463.638352,1266.50094 463.638352,1266.50094 L463.797,1266.50094 C463.697694,1266.58208 463.638352,1266.62931 463.638352,1266.62931 C463.638352,1266.62931 462.527815,1268.72322 461.423334,1269.76957 L461.545651,1269.76957 C461.502053,1269.81075 461.465721,1269.85071 461.423334,1269.89189 L482.90501,1269.89189 C481.823558,1273.07118 480.577024,1276.11872 479.20876,1279.02939 L457.73528,1278.30429 C450.648493,1270.0092 443.300273,1259.06975 438.804721,1245.85356 L460.286397,1245.85356 C460.24401,1245.81238 460.206467,1245.77241 460.16408,1245.73124 L460.286397,1245.73124 C459.181915,1244.68489 458.070168,1242.59098 458.070168,1242.59098 C458.070168,1242.59098 458.012037,1242.54374 457.91152,1242.4626 L458.070168,1242.4626 C458.070168,1242.4626 453.722484,1239.03895 448.4326,1232.67608 C442.481481,1225.04038 438.400229,1217.80918 435.669302,1211.83868 C433.694073,1207.20035 432.032507,1202.11513 430.972835,1196.55397 L443.733711,1195.4725 L443.825751,1195.46644 L445.590257,1195.46644 C445.590257,1195.46644 441.965572,1188.64458 437.409587,1179.27828 C436.916688,1178.15564 436.399568,1177.00029 435.849749,1175.80861 L420.825414,1138.77095 C420.600158,1137.95833 420.367635,1137.13603 420.190821,1136.38033 L420.022485,1136.7933 L419.855359,1136.38033 C419.678545,1137.13603 419.446023,1137.95833 419.220767,1138.77095 L404.19522,1175.80861 C403.646613,1177.00029 403.129493,1178.15564 402.636594,1179.27828 C400.650333,1183.36168 398.841082,1186.96147 397.432024,1189.7232 C396.052535,1187.01445 394.31739,1183.55615 392.420869,1179.65674 C391.92797,1178.53409 391.41085,1177.37996 390.861031,1176.18828 L375.836696,1139.1494 C375.61144,1138.33679 375.378917,1137.51448 375.202103,1136.75878 L375.033767,1137.17175 L374.866641,1136.75878 C374.689827,1137.51448 374.457305,1138.33679 374.232049,1139.1494 L359.206502,1176.18828 C358.657895,1177.37996 358.140775,1178.53409 357.647876,1179.65674 C353.091891,1189.02424 349.467206,1195.84611 349.467206,1195.84611 L350.884139,1196.93363 L364.083417,1196.93363 C363.023744,1202.49358 361.363389,1207.58001 359.386949,1212.21714 C356.657234,1218.18763 352.575982,1225.41884 346.623651,1233.05574 C341.334978,1239.41741 336.986084,1242.84106 336.986084,1242.84106 L337.144732,1242.84106 C337.045425,1242.9222 336.986084,1242.96943 336.986084,1242.96943 C336.986084,1242.96943 335.875547,1245.06455 334.771066,1246.1109 L334.893382,1246.1109 C334.849784,1246.15087 334.813453,1246.19083 334.771066,1246.23201 L356.252742,1246.23201 C345.342356,1278.30677 317.629808,1296.97154 317.629808,1296.97154 L317.640707,1296.97154 L317.629808,1296.98002 L321.534246,1297.22344 C321.433171,1297.29136 321.653237,1297.36848 322.146221,1297.45302 L251.126352,1359.59562 L240.275443,2758.87878 L2764.34569,2749.49553 L2764.34555,1262.46425 L2695.54437,1226.0418 L2695.07359,1226.08105 C2692.98406,1222.09573 2691.10472,1217.82725 2689.56152,1213.29049 L2711.04319,1213.29049 C2711.00081,1213.24932 2710.96326,1213.20935 2710.92088,1213.16818 L2711.04319,1213.16818 C2709.93871,1212.12183 2708.82696,1210.0267 2708.82696,1210.0267 C2708.82696,1210.0267 2708.76883,1209.98068 2708.66832,1209.89954 L2708.82696,1209.89954 C2708.82696,1209.89954 2704.47928,1206.47589 2699.1894,1200.11301 C2693.23828,1192.47732 2689.15703,1185.24612 2686.4261,1179.27562 C2684.44966,1174.63728 2682.7893,1169.55207 2681.72963,1163.99091 L2694.49051,1162.90944 L2694.58255,1162.90338 L2696.34705,1162.90338 C2696.34705,1162.90338 2692.72237,1156.08151 2688.16638,1146.71522 C2687.67348,1145.59258 2687.15636,1144.43723 2686.60655,1143.24555 L2671.58221,1106.20789 C2671.35695,1105.39527 2671.12443,1104.57297 2670.94762,1103.81727 L2670.77928,1104.23024 L2670.61216,1103.81727 C2670.43534,1104.57297 2670.20282,1105.39527 2669.97756,1106.20789 L2654.95202,1143.24555 C2654.40341,1144.43723 2653.88629,1145.59258 2653.39339,1146.71522 C2648.83741,1156.08151 2645.21151,1162.90338 2645.21151,1162.90338 L2646.62965,1163.99091 L2659.82893,1163.99091 C2658.76926,1169.55207 2657.1089,1174.63728 2655.13246,1179.27562 C2652.40275,1185.24612 2648.3215,1192.47732 2642.36917,1200.11301 C2637.08049,1206.47589 2632.7316,1209.89954 2632.7316,1209.89954 L2632.89025,1209.89954 C2632.79094,1209.98068 2632.7316,1210.0267 2632.7316,1210.0267 C2632.7316,1210.0267 2631.62106,1212.12183 2630.51658,1213.16818 L2630.6389,1213.16818 C2630.5953,1213.20935 2630.55897,1213.24932 2630.51658,1213.29049 L2651.99826,1213.29049 C2648.98859,1222.13843 2644.70036,1229.96592 2640.06798,1236.66268 L2617.28,1258.32729 L2585.68952,1287.58756 C2577.49666,1278.92604 2568.08021,1266.40418 2562.71972,1250.64521 L2584.20139,1250.64521 C2584.15901,1250.60404 2584.12147,1250.56407 2584.07908,1250.52289 L2584.20139,1250.52289 C2583.09691,1249.47654 2581.98517,1247.38263 2581.98517,1247.38263 C2581.98517,1247.38263 2581.92704,1247.3354 2581.82652,1247.25426 L2581.98517,1247.25426 C2581.98517,1247.25426 2577.63748,1243.83061 2572.3476,1237.46894 C2566.39648,1229.83204 2562.31523,1222.60083 2559.5843,1216.63034 C2557.60786,1211.992 2555.94751,1206.90679 2554.88904,1201.34563 L2567.64871,1200.26415 L2567.74075,1200.2581 L2569.50525,1200.2581 C2569.50525,1200.2581 2565.88057,1193.43623 2561.32459,1184.06994 C2560.83169,1182.94729 2560.31457,1181.79195 2559.76475,1180.60148 L2544.74041,1143.56261 C2544.51516,1142.74999 2544.28263,1141.92768 2544.10582,1141.17199 L2543.93748,1141.58496 L2543.77036,1141.17199 C2543.59354,1141.92768 2543.36102,1142.74999 2543.13577,1143.56261 L2528.11022,1180.60148 C2527.56161,1181.79195 2527.04449,1182.94729 2526.55159,1184.06994 C2521.99561,1193.43623 2518.36971,1200.2581 2518.36971,1200.2581 L2519.78786,1201.34563 L2532.98713,1201.34563 C2531.92867,1206.90679 2530.26711,1211.992 2528.29067,1216.63034 C2525.94025,1221.77123 2522.58779,1227.84681 2517.90241,1234.31126 L2514.18782,1231.04951 L2512.12028,1231.61887 C2511.05517,1228.50188 2510.15556,1225.20506 2509.49256,1221.72246 L2522.25223,1220.63977 L2522.34427,1220.63493 L2524.10877,1220.63493 C2524.10877,1220.63493 2520.48409,1213.81185 2515.92811,1204.44556 C2515.43521,1203.32291 2514.91809,1202.16757 2514.36827,1200.9771 L2499.34393,1163.93823 C2499.32027,1163.85285 2499.29652,1163.76737 2499.27277,1163.68187 L2501.88206,1163.46107 L2503.64656,1163.46107 C2503.64656,1163.46107 2500.02188,1156.6392 2495.46589,1147.27291 C2494.973,1146.14905 2494.45588,1144.99492 2493.90606,1143.80324 L2478.88172,1106.76558 C2478.65647,1105.95175 2478.42394,1105.13066 2477.91167,1104.37375 C2477.73485,1105.13066 2477.50233,1105.95175 2477.27707,1106.76558 L2462.25153,1143.80324 C2461.70292,1144.99492 2461.1858,1146.14905 2460.6929,1147.27291 C2456.13692,1156.6392 2452.51223,1163.46107 2452.51223,1163.46107 L2453.92917,1164.5486 L2467.12844,1164.5486 C2466.06998,1170.10976 2464.40842,1175.19497 2462.43198,1179.8321 C2459.70226,1185.8026 2455.62101,1193.0338 2449.66989,1200.67071 C2444.38,1207.03358 2440.03111,1210.45602 2440.03111,1210.58439 C2440.03111,1210.58439 2438.92057,1212.67952 2437.81609,1213.84697 L2459.29777,1213.84697 C2453.43776,1231.07508 2442.73068,1244.43398 2434.07377,1253.11134 L2400.11017,1262.46425 L2399.01274,1263.21106 C2396.91824,1259.21897 2395.0345,1254.94257 2393.48825,1250.39682 L2414.96992,1250.39682 C2414.92753,1250.35565 2414.88999,1250.31568 2414.84761,1250.27451 L2414.96992,1250.27451 C2413.86544,1249.22816 2412.75369,1247.13424 2412.75369,1247.13424 C2412.75369,1247.13424 2412.69556,1247.08701 2412.59504,1247.00587 L2412.75369,1247.00587 C2412.75369,1247.00587 2408.40601,1243.58222 2403.11613,1237.22056 C2397.16501,1229.58365 2393.08375,1222.35245 2390.35283,1216.38195 C2388.37639,1211.74361 2386.71603,1206.6584 2385.65757,1201.09724 L2398.41724,1200.01577 L2398.50928,1200.00971 L2400.27378,1200.00971 C2400.27378,1200.00971 2396.6491,1193.18784 2392.09311,1183.82155 C2391.60021,1182.69891 2391.08309,1181.54356 2390.53327,1180.35309 L2375.50894,1143.31422 C2375.28368,1142.5016 2375.05116,1141.6793 2374.87435,1140.9236 L2374.70601,1141.33657 L2374.53888,1140.9236 C2374.36207,1141.6793 2374.12955,1142.5016 2373.90429,1143.31422 L2358.87875,1180.35309 C2358.33014,1181.54356 2357.81302,1182.69891 2357.32012,1183.82155 C2352.76413,1193.18784 2349.13824,1200.00971 2349.13824,1200.00971 L2350.55638,1201.09724 L2363.75566,1201.09724 C2362.6972,1206.6584 2361.03563,1211.74361 2359.05919,1216.38195 C2356.32948,1222.35245 2352.24822,1229.58365 2346.29711,1237.22056 C2341.00722,1243.58222 2336.65833,1247.00587 2336.65833,1247.00587 L2336.81697,1247.00587 C2336.71767,1247.08701 2336.65833,1247.13424 2336.65833,1247.13424 C2336.65833,1247.13424 2335.54779,1249.22816 2334.44331,1250.27451 L2334.56563,1250.27451 C2334.52203,1250.31568 2334.4857,1250.35565 2334.44331,1250.39682 L2355.92498,1250.39682 C2349.5628,1269.1006 2337.48719,1283.24443 2328.52491,1291.78633 C2323.9085,1285.10291 2319.63697,1277.29585 2316.63633,1268.47447 L2338.11801,1268.47447 C2338.07562,1268.43329 2338.03808,1268.39333 2337.99569,1268.35215 L2338.11801,1268.35215 C2337.01353,1267.3058 2335.90178,1265.21189 2335.90178,1265.21189 C2335.90178,1265.21189 2335.84365,1265.16466 2335.74313,1265.08352 L2335.90178,1265.08352 C2335.90178,1265.08352 2331.5541,1261.65987 2326.26421,1255.2982 C2320.31309,1247.6613 2316.23184,1240.43009 2313.50092,1234.4596 C2311.52569,1229.82247 2309.86412,1224.73604 2308.80566,1219.17609 L2321.56532,1218.09341 L2321.65736,1218.08857 L2323.42187,1218.08857 C2323.42187,1218.08857 2319.79719,1211.26549 2315.2412,1201.8992 C2314.7483,1200.77655 2314.23118,1199.62121 2313.68136,1198.43074 L2298.65703,1161.39186 C2298.43177,1160.57925 2298.19925,1159.75694 2298.02243,1159.00124 L2297.8541,1159.41421 L2297.68697,1159.00124 C2297.51016,1159.75694 2297.27764,1160.57925 2297.05238,1161.39186 L2283.54571,1194.68663 L2270.55064,1162.65148 C2270.32539,1161.83886 2270.09287,1161.01656 2269.91605,1160.26086 L2269.74771,1160.67383 L2269.58059,1160.26086 C2269.40378,1161.01656 2269.17125,1161.83886 2268.946,1162.65148 L2253.92045,1199.68915 C2253.61095,1200.36144 2253.31147,1201.02216 2253.02071,1201.67198 C2251.60581,1198.94981 2248.98999,1193.85016 2245.9631,1187.62741 C2245.4702,1186.50476 2244.95308,1185.34942 2244.40326,1184.15774 L2229.37893,1147.12008 C2229.15367,1146.30746 2228.92115,1145.48515 2228.74433,1144.72946 L2228.576,1145.14243 L2228.40887,1144.72946 C2228.23206,1145.48515 2227.99953,1146.30746 2227.77428,1147.12008 L2212.74873,1184.15774 C2212.20012,1185.34942 2211.683,1186.50476 2211.19011,1187.62741 C2206.63412,1196.9937 2203.00822,1203.81557 2203.00822,1203.81557 L2204.42637,1204.9031 L2217.62565,1204.9031 C2216.56597,1210.46426 2214.90562,1215.54947 2212.92918,1220.18781 C2210.19946,1226.15831 2206.11821,1233.38951 2200.16588,1241.0252 C2194.87721,1247.38808 2190.52831,1250.81173 2190.52831,1250.81173 L2190.68696,1250.81173 C2190.58766,1250.89287 2190.52831,1250.93889 2190.52831,1250.93889 C2190.52831,1250.93889 2189.41778,1253.03402 2188.3133,1254.08037 L2188.43561,1254.08037 C2188.39201,1254.12154 2188.35568,1254.16151 2188.3133,1254.20268 L2209.79497,1254.20268 C2203.72621,1272.04384 2192.45888,1285.73596 2183.65392,1294.37469 L2172.18994,1292.30486 L2172.18994,1292.30486 Z" id="Path" fill="#C7E2DC"></path>
                <rect id="Rectangle-2" fill="#C7E2E2" x="2647" y="2540" width="63" height="160"></rect>
            </g>
        </g>
    </g>
</svg>