<?xml version="1.0" encoding="UTF-8" standalone="no"?>
<svg width="3000px" height="3059px" viewBox="0 0 3000 3059" version="1.1" xmlns="http://www.w3.org/2000/svg" xmlns:xlink="http://www.w3.org/1999/xlink">
    <!-- Generator: Sketch 3.6.1 (26313) - http://www.bohemiancoding.com/sketch -->
    <title>forest1</title>
    <desc>Created with Sketch.</desc>
    <defs></defs>
    <g id="Page-1" stroke="none" stroke-width="1" fill="none" fill-rule="evenodd">
        <g id="site" transform="translate(0.000000, -599.000000)">
            <g id="Forest-1" transform="translate(0.000000, 599.477346)">
                <path d="M1976.5405,1146.31009 L1974.94272,1146.21009 C1974.94272,1146.21009 1974.95112,1146.20529 1974.95112,1146.20409 L1974.94272,1146.20409 C1974.94272,1146.20409 1978.1769,1144.02646 1982.61702,1139.91054 L1977.68703,1139.91054 C1977.71943,1139.87935 1977.74822,1139.84817 1977.78061,1139.81818 L1977.68703,1139.81818 C1978.53286,1139.01697 1979.38348,1137.41336 1979.38348,1137.41336 C1979.38348,1137.41336 1979.42907,1137.37738 1979.50466,1137.31501 L1979.38348,1137.31501 C1979.38348,1137.31501 1982.7128,1134.69549 1986.76196,1129.82467 C1991.31862,1123.97994 1994.44398,1118.44585 1996.53395,1113.87488 C1997.40913,1111.82181 1998.20361,1109.65395 1998.87489,1107.36711 L1988.06681,1107.36711 C1988.09921,1107.33593 1988.128,1107.30474 1988.16039,1107.27476 L1988.06681,1107.27476 C1988.91264,1106.47355 1989.76326,1104.86993 1989.76326,1104.86993 C1989.76326,1104.86993 1989.80765,1104.83395 1989.88444,1104.77158 L1989.76326,1104.77158 C1989.76326,1104.77158 1991.15236,1103.67864 1993.22729,1101.59231 L1990.36002,1101.34942 L1990.28924,1101.34462 L1988.93831,1101.34462 C1988.93831,1101.34462 1991.71454,1096.12238 1995.20222,1088.95349 C1995.57894,1088.09351 1995.97606,1087.20954 1996.39598,1086.29799 L2003.40214,1069.03152 L2000.7398,1068.80599 L2000.66902,1068.80119 L1999.31809,1068.80119 C1999.31809,1068.80119 2002.09312,1063.57895 2005.582,1056.41006 C2005.95872,1055.55008 2006.35584,1054.66731 2006.77576,1053.75456 L2018.27898,1025.40524 C2018.45175,1024.78395 2018.62931,1024.15425 2018.76488,1023.57614 L2018.89326,1023.89158 L2019.02163,1023.57614 C2019.1572,1024.15425 2019.33477,1024.78395 2019.50753,1025.40524 L2027.93499,1046.17227 L2038.17388,1020.93887 C2038.34665,1020.31757 2038.52421,1019.68788 2038.65978,1019.10976 L2038.78816,1019.42521 L2038.91653,1019.10976 C2039.0521,1019.68788 2039.22966,1020.31757 2039.40243,1020.93887 L2050.90686,1049.28819 C2051.32677,1050.19974 2051.72269,1051.08371 2052.10061,1051.94369 C2055.58829,1059.11258 2058.36332,1064.33482 2058.36332,1064.33482 L2057.27874,1065.16721 L2047.17203,1065.16721 C2047.98306,1069.42393 2049.2548,1073.31602 2050.76769,1076.86508 C2052.85765,1081.43605 2055.98301,1086.97014 2060.53967,1092.81488 C2064.59004,1097.68569 2067.91935,1100.30521 2067.91935,1100.30521 L2067.79697,1100.30521 C2067.87376,1100.36758 2067.91935,1100.40356 2067.91935,1100.40356 C2067.91935,1100.40356 2068.76997,1102.00717 2069.6158,1102.80838 L2069.52222,1102.80838 C2069.55461,1102.83837 2069.58221,1102.86955 2069.6158,1102.90074 L2053.16839,1102.90074 C2057.52265,1115.69908 2065.37302,1125.70798 2071.89115,1132.3577 C2072.66026,1130.92001 2073.33689,1129.54499 2073.93011,1128.24757 C2075.443,1124.6985 2076.71474,1120.80641 2077.52577,1116.54969 L2067.75618,1115.7221 L2067.6854,1115.7173 L2066.33448,1115.7173 C2066.33448,1115.7173 2069.1107,1110.49506 2072.59838,1103.32617 C2072.97511,1102.46619 2073.37223,1101.58222 2073.79214,1100.67067 L2085.29537,1072.32135 C2085.46813,1071.70005 2085.64569,1071.07036 2085.78127,1070.49225 L2085.90964,1070.80769 L2086.03801,1070.49225 C2086.17359,1071.07036 2086.35115,1071.70005 2086.52391,1072.32135 L2098.02834,1100.67067 C2098.44825,1101.58222 2098.84417,1102.46619 2099.2221,1103.32617 C2102.70978,1110.49506 2105.4848,1115.7173 2105.4848,1115.7173 L2104.40023,1116.54969 L2094.29351,1116.54969 C2095.10454,1120.80641 2096.37628,1124.6985 2097.88917,1128.24757 C2099.97914,1132.81853 2103.10449,1138.35262 2107.66116,1144.19736 C2109.87852,1146.86387 2111.87978,1148.85568 2113.23701,1150.11236 C2114.59468,1148.863 2116.6463,1146.83424 2118.92611,1144.09181 C2123.48277,1138.24707 2126.60813,1132.71298 2128.6981,1128.14202 C2130.21099,1124.59296 2131.48272,1120.70086 2132.29376,1116.44415 L2122.52417,1115.61655 L2122.45339,1115.61175 L2121.10246,1115.61175 C2121.10246,1115.61175 2123.87869,1110.38951 2127.36637,1103.22062 C2127.74309,1102.36064 2128.14021,1101.47787 2128.56013,1100.56512 L2140.06335,1072.2158 C2140.23612,1071.59451 2140.41368,1070.96481 2140.54925,1070.3867 L2140.67763,1070.70214 L2140.806,1070.3867 C2140.94157,1070.96481 2141.11914,1071.59451 2141.2919,1072.2158 L2145.26846,1082.01488 C2145.96208,1080.62766 2146.71636,1079.10215 2147.50722,1077.47655 C2147.88394,1076.61657 2148.28106,1075.7326 2148.70097,1074.82105 L2160.2042,1046.47173 C2160.37697,1045.85043 2160.55453,1045.22074 2160.6901,1044.64262 L2160.81847,1044.95807 L2160.94685,1044.64262 C2161.08242,1045.22074 2161.25998,1045.85043 2161.43275,1046.47173 L2172.41748,1073.5404 C2172.52571,1073.30235 2172.6355,1073.06232 2172.7469,1072.82019 L2184.25012,1044.47087 C2184.42289,1043.84957 2184.60045,1043.21988 2184.73602,1042.64176 L2184.8644,1042.95721 L2184.99277,1042.64176 C2185.12834,1043.21988 2185.30591,1043.84957 2185.47867,1044.47087 L2196.9819,1072.82019 C2197.40301,1073.73294 2197.79893,1074.61571 2198.17565,1075.47569 C2201.66453,1082.64458 2204.43956,1087.86682 2204.43956,1087.86682 L2203.35498,1088.69921 L2193.24827,1088.69921 C2194.0593,1092.95593 2195.33104,1096.84802 2196.84393,1100.39708 C2198.9339,1104.96805 2202.05925,1110.50214 2206.61591,1116.34687 C2209.23745,1119.49943 2211.55642,1121.7089 2212.8663,1122.87542 C2213.56814,1121.54899 2214.19082,1120.2775 2214.7416,1119.0729 C2216.25448,1115.52384 2217.52622,1111.63174 2218.33726,1107.37503 L2208.56767,1106.54743 L2208.49688,1106.54263 L2207.14596,1106.54263 C2207.14596,1106.54263 2209.92099,1101.32039 2213.40987,1094.1515 C2213.78659,1093.29152 2214.18371,1092.40875 2214.60363,1091.496 L2226.10685,1063.14668 C2226.27962,1062.52539 2226.45718,1061.89569 2226.59275,1061.31758 L2226.72113,1061.63302 L2226.8495,1061.31758 C2226.98507,1061.89569 2227.16264,1062.52539 2227.3354,1063.14668 L2232.83563,1076.70181 C2233.66462,1075.12202 2235.99291,1070.64306 2238.77516,1064.92613 C2239.15188,1064.06615 2239.549,1063.18338 2239.96892,1062.27063 L2251.47214,1033.92131 C2251.64491,1033.30002 2251.82247,1032.67032 2251.95804,1032.09221 L2252.08642,1032.40765 L2252.21479,1032.09221 C2252.35036,1032.67032 2252.52793,1033.30002 2252.70069,1033.92131 L2264.20392,1062.27063 C2264.62503,1063.18338 2265.02095,1064.06615 2265.39767,1064.92613 C2268.88655,1072.09502 2271.66158,1077.31726 2271.66158,1077.31726 L2270.577,1078.14966 L2260.47029,1078.14966 C2261.28132,1082.40637 2262.55306,1086.29847 2264.06595,1089.84753 C2264.54982,1090.9058 2265.08918,1092.01569 2265.68896,1093.16911 C2266.01949,1092.4199 2266.3655,1091.6524 2266.72856,1090.86427 L2278.23179,1062.51495 C2278.40455,1061.89366 2278.58211,1061.26396 2278.71769,1060.68585 L2278.84606,1061.00129 L2278.97443,1060.68585 C2279.11,1061.26396 2279.28757,1061.89366 2279.46033,1062.51495 L2290.96476,1090.86427 C2291.38467,1091.77582 2291.78059,1092.65979 2292.15851,1093.51977 C2295.6462,1100.68866 2298.42122,1105.9109 2298.42122,1105.9109 L2297.33665,1106.7433 L2287.22993,1106.7433 C2288.04096,1111.00001 2289.3127,1114.89211 2290.82559,1118.44117 C2292.91556,1123.01213 2296.04091,1128.54622 2300.59757,1134.39096 C2304.64794,1139.26177 2307.97605,1141.88129 2307.97605,1141.88129 L2307.85488,1141.88129 C2307.93166,1141.94366 2307.97605,1141.97964 2307.97605,1141.97964 C2307.97605,1141.97964 2308.82788,1143.58326 2309.6737,1144.38447 L2309.58012,1144.38447 C2309.61252,1144.41445 2309.64011,1144.44564 2309.6737,1144.47682 L2293.22629,1144.47682 C2294.62819,1148.59738 2296.39249,1152.42878 2298.35805,1155.95203 L2308.18281,1155.62031 C2314.71758,1148.97102 2322.61726,1138.93103 2326.99093,1126.07747 L2310.54352,1126.07747 C2310.57592,1126.04628 2310.60471,1126.0151 2310.6371,1125.98511 L2310.54352,1125.98511 C2311.38935,1125.18391 2312.23997,1123.58029 2312.23997,1123.58029 C2312.23997,1123.58029 2312.28436,1123.54431 2312.36115,1123.48194 L2312.23997,1123.48194 C2312.23997,1123.48194 2315.56929,1120.86242 2319.61845,1115.99161 C2324.17511,1110.14687 2327.30047,1104.61278 2329.39044,1100.04182 C2330.90333,1096.49275 2332.17506,1092.60066 2332.9861,1088.34394 L2323.21651,1087.51635 L2323.14573,1087.51155 L2321.7948,1087.51155 C2321.7948,1087.51155 2324.57103,1082.28931 2328.05871,1075.12042 C2328.43543,1074.26044 2328.83255,1073.37647 2329.25247,1072.46492 L2340.75569,1044.1156 C2340.92846,1043.4943 2341.10602,1042.86461 2341.24159,1042.2865 L2341.36997,1042.60194 L2341.49834,1042.2865 C2341.63391,1042.86461 2341.81148,1043.4943 2341.98424,1044.1156 L2353.48867,1072.46492 C2353.90858,1073.37647 2354.3045,1074.26044 2354.68242,1075.12042 C2356.20284,1078.24562 2357.58782,1081.00088 2358.66651,1083.11481 C2359.72284,1081.0415 2361.0514,1078.39458 2362.50325,1075.41032 C2362.87997,1074.55034 2363.27709,1073.66757 2363.697,1072.75482 L2375.20023,1044.4055 C2375.373,1043.7842 2375.55056,1043.15451 2375.68613,1042.57639 L2375.81451,1042.89184 L2375.94288,1042.57639 C2376.07845,1043.15451 2376.25601,1043.7842 2376.42878,1044.4055 L2387.93321,1072.75482 C2388.35312,1073.66757 2388.74904,1074.55034 2389.12696,1075.41032 C2392.61464,1082.57921 2395.38967,1087.80145 2395.38967,1087.80145 L2394.30509,1088.63384 L2384.19838,1088.63384 C2385.00941,1092.89056 2386.28115,1096.78265 2387.79404,1100.33172 C2389.884,1104.90268 2393.00936,1110.43677 2397.56602,1116.28151 C2401.61639,1121.15232 2404.9457,1123.77184 2404.9457,1123.77184 L2404.82332,1123.77184 C2404.90011,1123.83421 2404.9457,1123.87019 2404.9457,1123.87019 C2404.9457,1123.87019 2405.79632,1125.4738 2406.64215,1126.27501 L2406.54857,1126.27501 C2406.58096,1126.305 2406.60856,1126.33618 2406.64215,1126.36737 L2390.19474,1126.36737 C2398.54742,1150.91815 2419.76504,1165.20435 2419.76504,1165.20435 L2419.75665,1165.20435 L2419.76504,1165.21035 L2416.77526,1165.39746 C2417.01256,1165.55686 2414.94175,1165.78228 2411.62471,1166.03435 L2470.68231,1217.69593 L2448.99198,2164.62989 L531.00024,2102.67662 L546.492646,1143.35153 L595.825911,1117.24224 C598.903313,1112.53023 601.709921,1107.14774 603.74964,1101.15331 L587.302231,1101.15331 C587.334625,1101.12213 587.363419,1101.09094 587.395812,1101.06096 L587.302231,1101.06096 C588.148057,1100.25975 588.998682,1098.65614 588.998682,1098.65614 C588.998682,1098.65614 589.043072,1098.62015 589.119857,1098.55778 L588.998682,1098.55778 C588.998682,1098.55778 592.327995,1095.93827 596.37716,1091.06865 C600.933821,1085.22271 604.059176,1079.68862 606.149145,1075.11766 C607.662033,1071.5686 608.933771,1067.6765 609.744804,1063.41979 L599.975218,1062.59219 L599.904433,1062.5874 L598.553511,1062.5874 C598.553511,1062.5874 601.328539,1057.36515 604.81742,1050.19626 C605.194142,1049.33628 605.59126,1048.45352 606.011174,1047.54076 L617.514402,1019.19144 C617.687166,1018.57015 617.86473,1017.94046 618.000302,1017.36234 L618.128675,1017.67778 L618.257049,1017.36234 C618.392621,1017.94046 618.570184,1018.57015 618.742949,1019.19144 L630.247377,1047.54076 C630.66729,1048.45352 631.063208,1049.33628 631.44113,1050.19626 C634.928811,1057.36515 637.703839,1062.5874 637.703839,1062.5874 L636.619263,1063.41979 L626.512547,1063.41979 C627.323579,1067.6765 628.595317,1071.5686 630.108205,1075.11766 C632.198174,1079.68862 635.32353,1085.22271 639.88019,1091.06865 C643.930555,1095.93827 647.258669,1098.55778 647.258669,1098.55778 L647.137494,1098.55778 C647.214278,1098.62015 647.258669,1098.65614 647.258669,1098.65614 C647.258669,1098.65614 648.110494,1100.25975 648.956319,1101.06096 L648.861539,1101.06096 C648.895132,1101.09094 648.922726,1101.12213 648.956319,1101.15331 L632.50891,1101.15331 C640.861588,1125.70409 662.079213,1139.9903 662.079213,1139.9903 L662.070815,1139.9903 L662.079213,1139.99629 L659.090158,1140.18336 L659.092703,1140.18571 C659.09654,1140.18857 659.099643,1140.19145 659.10202,1140.19434 L680.932534,1160.4108 C687.661437,1153.79405 696.235847,1143.34429 700.863257,1129.74503 L684.415848,1129.74503 C684.448241,1129.71385 684.477035,1129.68266 684.509429,1129.65268 L684.415848,1129.65268 C685.261673,1128.85147 686.112298,1127.24786 686.112298,1127.24786 C686.112298,1127.24786 686.156689,1127.21187 686.233473,1127.1495 L686.112298,1127.1495 C686.112298,1127.1495 689.441612,1124.52999 693.490777,1119.65917 C698.047437,1113.81443 701.172793,1108.28034 703.262762,1103.70938 C704.77565,1100.16032 706.047388,1096.26822 706.858421,1092.01151 L697.088835,1091.18391 L697.018049,1091.17912 L695.667128,1091.17912 C695.667128,1091.17912 698.442156,1085.95687 701.931036,1078.78798 C702.307759,1077.928 702.704877,1077.04404 703.12479,1076.13248 L714.628019,1047.78316 C714.800783,1047.16187 714.978346,1046.53218 715.113918,1045.95406 L715.242292,1046.26951 L715.370665,1045.95406 C715.506237,1046.53218 715.683801,1047.16187 715.856565,1047.78316 L727.360993,1076.13248 C727.780907,1077.04404 728.176825,1077.928 728.554747,1078.78798 C732.042428,1085.95687 734.817456,1091.17912 734.817456,1091.17912 L733.732879,1092.01151 L723.626163,1092.01151 C724.437196,1096.26822 725.708934,1100.16032 727.221822,1103.70938 C729.311791,1108.28034 732.437147,1113.81443 736.993807,1119.65917 C737.081999,1119.76523 737.16985,1119.87022 737.257331,1119.97414 L738.018756,1119.30571 C738.019292,1119.30563 738.019384,1119.30543 738.019476,1119.30523 C739.532364,1115.75616 740.804101,1111.86407 741.615134,1107.60735 L731.845549,1106.77976 L731.774763,1106.77496 L730.423842,1106.77496 C730.423842,1106.77496 733.19887,1101.55272 736.68775,1094.38383 C737.064472,1093.52385 737.461591,1092.64108 737.881504,1091.72833 L749.384732,1063.37901 C749.402985,1063.31337 749.421292,1063.24763 749.439597,1063.18187 L747.512038,1063.01858 L747.441253,1063.01379 L746.090331,1063.01379 C746.090331,1063.01379 748.865359,1057.79154 752.35424,1050.62265 C752.730962,1049.76267 753.12808,1048.87871 753.547994,1047.96715 L765.051222,1019.61783 C765.223986,1018.99654 765.40155,1018.36685 765.537122,1017.78873 L765.665495,1018.10418 L765.793869,1017.78873 C765.929441,1018.36685 766.107004,1018.99654 766.279769,1019.61783 L777.784197,1047.96715 C778.20411,1048.87871 778.600028,1049.76267 778.977951,1050.62265 C782.465631,1057.79154 785.240659,1063.01379 785.240659,1063.01379 L784.156083,1063.84618 L774.049367,1063.84618 C774.8604,1068.1029 776.132137,1071.99499 777.645025,1075.54405 C779.734994,1080.11501 782.86035,1085.6491 787.417011,1091.49384 C791.467375,1096.36466 794.795489,1098.98417 794.795489,1098.98417 L794.674314,1098.98417 C794.751098,1099.04654 794.795489,1099.08253 794.795489,1099.08253 C794.795489,1099.08253 795.647314,1100.68614 796.493139,1101.48735 L796.398359,1101.48735 C796.431952,1101.51733 796.459546,1101.54852 796.493139,1101.5797 L780.04573,1101.5797 C786.481071,1120.49491 800.553005,1133.3171 806.67427,1138.20702 L824.150113,1143.01824 C826.576563,1138.96226 828.76117,1134.46378 830.431502,1129.55493 L813.984093,1129.55493 C814.016486,1129.52374 814.04528,1129.49256 814.077673,1129.46257 L813.984093,1129.46257 C814.829918,1128.66136 815.680543,1127.05775 815.680543,1127.05775 C815.680543,1127.05775 815.724934,1127.02177 815.801718,1126.9594 L815.680543,1126.9594 C815.680543,1126.9594 819.009857,1124.33988 823.059022,1119.46907 C827.615682,1113.62433 830.741038,1108.09024 832.831007,1103.51927 C834.343895,1099.97021 835.615633,1096.07812 836.426665,1091.8214 L826.65708,1090.99381 L826.586294,1090.98901 L825.235373,1090.98901 C825.235373,1090.98901 828.010401,1085.76677 831.499281,1078.59788 C831.876004,1077.7379 832.273122,1076.85513 832.693035,1075.94238 L844.196263,1047.59306 C844.369028,1046.97176 844.546591,1046.34207 844.682163,1045.76395 L844.810537,1046.0794 L844.93891,1045.76395 C845.074482,1046.34207 845.252046,1046.97176 845.42481,1047.59306 L856.929238,1075.94238 C857.349152,1076.85513 857.74507,1077.7379 858.122992,1078.59788 C861.610673,1085.76677 864.385701,1090.98901 864.385701,1090.98901 L863.301124,1091.8214 L853.194408,1091.8214 C854.005441,1096.07812 855.277179,1099.97021 856.790067,1103.51927 C858.880036,1108.09024 862.005391,1113.62433 866.562052,1119.46907 C870.612417,1124.33988 873.94173,1126.9594 873.94173,1126.9594 L873.819356,1126.9594 C873.89614,1127.02177 873.94173,1127.05775 873.94173,1127.05775 C873.94173,1127.05775 874.792355,1128.66136 875.638181,1129.46257 L875.5434,1129.46257 C875.576993,1129.49256 875.604588,1129.52374 875.638181,1129.55493 L859.190772,1129.55493 C864.061525,1143.87139 873.306983,1154.6974 880.168752,1161.23548 C883.703335,1156.11983 886.973901,1150.1441 889.27145,1143.39195 L872.824041,1143.39195 C872.856434,1143.36077 872.885228,1143.32958 872.917622,1143.2996 L872.824041,1143.2996 C873.669866,1142.49839 874.520491,1140.89477 874.520491,1140.89477 C874.520491,1140.89477 874.564882,1140.85879 874.641666,1140.79642 L874.520491,1140.79642 C874.520491,1140.79642 877.849805,1138.17691 881.89897,1133.30609 C886.45563,1127.46135 889.580986,1121.92726 891.670955,1117.3563 C893.183843,1113.80724 894.455581,1109.91514 895.266613,1105.65843 L885.497028,1104.83083 L885.426242,1104.82603 L884.075321,1104.82603 C884.075321,1104.82603 886.850349,1099.60379 890.339229,1092.4349 C890.715952,1091.57492 891.11307,1090.69096 891.532983,1089.7794 L903.036212,1061.43008 C903.208976,1060.80879 903.386539,1060.17909 903.522111,1059.60098 L903.650485,1059.91642 L903.778858,1059.60098 C903.91443,1060.17909 904.091994,1060.80879 904.264758,1061.43008 L914.606075,1086.91325 L924.555215,1062.39393 C924.727979,1061.77263 924.905542,1061.14294 925.041114,1060.56483 L925.169488,1060.88027 L925.297861,1060.56483 C925.433434,1061.14294 925.610997,1061.77263 925.783761,1062.39393 L937.288189,1090.74325 C937.525049,1091.2581 937.754273,1091.76342 937.97694,1092.26048 C939.060582,1090.17655 941.063513,1086.27325 943.380413,1081.51089 C943.757135,1080.65091 944.154254,1079.76694 944.574167,1078.85539 L956.077395,1050.50607 C956.25016,1049.88478 956.427723,1049.25508 956.563295,1048.67697 L956.691669,1048.99241 L956.820042,1048.67697 C956.955614,1049.25508 957.133177,1049.88478 957.305942,1050.50607 L968.81037,1078.85539 C969.230283,1079.76694 969.626202,1080.65091 970.004124,1081.51089 C973.491805,1088.67978 976.266832,1093.90202 976.266832,1093.90202 L975.182256,1094.73442 L965.07554,1094.73442 C965.886573,1098.99113 967.15831,1102.88323 968.671199,1106.43229 C970.761168,1111.00325 973.886523,1116.53734 978.443184,1122.38208 C982.493549,1127.25289 985.822862,1129.87241 985.822862,1129.87241 L985.700487,1129.87241 C985.777271,1129.93478 985.822862,1129.97076 985.822862,1129.97076 C985.822862,1129.97076 986.673487,1131.57438 987.519312,1132.37559 L987.424532,1132.37559 C987.458125,1132.40557 987.485719,1132.43676 987.519312,1132.46794 L971.071904,1132.46794 C976.745622,1149.14453 988.355317,1161.08498 995.21884,1167.02883 L998.598746,1166.4188 C997.715916,1166.31246 997.26899,1166.21751 997.386318,1166.13869 L994.396534,1165.95159 C994.396534,1165.95159 994.404933,1165.94679 994.404933,1165.94559 L994.396534,1165.94559 C994.396534,1165.94559 1005.75727,1158.2962 1015.12566,1144.57311 C1003.05711,1143.97748 982.137937,1142.8702 982.864632,1142.38205 L979.874848,1142.19494 C979.874848,1142.19494 979.883247,1142.19014 979.883247,1142.18894 L979.874848,1142.18894 C979.874848,1142.18894 1001.09247,1127.90274 1009.44635,1103.35196 L992.998942,1103.35196 C993.031336,1103.32077 993.06013,1103.28959 993.092523,1103.2596 L992.998942,1103.2596 C993.844768,1102.45839 994.695393,1100.85478 994.695393,1100.85478 C994.695393,1100.85478 994.739784,1100.8188 994.816568,1100.75643 L994.695393,1100.75643 C994.695393,1100.75643 998.024706,1098.13691 1002.07387,1093.26609 C1006.63053,1087.42136 1009.75589,1081.88727 1011.84586,1077.3163 C1013.35874,1073.76724 1014.63048,1069.87515 1015.44152,1065.61843 L1005.67193,1064.79084 L1005.60114,1064.78604 L1004.25022,1064.78604 C1004.25022,1064.78604 1007.02525,1059.5638 1010.51413,1052.39491 C1010.89085,1051.53493 1011.28797,1050.65096 1011.70788,1049.73941 L1023.21111,1021.39009 C1023.38388,1020.76879 1023.56144,1020.1391 1023.69701,1019.56098 L1023.82539,1019.87643 L1023.95376,1019.56098 C1024.08933,1020.1391 1024.2669,1020.76879 1024.43966,1021.39009 L1035.90607,1049.64866 L1037.7328,1045.14674 C1037.90556,1044.52544 1038.08313,1043.89575 1038.2187,1043.31763 L1038.34707,1043.63308 L1038.47545,1043.31763 C1038.61102,1043.89575 1038.78858,1044.52544 1038.96135,1045.14674 L1050.13485,1072.6806 C1051.17444,1070.68572 1053.26045,1066.6328 1055.6937,1061.63302 C1056.07042,1060.77304 1056.46754,1059.88908 1056.88745,1058.97752 L1068.39068,1030.6282 C1068.56344,1030.00691 1068.74101,1029.37722 1068.87658,1028.7991 L1069.00495,1029.11454 L1069.13332,1028.7991 C1069.2689,1029.37722 1069.44646,1030.00691 1069.61922,1030.6282 L1081.12365,1058.97752 C1081.54357,1059.88908 1081.93948,1060.77304 1082.31621,1061.63302 C1085.80509,1068.80191 1088.58012,1074.02416 1088.58012,1074.02416 L1087.49554,1074.85655 L1077.38882,1074.85655 C1078.19986,1079.11326 1079.47159,1083.00536 1080.98448,1086.55442 C1083.07445,1091.12538 1086.19981,1096.65947 1090.75647,1102.50421 C1094.80683,1107.37503 1098.13494,1109.99454 1098.13494,1109.99454 L1098.01377,1109.99454 C1098.09055,1110.05691 1098.13494,1110.0929 1098.13494,1110.0929 C1098.13494,1110.0929 1098.98677,1111.69651 1099.83259,1112.49772 L1099.73781,1112.49772 C1099.77141,1112.5277 1099.799,1112.55889 1099.83259,1112.59007 L1083.38519,1112.59007 C1086.80084,1122.6296 1092.36781,1130.95265 1097.75544,1137.28423 L1098.03213,1137.15656 L1110.76887,1140.05042 C1114.0616,1136.961 1117.96442,1132.8426 1121.68843,1127.78831 L1114.98127,1127.78831 C1115.01366,1127.75713 1115.04246,1127.72594 1115.07485,1127.69596 L1114.98127,1127.69596 C1115.8271,1126.89475 1116.67772,1125.29113 1116.67772,1125.29113 C1116.67772,1125.29113 1116.72211,1125.25515 1116.7989,1125.19278 L1116.67772,1125.19278 C1116.67772,1125.19278 1120.00704,1122.57327 1124.0562,1117.70365 C1126.72503,1114.2797 1128.90285,1110.96272 1130.66923,1107.88358 L1115.81486,1107.88358 C1115.84725,1107.85239 1115.87605,1107.82121 1115.90844,1107.79122 L1115.81486,1107.79122 C1116.66069,1106.99002 1117.51131,1105.3864 1117.51131,1105.3864 C1117.51131,1105.3864 1117.5557,1105.35042 1117.63248,1105.28805 L1117.51131,1105.28805 C1117.51131,1105.28805 1120.84062,1102.66853 1124.88979,1097.79772 C1127.13045,1094.92366 1129.02503,1092.12472 1130.62058,1089.47847 L1127.65426,1089.22719 L1127.58347,1089.22239 L1126.23255,1089.22239 C1126.23255,1089.22239 1129.00758,1084.00015 1132.49646,1076.83126 C1132.87318,1075.97128 1133.2703,1075.08851 1133.69021,1074.17576 L1135.42121,1069.90979 L1128.48785,1069.32246 L1128.41706,1069.31766 L1127.06614,1069.31766 C1127.06614,1069.31766 1129.84117,1064.09542 1133.33005,1056.92653 C1133.70677,1056.06655 1134.10389,1055.18378 1134.5238,1054.27103 L1146.02703,1025.92171 C1146.19979,1025.30041 1146.37736,1024.67072 1146.51293,1024.0926 L1146.6413,1024.40805 L1146.76968,1024.0926 C1146.90525,1024.67072 1147.08281,1025.30041 1147.25558,1025.92171 L1158.75881,1054.27103 C1159.17992,1055.18378 1159.57584,1056.06655 1159.95256,1056.92653 C1163.44144,1064.09542 1166.21647,1069.31766 1166.21647,1069.31766 L1165.13189,1070.15005 L1156.29275,1070.15005 L1157.92642,1074.17576 C1158.34633,1075.08851 1158.74225,1075.97128 1159.12017,1076.83126 C1162.60785,1084.00015 1165.38288,1089.22239 1165.38288,1089.22239 L1164.2983,1090.05479 L1163.0128,1090.05479 C1164.53334,1092.52982 1166.31415,1095.13145 1168.39282,1097.79772 C1172.44318,1102.66853 1175.7713,1105.28805 1175.7713,1105.28805 L1175.65012,1105.28805 C1175.72691,1105.35042 1175.7713,1105.3864 1175.7713,1105.3864 C1175.7713,1105.3864 1176.62312,1106.99002 1177.46895,1107.79122 L1177.37417,1107.79122 C1177.40776,1107.82121 1177.43535,1107.85239 1177.46895,1107.88358 L1161.02154,1107.88358 C1161.05818,1107.99126 1161.09506,1108.09875 1161.13219,1108.20604 C1162.86481,1111.19381 1164.98332,1114.3989 1167.55923,1117.70365 C1171.6096,1122.57327 1174.93771,1125.19278 1174.93771,1125.19278 L1174.81653,1125.19278 C1174.89332,1125.25515 1174.93771,1125.29113 1174.93771,1125.29113 C1174.93771,1125.29113 1175.01029,1125.42777 1175.13411,1125.6412 C1175.60408,1125.26172 1178.7225,1122.68541 1182.4514,1118.19985 C1187.00806,1112.35511 1190.13342,1106.82102 1192.22339,1102.25006 C1193.73627,1098.70099 1195.00801,1094.8089 1195.81904,1090.55218 L1186.04946,1089.72459 L1185.97867,1089.71979 L1184.62775,1089.71979 C1184.62775,1089.71979 1187.40398,1084.49755 1190.89166,1077.32866 C1191.26838,1076.46868 1191.6655,1075.58591 1192.08541,1074.67316 L1203.58864,1046.32384 C1203.76141,1045.70254 1203.93897,1045.07285 1204.07454,1044.49473 L1204.20292,1044.81018 L1204.33129,1044.49473 C1204.46686,1045.07285 1204.64442,1045.70254 1204.81719,1046.32384 L1216.32162,1074.67316 C1216.48529,1075.02894 1216.64533,1075.38017 1216.80207,1075.72726 L1225.42942,1054.46545 C1225.60218,1053.84416 1225.77975,1053.21446 1225.91532,1052.63635 L1226.04369,1052.95179 L1226.17207,1052.63635 C1226.30764,1053.21446 1226.4852,1053.84416 1226.65797,1054.46545 L1238.16119,1082.81477 C1238.58231,1083.72633 1238.97823,1084.61029 1239.35495,1085.47027 C1242.84383,1092.63916 1245.61886,1097.8614 1245.61886,1097.8614 L1244.53428,1098.6938 L1234.42756,1098.6938 C1235.2386,1102.95051 1236.51033,1106.84261 1238.02322,1110.39167 C1240.11319,1114.96263 1243.23855,1120.49672 1247.79521,1126.34146 C1251.84557,1131.21228 1255.17369,1133.83179 1255.17369,1133.83179 L1255.05251,1133.83179 C1255.12929,1133.89416 1255.17369,1133.93014 1255.17369,1133.93014 C1255.17369,1133.93014 1256.02551,1135.53376 1256.87134,1136.33497 L1256.77656,1136.33497 C1256.81015,1136.36495 1256.83774,1136.39614 1256.87134,1136.42732 L1240.42393,1136.42732 C1243.4436,1145.30296 1248.1447,1152.83705 1252.91682,1158.83955 L1276.79137,1158.83955 C1274.70612,1158.65557 1273.50984,1158.49286 1273.69331,1158.36962 L1270.70352,1158.18251 C1270.70352,1158.18251 1270.71192,1158.17771 1270.71192,1158.17651 L1270.70352,1158.17651 C1270.70352,1158.17651 1282.85296,1149.99608 1292.38436,1135.3778 L1290.27485,1135.24578 L1290.28325,1135.23978 L1290.27485,1135.23978 C1290.27485,1135.23978 1291.91237,1134.13721 1294.45669,1132.0183 C1296.69774,1128.16911 1298.71165,1123.93407 1300.27503,1119.33953 L1283.82762,1119.33953 C1283.86001,1119.30834 1283.88881,1119.27716 1283.9212,1119.24717 L1283.82762,1119.24717 C1284.67344,1118.44597 1285.52407,1116.84235 1285.52407,1116.84235 C1285.52407,1116.84235 1285.56846,1116.80637 1285.64524,1116.744 L1285.52407,1116.744 C1285.52407,1116.744 1288.85338,1114.12448 1292.90255,1109.25367 C1297.45921,1103.40893 1300.58456,1097.87484 1302.67453,1093.30388 C1304.18742,1089.75481 1305.45916,1085.86272 1306.27019,1081.606 L1296.5006,1080.77841 L1296.42982,1080.77361 L1295.0789,1080.77361 C1295.0789,1080.77361 1297.85393,1075.55137 1301.34281,1068.38248 C1301.71953,1067.5225 1302.11665,1066.63973 1302.53656,1065.72698 L1314.03979,1037.37766 C1314.21255,1036.75636 1314.39012,1036.12667 1314.52569,1035.54855 L1314.65406,1035.864 L1314.78244,1035.54855 C1314.91801,1036.12667 1315.09557,1036.75636 1315.26834,1037.37766 L1319.61625,1048.09183 C1320.03439,1047.24615 1320.46845,1046.36184 1320.91413,1045.44575 C1321.29085,1044.58577 1321.68797,1043.7018 1322.10788,1042.79025 L1333.61111,1014.44093 C1333.78388,1013.81963 1333.96144,1013.18994 1334.09701,1012.61182 L1334.22539,1012.92727 L1334.35376,1012.61182 C1334.48933,1013.18994 1334.6669,1013.81963 1334.83966,1014.44093 L1346.34409,1042.79025 C1346.764,1043.7018 1347.15992,1044.58577 1347.53784,1045.44575 C1348.75774,1047.95323 1349.89045,1050.22256 1350.84772,1052.11357 C1351.98732,1049.8976 1353.61789,1046.67864 1355.44337,1042.92638 C1355.82009,1042.0664 1356.21721,1041.18364 1356.63713,1040.27088 L1368.14035,1011.92156 C1368.31312,1011.30027 1368.49068,1010.67058 1368.62625,1010.09246 L1368.75463,1010.4079 L1368.883,1010.09246 C1369.01857,1010.67058 1369.19614,1011.30027 1369.3689,1011.92156 L1380.87333,1040.27088 C1381.29324,1041.18364 1381.68916,1042.0664 1382.06708,1042.92638 C1385.55476,1050.09527 1388.32979,1055.31752 1388.32979,1055.31752 L1387.24521,1056.14991 L1380.18899,1056.14991 L1383.19257,1063.55136 C1383.61248,1064.46412 1384.0084,1065.34688 1384.38632,1066.20686 C1387.874,1073.37575 1390.64903,1078.598 1390.64903,1078.598 L1389.56446,1079.43039 L1387.31522,1079.43039 C1388.29147,1080.85917 1389.35297,1082.31842 1390.50614,1083.79757 C1390.50963,1083.80177 1390.51312,1083.80596 1390.51661,1083.81015 C1391.62254,1082.83178 1393.5241,1081.04386 1395.73926,1078.51442 L1398.79919,1070.97333 C1398.97196,1070.35203 1399.14952,1069.72234 1399.28509,1069.14423 L1399.41347,1069.45967 L1399.54184,1069.14423 C1399.67741,1069.72234 1399.85497,1070.35203 1400.02774,1070.97333 L1400.50886,1072.1589 C1403.16407,1068.19203 1405.16087,1064.47618 1406.63946,1061.24237 C1408.15234,1057.69331 1409.42408,1053.80122 1410.23511,1049.5445 L1400.46553,1048.71691 L1400.39474,1048.71211 L1399.04382,1048.71211 C1399.04382,1048.71211 1401.81885,1043.48987 1405.30773,1036.32098 C1405.68445,1035.461 1406.08157,1034.57823 1406.50148,1033.66548 L1418.00471,1005.31616 C1418.17748,1004.69486 1418.35504,1004.06517 1418.49061,1003.48705 L1418.61899,1003.8025 L1418.74736,1003.48705 C1418.88293,1004.06517 1419.06049,1004.69486 1419.23326,1005.31616 L1430.73769,1033.66548 C1431.1576,1034.57823 1431.55352,1035.461 1431.93144,1036.32098 C1435.41912,1043.48987 1438.19415,1048.71211 1438.19415,1048.71211 L1437.10957,1049.5445 L1427.00286,1049.5445 C1427.81389,1053.80122 1429.08563,1057.69331 1430.59852,1061.24237 C1432.16837,1064.6758 1434.32241,1068.65264 1437.22841,1072.89637 C1438.30008,1070.83698 1440.32847,1066.88788 1442.68038,1062.05354 C1443.05711,1061.19356 1443.45423,1060.31079 1443.87414,1059.39804 L1447.28474,1050.99271 C1447.4494,1050.40117 1447.61632,1049.80468 1447.74526,1049.25484 L1447.86777,1049.55587 L1455.37737,1031.04872 C1455.55013,1030.42742 1455.72769,1029.79773 1455.86327,1029.21961 L1455.99164,1029.53506 L1456.12001,1029.21961 C1456.25559,1029.79773 1456.43315,1030.42742 1456.60591,1031.04872 L1468.11034,1059.39804 C1468.53025,1060.31079 1468.92617,1061.19356 1469.3041,1062.05354 C1472.79178,1069.22243 1475.5668,1074.44467 1475.5668,1074.44467 L1474.48223,1075.27706 L1464.37551,1075.27706 C1465.18654,1079.53378 1466.45828,1083.42587 1467.97117,1086.97493 C1470.06114,1091.5459 1473.18649,1097.07999 1477.74316,1102.92473 C1478.4057,1103.72147 1479.04895,1104.45798 1479.66149,1105.13265 C1480.26341,1103.97553 1480.80455,1102.86218 1481.28986,1101.80076 C1482.80275,1098.25169 1484.07449,1094.3596 1484.88552,1090.10288 L1475.11594,1089.27529 L1475.04515,1089.27049 L1473.69423,1089.27049 C1473.69423,1089.27049 1476.47046,1084.04825 1479.95814,1076.87936 C1480.33486,1076.01938 1480.73198,1075.13661 1481.15189,1074.22386 L1492.65512,1045.87454 C1492.82788,1045.25324 1493.00545,1044.62355 1493.14102,1044.04543 L1493.26939,1044.36088 L1493.39777,1044.04543 C1493.53334,1044.62355 1493.7109,1045.25324 1493.88367,1045.87454 L1505.3881,1074.22386 C1505.80801,1075.13661 1506.20393,1076.01938 1506.58185,1076.87936 C1510.06953,1084.04825 1512.84456,1089.27049 1512.84456,1089.27049 L1511.75998,1090.10288 L1501.65327,1090.10288 C1502.4643,1094.3596 1503.73604,1098.25169 1505.24892,1101.80076 C1507.33889,1106.37172 1510.46425,1111.90581 1515.02091,1117.75055 C1516.17389,1119.13707 1517.26844,1120.34118 1518.2444,1121.35436 C1521.84351,1116.18518 1525.18178,1110.127 1527.51585,1103.26752 L1511.06844,1103.26752 C1511.10084,1103.23633 1511.12963,1103.20515 1511.16202,1103.17516 L1511.06844,1103.17516 C1511.91427,1102.37396 1512.76489,1100.77034 1512.76489,1100.77034 C1512.76489,1100.77034 1512.80929,1100.73436 1512.88607,1100.67199 L1512.76489,1100.67199 C1512.76489,1100.67199 1516.09421,1098.05247 1520.14337,1093.18166 C1524.70003,1087.33692 1527.82539,1081.80283 1529.91536,1077.23187 C1531.42825,1073.6828 1532.69998,1069.79071 1533.51102,1065.53399 L1523.74143,1064.7064 L1523.67065,1064.7016 L1522.31972,1064.7016 C1522.31972,1064.7016 1525.09595,1059.47936 1528.58363,1052.31047 C1528.96035,1051.45049 1529.35747,1050.56652 1529.77739,1049.65497 L1541.28061,1021.30565 C1541.45338,1020.68435 1541.63094,1020.05466 1541.76651,1019.47654 L1541.89489,1019.79199 L1542.02326,1019.47654 C1542.15883,1020.05466 1542.3364,1020.68435 1542.50916,1021.30565 L1554.01359,1049.65497 C1554.4335,1050.56652 1554.82942,1051.45049 1555.20734,1052.31047 C1558.69502,1059.47936 1561.47005,1064.7016 1561.47005,1064.7016 L1560.38548,1065.53399 L1550.27876,1065.53399 C1551.08979,1069.79071 1552.36153,1073.6828 1553.87442,1077.23187 C1554.39966,1078.38062 1554.99029,1079.5902 1555.6526,1080.85025 L1564.57909,1058.85122 C1564.75186,1058.22993 1564.92942,1057.60024 1565.06499,1057.02212 L1565.19336,1057.33757 L1565.32174,1057.02212 C1565.45731,1057.60024 1565.63487,1058.22993 1565.80764,1058.85122 L1577.31207,1087.20054 C1577.73198,1088.1133 1578.1279,1088.99607 1578.50582,1089.85604 C1581.9935,1097.02493 1584.76853,1102.24718 1584.76853,1102.24718 L1583.68395,1103.07957 L1573.57724,1103.07957 C1574.38827,1107.33629 1575.66001,1111.22838 1577.17289,1114.77744 C1579.26286,1119.3484 1582.38822,1124.88249 1586.94488,1130.72723 C1587.77749,1131.7285 1588.57964,1132.63464 1589.32866,1133.44244 C1595.22216,1126.90825 1601.64226,1117.89615 1605.42491,1106.77952 L1588.9775,1106.77952 C1589.00989,1106.74833 1589.03869,1106.71715 1589.07108,1106.68716 L1588.9775,1106.68716 C1589.82333,1105.88596 1590.67395,1104.28234 1590.67395,1104.28234 C1590.67395,1104.28234 1590.71834,1104.24636 1590.79513,1104.18399 L1590.67395,1104.18399 C1590.67395,1104.18399 1594.00326,1101.56447 1598.05243,1096.69366 C1602.60909,1090.84892 1605.73445,1085.31483 1607.82441,1080.74387 C1609.3373,1077.1948 1610.60904,1073.30271 1611.42007,1069.04599 L1601.65049,1068.2184 L1601.5797,1068.2136 L1600.22878,1068.2136 C1600.22878,1068.2136 1603.00381,1062.99136 1606.49269,1055.82247 C1606.86941,1054.96249 1607.26653,1054.07972 1607.68644,1053.16697 L1619.18967,1024.81765 C1619.36244,1024.19635 1619.54,1023.56666 1619.67557,1022.98854 L1619.80394,1023.30399 L1619.93232,1022.98854 C1620.06789,1023.56666 1620.24545,1024.19635 1620.41822,1024.81765 L1631.92145,1053.16697 C1632.34256,1054.07972 1632.73848,1054.96249 1633.1152,1055.82247 C1633.72641,1057.07837 1634.31571,1058.27453 1634.87202,1059.39334 L1643.26223,1038.71596 C1643.43499,1038.09467 1643.61256,1037.46498 1643.74813,1036.88686 L1643.8765,1037.2023 L1644.00487,1036.88686 C1644.14045,1037.46498 1644.31801,1038.09467 1644.49077,1038.71596 L1655.9952,1067.06528 C1656.41512,1067.97804 1656.81103,1068.8608 1657.18896,1069.72078 C1660.67664,1076.88967 1663.45166,1082.11192 1663.45166,1082.11192 L1662.36709,1082.94431 L1652.26037,1082.94431 C1653.07141,1087.20102 1654.34314,1091.09312 1655.85603,1094.64218 C1657.23696,1097.66241 1659.06992,1101.10311 1661.46912,1104.77608 C1662.72951,1103.66953 1665.16351,1101.3905 1667.93466,1098.05703 C1672.49132,1092.21229 1675.61668,1086.6782 1677.70665,1082.10724 C1679.21953,1078.55818 1680.49127,1074.66608 1681.3023,1070.40937 L1671.53272,1069.58177 L1671.46193,1069.57697 L1670.11101,1069.57697 C1670.11101,1069.57697 1672.88724,1064.35473 1676.37492,1057.18584 C1676.75164,1056.32586 1677.14876,1055.44309 1677.56867,1054.53034 L1689.0719,1026.18102 C1689.24467,1025.55973 1689.42223,1024.93003 1689.5578,1024.35192 L1689.68618,1024.66736 L1689.81455,1024.35192 C1689.95012,1024.93003 1690.12768,1025.55973 1690.30045,1026.18102 L1701.80488,1054.53034 C1702.22479,1055.44309 1702.62071,1056.32586 1702.99863,1057.18584 C1704.07543,1059.3992 1705.0843,1061.42699 1705.96454,1063.17282 C1706.08439,1062.9276 1706.2052,1062.67988 1706.32686,1062.42979 C1706.70359,1061.56981 1707.10071,1060.68705 1707.52062,1059.77429 L1719.02385,1031.42497 C1719.19661,1030.80368 1719.37417,1030.17399 1719.50975,1029.59587 L1719.63812,1029.91131 L1719.76649,1029.59587 C1719.90207,1030.17399 1720.07963,1030.80368 1720.25239,1031.42497 L1731.75682,1059.77429 C1732.17673,1060.68705 1732.57265,1061.56981 1732.95058,1062.42979 C1735.60608,1067.88816 1737.84845,1072.21801 1738.76734,1073.97349 C1739.54872,1072.41675 1740.41691,1070.6657 1741.33433,1068.77996 C1741.71105,1067.91998 1742.10817,1067.03722 1742.52808,1066.12446 L1754.03131,1037.77514 C1754.20407,1037.15385 1754.38164,1036.52416 1754.51721,1035.94604 L1754.64558,1036.26149 L1754.77396,1035.94604 C1754.90953,1036.52416 1755.08709,1037.15385 1755.25986,1037.77514 L1766.76428,1066.12446 C1767.1842,1067.03722 1767.58012,1067.91998 1767.95804,1068.77996 C1771.44572,1075.94885 1774.22075,1081.1711 1774.22075,1081.1711 L1773.13617,1082.00349 L1763.02945,1082.00349 C1763.84049,1086.2602 1765.11222,1090.1523 1766.62511,1093.70136 C1768.71508,1098.27232 1771.84044,1103.80641 1776.3971,1109.65235 C1780.44746,1114.52197 1783.77558,1117.14148 1783.77558,1117.14148 L1783.6544,1117.14148 C1783.73118,1117.20385 1783.77558,1117.23984 1783.77558,1117.23984 C1783.77558,1117.23984 1784.33361,1118.29037 1784.99483,1119.11569 L1792.9602,1118.80555 C1794.85594,1117.11845 1797.04574,1115.02446 1799.33827,1112.54616 C1800.40332,1110.45712 1801.75287,1107.77 1803.23004,1104.73368 C1803.60677,1103.8737 1804.00388,1102.99093 1804.4238,1102.07818 L1811.3416,1085.02949 L1799.76696,1085.02949 C1799.79935,1084.9983 1799.82815,1084.96712 1799.86054,1084.93713 L1799.76696,1084.93713 C1800.61278,1084.13592 1801.46341,1082.53231 1801.46341,1082.53231 C1801.46341,1082.53231 1801.509,1082.49633 1801.58458,1082.43396 L1801.46341,1082.43396 C1801.46341,1082.43396 1804.79272,1079.81444 1808.84189,1074.94363 C1813.39855,1069.09889 1816.5239,1063.5648 1818.61387,1058.99384 C1820.12676,1055.44477 1821.3985,1051.55268 1822.20953,1047.29596 L1812.43995,1046.46837 L1812.36916,1046.46357 L1811.01824,1046.46357 C1811.01824,1046.46357 1813.79447,1041.24133 1817.28215,1034.07244 C1817.65887,1033.21246 1818.05599,1032.32969 1818.4759,1031.41694 L1829.97913,1003.06762 C1830.15189,1002.44632 1830.32946,1001.81663 1830.46503,1001.23851 L1830.5934,1001.55396 L1830.72178,1001.23851 C1830.85735,1001.81663 1831.03491,1002.44632 1831.20768,1003.06762 L1842.7121,1031.41694 C1843.13202,1032.32969 1843.52794,1033.21246 1843.90586,1034.07244 C1847.39354,1041.24133 1850.16857,1046.46357 1850.16857,1046.46357 L1849.08399,1047.29596 L1838.97727,1047.29596 C1839.78831,1051.55268 1841.06004,1055.44477 1842.57293,1058.99384 C1844.6629,1063.5648 1847.78826,1069.09889 1852.34492,1074.94363 C1853.00701,1075.73983 1853.64983,1076.47588 1854.26199,1077.15016 C1855.0043,1076.3486 1855.79839,1075.45074 1856.62228,1074.45966 C1861.17894,1068.61492 1864.30429,1063.08083 1866.39426,1058.50987 C1867.90715,1054.96081 1869.17889,1051.06872 1869.98992,1046.812 L1860.22033,1045.9844 L1860.14955,1045.97961 L1858.79863,1045.97961 C1858.79863,1045.97961 1861.57485,1040.75736 1865.06254,1033.58847 C1865.43926,1032.7285 1865.83638,1031.84573 1866.25629,1030.93297 L1877.75952,1002.58365 C1877.93228,1001.96236 1878.10985,1001.33267 1878.24542,1000.75455 L1878.37379,1001.07 L1878.50216,1000.75455 C1878.63774,1001.33267 1878.8153,1001.96236 1878.98806,1002.58365 L1890.49249,1030.93297 C1890.91241,1031.84573 1891.30832,1032.7285 1891.68625,1033.58847 C1895.17393,1040.75736 1897.94895,1045.97961 1897.94895,1045.97961 L1896.86438,1046.812 L1886.75766,1046.812 C1887.5687,1051.06872 1888.84043,1054.96081 1890.35332,1058.50987 C1892.11488,1062.36256 1894.61199,1066.89947 1898.08172,1071.72991 L1904.08509,1056.9348 C1904.25785,1056.31351 1904.43542,1055.68382 1904.57099,1055.1057 L1904.69936,1055.42114 L1904.82774,1055.1057 C1904.96331,1055.68382 1905.14087,1056.31351 1905.31364,1056.9348 L1916.81806,1085.28412 C1917.1832,1086.07782 1917.5302,1086.84884 1917.863,1087.60192 C1920.03341,1084.20209 1921.71681,1081.01563 1923.00615,1078.19571 C1924.51904,1074.64665 1925.79077,1070.75456 1926.60181,1066.49784 L1916.83222,1065.67025 L1916.76144,1065.66545 L1915.41051,1065.66545 C1915.41051,1065.66545 1918.18674,1060.44321 1921.67442,1053.27432 C1922.05115,1052.41434 1922.44826,1051.53157 1922.86818,1050.61882 L1934.37141,1022.2695 C1934.54417,1021.6482 1934.72173,1021.01851 1934.8573,1020.44039 L1934.98568,1020.75584 L1935.11405,1020.44039 C1935.24962,1021.01851 1935.42719,1021.6482 1935.59995,1022.2695 L1947.10438,1050.61882 C1947.52429,1051.53157 1947.92021,1052.41434 1948.29813,1053.27432 C1951.78581,1060.44321 1954.56084,1065.66545 1954.56084,1065.66545 L1953.47627,1066.49784 L1943.36955,1066.49784 C1944.18058,1070.75456 1945.45232,1074.64665 1946.96521,1078.19571 C1947.76646,1079.94813 1948.71989,1081.8421 1949.84781,1083.84086 L1952.30147,1077.79391 C1952.47423,1077.17261 1952.6518,1076.54292 1952.78737,1075.96481 L1952.91574,1076.28025 L1953.04412,1075.96481 C1953.17969,1076.54292 1953.35725,1077.17261 1953.53001,1077.79391 L1962.71604,1100.43021 C1963.59545,1101.22637 1964.11567,1101.63584 1964.11567,1101.63584 L1963.9945,1101.63584 C1964.07128,1101.69821 1964.11567,1101.73419 1964.11567,1101.73419 C1964.11567,1101.73419 1964.9675,1103.3378 1965.81332,1104.13901 L1965.71974,1104.13901 C1965.75213,1104.169 1965.77973,1104.20018 1965.81332,1104.23137 L1964.25859,1104.23137 L1965.03444,1106.14323 C1965.45436,1107.05478 1965.85027,1107.93875 1966.2282,1108.79873 C1969.71588,1115.96762 1972.49091,1121.18986 1972.49091,1121.18986 L1971.40633,1122.02225 L1961.29961,1122.02225 C1961.67332,1123.98368 1962.14485,1125.86769 1962.69272,1127.6764 C1970.84764,1137.62217 1978.93622,1143.06835 1978.93622,1143.06835 L1978.92782,1143.06835 C1978.92902,1143.06955 1978.93622,1143.07435 1978.93622,1143.07435 L1975.94643,1143.26146 C1976.18955,1143.42477 1974.00992,1143.65738 1970.54949,1143.91695 C1971.2312,1144.95853 1971.95844,1146.01868 1972.73379,1147.09311 L1976.5405,1146.31009 L1976.5405,1146.31009 Z" id="Path" fill="#CDE6DF"></path>
                <rect id="Rectangle-1" fill="#CCE3E5" x="2352" y="1968" width="63" height="126"></rect>
            </g>
        </g>
    </g>
</svg>