<?xml version="1.0" encoding="UTF-8" standalone="no"?>
<svg width="3000px" height="3059px" viewBox="0 0 3000 3059" version="1.1" xmlns="http://www.w3.org/2000/svg" xmlns:xlink="http://www.w3.org/1999/xlink">
    <!-- Generator: Sketch 3.6.1 (26313) - http://www.bohemiancoding.com/sketch -->
    <title>forest1</title>
    <desc>Created with Sketch.</desc>
    <defs></defs>
    <g id="Page-1" stroke="none" stroke-width="1" fill="none" fill-rule="evenodd">
        <g id="site" transform="translate(0.000000, -599.000000)" fill="#CDE6DF">
            <g id="art" transform="translate(-670.000000, -948.000000)">
                <g id="Forest-1" transform="translate(670.000000, 1547.477346)">
                    <g transform="translate(531.000000, 1000.000000)" id="Combined-Shape">
                        <path d="M1445.5405,146.310085 L1443.94272,146.210092 C1443.94272,146.210092 1443.95112,146.205294 1443.95112,146.204095 L1443.94272,146.204095 C1443.94272,146.204095 1447.1769,144.026464 1451.61702,139.910536 L1446.68703,139.910536 C1446.71943,139.879352 1446.74822,139.848167 1446.78061,139.818182 L1446.68703,139.818182 C1447.53286,139.016974 1448.38348,137.413359 1448.38348,137.413359 C1448.38348,137.413359 1448.42907,137.377377 1448.50466,137.315007 L1448.38348,137.315007 C1448.38348,137.315007 1451.7128,134.69549 1455.76196,129.824675 C1460.31862,123.979936 1463.44398,118.445846 1465.53395,113.874884 C1466.40913,111.821812 1467.20361,109.653948 1467.87489,107.36711 L1457.06681,107.36711 C1457.09921,107.335926 1457.128,107.304741 1457.16039,107.274756 L1457.06681,107.274756 C1457.91264,106.473548 1458.76326,104.869933 1458.76326,104.869933 C1458.76326,104.869933 1458.80765,104.833951 1458.88444,104.771581 L1458.76326,104.771581 C1458.76326,104.771581 1460.15236,103.678636 1462.22729,101.592307 L1459.36002,101.349417 L1459.28924,101.344619 L1457.93831,101.344619 C1457.93831,101.344619 1460.71454,96.1223761 1464.20222,88.9534862 C1464.57894,88.0935073 1464.97606,87.2095401 1465.39598,86.2979864 L1472.40214,69.0315216 L1469.7398,68.8059909 L1469.66902,68.8011933 L1468.31809,68.8011933 C1468.31809,68.8011933 1471.09312,63.5789502 1474.582,56.4100603 C1474.95872,55.5500813 1475.35584,54.6673135 1475.77576,53.7545605 L1487.27898,25.405241 C1487.45175,24.7839452 1487.62931,24.1542535 1487.76488,23.5761365 L1487.89326,23.8915821 L1488.02163,23.5761365 C1488.1572,24.1542535 1488.33477,24.7839452 1488.50753,25.405241 L1496.93499,46.1722693 L1507.17388,20.9388678 C1507.34665,20.317572 1507.52421,19.6878803 1507.65978,19.1097634 L1507.78816,19.4252089 L1507.91653,19.1097634 C1508.0521,19.6878803 1508.22966,20.317572 1508.40243,20.9388678 L1519.90686,49.2881873 C1520.32677,50.199741 1520.72269,51.0837082 1521.10061,51.9436871 C1524.58829,59.112577 1527.36332,64.3348201 1527.36332,64.3348201 L1526.27874,65.1672125 L1516.17203,65.1672125 C1516.98306,69.4239283 1518.2548,73.3160227 1519.76769,76.865085 C1521.85765,81.4360469 1524.98301,86.9701373 1529.53967,92.8148756 C1533.59004,97.6856907 1536.91935,100.305208 1536.91935,100.305208 L1536.79697,100.305208 C1536.87376,100.367578 1536.91935,100.40356 1536.91935,100.40356 C1536.91935,100.40356 1537.76997,102.007175 1538.6158,102.808382 L1538.52222,102.808382 C1538.55461,102.838368 1538.58221,102.869553 1538.6158,102.900737 L1522.16839,102.900737 C1526.52265,115.699081 1534.37302,125.707978 1540.89115,132.357703 C1541.66026,130.92001 1542.33689,129.544991 1542.93011,128.247567 C1544.443,124.698505 1545.71474,120.80641 1546.52577,116.549694 L1536.75618,115.7221 L1536.6854,115.717302 L1535.33448,115.717302 C1535.33448,115.717302 1538.1107,110.495059 1541.59838,103.326169 C1541.97511,102.46619 1542.37223,101.582223 1542.79214,100.670669 L1554.29537,72.3213497 C1554.46813,71.7000539 1554.64569,71.0703622 1554.78127,70.4922453 L1554.90964,70.8076908 L1555.03801,70.4922453 C1555.17359,71.0703622 1555.35115,71.7000539 1555.52391,72.3213497 L1567.02834,100.670669 C1567.44825,101.582223 1567.84417,102.46619 1568.2221,103.326169 C1571.70978,110.495059 1574.4848,115.717302 1574.4848,115.717302 L1573.40023,116.549694 L1563.29351,116.549694 C1564.10454,120.80641 1565.37628,124.698505 1566.88917,128.247567 C1568.97914,132.818529 1572.10449,138.352619 1576.66116,144.197357 C1578.87852,146.863872 1580.87978,148.855675 1582.23701,150.112355 C1583.59468,148.862998 1585.6463,146.834242 1587.92611,144.091809 C1592.48277,138.247071 1595.60813,132.71298 1597.6981,128.142019 C1599.21099,124.592956 1600.48272,120.700862 1601.29376,116.444146 L1591.52417,115.616551 L1591.45339,115.611754 L1590.10246,115.611754 C1590.10246,115.611754 1592.87869,110.389511 1596.36637,103.220621 C1596.74309,102.360642 1597.14021,101.477874 1597.56013,100.565121 L1609.06335,72.2158014 C1609.23612,71.5945056 1609.41368,70.9648139 1609.54925,70.386697 L1609.67763,70.7021425 L1609.806,70.386697 C1609.94157,70.9648139 1610.11914,71.5945056 1610.2919,72.2158014 L1614.26846,82.0148794 C1614.96208,80.6276583 1615.71636,79.1021495 1616.50722,77.4765456 C1616.88394,76.6165667 1617.28106,75.7325995 1617.70097,74.8210458 L1629.2042,46.4717263 C1629.37697,45.8504305 1629.55453,45.2207388 1629.6901,44.6426219 L1629.81847,44.9580674 L1629.94685,44.6426219 C1630.08242,45.2207388 1630.25998,45.8504305 1630.43275,46.4717263 L1641.41748,73.540399 C1641.52571,73.3023484 1641.6355,73.062322 1641.7469,72.8201855 L1653.25012,44.470866 C1653.42289,43.8495702 1653.60045,43.2198785 1653.73602,42.6417615 L1653.8644,42.9572071 L1653.99277,42.6417615 C1654.12834,43.2198785 1654.30591,43.8495702 1654.47867,44.470866 L1665.9819,72.8201855 C1666.40301,73.7329385 1666.79893,74.6157063 1667.17565,75.4756853 C1670.66453,82.6445752 1673.43956,87.8668183 1673.43956,87.8668183 L1672.35498,88.6992107 L1662.24827,88.6992107 C1663.0593,92.9559265 1664.33104,96.8480208 1665.84393,100.397083 C1667.9339,104.968045 1671.05925,110.502135 1675.61591,116.346874 C1678.23745,119.499433 1680.55642,121.708896 1681.8663,122.875425 C1682.56814,121.548988 1683.19082,120.277499 1683.7416,119.072899 C1685.25448,115.523837 1686.52622,111.631742 1687.33726,107.375027 L1677.56767,106.547432 L1677.49688,106.542634 L1676.14596,106.542634 C1676.14596,106.542634 1678.92099,101.320391 1682.40987,94.1515011 C1682.78659,93.2915222 1683.18371,92.4087544 1683.60363,91.4960013 L1695.10685,63.1466818 C1695.27962,62.525386 1695.45718,61.8956944 1695.59275,61.3175774 L1695.72113,61.633023 L1695.8495,61.3175774 C1695.98507,61.8956944 1696.16264,62.525386 1696.3354,63.1466818 L1701.83563,76.7018149 C1702.66462,75.1220247 1704.99291,70.6430613 1707.77516,64.9261306 C1708.15188,64.0661516 1708.549,63.1833839 1708.96892,62.2706308 L1720.47214,33.9213113 C1720.64491,33.3000155 1720.82247,32.6703238 1720.95804,32.0922069 L1721.08642,32.4076524 L1721.21479,32.0922069 C1721.35036,32.6703238 1721.52793,33.3000155 1721.70069,33.9213113 L1733.20392,62.2706308 C1733.62503,63.1833839 1734.02095,64.0661516 1734.39767,64.9261306 C1737.88655,72.0950205 1740.66158,77.3172636 1740.66158,77.3172636 L1739.577,78.149656 L1729.47029,78.149656 C1730.28132,82.4063718 1731.55306,86.2984662 1733.06595,89.8475285 C1733.54982,90.9057958 1734.08918,92.0156881 1734.68896,93.1691083 C1735.01949,92.4199003 1735.3655,91.6523963 1735.72856,90.8642706 L1747.23179,62.5149511 C1747.40455,61.8936554 1747.58211,61.2639637 1747.71769,60.6858467 L1747.84606,61.0012923 L1747.97443,60.6858467 C1748.11,61.2639637 1748.28757,61.8936554 1748.46033,62.5149511 L1759.96476,90.8642706 C1760.38467,91.7758243 1760.78059,92.6597915 1761.15851,93.5197704 C1764.6462,100.68866 1767.42122,105.910903 1767.42122,105.910903 L1766.33665,106.743296 L1756.22993,106.743296 C1757.04096,111.000012 1758.3127,114.892106 1759.82559,118.441168 C1761.91556,123.01213 1765.04091,128.546221 1769.59757,134.390959 C1773.64794,139.261774 1776.97605,141.881291 1776.97605,141.881291 L1776.85488,141.881291 C1776.93166,141.943661 1776.97605,141.979643 1776.97605,141.979643 C1776.97605,141.979643 1777.82788,143.583258 1778.6737,144.384466 L1778.58012,144.384466 C1778.61252,144.414451 1778.64011,144.445636 1778.6737,144.476821 L1762.22629,144.476821 C1763.62819,148.597376 1765.39249,152.428782 1767.35805,155.952026 L1777.18281,155.62031 C1783.71758,148.971018 1791.61726,138.931026 1795.99093,126.077469 L1779.54352,126.077469 C1779.57592,126.046285 1779.60471,126.0151 1779.6371,125.985115 L1779.54352,125.985115 C1780.38935,125.183907 1781.23997,123.580292 1781.23997,123.580292 C1781.23997,123.580292 1781.28436,123.54431 1781.36115,123.48194 L1781.23997,123.48194 C1781.23997,123.48194 1784.56929,120.862423 1788.61845,115.991608 C1793.17511,110.146869 1796.30047,104.612779 1798.39044,100.041817 C1799.90333,96.4927548 1801.17506,92.6006604 1801.9861,88.3439446 L1792.21651,87.5163499 L1792.14573,87.5115522 L1790.7948,87.5115522 C1790.7948,87.5115522 1793.57103,82.2893091 1797.05871,75.1204192 C1797.43543,74.2604403 1797.83255,73.3764731 1798.25247,72.4649194 L1809.75569,44.1155999 C1809.92846,43.4943041 1810.10602,42.8646124 1810.24159,42.2864955 L1810.36997,42.601941 L1810.49834,42.2864955 C1810.63391,42.8646124 1810.81148,43.4943041 1810.98424,44.1155999 L1822.48867,72.4649194 C1822.90858,73.3764731 1823.3045,74.2604403 1823.68242,75.1204192 C1825.20284,78.2456217 1826.58782,81.000877 1827.66651,83.1148107 C1828.72284,81.0415033 1830.0514,78.3945758 1831.50325,75.4103173 C1831.87997,74.5503383 1832.27709,73.6675706 1832.697,72.7548175 L1844.20023,44.405498 C1844.373,43.7842022 1844.55056,43.1545105 1844.68613,42.5763936 L1844.81451,42.8918391 L1844.94288,42.5763936 C1845.07845,43.1545105 1845.25601,43.7842022 1845.42878,44.405498 L1856.93321,72.7548175 C1857.35312,73.6675706 1857.74904,74.5503383 1858.12696,75.4103173 C1861.61464,82.5792072 1864.38967,87.8014503 1864.38967,87.8014503 L1863.30509,88.6338427 L1853.19838,88.6338427 C1854.00941,92.8905585 1855.28115,96.7826528 1856.79404,100.331715 C1858.884,104.902677 1862.00936,110.436767 1866.56602,116.281506 C1870.61639,121.152321 1873.9457,123.771838 1873.9457,123.771838 L1873.82332,123.771838 C1873.90011,123.834208 1873.9457,123.87019 1873.9457,123.87019 C1873.9457,123.87019 1874.79632,125.473805 1875.64215,126.275013 L1875.54857,126.275013 C1875.58096,126.304998 1875.60856,126.336183 1875.64215,126.367367 L1859.19474,126.367367 C1867.54742,150.918147 1888.76504,165.204352 1888.76504,165.204352 L1888.75665,165.204352 L1888.76504,165.210349 L1885.77526,165.397457 C1886.01256,165.55686 1883.94175,165.78228 1880.62471,166.034345 L1939.68231,217.695931 L1917.99198,1164.62989 L0.000239950526,1102.67662 L15.4926456,143.351532 L64.8259112,117.242245 C67.9033131,112.530229 70.7099208,107.147739 72.7496401,101.153313 L56.3022313,101.153313 C56.3346246,101.122128 56.3634187,101.090943 56.395812,101.060958 L56.3022313,101.060958 C57.1480569,100.25975 57.9986815,98.6561355 57.9986815,98.6561355 C57.9986815,98.6561355 58.0430724,98.6201532 58.1198565,98.5577837 L57.9986815,98.5577837 C57.9986815,98.5577837 61.3279951,95.9382663 65.3771602,91.0686506 C69.9338207,85.2227129 73.0591763,79.6886225 75.1491453,75.1176606 C76.6620334,71.5685983 77.9337712,67.6765039 78.744804,63.4197881 L68.9752183,62.5921933 L68.9044329,62.5873957 L67.5535114,62.5873957 C67.5535114,62.5873957 70.3285393,57.3651526 73.8174199,50.1962627 C74.1941422,49.3362837 74.5912604,48.453516 75.0111738,47.5407629 L86.514402,19.1914434 C86.6871664,18.5701476 86.8647297,17.9404559 87.0003018,17.362339 L87.1286753,17.6777845 L87.2570489,17.362339 C87.3926209,17.9404559 87.5701843,18.5701476 87.7429487,19.1914434 L99.2473766,47.5407629 C99.66729,48.453516 100.063208,49.3362837 100.44113,50.1962627 C103.928811,57.3651526 106.703839,62.5873957 106.703839,62.5873957 L105.619263,63.4197881 L95.5125467,63.4197881 C96.3235795,67.6765039 97.5953173,71.5685983 99.1082053,75.1176606 C101.198174,79.6886225 104.32353,85.2227129 108.88019,91.0686506 C112.930555,95.9382663 116.258669,98.5577837 116.258669,98.5577837 L116.137494,98.5577837 C116.214278,98.6201532 116.258669,98.6561355 116.258669,98.6561355 C116.258669,98.6561355 117.110494,100.25975 117.956319,101.060958 L117.861539,101.060958 C117.895132,101.090943 117.922726,101.122128 117.956319,101.153313 L101.50891,101.153313 C109.861588,125.704092 131.079213,139.990297 131.079213,139.990297 L131.070815,139.990297 L131.079213,139.996294 L128.090158,140.183357 L128.092703,140.185714 C128.09654,140.188569 128.099643,140.191446 128.10202,140.194342 L149.932534,160.4108 C156.661437,153.794051 165.235847,143.344288 169.863257,129.745034 L153.415848,129.745034 C153.448241,129.713849 153.477035,129.682664 153.509429,129.652679 L153.415848,129.652679 C154.261673,128.851471 155.112298,127.247856 155.112298,127.247856 C155.112298,127.247856 155.156689,127.211874 155.233473,127.149504 L155.112298,127.149504 C155.112298,127.149504 158.441612,124.529987 162.490777,119.659172 C167.047437,113.814434 170.172793,108.280343 172.262762,103.709381 C173.77565,100.160319 175.047388,96.2682247 175.858421,92.0115089 L166.088835,91.1839141 L166.018049,91.1791165 L164.667128,91.1791165 C164.667128,91.1791165 167.442156,85.9568734 170.931036,78.7879835 C171.307759,77.9280045 171.704877,77.0440374 172.12479,76.1324837 L183.628019,47.7831642 C183.800783,47.1618684 183.978346,46.5321767 184.113918,45.9540598 L184.242292,46.2695053 L184.370665,45.9540598 C184.506237,46.5321767 184.683801,47.1618684 184.856565,47.7831642 L196.360993,76.1324837 C196.780907,77.0440374 197.176825,77.9280045 197.554747,78.7879835 C201.042428,85.9568734 203.817456,91.1791165 203.817456,91.1791165 L202.732879,92.0115089 L192.626163,92.0115089 C193.437196,96.2682247 194.708934,100.160319 196.221822,103.709381 C198.311791,108.280343 201.437147,113.814434 205.993807,119.659172 C206.081999,119.765229 206.16985,119.870218 206.257331,119.974136 L207.018756,119.305705 C207.019292,119.305627 207.019384,119.305426 207.019476,119.305225 C208.532364,115.756163 209.804101,111.864069 210.615134,107.607353 L200.845549,106.779758 L200.774763,106.77496 L199.423842,106.77496 C199.423842,106.77496 202.19887,101.552717 205.68775,94.3838274 C206.064472,93.5238484 206.461591,92.6410807 206.881504,91.7283276 L218.384732,63.3790081 C218.402985,63.3133658 218.421292,63.2476297 218.439597,63.1818707 L216.512038,63.0185846 L216.441253,63.0137869 L215.090331,63.0137869 C215.090331,63.0137869 217.865359,57.7915438 221.35424,50.6226539 C221.730962,49.762675 222.12808,48.8787078 222.547994,47.9671541 L234.051222,19.6178346 C234.223986,18.9965388 234.40155,18.3668471 234.537122,17.7887302 L234.665495,18.1041758 L234.793869,17.7887302 C234.929441,18.3668471 235.107004,18.9965388 235.279769,19.6178346 L246.784197,47.9671541 C247.20411,48.8787078 247.600028,49.762675 247.977951,50.6226539 C251.465631,57.7915438 254.240659,63.0137869 254.240659,63.0137869 L253.156083,63.8461793 L243.049367,63.8461793 C243.8604,68.1028952 245.132137,71.9949895 246.645025,75.5440518 C248.734994,80.1150137 251.86035,85.6491041 256.417011,91.4938424 C260.467375,96.3646575 263.795489,98.9841749 263.795489,98.9841749 L263.674314,98.9841749 C263.751098,99.0465444 263.795489,99.0825268 263.795489,99.0825268 C263.795489,99.0825268 264.647314,100.686142 265.493139,101.487349 L265.398359,101.487349 C265.431952,101.517335 265.459546,101.548519 265.493139,101.579704 L249.04573,101.579704 C255.481071,120.494911 269.553005,133.317099 275.67427,138.207021 L293.150113,143.018236 C295.576563,138.962262 297.76117,134.463777 299.431502,129.554927 L282.984093,129.554927 C283.016486,129.523742 283.04528,129.492557 283.077673,129.462572 L282.984093,129.462572 C283.829918,128.661364 284.680543,127.057749 284.680543,127.057749 C284.680543,127.057749 284.724934,127.021767 284.801718,126.959398 L284.680543,126.959398 C284.680543,126.959398 288.009857,124.33988 292.059022,119.469065 C296.615682,113.624327 299.741038,108.090236 301.831007,103.519274 C303.343895,99.9702121 304.615633,96.0781178 305.426665,91.821402 L295.65708,90.9938072 L295.586294,90.9890096 L294.235373,90.9890096 C294.235373,90.9890096 297.010401,85.7667665 300.499281,78.5978766 C300.876004,77.7378976 301.273122,76.8551298 301.693035,75.9423768 L313.196263,47.5930573 C313.369028,46.9717615 313.546591,46.3420698 313.682163,45.7639528 L313.810537,46.0793984 L313.93891,45.7639528 C314.074482,46.3420698 314.252046,46.9717615 314.42481,47.5930573 L325.929238,75.9423768 C326.349152,76.8551298 326.74507,77.7378976 327.122992,78.5978766 C330.610673,85.7667665 333.385701,90.9890096 333.385701,90.9890096 L332.301124,91.821402 L322.194408,91.821402 C323.005441,96.0781178 324.277179,99.9702121 325.790067,103.519274 C327.880036,108.090236 331.005391,113.624327 335.562052,119.469065 C339.612417,124.33988 342.94173,126.959398 342.94173,126.959398 L342.819356,126.959398 C342.89614,127.021767 342.94173,127.057749 342.94173,127.057749 C342.94173,127.057749 343.792355,128.661364 344.638181,129.462572 L344.5434,129.462572 C344.576993,129.492557 344.604588,129.523742 344.638181,129.554927 L328.190772,129.554927 C333.061525,143.871387 342.306983,154.697396 349.168752,161.235484 C352.703335,156.11983 355.973901,150.144099 358.27145,143.391952 L341.824041,143.391952 C341.856434,143.360767 341.885228,143.329582 341.917622,143.299597 L341.824041,143.299597 C342.669866,142.498389 343.520491,140.894774 343.520491,140.894774 C343.520491,140.894774 343.564882,140.858792 343.641666,140.796423 L343.520491,140.796423 C343.520491,140.796423 346.849805,138.176905 350.89897,133.30609 C355.45563,127.461352 358.580986,121.927261 360.670955,117.356299 C362.183843,113.807237 363.455581,109.915143 364.266613,105.658427 L354.497028,104.830832 L354.426242,104.826035 L353.075321,104.826035 C353.075321,104.826035 355.850349,99.6037915 359.339229,92.4349016 C359.715952,91.5749227 360.11307,90.6909555 360.532983,89.7794018 L372.036212,61.4300823 C372.208976,60.8087865 372.386539,60.1790948 372.522111,59.6009779 L372.650485,59.9164235 L372.778858,59.6009779 C372.91443,60.1790948 373.091994,60.8087865 373.264758,61.4300823 L383.606075,86.9132516 L393.555215,62.3939304 C393.727979,61.7726346 393.905542,61.1429429 394.041114,60.564826 L394.169488,60.8802715 L394.297861,60.564826 C394.433434,61.1429429 394.610997,61.7726346 394.783761,62.3939304 L406.288189,90.7432499 C406.525049,91.2581038 406.754273,91.7634172 406.97694,92.2604816 C408.060582,90.1765472 410.063513,86.2732536 412.380413,81.5108903 C412.757135,80.6509113 413.154254,79.7669442 413.574167,78.8553905 L425.077395,50.506071 C425.25016,49.8847752 425.427723,49.2550835 425.563295,48.6769666 L425.691669,48.9924121 L425.820042,48.6769666 C425.955614,49.2550835 426.133177,49.8847752 426.305942,50.506071 L437.81037,78.8553905 C438.230283,79.7669442 438.626202,80.6509113 439.004124,81.5108903 C442.491805,88.6797802 445.266832,93.9020233 445.266832,93.9020233 L444.182256,94.7344157 L434.07554,94.7344157 C434.886573,98.9911315 436.15831,102.883226 437.671199,106.432288 C439.761168,111.00325 442.886523,116.53734 447.443184,122.382079 C451.493549,127.252894 454.822862,129.872411 454.822862,129.872411 L454.700487,129.872411 C454.777271,129.934781 454.822862,129.970763 454.822862,129.970763 C454.822862,129.970763 455.673487,131.574378 456.519312,132.375586 L456.424532,132.375586 C456.458125,132.405571 456.485719,132.436756 456.519312,132.46794 L440.071904,132.46794 C445.745622,149.144534 457.355317,161.084982 464.21884,167.028826 L467.598746,166.418796 C466.715916,166.312462 466.26899,166.217509 466.386318,166.138694 L463.396534,165.951586 C463.396534,165.951586 463.404933,165.946788 463.404933,165.945589 L463.396534,165.945589 C463.396534,165.945589 474.757271,158.296203 484.125658,144.573106 C472.057115,143.977482 451.137937,142.870198 451.864632,142.382046 L448.874848,142.194938 C448.874848,142.194938 448.883247,142.19014 448.883247,142.188941 L448.874848,142.188941 C448.874848,142.188941 470.092474,127.902736 478.446351,103.351956 L461.998942,103.351956 C462.031336,103.320772 462.06013,103.289587 462.092523,103.259602 L461.998942,103.259602 C462.844768,102.458394 463.695393,100.854779 463.695393,100.854779 C463.695393,100.854779 463.739784,100.818797 463.816568,100.756427 L463.695393,100.756427 C463.695393,100.756427 467.024706,98.1369098 471.073871,93.2660946 C475.630532,87.4213564 478.755887,81.887266 480.845857,77.316304 C482.358745,73.7672418 483.630482,69.8751474 484.441515,65.6184316 L474.671929,64.7908368 L474.601144,64.7860392 L473.250223,64.7860392 C473.250223,64.7860392 476.02525,59.5637961 479.514131,52.3949062 C479.890853,51.5349272 480.287972,50.6509601 480.707885,49.7394064 L492.211113,21.3900869 C492.383878,20.7687911 492.561441,20.1390994 492.697013,19.5609825 L492.825387,19.876428 L492.95376,19.5609825 C493.089332,20.1390994 493.266895,20.7687911 493.43966,21.3900869 L504.906066,49.6486584 L506.732799,45.1467351 C506.905563,44.5254393 507.083127,43.8957476 507.218699,43.3176306 L507.347072,43.6330762 L507.475446,43.3176306 C507.611018,43.8957476 507.788581,44.5254393 507.961346,45.1467351 L519.134854,72.6806001 C520.174435,70.6857249 522.260455,66.6328033 524.693696,61.633023 C525.070418,60.773044 525.467536,59.8890768 525.88745,58.9775232 L537.390678,30.6282037 C537.563442,30.0069079 537.741006,29.3772162 537.876578,28.7990993 L538.004951,29.1145448 L538.133325,28.7990993 C538.268897,29.3772162 538.44646,30.0069079 538.619224,30.6282037 L550.123652,58.9775232 C550.543566,59.8890768 550.939484,60.773044 551.316207,61.633023 C554.805087,68.8019129 557.580115,74.024156 557.580115,74.024156 L556.495539,74.8565484 L546.388823,74.8565484 C547.199855,79.1132642 548.471593,83.0053585 549.984481,86.5544208 C552.07445,91.1253828 555.199806,96.6594732 559.756466,102.504211 C563.806831,107.375027 567.134945,109.994544 567.134945,109.994544 L567.01377,109.994544 C567.090554,110.056913 567.134945,110.092896 567.134945,110.092896 C567.134945,110.092896 567.986769,111.696511 568.832595,112.497718 L568.737814,112.497718 C568.771408,112.527704 568.799002,112.558888 568.832595,112.590073 L552.385186,112.590073 C555.800839,122.6296 561.367806,130.952654 566.755442,137.284228 L567.032126,137.156565 L579.768868,140.050418 C583.061604,136.960999 586.964424,132.8426 590.688427,127.788312 L583.981271,127.788312 C584.013665,127.757127 584.042459,127.725942 584.074852,127.695957 L583.981271,127.695957 C584.827097,126.894749 585.677722,125.291134 585.677722,125.291134 C585.677722,125.291134 585.722113,125.255152 585.798897,125.192783 L585.677722,125.192783 C585.677722,125.192783 589.007035,122.573265 593.0562,117.703649 C595.725026,114.279697 597.902854,110.962722 599.669232,107.883578 L584.81486,107.883578 C584.847253,107.852393 584.876047,107.821208 584.90844,107.791223 L584.81486,107.791223 C585.660685,106.990015 586.51131,105.3864 586.51131,105.3864 C586.51131,105.3864 586.555701,105.350418 586.632485,105.288048 L586.51131,105.288048 C586.51131,105.288048 589.840623,102.668531 593.889788,97.7977158 C596.130454,94.9236591 598.025026,92.1247178 599.620581,89.4784733 L596.654259,89.2271922 L596.583473,89.2223945 L595.232552,89.2223945 C595.232552,89.2223945 598.007579,84.0001515 601.49646,76.8312615 C601.873182,75.9712826 602.270301,75.0885148 602.690214,74.1757617 L604.421205,69.9097922 L597.487847,69.322458 L597.417061,69.3176604 L596.06614,69.3176604 C596.06614,69.3176604 598.841168,64.0954173 602.330048,56.9265274 C602.706771,56.0665484 603.103889,55.1837807 603.523802,54.2710276 L615.02703,25.9217081 C615.199795,25.3004123 615.377358,24.6707206 615.51293,24.0926037 L615.641304,24.4080492 L615.769677,24.0926037 C615.905249,24.6707206 616.082813,25.3004123 616.255577,25.9217081 L627.758805,54.2710276 C628.179918,55.1837807 628.575837,56.0665484 628.952559,56.9265274 C632.44144,64.0954173 635.216468,69.3176604 635.216468,69.3176604 L634.131891,70.1500528 L625.292745,70.1500528 L626.926417,74.1757617 C627.34633,75.0885148 627.742249,75.9712826 628.120171,76.8312615 C631.607852,84.0001515 634.382879,89.2223945 634.382879,89.2223945 L633.298303,90.054787 L632.012796,90.054787 C633.533335,92.5298219 635.314148,95.1314455 637.392819,97.7977158 C641.443184,102.668531 644.771297,105.288048 644.771297,105.288048 L644.650122,105.288048 C644.726907,105.350418 644.771297,105.3864 644.771297,105.3864 C644.771297,105.3864 645.623122,106.990015 646.468947,107.791223 L646.374167,107.791223 C646.40776,107.821208 646.435354,107.852393 646.468947,107.883578 L630.021539,107.883578 C630.058175,107.991262 630.095059,108.098749 630.132187,108.206037 C631.864814,111.193812 633.98332,114.398902 636.559231,117.703649 C640.609596,122.573265 643.937709,125.192783 643.937709,125.192783 L643.816534,125.192783 C643.893318,125.255152 643.937709,125.291134 643.937709,125.291134 C643.937709,125.291134 644.010289,125.42777 644.134112,125.6412 C644.604077,125.261723 647.722497,122.685413 651.4514,118.199846 C656.008061,112.355108 659.133416,106.821018 661.223385,102.250056 C662.736273,98.7009936 664.008011,94.8088992 664.819044,90.5521834 L655.049458,89.7245886 L654.978673,89.719791 L653.627751,89.719791 C653.627751,89.719791 656.403979,84.4975479 659.89166,77.328658 C660.268382,76.4686791 660.6655,75.5859113 661.085414,74.6731582 L672.588642,46.3238387 C672.761406,45.7025429 672.93897,45.0728512 673.074542,44.4947343 L673.202915,44.8101798 L673.331289,44.4947343 C673.466861,45.0728512 673.644424,45.7025429 673.817189,46.3238387 L685.321617,74.6731582 C685.485295,75.0289408 685.645327,75.3801675 685.80207,75.7272645 L694.429419,54.4654524 C694.602183,53.8441566 694.779746,53.2144649 694.915318,52.636348 L695.043692,52.9517935 L695.172066,52.636348 C695.307638,53.2144649 695.485201,53.8441566 695.657965,54.4654524 L707.161194,82.8147719 C707.582307,83.7263255 707.978225,84.6102927 708.354947,85.4702717 C711.843828,92.6391616 714.618856,97.8614047 714.618856,97.8614047 L713.53428,98.6937971 L703.427563,98.6937971 C704.238596,102.950513 705.510334,106.842607 707.023222,110.39167 C709.113191,114.962631 712.238547,120.496722 716.795207,126.34146 C720.845572,131.212275 724.173686,133.831793 724.173686,133.831793 L724.052511,133.831793 C724.129295,133.894162 724.173686,133.930145 724.173686,133.930145 C724.173686,133.930145 725.02551,135.533759 725.871336,136.334967 L725.776555,136.334967 C725.810148,136.364952 725.837743,136.396137 725.871336,136.427322 L709.423927,136.427322 C712.443602,145.302965 717.144701,152.837048 721.916815,158.839548 L745.791371,158.839548 C743.706119,158.655572 742.509837,158.492863 742.693307,158.369618 L739.703524,158.18251 C739.703524,158.18251 739.711922,158.177712 739.711922,158.176513 L739.703524,158.176513 C739.703524,158.176513 751.852956,149.996084 761.384357,135.377799 L759.274848,135.24578 L759.283247,135.239783 L759.274848,135.239783 C759.274848,135.239783 760.912368,134.137212 763.456686,132.018296 C765.697739,128.169109 767.711646,123.934067 769.275027,119.339528 L752.827618,119.339528 C752.860011,119.308344 752.888805,119.277159 752.921199,119.247174 L752.827618,119.247174 C753.673443,118.445966 754.524068,116.842351 754.524068,116.842351 C754.524068,116.842351 754.568459,116.806369 754.645243,116.743999 L754.524068,116.743999 C754.524068,116.743999 757.853382,114.124482 761.902547,109.253667 C766.459207,103.408928 769.584563,97.8748381 771.674532,93.3038761 C773.18742,89.7548138 774.459158,85.8627195 775.27019,81.6060037 L765.500605,80.7784089 L765.429819,80.7736113 L764.078898,80.7736113 C764.078898,80.7736113 766.853926,75.5513682 770.342806,68.3824783 C770.719529,67.5224993 771.116647,66.6397316 771.53656,65.7269785 L783.039788,37.377659 C783.212553,36.7563632 783.390116,36.1266715 783.525688,35.5485546 L783.654062,35.8640001 L783.782435,35.5485546 C783.918007,36.1266715 784.095571,36.7563632 784.268335,37.377659 L788.616249,48.0918289 C789.034386,47.2461469 789.46845,46.3618418 789.914131,45.4457486 C790.290853,44.5857697 790.687972,43.7018025 791.107885,42.7902488 L802.611113,14.4409294 C802.783878,13.8196336 802.961441,13.1899419 803.097013,12.6118249 L803.225387,12.9272705 L803.35376,12.6118249 C803.489332,13.1899419 803.666895,13.8196336 803.83966,14.4409294 L815.344088,42.7902488 C815.764001,43.7018025 816.15992,44.5857697 816.537842,45.4457486 C817.757739,47.9532342 818.890449,50.2225644 819.84772,52.113571 C820.987317,49.8975976 822.617891,46.6786378 824.443372,42.9263822 C824.820094,42.0664033 825.217212,41.1836355 825.637126,40.2708824 L837.140354,11.9215629 C837.313118,11.3002671 837.490682,10.6705754 837.626254,10.0924585 L837.754627,10.407904 L837.883001,10.0924585 C838.018573,10.6705754 838.196136,11.3002671 838.3689,11.9215629 L849.873328,40.2708824 C850.293242,41.1836355 850.68916,42.0664033 851.067082,42.9263822 C854.554763,50.0952721 857.329791,55.3175152 857.329791,55.3175152 L856.245215,56.1499076 L849.188988,56.1499076 L852.19257,63.5513637 C852.612484,64.4641168 853.008402,65.3468846 853.386324,66.2068635 C856.874005,73.3757534 859.649033,78.5979965 859.649033,78.5979965 L858.564456,79.4303889 L856.315224,79.4303889 C857.291472,80.8591699 858.352972,82.3184224 859.506142,83.7975707 C859.509631,83.8017656 859.513118,83.8059589 859.516606,83.8101506 C860.622535,82.8317768 862.5241,81.0438606 864.739263,78.514422 L867.799192,70.9733297 C867.971957,70.3520339 868.14952,69.7223422 868.285092,69.1442253 L868.413466,69.4596708 L868.541839,69.1442253 C868.677411,69.7223422 868.854975,70.3520339 869.027739,70.9733297 L869.508856,72.1589027 C872.16407,68.1920317 874.160873,64.4761759 875.639456,61.2423742 C877.152344,57.6933119 878.424082,53.8012176 879.235114,49.5445018 L869.465529,48.716907 L869.394743,48.7121094 L868.043822,48.7121094 C868.043822,48.7121094 870.81885,43.4898663 874.30773,36.3209764 C874.684453,35.4609974 875.081571,34.5782297 875.501484,33.6654766 L887.004712,5.31615708 C887.177477,4.69486128 887.35504,4.06516959 887.490612,3.48705265 L887.618986,3.8024982 L887.747359,3.48705265 C887.882931,4.06516959 888.060495,4.69486128 888.233259,5.31615708 L899.737687,33.6654766 C900.1576,34.5782297 900.553519,35.4609974 900.931441,36.3209764 C904.419122,43.4898663 907.19415,48.7121094 907.19415,48.7121094 L906.109573,49.5445018 L896.002857,49.5445018 C896.81389,53.8012176 898.085628,57.6933119 899.598516,61.2423742 C901.168374,64.6758047 903.322409,68.6526426 906.22841,72.8963659 C907.300082,70.8369838 909.328468,66.8878771 911.680385,62.0535371 C912.057107,61.1935581 912.454225,60.3107904 912.874139,59.3980373 L916.284744,50.9927141 C916.449397,50.4011671 916.61632,49.8046793 916.74526,49.2548436 L916.867767,49.5558734 L924.377367,31.0487178 C924.550131,30.427422 924.727694,29.7977303 924.863267,29.2196134 L924.99164,29.5350589 L925.120014,29.2196134 C925.255586,29.7977303 925.433149,30.427422 925.605913,31.0487178 L937.110341,59.3980373 C937.530255,60.3107904 937.926173,61.1935581 938.304095,62.0535371 C941.791776,69.222427 944.566804,74.4446701 944.566804,74.4446701 L943.482228,75.2770625 L933.375511,75.2770625 C934.186544,79.5337783 935.458282,83.4258727 936.97117,86.9749349 C939.061139,91.5458969 942.186495,97.0799873 946.743155,102.924726 C947.405698,103.721474 948.048947,104.457985 948.661488,105.132645 C949.263414,103.975529 949.804554,102.862176 950.289864,101.800756 C951.802752,98.2516936 953.07449,94.3595992 953.885523,90.1028834 L944.115937,89.2752886 L944.045152,89.270491 L942.69423,89.270491 C942.69423,89.270491 945.470458,84.0482479 948.958139,76.879358 C949.334861,76.0193791 949.731979,75.1366113 950.151892,74.2238582 L961.655121,45.8745387 C961.827885,45.2532429 962.005448,44.6235512 962.14102,44.0454343 L962.269394,44.3608798 L962.397767,44.0454343 C962.53334,44.6235512 962.710903,45.2532429 962.883667,45.8745387 L974.388095,74.2238582 C974.808009,75.1366113 975.203927,76.0193791 975.581849,76.879358 C979.06953,84.0482479 981.844558,89.270491 981.844558,89.270491 L980.759981,90.1028834 L970.653265,90.1028834 C971.464298,94.3595992 972.736036,98.2516936 974.248924,101.800756 C976.338893,106.371718 979.464249,111.905808 984.020909,117.750546 C985.173887,119.137074 986.268438,120.341176 987.244397,121.354358 C990.843512,116.185185 994.181782,110.126999 996.515853,103.267518 L980.068444,103.267518 C980.100837,103.236333 980.129631,103.205148 980.162025,103.175163 L980.068444,103.175163 C980.91427,102.373955 981.764894,100.77034 981.764894,100.77034 C981.764894,100.77034 981.809285,100.734358 981.886069,100.671989 L981.764894,100.671989 C981.764894,100.671989 985.094208,98.0524711 989.143373,93.181656 C993.700033,87.3369177 996.825389,81.8028273 998.915358,77.2318654 C1000.42825,73.6828031 1001.69998,69.7907088 1002.51102,65.533993 L992.741431,64.7063982 L992.670646,64.7016005 L991.319724,64.7016005 C991.319724,64.7016005 994.095952,59.4793575 997.583633,52.3104675 C997.960355,51.4504886 998.357473,50.5665214 998.777387,49.6549677 L1010.28061,21.3056482 C1010.45338,20.6843524 1010.63094,20.0546607 1010.76651,19.4765438 L1010.89489,19.7919894 L1011.02326,19.4765438 C1011.15883,20.0546607 1011.3364,20.6843524 1011.50916,21.3056482 L1023.01359,49.6549677 C1023.4335,50.5665214 1023.82942,51.4504886 1024.20734,52.3104675 C1027.69502,59.4793575 1030.47005,64.7016005 1030.47005,64.7016005 L1029.38548,65.533993 L1019.27876,65.533993 C1020.08979,69.7907088 1021.36153,73.6828031 1022.87442,77.2318654 C1023.39966,78.3806155 1023.99029,79.590196 1024.6526,80.8502501 L1033.57909,58.851225 C1033.75186,58.2299292 1033.92942,57.6002375 1034.06499,57.0221206 L1034.19336,57.3375661 L1034.32174,57.0221206 C1034.45731,57.6002375 1034.63487,58.2299292 1034.80764,58.851225 L1046.31207,87.2005445 C1046.73198,88.1132976 1047.1279,88.9960653 1047.50582,89.8560443 C1050.9935,97.0249342 1053.76853,102.247177 1053.76853,102.247177 L1052.68395,103.07957 L1042.57724,103.07957 C1043.38827,107.336286 1044.66001,111.22838 1046.17289,114.777442 C1048.26286,119.348404 1051.38822,124.882494 1055.94488,130.727233 C1056.77749,131.728503 1057.57964,132.63464 1058.32866,133.442445 C1064.22216,126.908247 1070.64226,117.896152 1074.42491,106.779518 L1057.9775,106.779518 C1058.00989,106.748333 1058.03869,106.717149 1058.07108,106.687163 L1057.9775,106.687163 C1058.82333,105.885956 1059.67395,104.282341 1059.67395,104.282341 C1059.67395,104.282341 1059.71834,104.246358 1059.79513,104.183989 L1059.67395,104.183989 C1059.67395,104.183989 1063.00326,101.564472 1067.05243,96.6936564 C1071.60909,90.8489181 1074.73445,85.3148278 1076.82441,80.7438658 C1078.3373,77.1948035 1079.60904,73.3027092 1080.42007,69.0459934 L1070.65049,68.2183986 L1070.5797,68.213601 L1069.22878,68.213601 C1069.22878,68.213601 1072.00381,62.9913579 1075.49269,55.822468 C1075.86941,54.962489 1076.26653,54.0797212 1076.68644,53.1669682 L1088.18967,24.8176487 C1088.36244,24.1963529 1088.54,23.5666612 1088.67557,22.9885442 L1088.80394,23.3039898 L1088.93232,22.9885442 C1089.06789,23.5666612 1089.24545,24.1963529 1089.41822,24.8176487 L1100.92145,53.1669682 C1101.34256,54.0797212 1101.73848,54.962489 1102.1152,55.822468 C1102.72641,57.0783733 1103.31571,58.2745343 1103.87202,59.393339 L1112.26223,38.7159637 C1112.43499,38.0946679 1112.61256,37.4649762 1112.74813,36.8868593 L1112.8765,37.2023048 L1113.00487,36.8868593 C1113.14045,37.4649762 1113.31801,38.0946679 1113.49077,38.7159637 L1124.9952,67.0652832 C1125.41512,67.9780363 1125.81103,68.8608041 1126.18896,69.720783 C1129.67664,76.8896729 1132.45166,82.111916 1132.45166,82.111916 L1131.36709,82.9443084 L1121.26037,82.9443084 C1122.07141,87.2010242 1123.34314,91.0931186 1124.85603,94.6421809 C1126.23696,97.6624062 1128.06992,101.103114 1130.46912,104.776085 C1131.72951,103.66953 1134.16351,101.390501 1136.93466,98.0570289 C1141.49132,92.2122906 1144.61668,86.6782002 1146.70665,82.1072383 C1148.21953,78.558176 1149.49127,74.6660817 1150.3023,70.4093659 L1140.53272,69.5817711 L1140.46193,69.5769734 L1139.11101,69.5769734 C1139.11101,69.5769734 1141.88724,64.3547303 1145.37492,57.1858404 C1145.75164,56.3258615 1146.14876,55.4430937 1146.56867,54.5303406 L1158.0719,26.1810211 C1158.24467,25.5597253 1158.42223,24.9300336 1158.5578,24.3519167 L1158.68618,24.6673623 L1158.81455,24.3519167 C1158.95012,24.9300336 1159.12768,25.5597253 1159.30045,26.1810211 L1170.80488,54.5303406 C1171.22479,55.4430937 1171.62071,56.3258615 1171.99863,57.1858404 C1173.07543,59.3991954 1174.0843,61.4269899 1174.96454,63.1728215 C1175.08439,62.9276043 1175.2052,62.6798831 1175.32686,62.4297928 C1175.70359,61.5698139 1176.10071,60.6870461 1176.52062,59.774293 L1188.02385,31.4249736 C1188.19661,30.8036778 1188.37417,30.1739861 1188.50975,29.5958691 L1188.63812,29.9113147 L1188.76649,29.5958691 C1188.90207,30.1739861 1189.07963,30.8036778 1189.25239,31.4249736 L1200.75682,59.774293 C1201.17673,60.6870461 1201.57265,61.5698139 1201.95058,62.4297928 C1204.60608,67.8881582 1206.84845,72.2180053 1207.76734,73.9734871 C1208.54872,72.416752 1209.41691,70.6657047 1210.33433,68.7799636 C1210.71105,67.9199847 1211.10817,67.0372169 1211.52808,66.1244638 L1223.03131,37.7751444 C1223.20407,37.1538486 1223.38164,36.5241569 1223.51721,35.9460399 L1223.64558,36.2614855 L1223.77396,35.9460399 C1223.90953,36.5241569 1224.08709,37.1538486 1224.25986,37.7751444 L1235.76428,66.1244638 C1236.1842,67.0372169 1236.58012,67.9199847 1236.95804,68.7799636 C1240.44572,75.9488536 1243.22075,81.1710966 1243.22075,81.1710966 L1242.13617,82.0034891 L1232.02945,82.0034891 C1232.84049,86.2602049 1234.11222,90.1522992 1235.62511,93.7013615 C1237.71508,98.2723235 1240.84044,103.806414 1245.3971,109.652352 C1249.44746,114.521967 1252.77558,117.141485 1252.77558,117.141485 L1252.6544,117.141485 C1252.73118,117.203854 1252.77558,117.239837 1252.77558,117.239837 C1252.77558,117.239837 1253.33361,118.29037 1253.99483,119.11569 L1261.9602,118.80555 C1263.85594,117.118448 1266.04574,115.024459 1268.33827,112.546161 C1269.40332,110.45712 1270.75287,107.770002 1272.23004,104.73368 C1272.60677,103.873701 1273.00388,102.990933 1273.4238,102.07818 L1280.3416,85.0294875 L1268.76696,85.0294875 C1268.79935,84.9983028 1268.82815,84.967118 1268.86054,84.9371327 L1268.76696,84.9371327 C1269.61278,84.135925 1270.46341,82.5323102 1270.46341,82.5323102 C1270.46341,82.5323102 1270.509,82.4963278 1270.58458,82.4339583 L1270.46341,82.4339583 C1270.46341,82.4339583 1273.79272,79.8144409 1277.84189,74.9436258 C1282.39855,69.0988875 1285.5239,63.5647971 1287.61387,58.9938352 C1289.12676,55.4447729 1290.3985,51.5526785 1291.20953,47.2959627 L1281.43995,46.4683679 L1281.36916,46.4635703 L1280.01824,46.4635703 C1280.01824,46.4635703 1282.79447,41.2413272 1286.28215,34.0724373 C1286.65887,33.2124584 1287.05599,32.3296906 1287.4759,31.4169375 L1298.97913,3.06761802 C1299.15189,2.44632222 1299.32946,1.81663053 1299.46503,1.23851359 L1299.5934,1.55395914 L1299.72178,1.23851359 C1299.85735,1.81663053 1300.03491,2.44632222 1300.20768,3.06761802 L1311.7121,31.4169375 C1312.13202,32.3296906 1312.52794,33.2124584 1312.90586,34.0724373 C1316.39354,41.2413272 1319.16857,46.4635703 1319.16857,46.4635703 L1318.08399,47.2959627 L1307.97727,47.2959627 C1308.78831,51.5526785 1310.06004,55.4447729 1311.57293,58.9938352 C1313.6629,63.5647971 1316.78826,69.0988875 1321.34492,74.9436258 C1322.00701,75.7398301 1322.64983,76.4758784 1323.26199,77.1501625 C1324.0043,76.3486024 1324.79839,75.4507352 1325.62228,74.4596627 C1330.17894,68.6149245 1333.30429,63.0808341 1335.39426,58.5098721 C1336.90715,54.9608098 1338.17889,51.0687155 1338.98992,46.8119997 L1329.22033,45.9844049 L1329.14955,45.9796073 L1327.79863,45.9796073 C1327.79863,45.9796073 1330.57485,40.7573642 1334.06254,33.5884743 C1334.43926,32.7284953 1334.83638,31.8457276 1335.25629,30.9329745 L1346.75952,2.58365498 C1346.93228,1.96235918 1347.10985,1.33266749 1347.24542,0.754550554 L1347.37379,1.0699961 L1347.50216,0.754550554 C1347.63774,1.33266749 1347.8153,1.96235918 1347.98806,2.58365498 L1359.49249,30.9329745 C1359.91241,31.8457276 1360.30832,32.7284953 1360.68625,33.5884743 C1364.17393,40.7573642 1366.94895,45.9796073 1366.94895,45.9796073 L1365.86438,46.8119997 L1355.75766,46.8119997 C1356.5687,51.0687155 1357.84043,54.9608098 1359.35332,58.5098721 C1361.11488,62.3625607 1363.61199,66.8994708 1367.08172,71.7299089 L1373.08509,56.9348033 C1373.25785,56.3135075 1373.43542,55.6838158 1373.57099,55.1056989 L1373.69936,55.4211445 L1373.82774,55.1056989 C1373.96331,55.6838158 1374.14087,56.3135075 1374.31364,56.9348033 L1385.81806,85.2841228 C1386.1832,86.0778169 1386.5302,86.848838 1386.863,87.6019179 C1389.03341,84.2020923 1390.71681,81.015625 1392.00615,78.1957135 C1393.51904,74.6466512 1394.79077,70.7545568 1395.60181,66.497841 L1385.83222,65.6702462 L1385.76144,65.6654486 L1384.41051,65.6654486 C1384.41051,65.6654486 1387.18674,60.4432055 1390.67442,53.2743156 C1391.05115,52.4143367 1391.44826,51.5315689 1391.86818,50.6188158 L1403.37141,22.2694963 C1403.54417,21.6482005 1403.72173,21.0185088 1403.8573,20.4403919 L1403.98568,20.7558374 L1404.11405,20.4403919 C1404.24962,21.0185088 1404.42719,21.6482005 1404.59995,22.2694963 L1416.10438,50.6188158 C1416.52429,51.5315689 1416.92021,52.4143367 1417.29813,53.2743156 C1420.78581,60.4432055 1423.56084,65.6654486 1423.56084,65.6654486 L1422.47627,66.497841 L1412.36955,66.497841 C1413.18058,70.7545568 1414.45232,74.6466512 1415.96521,78.1957135 C1416.76646,79.9481252 1417.71989,81.8420972 1418.84781,83.8408629 L1421.30147,77.7939102 C1421.47423,77.1726144 1421.6518,76.5429227 1421.78737,75.9648058 L1421.91574,76.2802513 L1422.04412,75.9648058 C1422.17969,76.5429227 1422.35725,77.1726144 1422.53001,77.7939102 L1431.71604,100.430207 C1432.59545,101.226375 1433.11567,101.635837 1433.11567,101.635837 L1432.9945,101.635837 C1433.07128,101.698206 1433.11567,101.734188 1433.11567,101.734188 C1433.11567,101.734188 1433.9675,103.337803 1434.81332,104.139011 L1434.71974,104.139011 C1434.75213,104.168996 1434.77973,104.200181 1434.81332,104.231366 L1433.25859,104.231366 L1434.03444,106.14323 C1434.45436,107.054783 1434.85027,107.938751 1435.2282,108.798729 C1438.71588,115.967619 1441.49091,121.189862 1441.49091,121.189862 L1440.40633,122.022255 L1430.29961,122.022255 C1430.67332,123.983682 1431.14485,125.867692 1431.69272,127.676397 C1439.84764,137.622167 1447.93622,143.06835 1447.93622,143.06835 L1447.92782,143.06835 C1447.92902,143.06955 1447.93622,143.074347 1447.93622,143.074347 L1444.94643,143.261456 C1445.18955,143.424769 1443.00992,143.65738 1439.54949,143.916945 C1440.2312,144.958531 1440.95844,146.018682 1441.73379,147.093115 L1445.5405,146.310085 Z M1238.02582,119.737014 L1238.0373,119.737014 L1238.02597,119.737455 Z M1052.07904,149.204222 C1051.60094,148.242452 1051.13957,147.260194 1050.69775,146.257784 C1056.33952,146.768334 1069.10911,147.451409 1078.2194,147.907029 L1052.07904,149.204222 Z M1716.18691,158.243605 C1715.99501,157.919173 1715.80469,157.591948 1715.61609,157.261946 C1718.25312,157.389215 1720.08043,157.473874 1720.55013,157.495606 C1720.62811,157.499205 1720.6689,157.501603 1720.6689,157.501603 L1721.08642,157.475216 L1721.50393,157.501603 C1721.50393,157.501603 1721.54472,157.499205 1721.62271,157.495606 C1722.153,157.47107 1724.4138,157.366324 1727.61662,157.210605 C1727.6001,157.238924 1727.58357,157.267222 1727.56703,157.295499 L1721.62247,157.496206 L1716.18691,158.243605 Z M1586.27638,154.177671 L1595.29859,154.177671 C1594.96762,155.150351 1594.61645,156.106919 1594.24722,157.047124 L1586.27638,154.177671 Z M1391.43785,146.989974 C1392.74957,149.659694 1394.19127,152.173193 1395.70307,154.523405 C1396.94538,153.306084 1398.49353,151.679633 1400.16423,149.669918 C1401.17784,148.36978 1402.12062,147.085013 1402.99694,145.8228 C1401.42704,145.749763 1396.79237,145.532122 1391.20702,145.248268 L1391.43785,146.989974 Z M990.734056,152.192973 C988.568202,149.622064 986.38007,146.730769 984.320604,143.536901 C989.082556,143.816434 994.317551,144.092511 998.845025,144.321357 C997.317767,146.811355 995.526972,149.430078 993.434288,152.114321 L990.734056,152.192973 Z M883.652126,155.307825 C883.353052,154.527993 883.066514,153.737071 882.793701,152.935199 L891.932066,152.935199 C891.381769,153.682426 890.827549,154.409214 890.271953,155.115264 L883.652126,155.307825 Z M338.812018,173.59096 C339.998055,172.407913 341.235972,171.109132 342.495188,169.698227 C339.750917,169.86527 336.774467,170.033427 333.817626,170.193361 L338.812018,173.59096 Z M1702.08536,77.3172636 L1707.83863,91.4960013 C1707.91805,91.6681535 1707.99658,91.8392389 1708.07426,92.009306 C1708.44361,91.2677545 1708.78735,90.5463847 1709.10689,89.8475285 C1710.61977,86.2984662 1711.89151,82.4063718 1712.70255,78.149656 L1702.93296,77.3220612 L1702.86217,77.3172636 L1702.08536,77.3172636 Z M1706.44524,115.883181 C1706.4899,116.006923 1706.53489,116.130285 1706.58021,116.253267 C1706.62293,116.130166 1706.66532,116.006803 1706.70738,115.883181 L1706.44524,115.883181 Z M1736.1443,117.778995 C1736.40083,117.157409 1736.64973,116.525508 1736.88986,115.883181 L1735.46665,115.883181 C1735.68402,116.522094 1735.91011,117.154056 1736.1443,117.778995 Z M1679.86291,126.432735 L1668.24463,126.432735 C1669.47059,130.036152 1670.97369,133.418443 1672.64617,136.566892 C1673.07597,136.080463 1673.51832,135.565559 1673.96961,135.02269 C1676.28684,132.050432 1678.23391,129.158512 1679.86291,126.432735 Z M1677.92922,145.108551 C1678.68233,146.170425 1679.44551,147.193629 1680.21206,148.177373 C1680.61015,147.173106 1680.9877,146.150065 1681.34209,145.108551 L1677.92922,145.108551 Z M1641.39844,101.438472 C1641.56648,101.086138 1641.72857,100.738917 1641.88487,100.397083 C1643.15745,97.411743 1644.25941,94.1836888 1645.06007,90.700071 L1638.20235,90.700071 C1638.94092,94.5764828 1640.06155,98.1505148 1641.39844,101.438472 Z M1827.6609,133.243006 C1826.62343,131.051809 1825.67572,128.758678 1824.84959,126.367367 L1830.43547,126.367367 C1829.62208,128.757796 1828.68674,131.050914 1827.66091,133.243008 Z M1827.68523,109.748255 C1825.4215,106.235764 1823.67672,102.944584 1822.3495,100.041817 C1820.83661,96.4927548 1819.56487,92.6006604 1818.75384,88.3439446 L1828.86056,88.3439446 L1829.27287,88.027499 L1836.43063,88.6338427 C1835.6196,92.8905585 1834.34786,96.7826528 1832.83498,100.331715 C1831.54433,103.154484 1829.85883,106.344552 1827.68523,109.748255 Z M1140.41004,116.696786 C1140.48316,116.763722 1140.55413,116.828282 1140.62288,116.890457 C1140.65116,116.834371 1140.67937,116.778214 1140.70753,116.721987 L1140.41004,116.696786 Z M1138.57102,114.930513 C1137.42763,113.782326 1136.07376,112.330564 1134.62802,110.591971 C1133.98629,109.768842 1133.37295,108.951875 1132.7869,108.142891 L1142.02301,108.142891 C1140.55754,111.083563 1139.33648,113.457984 1138.57102,114.930513 Z M1206.91998,75.6533183 C1205.19856,79.0490043 1204.07042,81.1710966 1204.07042,81.1710966 L1205.42134,81.1710966 L1205.49212,81.1758943 L1215.26171,82.0034891 C1214.45068,86.2602049 1213.17894,90.1522992 1211.66605,93.7013615 C1210.72985,95.7489234 1209.58589,97.9897458 1208.19858,100.365288 C1204.80543,95.6118655 1202.35415,91.1490802 1200.61765,87.3511907 C1199.10476,83.8021284 1197.83302,79.9100341 1197.02199,75.6533183 L1206.91998,75.6533183 Z M1205.54936,119.737014 L1209.26655,119.737014 C1208.77395,121.184688 1208.23662,122.596671 1207.66155,123.97214 C1206.92307,122.604925 1206.216,121.192862 1205.54936,119.737014 Z M1178.89153,81.206814 L1176.50912,75.3360633 L1180.25425,75.6533183 C1179.88746,77.5783919 1179.42645,79.4288915 1178.89153,81.206814 Z M1497.14642,73.445623 C1497.58563,72.2127033 1497.99164,70.9422769 1498.35674,69.6335857 L1496.27713,69.6335857 C1496.52572,70.9383132 1496.81759,72.2087851 1497.14642,73.445623 Z M1385.82329,113.174787 C1385.77462,113.069704 1385.72649,112.965112 1385.67889,112.86102 C1384.53726,110.182892 1383.53295,107.309432 1382.7603,104.231366 L1389.60664,104.231366 C1388.53367,107.384681 1387.24848,110.368662 1385.82329,113.174787 Z M1361.88156,84.5455244 L1361.75403,84.5455244 C1361.77339,84.602448 1361.79283,84.6593164 1361.81233,84.7161295 L1361.88156,84.5455244 Z M1131.63837,130.774498 C1129.97387,127.636695 1128.47783,124.266951 1127.25674,120.677833 L1138.57233,120.677833 C1136.40887,124.412474 1134.03005,127.785995 1131.63837,130.774498 Z M1099.86294,69.0459936 C1099.7623,69.2725446 1099.66309,69.4974324 1099.56525,69.720783 C1099.04015,70.7997491 1098.53122,71.8346192 1098.04548,72.8142258 C1097.72139,71.5912002 1097.43347,70.3353228 1097.18782,69.0459934 L1099.86294,69.0459934 Z M1101.71869,82.7093239 L1104.49263,82.9443084 C1104.26425,84.1429626 1103.99934,85.3127046 1103.7028,86.4540165 C1102.97023,85.1587181 1102.31088,83.9071631 1101.71869,82.7093239 Z M1323.31352,103.215529 C1319.6882,98.0247154 1316.32232,91.9328974 1313.97364,85.0294875 L1330.42105,85.0294875 C1330.38745,84.9983028 1330.35986,84.967118 1330.32747,84.9371327 L1330.42105,84.9371327 C1330.29846,84.8210102 1330.17577,84.6880325 1330.05558,84.5455244 L1332.99476,84.5455244 C1330.57234,91.6646509 1327.06826,97.9206721 1323.31352,103.215529 Z M982.25104,127.836408 L976.649629,127.836408 C977.15697,129.327622 977.711775,130.780966 978.306405,132.19554 C979.587485,130.867682 980.914215,129.413239 982.25104,127.836408 Z M1025.77334,103.267518 C1025.71449,103.570524 1025.65332,103.871675 1025.5899,104.170979 C1025.48306,103.871391 1025.37811,103.570235 1025.27512,103.267518 L1025.77334,103.267518 Z M905.192323,95.0329622 L908.489763,95.3122928 C908.482303,95.3514427 908.474805,95.3905618 908.467268,95.4296501 C907.929877,96.2974145 907.360554,97.1803831 906.757695,98.0759132 C906.21839,97.0851994 905.695444,96.070746 905.192323,95.0329622 Z M889.603492,128.82289 C888.448285,129.895871 887.74364,130.450288 887.74364,130.450288 L887.864815,130.450288 C887.788031,130.512658 887.74364,130.54864 887.74364,130.54864 C887.74364,130.54864 886.893015,132.152255 886.04719,132.953463 L886.140771,132.953463 C886.108377,132.983448 886.079583,133.014633 886.04719,133.045818 L899.942421,133.045818 C896.857182,137.216402 893.654069,140.745114 890.780588,143.579147 C890.577506,143.341802 890.372187,143.098516 890.164981,142.849337 C886.163179,137.716306 883.265329,132.822874 881.203247,128.611013 C884.345407,128.763662 886.558745,128.866209 887.082696,128.890452 C887.16068,128.89405 887.201472,128.896449 887.201472,128.896449 L887.618986,128.870062 L888.0365,128.896449 C888.0365,128.896449 888.077291,128.89405 888.155275,128.890452 C888.370508,128.880493 888.870821,128.857321 889.603492,128.82289 Z M947.392015,129.247833 C947.087563,128.783886 946.785702,128.313394 946.486909,127.836413 L947.890359,127.836408 C947.728964,128.310724 947.562767,128.781209 947.392015,129.247833 Z M940.952651,117.188188 C940.386698,115.830884 939.85754,114.438087 939.371875,113.010587 L943.962047,113.010587 C943.038891,114.377299 942.037653,115.772953 940.952651,117.188188 Z M810.956221,142.287094 C809.826124,140.888221 808.697303,139.403239 807.591106,137.834667 C809.516633,137.742465 812.020706,137.620628 814.816131,137.479806 C813.537383,139.193589 812.240178,140.797266 810.956221,142.287094 Z M853.38491,93.8834324 L858.503021,93.8834324 L856.352387,99.183597 C855.223375,97.3366996 854.239454,95.561362 853.38491,93.8834324 Z M794.160375,61.7537165 C794.413268,60.7475484 794.641414,59.719509 794.841515,58.6692741 L792.839868,58.4997119 L794.160375,61.7537165 Z M819.896025,102.221687 C819.058854,100.352268 818.28916,98.411904 817.605622,96.4027988 L822.460571,96.4027988 C821.682336,98.4175928 820.820624,100.358033 819.896027,102.221691 Z M819.680709,78.7101624 C817.828656,75.7087354 816.358944,72.8911138 815.204917,70.3671465 C813.692028,66.8180842 812.420291,62.9259899 811.609258,58.6692741 L821.715974,58.6692741 L822.80055,57.8368816 C822.80055,57.8368816 822.346336,56.9821091 821.574478,55.4894744 L829.370756,56.1499076 C828.559723,60.4066234 827.287985,64.2987178 825.775097,67.8477801 C824.303244,71.0668641 822.317877,74.7636245 819.680709,78.7101624 Z M647.079245,147.854367 L648.496382,147.854367 C647.084937,149.789953 645.645178,151.590794 644.220344,153.251789 C642.881923,151.714266 641.526415,150.052284 640.189925,148.270102 C642.610634,148.132101 644.955365,147.991732 647.079247,147.854367 Z M652.71604,141.158366 C652.866293,141.000886 653.01917,140.83904 653.174461,140.672856 C655.347765,136.901704 657.29988,132.764512 658.82388,128.285708 L642.376471,128.285708 C642.408865,128.254523 642.437659,128.223339 642.470052,128.193353 L642.376471,128.193353 C642.502904,128.07359 642.629445,127.935897 642.753235,127.788312 L640.594569,127.788312 C644.782941,133.473096 649.197608,137.973932 652.71604,141.158366 Z M644.172784,125.707488 C644.17958,125.70197 644.186687,125.696197 644.194096,125.690179 L644.162645,125.690179 C644.165993,125.695902 644.169373,125.701672 644.172784,125.707488 Z M517.669999,96.7343672 C518.254608,97.3449736 518.798462,97.8886224 519.289042,98.3635444 C521.478845,95.1809238 523.24585,92.1460663 524.660512,89.3750798 L515.730944,89.3750798 C516.223666,91.9611386 516.886428,94.4126207 517.669999,96.7343672 Z M519.707586,74.024156 L519.780709,74.024156 L519.851494,74.0289536 L529.62108,74.8565484 C528.810047,79.1132642 527.538309,83.0053585 526.025421,86.5544208 C526.003116,86.6032039 525.980693,86.6520967 525.958152,86.7010984 C524.8536,84.5731589 522.903816,80.7655436 520.658328,76.1515543 C520.354719,75.4584788 520.038642,74.7506017 519.707586,74.024156 Z M381.146302,106.229273 C381.755419,109.249363 382.595008,112.083557 383.584824,114.739745 C384.482919,112.195183 385.238931,109.491563 385.785617,106.622275 L381.146302,106.229273 Z M406.457623,118.985907 C409.68224,114.404864 412.031825,110.107293 413.712139,106.432288 C415.225027,102.883226 416.496764,98.9911315 417.307797,94.7344157 L407.737763,93.9237252 C411.104347,100.821171 413.744652,105.789883 413.744652,105.789883 L412.660075,106.622275 L402.553359,106.622275 C403.364392,110.878991 404.63613,114.771085 406.149018,118.320148 C406.249479,118.539866 406.352333,118.76181 406.457623,118.985907 Z M223.614313,73.238393 C224.717787,70.3269234 225.642676,67.1997044 226.281624,63.8461793 L219.585435,63.2789362 C219.594725,63.3123115 219.604009,63.3456719 219.613279,63.3790081 L223.614313,73.238393 Z"></path>
                    </g>
                </g>
            </g>
        </g>
    </g>
</svg>