<?xml version="1.0" encoding="UTF-8" standalone="no"?>
<svg width="3000px" height="3059px" viewBox="0 0 3000 3059" version="1.1" xmlns="http://www.w3.org/2000/svg" xmlns:xlink="http://www.w3.org/1999/xlink">
    <!-- Generator: Sketch 3.6.1 (26313) - http://www.bohemiancoding.com/sketch -->
    <title>forest2</title>
    <desc>Created with Sketch.</desc>
    <defs></defs>
    <g id="Page-1" stroke="none" stroke-width="1" fill="none" fill-rule="evenodd">
        <g id="site" transform="translate(0.000000, -599.000000)" fill="#C7E2DC">
            <g id="art" transform="translate(-670.000000, -948.000000)">
                <g id="Forest-2" transform="translate(669.750000, 1547.159408)">
                    <g transform="translate(240.000000, 835.000000)" id="Combined-Shape">
                        <path d="M1932.18994,457.304857 C1926.7688,452.602599 1919.10419,445.052962 1912.25506,435.017041 C1928.01783,434.238736 1955.3402,432.791336 1954.39097,432.154057 L1958.29662,431.910635 L1958.28572,431.902158 L1958.29662,431.902158 C1958.29662,431.902158 1930.58407,413.237394 1919.67369,381.162629 L1941.15536,381.162629 C1941.11297,381.121453 1941.07543,381.081488 1941.03304,381.041524 L1941.15536,381.041524 C1940.05088,379.995173 1938.93913,377.90005 1938.93913,377.90005 C1938.93913,377.90005 1938.881,377.852818 1938.78048,377.771678 L1938.93913,377.771678 C1938.93913,377.771678 1934.59145,374.348028 1929.30156,367.986362 C1923.35045,360.349455 1919.26919,353.118252 1916.53827,347.147756 C1914.56304,342.51063 1912.90147,337.424203 1911.84301,331.864254 L1924.60268,330.781572 L1924.69472,330.776728 L1926.45922,330.776728 C1926.45922,330.776728 1922.83454,323.954861 1918.27855,314.587358 C1917.78565,313.464711 1917.26853,312.310577 1916.71871,311.118899 L1901.69438,274.080024 C1901.46912,273.267407 1901.2366,272.445101 1901.05979,271.689404 L1900.89145,272.102373 L1900.72432,271.689404 C1900.54751,272.445101 1900.31499,273.267407 1900.08973,274.080024 L1885.11285,310.998927 L1882.72733,305.118006 C1882.50208,304.305389 1882.26956,303.483083 1882.09274,302.727385 L1881.92441,303.140355 L1881.75728,302.727385 C1881.58047,303.483083 1881.34794,304.305389 1881.12269,305.118006 L1866.52923,341.091755 C1865.17171,338.48632 1862.44675,333.190775 1859.26861,326.657085 C1858.77571,325.534438 1858.25859,324.379093 1857.70878,323.187416 L1842.68444,286.149752 C1842.45918,285.337134 1842.22666,284.514829 1842.04985,283.759131 L1841.88151,284.1721 L1841.71439,283.759131 C1841.53757,284.514829 1841.30505,285.337134 1841.07979,286.149752 L1826.05425,323.187416 C1825.50564,324.379093 1824.98852,325.534438 1824.49562,326.657085 C1819.93964,336.023377 1816.31495,342.845244 1816.31495,342.845244 L1817.73188,343.932771 L1830.93116,343.932771 C1829.8727,349.49393 1828.21113,354.579146 1826.23469,359.217483 C1823.50498,365.187979 1819.42373,372.419182 1813.47261,380.054878 C1808.18272,386.417756 1803.83383,389.841405 1803.83383,389.841405 L1803.99248,389.841405 C1803.89317,389.922546 1803.83383,389.969777 1803.83383,389.969777 C1803.83383,389.969777 1802.72329,392.063689 1801.61881,393.11004 L1801.74113,393.11004 C1801.69753,393.151216 1801.6612,393.19118 1801.61881,393.232356 L1823.10049,393.232356 C1819.3799,404.170273 1813.70539,413.54874 1807.84226,421.159375 L1803.96947,419.371988 L1782.45506,424.261733 C1779.41279,421.062765 1776.19421,417.327735 1773.07188,413.088798 L1781.83213,413.088798 C1781.78974,413.047622 1781.7522,413.007657 1781.70981,412.966481 L1781.83213,412.966481 C1780.72764,411.92013 1779.6159,409.826218 1779.6159,409.826218 C1779.6159,409.826218 1779.55777,409.778987 1779.45725,409.697846 L1779.6159,409.697846 C1779.6159,409.697846 1775.26821,406.274197 1769.97833,399.911319 C1766.49281,395.439152 1763.64871,391.105741 1761.34167,387.083109 L1780.74327,387.083109 C1780.70088,387.041933 1780.66334,387.001968 1780.62095,386.962003 L1780.74327,386.962003 C1779.63879,385.915653 1778.52704,383.820529 1778.52704,383.820529 C1778.52704,383.820529 1778.46891,383.773298 1778.36839,383.692157 L1778.52704,383.692157 C1778.52704,383.692157 1774.17935,380.269719 1768.88947,373.906841 C1765.96291,370.151264 1763.48854,366.493799 1761.40459,363.03613 L1765.27944,362.707741 L1765.37148,362.701685 L1767.13599,362.701685 C1767.13599,362.701685 1765.50483,359.631749 1763.0556,354.783164 L1771.46832,331.230948 L1768.1592,325.717224 L1775.87962,301.458391 L1762.64572,272.789096 L1772.46986,251.223415 L1758.29569,199.854358 L1747.07576,168.560282 L1748.25694,160.294875 L1733.63464,100.999677 L1725.81579,97.1162435 L1728.76874,89.7520936 L1718.13811,68.185377 L1724.04402,35.7103433 L1704.19188,12.5534779 L1688.75105,0.424061231 L1651.25242,39.017542 L1651.25242,131.645004 L1647.9433,179.059407 L1640.22289,213.243721 L1662.1273,293.543452 L1661.1781,293.739436 L1646.74761,339.908947 L1637.57343,317.292974 C1637.34818,316.480357 1637.11566,315.658051 1636.93884,314.902353 L1636.7705,315.315323 L1636.60338,314.902353 C1636.42657,315.658051 1636.19404,316.480357 1635.96879,317.292974 L1626.75811,339.99711 L1620.37075,332.333434 L1578.46083,338.950421 L1570.74041,375.338671 L1574.04953,391.879845 L1571.05627,446.942452 C1565.31617,441.934883 1557.17107,433.81748 1550.12238,423.003569 L1552.8774,422.831848 C1552.8774,422.831848 1552.8665,422.824582 1552.8665,422.823371 L1552.8774,422.823371 C1552.8774,422.823371 1550.73891,421.383068 1547.41615,418.615106 C1544.48911,413.586177 1541.85877,408.053129 1539.81691,402.050404 L1561.29859,402.050404 C1561.2562,402.009228 1561.21866,401.969263 1561.17627,401.928087 L1561.29859,401.928087 C1560.19411,400.881737 1559.08236,398.787824 1559.08236,398.787824 C1559.08236,398.787824 1559.02423,398.740593 1558.92371,398.659453 L1559.08236,398.659453 C1559.08236,398.659453 1554.73468,395.235803 1549.44479,388.874136 C1543.49367,381.23723 1539.41242,374.006027 1536.68149,368.03553 C1534.70627,363.398405 1533.0447,358.311978 1531.98624,352.752029 L1544.7459,351.669347 L1544.83794,351.663291 L1546.60245,351.663291 C1546.60245,351.663291 1542.97776,344.841424 1538.42178,335.475133 C1537.92888,334.352486 1537.41176,333.19714 1536.86194,332.006674 L1521.83761,294.967799 C1521.61235,294.155182 1521.37983,293.332876 1521.20301,292.577178 L1521.03468,292.990148 L1520.86755,292.577178 C1520.69074,293.332876 1520.45822,294.155182 1520.23296,294.967799 L1514.55455,308.965412 C1514.00843,307.860623 1513.44149,306.705368 1512.85934,305.508571 C1512.36644,304.385924 1511.84932,303.230578 1511.2995,302.040112 L1496.27516,265.001237 C1496.04991,264.18862 1495.81738,263.366314 1495.64057,262.610616 L1495.47223,263.023586 L1495.30511,262.610616 C1495.12829,263.366314 1494.89577,264.18862 1494.67052,265.001237 L1479.64497,302.040112 C1479.09636,303.230578 1478.57924,304.385924 1478.08634,305.508571 C1476.49275,308.784712 1475.0131,311.749553 1473.76265,314.220044 C1472.27449,311.325114 1470.14496,307.11974 1467.76029,302.217289 C1467.26739,301.094642 1466.75027,299.939297 1466.20045,298.74762 L1451.17612,261.709955 C1450.95086,260.897338 1450.71834,260.075033 1450.54153,259.319335 L1450.37319,259.732304 L1450.20606,259.319335 C1450.02925,260.075033 1449.79673,260.897338 1449.57147,261.709955 L1434.54592,298.74762 C1433.99732,299.939297 1433.4802,301.094642 1432.9873,302.217289 C1428.43131,311.583581 1424.80542,318.405448 1424.80542,318.405448 L1426.22356,319.492974 L1435.43987,319.492974 L1431.51659,329.164088 C1430.96799,330.355765 1430.45087,331.5099 1429.95797,332.632547 C1425.40198,341.998838 1421.77609,348.821917 1421.77609,348.821917 L1423.19423,349.909443 L1426.13116,349.909443 C1424.85602,351.776164 1423.46947,353.682669 1421.96307,355.615082 C1421.95859,355.620471 1421.95411,355.625859 1421.94964,355.631244 C1420.50532,354.352734 1418.02215,352.016866 1415.12893,348.713081 L1411.13189,338.86015 C1410.90663,338.047533 1410.67411,337.225227 1410.4973,336.469529 L1410.32896,336.882499 L1410.16184,336.469529 C1409.98502,337.225227 1409.7525,338.047533 1409.52724,338.86015 L1408.89882,340.409253 C1405.43113,335.226534 1402.82325,330.371629 1400.89122,326.147716 C1398.91478,321.509379 1397.25442,316.424164 1396.19596,310.863004 L1408.95563,309.781532 L1409.04767,309.775477 L1410.81217,309.775477 C1410.81217,309.775477 1407.18749,302.95361 1402.6315,293.587319 C1402.1386,292.464672 1401.62148,291.309326 1401.07167,290.117649 L1386.04733,253.079985 C1385.82207,252.267368 1385.58955,251.445062 1385.41274,250.689364 L1385.2444,251.102334 L1385.07728,250.689364 C1384.90046,251.445062 1384.66794,252.267368 1384.44268,253.079985 L1369.41714,290.117649 C1368.86853,291.309326 1368.35141,292.464672 1367.85851,293.587319 C1363.30252,302.95361 1359.67784,309.775477 1359.67784,309.775477 L1361.09477,310.863004 L1374.29405,310.863004 C1373.23559,316.424164 1371.57402,321.509379 1369.59758,326.147716 C1367.5472,330.632358 1364.73428,335.828293 1360.93916,341.372665 C1359.53989,338.682563 1356.89087,333.523128 1353.81828,327.206419 C1353.32538,326.083772 1352.80826,324.928427 1352.25844,323.737961 L1347.80474,312.758433 C1347.58974,311.983992 1347.37088,311.204078 1347.20253,310.484549 L1347.04206,310.87823 L1337.2341,286.699086 C1337.00885,285.886468 1336.77632,285.064163 1336.59951,284.308465 L1336.43117,284.721435 L1336.26405,284.308465 C1336.08724,285.064163 1335.85471,285.886468 1335.62946,286.699086 L1320.60391,323.737961 C1320.0553,324.928427 1319.53818,326.083772 1319.04528,327.206419 C1314.4893,336.572711 1310.8634,343.394578 1310.8634,343.394578 L1312.28155,344.482105 L1325.48082,344.482105 C1324.42115,350.043265 1322.7608,355.12848 1320.78436,359.766817 C1318.05464,365.737313 1313.97339,372.968517 1308.02106,380.605423 C1307.15602,381.645966 1306.31612,382.607907 1305.51629,383.489121 C1304.73001,381.977457 1304.02305,380.523067 1303.3889,379.136657 C1301.41367,374.49832 1299.7521,369.413104 1298.69243,363.851944 L1311.45331,362.770473 L1311.54535,362.764418 L1313.30985,362.764418 C1313.30985,362.764418 1309.68517,355.942551 1305.12918,346.576259 C1304.63628,345.453612 1304.11916,344.298267 1303.57056,343.107801 L1288.54501,306.068925 C1288.31975,305.256308 1288.08723,304.434002 1287.91042,303.678305 L1287.74208,304.091274 L1287.57496,303.678305 C1287.39814,304.434002 1287.16562,305.256308 1286.94036,306.068925 L1271.91482,343.107801 C1271.36621,344.298267 1270.84909,345.453612 1270.35619,346.576259 C1265.8002,355.942551 1262.17552,362.764418 1262.17552,362.764418 L1263.59245,363.851944 L1276.79173,363.851944 C1275.73206,369.413104 1274.0717,374.49832 1272.09526,379.136657 C1269.36555,385.107153 1265.2843,392.338356 1259.33197,399.975263 C1257.82654,401.786115 1256.39726,403.358912 1255.12276,404.682453 C1250.42205,397.929093 1246.06208,390.014293 1243.01374,381.052665 L1264.49542,381.052665 C1264.45303,381.011489 1264.41549,380.971525 1264.3731,380.930349 L1264.49542,380.930349 C1263.39093,379.883998 1262.27919,377.788875 1262.27919,377.788875 C1262.27919,377.788875 1262.22106,377.742855 1262.12054,377.661714 L1262.27919,377.661714 C1262.27919,377.661714 1257.9315,374.238064 1252.64162,367.875187 C1246.6905,360.239491 1242.60925,353.008288 1239.87832,347.037792 C1237.90309,342.399455 1236.24153,337.314239 1235.18185,331.753079 L1247.94273,330.671608 L1248.03477,330.665553 L1249.79928,330.665553 C1249.79928,330.665553 1246.17459,323.843686 1241.61861,314.477394 C1241.12571,313.354747 1240.60859,312.199402 1240.05877,311.007725 L1225.03443,273.970061 C1224.80918,273.157443 1224.57665,272.335138 1224.39984,271.57944 L1224.2315,271.992409 L1224.06438,271.57944 C1223.88756,272.335138 1223.65504,273.157443 1223.42979,273.970061 L1208.40424,311.007725 C1207.85563,312.199402 1207.33851,313.354747 1206.84561,314.477394 C1202.28963,323.843686 1198.66494,330.665553 1198.66494,330.665553 L1200.08188,331.753079 L1213.28115,331.753079 C1212.22148,337.314239 1210.56113,342.399455 1208.58469,347.037792 C1207.89872,348.538161 1207.1274,350.118143 1206.26248,351.764152 L1194.60379,323.02247 C1194.37854,322.209853 1194.14602,321.387547 1193.9692,320.63185 L1193.80087,321.044819 L1193.63374,320.63185 C1193.45693,321.387547 1193.2244,322.209853 1192.99915,323.02247 L1177.9736,360.061345 C1177.42499,361.253022 1176.90787,362.407157 1176.41497,363.529804 C1171.85899,372.897307 1168.2343,379.719174 1168.2343,379.719174 L1169.65124,380.8067 L1182.85052,380.8067 C1181.79084,386.366649 1180.13049,391.453076 1178.15405,396.090202 C1175.42433,402.060698 1171.34308,409.291901 1165.39075,416.928808 C1164.30364,418.236477 1163.25624,419.420007 1162.27815,420.47518 C1154.58069,411.938403 1146.19553,400.164352 1141.25529,385.640864 L1162.73697,385.640864 C1162.69458,385.599689 1162.65704,385.559724 1162.61465,385.519759 L1162.73697,385.519759 C1161.63249,384.472197 1160.52074,382.378285 1160.52074,382.378285 C1160.52074,382.378285 1160.46261,382.331054 1160.36209,382.249913 L1160.52074,382.249913 C1160.52074,382.249913 1156.17305,378.826264 1150.88317,372.464597 C1144.93205,364.827691 1140.8508,357.596487 1138.11987,351.625991 C1136.14343,346.988865 1134.48308,341.902439 1133.42341,336.34249 L1146.18428,335.259807 L1146.27632,335.254963 L1148.04083,335.254963 C1148.04083,335.254963 1144.41614,328.431885 1139.86016,319.065593 C1139.36726,317.942946 1138.85014,316.787601 1138.30032,315.597135 L1123.27598,278.55826 C1123.05073,277.745642 1122.81821,276.923337 1122.64139,276.167639 L1122.47306,276.580608 L1122.30593,276.167639 C1122.12912,276.923337 1121.89659,277.745642 1121.67134,278.55826 L1106.64579,315.597135 C1106.09718,316.787601 1105.58006,317.942946 1105.08716,319.065593 C1104.28893,320.706628 1103.51928,322.269593 1102.7927,323.73147 L1091.83436,296.716319 C1091.6091,295.903702 1091.37658,295.081396 1091.19977,294.325698 L1091.03143,294.738668 L1090.8643,294.325698 C1090.68749,295.081396 1090.45497,295.903702 1090.22971,296.716319 L1075.20416,333.755194 C1074.65556,334.94566 1074.13844,336.101006 1073.64554,337.223653 C1069.08955,346.589944 1065.46487,353.411811 1065.46487,353.411811 L1066.8818,354.500549 L1080.08108,354.500549 C1079.02141,360.060498 1077.36105,365.146924 1075.38461,369.78405 C1073.58103,373.728889 1071.18743,378.224095 1068.05395,383.02305 C1066.40786,381.577084 1063.22892,378.599412 1059.6087,374.245694 C1053.65758,366.608788 1049.57632,359.377584 1046.8454,353.407088 C1044.87017,348.769962 1043.2086,343.683536 1042.15014,338.123587 L1054.90981,337.040905 L1055.00185,337.03606 L1056.76635,337.03606 C1056.76635,337.03606 1053.14167,330.212982 1048.58568,320.846691 C1048.09278,319.724044 1047.57566,318.569909 1047.02706,317.378232 L1032.00151,280.339357 C1031.77625,279.52674 1031.54373,278.704434 1031.36692,277.948736 L1031.19858,278.361706 L1031.03145,277.948736 C1030.85464,278.704434 1030.62212,279.52674 1030.39686,280.339357 L1015.37132,317.378232 C1014.82271,318.569909 1014.30559,319.724044 1013.81269,320.846691 C1012.40599,323.738604 1011.08808,326.388069 1009.93823,328.669112 C1009.78162,328.348581 1009.62376,328.024773 1009.46476,327.697865 C1008.97186,326.575218 1008.45474,325.421084 1007.90614,324.229407 L992.88059,287.190531 C992.655334,286.377914 992.422811,285.555608 992.245998,284.799911 L992.077661,285.21288 L991.910536,284.799911 C991.733722,285.555608 991.501199,286.377914 991.275943,287.190531 L976.250397,324.229407 C975.701789,325.421084 975.184669,326.575218 974.69177,327.697865 C971.223105,334.829742 968.294262,340.486061 967.093847,342.779695 C966.073327,340.745797 964.93935,338.458038 963.740935,335.994312 C963.248036,334.871665 962.730916,333.716319 962.182309,332.525853 L947.156762,295.486978 C946.931506,294.674361 946.698984,293.852055 946.52217,293.096357 L946.353833,293.509327 L946.186708,293.096357 C946.009894,293.852055 945.777372,294.674361 945.552116,295.486978 L930.526569,332.525853 C929.977961,333.716319 929.460841,334.871665 928.967942,335.994312 C924.411957,345.360603 920.787273,352.183681 920.787273,352.183681 L922.204206,353.271208 L935.403483,353.271208 C934.345022,358.831157 932.683456,363.917583 930.707016,368.554709 C927.9773,374.525205 923.896048,381.756409 917.944929,389.393315 C915.637381,392.168395 913.508891,394.384409 911.842338,396.001045 L889.843284,395.143983 C889.230117,394.510069 888.608765,393.853852 887.981524,393.175601 C886.590539,390.446272 884.827704,386.935218 882.897753,382.967584 C882.404854,381.844937 881.887734,380.689591 881.337916,379.499125 L872.302633,357.224815 L887.420798,357.224815 C887.378411,357.183639 887.340868,357.143674 887.298481,357.102498 L887.420798,357.102498 C886.316316,356.056148 885.204569,353.962235 885.204569,353.962235 C885.204569,353.962235 885.146438,353.915004 885.045921,353.833864 L885.204569,353.833864 C885.204569,353.833864 880.856885,350.410214 875.567001,344.047336 C869.615882,336.411641 865.53463,329.180437 862.803703,323.209941 C860.827263,318.571605 859.166908,313.486389 858.107236,307.925229 L870.868112,306.843758 L870.960152,306.837702 L872.724657,306.837702 C872.724657,306.837702 869.099973,300.015835 864.543988,290.649544 C864.051089,289.526897 863.533969,288.371551 862.98415,287.179874 L847.959814,250.14221 C847.734558,249.329593 847.502036,248.507287 847.325222,247.751589 L847.156886,248.164559 L846.98976,247.751589 C846.812946,248.507287 846.580424,249.329593 846.355168,250.14221 L831.329621,287.179874 C830.781013,288.371551 830.263893,289.526897 829.770994,290.649544 C825.215009,300.015835 821.590325,306.837702 821.590325,306.837702 L823.007258,307.925229 L836.206535,307.925229 C835.146863,313.486389 833.486508,318.571605 831.510068,323.209941 C828.780352,329.180437 824.6991,336.411641 818.74677,344.047336 C817.882269,345.087429 817.042879,346.048986 816.243491,346.929891 C815.273887,345.882712 814.236595,344.709777 813.160299,343.415166 C807.20918,335.779471 803.127928,328.548267 800.397001,322.577771 C798.421772,317.939434 796.760206,312.854219 795.701745,307.293059 L808.46141,306.211588 L808.55345,306.205532 L810.317955,306.205532 C810.317955,306.205532 806.693271,299.383665 802.137286,290.017374 C801.644387,288.894727 801.127267,287.739381 800.577448,286.547704 L785.553112,249.51004 C785.327856,248.697423 785.095334,247.875117 784.91852,247.119419 L784.750184,247.532389 L784.583058,247.119419 C784.406244,247.875117 784.173722,248.697423 783.948466,249.51004 L768.922919,286.547704 C768.374312,287.739381 767.857191,288.894727 767.364292,290.017374 C762.808307,299.383665 759.183623,306.205532 759.183623,306.205532 L760.600556,307.293059 L773.799833,307.293059 C772.740161,312.854219 771.079806,317.939434 769.103366,322.577771 C766.802505,327.610266 763.541418,333.538457 759.009701,339.849597 L751.168625,320.519948 C750.943369,319.70612 750.710847,318.885025 750.534033,318.128117 L750.365696,318.541086 L750.198571,318.128117 C750.021757,318.885025 749.789235,319.70612 749.563979,320.519948 L734.538432,357.557612 C734.061269,358.594098 733.607927,359.602183 733.173623,360.585851 C730.338872,356.14346 728.140082,351.980146 726.455252,348.296682 C724.478812,343.659557 722.818457,338.57313 721.758785,333.013181 L734.519661,331.930499 L734.611701,331.925655 L736.376206,331.925655 C736.376206,331.925655 732.751522,325.103788 728.195537,315.736285 C727.702638,314.613638 727.185518,313.459503 726.635699,312.267826 L711.611363,275.228951 C711.386107,274.416334 711.153585,273.594028 710.976771,272.838331 L710.808435,273.2513 L710.641309,272.838331 C710.464495,273.594028 710.231973,274.416334 710.006717,275.228951 L694.98117,312.267826 C694.432562,313.459503 693.915442,314.613638 693.422543,315.736285 C688.866558,325.103788 685.241874,331.925655 685.241874,331.925655 L686.658807,333.013181 L699.858084,333.013181 C698.798412,338.57313 697.138057,343.659557 695.161617,348.296682 C694.115142,350.585555 692.870035,353.059712 691.397024,355.670979 L688.192486,347.770964 C687.96723,346.958347 687.734707,346.136041 687.557893,345.380343 L687.389557,345.793313 L687.222431,345.380343 C687.045618,346.136041 686.813095,346.958347 686.587839,347.770964 L674.591114,377.343611 C673.441204,378.384921 672.760751,378.920605 672.760751,378.920605 L672.919399,378.920605 C672.820093,379.001745 672.760751,379.048976 672.760751,379.048976 C672.760751,379.048976 671.650215,381.1441 670.545734,382.19045 L670.66805,382.19045 C670.624452,382.230415 670.58812,382.27038 670.545734,382.311556 L672.57577,382.311556 L671.562292,384.809839 C671.013685,386.001516 670.496565,387.155651 670.003666,388.278298 C665.447681,397.644589 661.822996,404.467668 661.822996,404.467668 L663.239929,405.555194 L676.439207,405.555194 C675.951428,408.11743 675.335566,410.579103 674.619831,412.942583 C667.12946,422.080088 659.682144,428.310479 655.92168,431.203622 L649.682787,429.919967 C649.327806,429.598913 648.965791,429.267562 648.597421,428.925993 L655.03625,428.925993 C654.993863,428.884817 654.95632,428.844852 654.913933,428.804887 L655.03625,428.804887 C653.931768,427.758537 652.820021,425.663413 652.820021,425.663413 C652.820021,425.663413 652.76189,425.616182 652.661373,425.535042 L652.820021,425.535042 C652.820021,425.535042 648.472337,422.111392 643.182453,415.749725 C637.231334,408.112819 633.150082,400.881616 630.419155,394.911119 C629.27659,392.228789 628.238977,389.396122 627.362337,386.40843 L641.479106,386.40843 C641.436719,386.367255 641.399176,386.32729 641.356789,386.287325 L641.479106,386.287325 C640.374624,385.240974 639.262877,383.145851 639.262877,383.145851 C639.262877,383.145851 639.204746,383.09862 639.104229,383.017479 L639.262877,383.017479 C639.262877,383.017479 637.449113,381.589203 634.739206,378.863507 L638.483564,378.546147 L638.575604,378.540092 L640.340109,378.540092 C640.340109,378.540092 636.715425,371.718224 632.15944,362.350722 C631.666541,361.228075 631.149421,360.07394 630.599602,358.882263 L621.448232,336.322504 L624.92642,336.027373 L625.01846,336.022529 L626.782966,336.022529 C626.782966,336.022529 623.158281,329.199451 618.602296,319.833159 C618.109397,318.710512 617.592277,317.556378 617.043669,316.364701 L602.018123,279.325826 C601.792866,278.513208 601.560344,277.690903 601.38353,276.935205 L601.215194,277.348175 L601.048068,276.935205 C600.871254,277.690903 600.638732,278.513208 600.413476,279.325826 L589.40632,306.459125 L576.033022,273.490483 C575.807765,272.677866 575.575243,271.85556 575.398429,271.099863 L575.230093,271.512832 L575.062967,271.099863 C574.886153,271.85556 574.653631,272.677866 574.428375,273.490483 L559.402828,310.529358 C558.854221,311.721035 558.337101,312.87517 557.844202,313.997817 C553.288217,323.36532 549.663532,330.187187 549.663532,330.187187 L551.080465,331.274713 L564.279743,331.274713 C563.22007,336.834662 561.559715,341.921089 559.583275,346.558214 C556.85356,352.528711 552.772308,359.759914 546.819977,367.39682 C541.531304,373.758487 537.18241,377.182137 537.18241,377.182137 L537.341058,377.182137 C537.241751,377.263277 537.18241,377.310508 537.18241,377.310508 C537.18241,377.310508 536.071873,379.405632 534.967392,380.451982 L535.089708,380.451982 C535.04611,380.491947 535.009779,380.531912 534.967392,380.573088 L556.449067,380.573088 C550.761444,397.293779 540.507707,410.370203 531.994174,419.057926 C530.989591,417.179711 530.105673,415.38351 529.330541,413.688875 C527.355312,409.051749 525.693746,403.965322 524.634074,398.405373 L537.39495,397.322691 L537.48699,397.317847 L539.251495,397.317847 C539.251495,397.317847 535.626811,390.494769 531.070826,381.128477 C530.577927,380.00583 530.060807,378.851696 529.510988,377.660019 L514.486652,340.621143 C514.261396,339.808526 514.028874,338.986221 513.85206,338.230523 L513.683723,338.643492 L513.516598,338.230523 C513.339784,338.986221 513.107262,339.808526 512.882006,340.621143 L497.856459,377.660019 C497.307851,378.851696 496.790731,380.00583 496.297832,381.128477 C491.741847,390.494769 488.117163,397.317847 488.117163,397.317847 L489.534096,398.405373 L502.733373,398.405373 C501.673701,403.965322 500.013346,409.051749 498.036906,413.688875 C495.30719,419.659371 491.225938,426.890574 485.273608,434.527481 C484.116197,435.919713 483.003796,437.171232 481.972138,438.276947 L476.059604,440.4059 C474.49616,438.855002 472.598242,436.840377 470.560513,434.389784 C464.609394,426.752877 460.528142,419.521674 457.797215,413.551178 C455.821986,408.912841 454.16042,403.827625 453.100748,398.266466 L465.861624,397.184994 L465.953664,397.178939 L467.718169,397.178939 C467.718169,397.178939 464.093485,390.357072 459.5375,380.99078 C459.044601,379.868133 458.527481,378.712788 457.977662,377.522322 L442.953326,340.483447 C442.72807,339.670829 442.495548,338.848524 442.318734,338.092826 L442.150398,338.505795 L441.983272,338.092826 C441.806458,338.848524 441.573936,339.670829 441.34868,340.483447 L436.155289,353.285468 C435.24938,351.473066 434.264185,349.480004 433.231106,347.356178 C432.738207,346.233531 432.221087,345.079396 431.67248,343.887719 L416.646933,306.848844 C416.421677,306.036227 416.189154,305.213921 416.01234,304.458224 L415.844004,304.871193 L415.676878,304.458224 C415.500065,305.213921 415.267542,306.036227 415.042286,306.848844 L400.695911,342.213519 C400.554684,341.902461 400.411376,341.588915 400.265853,341.272812 L385.240306,304.235147 C385.01505,303.42253 384.782528,302.600225 384.605714,301.844527 L384.437377,302.257496 L384.270252,301.844527 C384.093438,302.600225 383.860916,303.42253 383.63566,304.235147 L368.610113,341.272812 C368.061505,342.464489 367.544385,343.619834 367.051486,344.742481 C362.495501,354.108773 358.870817,360.93064 358.870817,360.93064 L360.28775,362.018166 L373.487027,362.018166 C372.427355,367.579326 370.767,372.664542 368.79056,377.302879 C366.060844,383.273375 361.979592,390.504578 356.027262,398.140274 C352.604544,402.258195 349.575443,405.145047 347.864051,406.669522 C346.947366,404.936778 346.133955,403.275911 345.414311,401.702589 C343.439082,397.064252 341.777516,391.979037 340.717844,386.417877 L353.47872,385.336405 L353.57076,385.33035 L355.335266,385.33035 C355.335266,385.33035 351.710581,378.508483 347.154596,369.142191 C346.661697,368.019544 346.144577,366.864199 345.594758,365.672522 L330.570423,328.634858 C330.345167,327.82224 330.112644,326.999935 329.93583,326.244237 L329.767494,326.657207 L329.600368,326.244237 C329.423555,326.999935 329.191032,327.82224 328.965776,328.634858 L321.781427,346.34413 C320.698481,344.280053 317.657654,338.429152 314.02464,330.960324 C313.531741,329.836465 313.014621,328.682331 312.464802,327.490654 L297.440466,290.45299 C297.21521,289.639161 296.982688,288.818067 296.805874,288.061158 L296.637538,288.475339 L296.470412,288.061158 C296.293598,288.818067 296.061076,289.639161 295.83582,290.45299 L280.810273,327.490654 C280.261666,328.682331 279.744546,329.836465 279.251647,330.960324 C274.695661,340.326615 271.070977,347.148482 271.070977,347.148482 L272.48791,348.236009 L285.687187,348.236009 C284.627515,353.797169 282.96716,358.882384 280.99072,363.51951 C280.358802,364.901656 279.654455,366.351363 278.871233,367.858025 C278.439389,366.879933 277.988713,365.877165 277.514511,364.848157 L262.488964,327.809282 C262.263708,326.996665 262.031186,326.174359 261.854372,325.418662 L261.686035,325.831631 L261.51891,325.418662 C261.342096,326.174359 261.109573,326.996665 260.884317,327.809282 L245.858771,364.848157 C245.310163,366.038623 244.793043,367.193969 244.300144,368.316616 C239.744159,377.682908 236.119474,384.504775 236.119474,384.504775 L237.536408,385.593512 L250.735685,385.593512 C249.676013,391.153461 248.015658,396.239888 246.039218,400.877014 C243.309502,406.84751 239.22825,414.078713 233.27592,421.71562 C227.987247,428.077286 223.638352,431.500936 223.638352,431.500936 L223.797,431.500936 C223.697694,431.582076 223.638352,431.629307 223.638352,431.629307 C223.638352,431.629307 222.527815,433.72322 221.423334,434.76957 L221.545651,434.76957 C221.502053,434.810746 221.465721,434.850711 221.423334,434.891887 L242.90501,434.891887 C241.823558,438.07118 240.577024,441.11872 239.20876,444.029388 L217.73528,443.304294 C210.648493,435.009198 203.300273,424.06975 198.804721,410.853555 L220.286397,410.853555 C220.24401,410.812379 220.206467,410.772415 220.16408,410.731239 L220.286397,410.731239 C219.181915,409.684888 218.070168,407.590976 218.070168,407.590976 C218.070168,407.590976 218.012037,407.543745 217.91152,407.462604 L218.070168,407.462604 C218.070168,407.462604 213.722484,404.038954 208.4326,397.676077 C202.481481,390.040381 198.400229,382.809178 195.669302,376.838682 C193.694073,372.200345 192.032507,367.115129 190.972835,361.553969 L203.733711,360.472498 L203.825751,360.466443 L205.590257,360.466443 C205.590257,360.466443 201.965572,353.644576 197.409587,344.278284 C196.916688,343.155637 196.399568,342.000292 195.849749,340.808615 L180.825414,303.77095 C180.600158,302.958333 180.367635,302.136028 180.190821,301.38033 L180.022485,301.793299 L179.855359,301.38033 C179.678545,302.136028 179.446023,302.958333 179.220767,303.77095 L164.19522,340.808615 C163.646613,342.000292 163.129493,343.155637 162.636594,344.278284 C160.650333,348.361681 158.841082,351.961466 157.432024,354.723195 C156.052535,352.014455 154.31739,348.556152 152.420869,344.656739 C151.92797,343.534092 151.41085,342.379957 150.861031,341.18828 L135.836696,304.149405 C135.61144,303.336788 135.378917,302.514482 135.202103,301.758784 L135.033767,302.171754 L134.866641,301.758784 C134.689827,302.514482 134.457305,303.336788 134.232049,304.149405 L119.206502,341.18828 C118.657895,342.379957 118.140775,343.534092 117.647876,344.656739 C113.091891,354.024241 109.467206,360.846108 109.467206,360.846108 L110.884139,361.933635 L124.083417,361.933635 C123.023744,367.493584 121.363389,372.58001 119.386949,377.217136 C116.657234,383.187632 112.575982,390.418836 106.623651,398.055742 C101.334978,404.417409 96.9860836,407.841058 96.9860836,407.841058 L97.1447317,407.841058 C97.0454252,407.922199 96.9860836,407.96943 96.9860836,407.96943 C96.9860836,407.96943 95.8755471,410.064554 94.7710659,411.110904 L94.8933823,411.110904 C94.8497844,411.150869 94.8134527,411.190834 94.7710659,411.23201 L116.252742,411.23201 C105.342356,443.306774 77.6298077,461.971539 77.6298077,461.971539 L77.6407072,461.971539 L77.6298077,461.980016 L81.5342458,462.223438 C81.4331711,462.291359 81.6532369,462.368483 82.1462206,462.453019 L11.1263523,524.595625 L0.275443352,1923.87878 L2524.34569,1914.49553 L2524.34555,427.464251 L2455.54437,391.041802 L2455.07359,391.081049 C2452.98406,387.095726 2451.10472,382.827251 2449.56152,378.290493 L2471.04319,378.290493 C2471.00081,378.249317 2470.96326,378.209353 2470.92088,378.168177 L2471.04319,378.168177 C2469.93871,377.121826 2468.82696,375.026703 2468.82696,375.026703 C2468.82696,375.026703 2468.76883,374.980683 2468.66832,374.899542 L2468.82696,374.899542 C2468.82696,374.899542 2464.47928,371.475893 2459.1894,365.113015 C2453.23828,357.477319 2449.15703,350.246116 2446.4261,344.27562 C2444.44966,339.637283 2442.7893,334.552067 2441.72963,328.990908 L2454.49051,327.909436 L2454.58255,327.903381 L2456.34705,327.903381 C2456.34705,327.903381 2452.72237,321.081514 2448.16638,311.715222 C2447.67348,310.592575 2447.15636,309.43723 2446.60655,308.245553 L2431.58221,271.207889 C2431.35695,270.395271 2431.12443,269.572966 2430.94762,268.817268 L2430.77928,269.230237 L2430.61216,268.817268 C2430.43534,269.572966 2430.20282,270.395271 2429.97756,271.207889 L2414.95202,308.245553 C2414.40341,309.43723 2413.88629,310.592575 2413.39339,311.715222 C2408.83741,321.081514 2405.21151,327.903381 2405.21151,327.903381 L2406.62965,328.990908 L2419.82893,328.990908 C2418.76926,334.552067 2417.1089,339.637283 2415.13246,344.27562 C2412.40275,350.246116 2408.3215,357.477319 2402.36917,365.113015 C2397.08049,371.475893 2392.7316,374.899542 2392.7316,374.899542 L2392.89025,374.899542 C2392.79094,374.980683 2392.7316,375.026703 2392.7316,375.026703 C2392.7316,375.026703 2391.62106,377.121826 2390.51658,378.168177 L2390.6389,378.168177 C2390.5953,378.209353 2390.55897,378.249317 2390.51658,378.290493 L2411.99826,378.290493 C2408.98859,387.138426 2404.70036,394.965923 2400.06798,401.662681 L2377.28,423.32729 L2345.68952,452.587558 C2337.49666,443.926036 2328.08021,431.404178 2322.71972,415.645211 L2344.20139,415.645211 C2344.15901,415.604036 2344.12147,415.564071 2344.07908,415.522895 L2344.20139,415.522895 C2343.09691,414.476544 2341.98517,412.382632 2341.98517,412.382632 C2341.98517,412.382632 2341.92704,412.335401 2341.82652,412.25426 L2341.98517,412.25426 C2341.98517,412.25426 2337.63748,408.830611 2332.3476,402.468944 C2326.39648,394.832038 2322.31523,387.600834 2319.5843,381.630338 C2317.60786,376.992001 2315.94751,371.906786 2314.88904,366.345626 L2327.64871,365.264154 L2327.74075,365.258099 L2329.50525,365.258099 C2329.50525,365.258099 2325.88057,358.436232 2321.32459,349.06994 C2320.83169,347.947293 2320.31457,346.791948 2319.76475,345.601482 L2304.74041,308.562607 C2304.51516,307.749989 2304.28263,306.927684 2304.10582,306.171986 L2303.93748,306.584955 L2303.77036,306.171986 C2303.59354,306.927684 2303.36102,307.749989 2303.13577,308.562607 L2288.11022,345.601482 C2287.56161,346.791948 2287.04449,347.947293 2286.55159,349.06994 C2281.99561,358.436232 2278.36971,365.258099 2278.36971,365.258099 L2279.78786,366.345626 L2292.98713,366.345626 C2291.92867,371.906786 2290.26711,376.992001 2288.29067,381.630338 C2285.94025,386.771226 2282.58779,392.846808 2277.90241,399.311263 L2274.18782,396.04951 L2272.12028,396.61887 C2271.05517,393.50188 2270.15556,390.20506 2269.49256,386.722457 L2282.25223,385.639774 L2282.34427,385.63493 L2284.10877,385.63493 C2284.10877,385.63493 2280.48409,378.811852 2275.92811,369.445561 C2275.43521,368.322913 2274.91809,367.167568 2274.36827,365.977102 L2259.34393,328.938227 C2259.32027,328.852853 2259.29652,328.767372 2259.27277,328.681873 L2261.88206,328.461071 L2263.64656,328.461071 C2263.64656,328.461071 2260.02188,321.639204 2255.46589,312.272913 C2254.973,311.149055 2254.45588,309.99492 2253.90606,308.803243 L2238.88172,271.765579 C2238.65647,270.951751 2238.42394,270.130656 2237.91167,269.373747 C2237.73485,270.130656 2237.50233,270.951751 2237.27707,271.765579 L2222.25153,308.803243 C2221.70292,309.99492 2221.1858,311.149055 2220.6929,312.272913 C2216.13692,321.639204 2212.51223,328.461071 2212.51223,328.461071 L2213.92917,329.548598 L2227.12844,329.548598 C2226.06998,335.109758 2224.40842,340.194974 2222.43198,344.832099 C2219.70226,350.802595 2215.62101,358.033799 2209.66989,365.670705 C2204.38,372.033583 2200.03111,375.456021 2200.03111,375.584393 C2200.03111,375.584393 2198.92057,377.679517 2197.81609,378.846973 L2219.29777,378.846973 C2213.43776,396.075082 2202.73068,409.433977 2194.07377,418.111344 L2160.11017,427.464251 L2159.01274,428.211061 C2156.91824,424.218968 2155.0345,419.942569 2153.48825,415.396824 L2174.96992,415.396824 C2174.92753,415.355648 2174.88999,415.315684 2174.84761,415.274508 L2174.96992,415.274508 C2173.86544,414.228157 2172.75369,412.134245 2172.75369,412.134245 C2172.75369,412.134245 2172.69556,412.087014 2172.59504,412.005873 L2172.75369,412.005873 C2172.75369,412.005873 2168.40601,408.582223 2163.11613,402.220557 C2157.16501,394.58365 2153.08375,387.352447 2150.35283,381.381951 C2148.37639,376.743614 2146.71603,371.658398 2145.65757,366.097238 L2158.41724,365.015767 L2158.50928,365.009712 L2160.27378,365.009712 C2160.27378,365.009712 2156.6491,358.187845 2152.09311,348.821553 C2151.60021,347.698906 2151.08309,346.543561 2150.53327,345.353095 L2135.50894,308.314219 C2135.28368,307.501602 2135.05116,306.679297 2134.87435,305.923599 L2134.70601,306.336568 L2134.53888,305.923599 C2134.36207,306.679297 2134.12955,307.501602 2133.90429,308.314219 L2118.87875,345.353095 C2118.33014,346.543561 2117.81302,347.698906 2117.32012,348.821553 C2112.76413,358.187845 2109.13824,365.009712 2109.13824,365.009712 L2110.55638,366.097238 L2123.75566,366.097238 C2122.6972,371.658398 2121.03563,376.743614 2119.05919,381.381951 C2116.32948,387.352447 2112.24822,394.58365 2106.29711,402.220557 C2101.00722,408.582223 2096.65833,412.005873 2096.65833,412.005873 L2096.81697,412.005873 C2096.71767,412.087014 2096.65833,412.134245 2096.65833,412.134245 C2096.65833,412.134245 2095.54779,414.228157 2094.44331,415.274508 L2094.56563,415.274508 C2094.52203,415.315684 2094.4857,415.355648 2094.44331,415.396824 L2115.92498,415.396824 C2109.5628,434.100602 2097.48719,448.244425 2088.52491,456.786335 C2083.9085,450.102908 2079.63697,442.295848 2076.63633,433.474469 L2098.11801,433.474469 C2098.07562,433.433293 2098.03808,433.393329 2097.99569,433.352153 L2098.11801,433.352153 C2097.01353,432.305802 2095.90178,430.21189 2095.90178,430.21189 C2095.90178,430.21189 2095.84365,430.164659 2095.74313,430.083518 L2095.90178,430.083518 C2095.90178,430.083518 2091.5541,426.659869 2086.26421,420.298202 C2080.31309,412.661295 2076.23184,405.430092 2073.50092,399.459596 C2071.52569,394.82247 2069.86412,389.736043 2068.80566,384.176095 L2081.56532,383.093412 L2081.65736,383.088568 L2083.42187,383.088568 C2083.42187,383.088568 2079.79719,376.26549 2075.2412,366.899198 C2074.7483,365.776551 2074.23118,364.621206 2073.68136,363.43074 L2058.65703,326.391865 C2058.43177,325.579247 2058.19925,324.756942 2058.02243,324.001244 L2057.8541,324.414213 L2057.68697,324.001244 C2057.51016,324.756942 2057.27764,325.579247 2057.05238,326.391865 L2043.54571,359.686627 L2030.55064,327.651482 C2030.32539,326.838865 2030.09287,326.016559 2029.91605,325.260861 L2029.74771,325.673831 L2029.58059,325.260861 C2029.40378,326.016559 2029.17125,326.838865 2028.946,327.651482 L2013.92045,364.689146 C2013.61095,365.361437 2013.31147,366.022164 2013.02071,366.671981 C2011.60581,363.949811 2008.98999,358.850162 2005.9631,352.627412 C2005.4702,351.504765 2004.95308,350.349419 2004.40326,349.157742 L1989.37893,312.120078 C1989.15367,311.307461 1988.92115,310.485155 1988.74433,309.729457 L1988.576,310.142427 L1988.40887,309.729457 C1988.23206,310.485155 1987.99953,311.307461 1987.77428,312.120078 L1972.74873,349.157742 C1972.20012,350.349419 1971.683,351.504765 1971.19011,352.627412 C1966.63412,361.993703 1963.00822,368.81557 1963.00822,368.81557 L1964.42637,369.903097 L1977.62565,369.903097 C1976.56597,375.464257 1974.90562,380.549472 1972.92918,385.187809 C1970.19946,391.158305 1966.11821,398.389509 1960.16588,406.025204 C1954.87721,412.388082 1950.52831,415.811731 1950.52831,415.811731 L1950.68696,415.811731 C1950.58766,415.892872 1950.52831,415.938892 1950.52831,415.938892 C1950.52831,415.938892 1949.41778,418.034015 1948.3133,419.080366 L1948.43561,419.080366 C1948.39201,419.121542 1948.35568,419.161507 1948.3133,419.202682 L1969.79497,419.202682 C1963.72621,437.043844 1952.45888,450.735961 1943.65392,459.374693 L1932.18994,457.304857 Z M723.438182,445.095176 C724.365533,443.540632 725.265585,441.936481 726.12939,440.283779 L726.704935,435.939376 C719.766176,436.290608 714.074109,436.557963 712.099528,436.649684 C713.244166,438.299197 714.475641,439.978208 715.799672,441.677301 C716.459749,442.471116 717.105156,443.219186 717.729276,443.920566 L723.438182,445.095176 Z M966.474287,406.22935 C966.004815,405.029674 965.557885,403.809651 965.13607,402.569583 L969.990586,402.569583 C969.359973,403.947046 968.701666,405.294508 968.02014,406.61144 L966.474287,406.22935 Z M1255.15496,439.150996 C1256.43989,437.406319 1257.7085,435.576308 1258.94178,433.663204 C1252.72194,434.02854 1245.88412,434.38938 1239.9705,434.688454 C1240.77308,435.997501 1241.63136,437.333811 1242.54863,438.691988 L1247.03722,438.914766 L1255.15496,439.150996 Z M2098.59012,469.329328 C2098.1431,468.844896 2097.69314,468.349299 2097.24108,467.842634 C2098.30048,467.907155 2099.38636,467.971805 2100.49025,468.036267 L2098.59012,469.329328 Z M321.455115,347.148482 L313.940229,365.672522 C313.836786,365.89722 313.734462,366.120627 313.633208,366.342767 C313.150802,365.374259 312.701803,364.432156 312.284355,363.51951 C310.309126,358.882384 308.64756,353.797169 307.587888,348.236009 L320.348764,347.154537 L320.440804,347.148482 L321.455115,347.148482 Z M315.760709,397.534383 C315.702618,397.695372 315.644097,397.85587 315.585156,398.015877 C315.52961,397.855717 315.474481,397.695219 315.419774,397.534383 L315.760709,397.534383 Z M276.970692,400.013069 C276.635524,399.200402 276.310297,398.374215 275.996507,397.534383 L277.856512,397.534383 C277.572373,398.36974 277.276837,399.195999 276.970692,400.013069 Z M350.481157,411.317752 L365.656352,411.317752 C364.054969,416.02556 362.091613,420.444473 359.907041,424.557876 C359.345421,423.922226 358.767371,423.249372 358.177609,422.539984 C355.151372,418.657114 352.608661,414.87884 350.481157,411.317752 Z M353.006429,435.717462 C352.02295,437.104496 351.026321,438.44103 350.025294,439.72603 C349.505481,438.414227 349.012492,437.077907 348.54973,435.717462 L353.006429,435.717462 Z M400.719378,378.662372 C400.499963,378.202403 400.288307,377.74912 400.084195,377.302879 C398.42281,373.401527 396.983331,369.184024 395.937992,364.633074 L404.893654,364.633074 C403.928696,369.696067 402.465637,374.366403 400.719378,378.662372 Z M157.439684,420.214758 C158.794791,417.352042 160.032656,414.356157 161.111734,411.23201 L153.816003,411.23201 C154.878305,414.355006 156.099895,417.350873 157.439683,420.214761 Z M157.407106,389.519075 C160.363695,384.930051 162.642199,380.630163 164.375667,376.838682 C166.352107,372.200345 168.012462,367.115129 169.072135,361.553969 L155.872857,361.553969 L155.333964,361.140357 L145.984117,361.933635 C147.043789,367.493584 148.705355,372.58001 150.680584,377.217136 C152.367028,380.904129 154.568419,385.071892 157.407106,389.519075 Z M1055.07088,398.597137 C1054.9753,398.684672 1054.88252,398.7691 1054.79264,398.850407 C1054.75569,398.777063 1054.7188,398.703627 1054.68199,398.630098 L1055.07088,398.597137 Z M1057.47176,396.290384 C1058.96512,394.790288 1060.73333,392.893681 1062.62131,390.622656 C1063.45977,389.546911 1064.26109,388.479217 1065.02675,387.421962 L1052.9629,387.421962 C1054.87697,391.264365 1056.47195,394.366655 1057.47176,396.290384 Z M968.200672,344.974761 C970.448745,349.411182 971.921605,352.183681 971.921605,352.183681 L970.157099,352.183681 L970.065059,352.188526 L957.305395,353.271208 C958.363856,358.831157 960.025422,363.917583 962.000651,368.554709 C963.224038,371.229342 964.71841,374.156975 966.530474,377.260743 C970.961804,371.049881 974.162827,365.218919 976.430844,360.258263 C978.407284,355.621137 980.06885,350.53471 981.127311,344.974761 L968.200672,344.974761 Z M1004.80884,352.230786 L1007.92076,344.559705 L1003.02922,344.974761 C1003.50797,347.489563 1004.1101,349.90749 1004.80884,352.230786 Z M589.129554,342.089022 C588.556174,340.478604 588.026033,338.819231 587.549242,337.110056 L590.264844,337.110056 C589.940098,338.813951 589.558938,340.473374 589.129554,342.089022 Z M734.531171,393.994391 C734.594439,393.857776 734.657006,393.721798 734.718879,393.586469 C736.210233,390.087451 737.522308,386.332616 738.531271,382.311556 L729.590671,382.311556 C730.991821,386.43071 732.670082,390.328698 734.531171,393.994391 Z M765.801522,356.592645 L765.969158,356.592645 C765.943701,356.667485 765.918152,356.742252 765.892512,356.816947 L765.801522,356.592645 Z M1066.52728,416.989709 C1068.70135,412.890315 1070.65542,408.487914 1072.2504,403.798923 L1057.47106,403.798923 C1060.29666,408.678036 1063.40357,413.085373 1066.52728,416.989713 Z M1108.02953,336.34249 C1108.16093,336.638443 1108.29055,336.93215 1108.41853,337.223653 C1109.10404,338.632935 1109.76846,339.984613 1110.40263,341.264117 C1110.82581,339.666553 1111.2018,338.026234 1111.5227,336.34249 L1108.02953,336.34249 Z M1105.60487,354.193225 L1101.98299,354.500549 C1102.281,356.06595 1102.62682,357.593816 1103.01398,359.084685 C1103.97058,357.392621 1104.83156,355.75778 1105.60487,354.193225 Z M816.176526,380.98415 C820.911674,374.202529 825.308006,366.243809 828.37586,357.224815 L806.894185,357.224815 C806.936572,357.183639 806.972903,357.143674 807.016501,357.102498 L806.894185,357.102498 C807.053816,356.951268 807.213575,356.778155 807.370088,356.592645 L803.53242,356.592645 C806.696121,365.893413 811.272606,374.066621 816.176526,380.98415 Z M1261.64488,413.15153 L1268.96106,413.15153 C1268.29836,415.099761 1267.57367,416.998517 1266.79696,418.846622 C1265.12374,417.111811 1263.3909,415.21162 1261.64488,413.15153 Z M1204.79854,381.052665 C1204.87557,381.449151 1204.95563,381.843219 1205.03865,382.234877 C1205.17843,381.842859 1205.31574,381.448785 1205.45048,381.052665 L1204.79854,381.052665 Z M1362.29308,370.293113 L1357.98576,370.658189 C1357.99563,370.71008 1358.00556,370.76193 1358.01554,370.813739 C1358.7172,371.947194 1359.46053,373.100523 1360.24762,374.270268 C1360.95233,372.975411 1361.63567,371.649514 1362.29308,370.293113 Z M1382.65263,414.439883 C1384.16158,415.842118 1385.08188,416.566823 1385.08188,416.566823 L1384.92323,416.566823 C1385.02375,416.647964 1385.08188,416.693984 1385.08188,416.693984 C1385.08188,416.693984 1386.19363,418.789108 1387.29811,419.835458 L1387.17579,419.835458 C1387.21818,419.876634 1387.25572,419.916599 1387.29811,419.957775 L1369.14986,419.957775 C1373.17955,425.406607 1377.36322,430.016815 1381.11631,433.719395 C1381.38146,433.409487 1381.64953,433.091829 1381.92006,432.766487 C1387.14661,426.059394 1390.9309,419.665227 1393.62405,414.163173 C1389.52046,414.362598 1386.62991,414.496507 1385.9456,414.528014 C1385.84266,414.532858 1385.78938,414.53528 1385.78938,414.53528 L1385.2444,414.50016 L1384.69943,414.53528 C1384.69943,414.53528 1384.64614,414.532858 1384.54441,414.528014 C1384.26326,414.515069 1383.60971,414.48484 1382.65263,414.439883 Z M1307.17483,414.994593 C1307.57229,414.388756 1307.96637,413.774378 1308.35645,413.15153 L1306.52432,413.15153 C1306.735,413.770897 1306.95194,414.385264 1307.17483,414.994593 Z M1315.58476,399.240973 C1316.32422,397.467262 1317.0156,395.647156 1317.65015,393.78169 L1311.65395,393.78169 C1312.85974,395.567687 1314.16752,397.391538 1315.58476,399.240973 Z M1485.37574,432.030479 C1486.85177,430.202913 1488.32614,428.262853 1489.77096,426.213591 C1487.25607,426.093149 1483.98552,425.933949 1480.3344,425.749923 C1482.00454,427.988926 1483.6988,430.08408 1485.37576,432.030496 Z M1429.95772,368.79256 L1423.27456,368.79256 L1426.08296,375.715425 C1427.55715,373.30302 1428.84187,370.984095 1429.95772,368.79256 Z M1507.31337,326.815357 C1506.98301,325.500357 1506.68503,324.156803 1506.4238,322.784256 L1509.03857,322.562635 L1507.31337,326.815357 Z M1473.69964,379.685703 C1474.79308,377.243467 1475.7984,374.708553 1476.69121,372.083842 L1470.3504,372.083842 C1471.36675,374.715982 1472.49213,377.250994 1473.69964,379.685703 Z M1473.98018,348.968279 C1476.39883,345.04676 1478.31816,341.365677 1479.82542,338.068968 C1481.80186,333.430631 1483.46342,328.345416 1484.52188,322.784256 L1471.32261,322.784256 L1469.90567,321.696729 C1469.90567,321.696729 1470.49901,320.580033 1471.50731,318.629931 L1461.32475,319.492974 C1462.38321,325.054134 1464.04357,330.13935 1466.02001,334.777687 C1467.94322,338.982321 1470.53613,343.812201 1473.98018,348.968279 Z M1868.44147,372.517662 C1867.67806,373.315018 1866.96783,374.025001 1866.32713,374.64528 C1863.46729,370.487249 1861.15961,366.522115 1859.31164,362.902236 L1870.97406,362.902236 C1870.33095,366.280372 1869.46521,369.483703 1868.44147,372.517662 Z M1865.7816,342.845244 L1865.68478,342.845244 L1865.59274,342.851299 L1852.83307,343.932771 C1853.89153,349.49393 1855.55189,354.579146 1857.52833,359.217483 C1857.55736,359.280961 1857.58655,359.344581 1857.61589,359.408342 C1859.05885,356.628587 1861.60601,351.654037 1864.53851,345.62534 C1864.93587,344.720314 1865.34896,343.794039 1865.7816,342.845244 Z M2046.75778,384.921 C2045.96271,388.86617 2044.8659,392.569804 2043.57272,396.040755 C2042.39977,392.715669 2041.41277,389.183219 2040.69928,385.434501 L2046.75778,384.921 Z M2013.69818,401.588102 C2009.48689,395.603073 2006.41843,389.987987 2004.22281,385.187809 C2002.24637,380.549472 2000.58602,375.464257 1999.52635,369.903097 L2012.02819,368.843578 C2007.63009,377.855757 2004.17994,384.346974 2004.17994,384.346974 L2005.59809,385.434501 L2018.79736,385.434501 C2017.7389,390.995661 2016.07734,396.080876 2014.1009,400.719213 C2013.96979,401.005966 2013.83557,401.295628 2013.69818,401.588102 Z M2252.51331,341.820562 C2251.07188,338.016275 2249.8643,333.930161 2249.03035,329.548598 L2257.77525,328.808594 C2257.76325,328.851825 2257.75126,328.895039 2257.73929,328.938227 L2252.51331,341.820562 Z"></path>
                    </g>
                </g>
            </g>
        </g>
    </g>
</svg>