<?xml version="1.0" encoding="UTF-8" standalone="no"?>
<svg width="797px" height="188px" viewBox="0 0 797 188" version="1.1" xmlns="http://www.w3.org/2000/svg" xmlns:xlink="http://www.w3.org/1999/xlink">
    <!-- Generator: Sketch 3.6.1 (26313) - http://www.bohemiancoding.com/sketch -->
    <title>header</title>
    <desc>Created with Sketch.</desc>
    <defs></defs>
    <g id="Page-1" stroke="none" stroke-width="1" fill="none" fill-rule="evenodd">
        <g id="site" transform="translate(-1102.000000, -158.000000)" fill="#FF604D">
            <g id="Header" transform="translate(1081.000000, -2.000000)">
                <g id="header" transform="translate(18.116380, 0.803774)">
                    <g id="title" transform="translate(0.883620, 0.196226)">
                        <g id="header" transform="translate(0.000000, 159.000000)">
                            <path d="M308.460426,20.3839817 L308.460426,0 L249,0 L249,20.3839809 L308.460426,20.3839817 Z" id="ü"></path>
                            <path d="M651.460426,20.3839817 L651.460426,0 L592,0 L592,20.3839809 L651.460426,20.3839817 Z" id="ü-copy"></path>
                            <path d="M199.241835,155.00487 L199.241835,150 L184,150 L184,155.004869 L199.241835,155.00487 Z" id="ü"></path>
                            <g id="Group-3" transform="translate(2.000000, 33.000000)">
                                <path d="M22.25,129.076 L17.592,125.2 L7.256,125.2 L2.632,129.076 L2.632,133.564 L9.024,133.564 L9.67,131.082 L14.498,131.082 L15.314,131.762 L15.314,134.21 L14.498,134.89 L9.5,134.89 L9.5,139.038 L14.532,139.038 L15.348,139.718 L15.348,142.438 L14.498,143.152 L9.67,143.152 L9.024,140.67 L2.632,140.67 L2.632,144.988 L7.46,149 L17.558,149 L22.42,144.988 L22.42,138.562 L20.04,136.59 L22.25,134.754 L22.25,129.076 Z M46.73,143.152 L42.14,125.2 L28.404,125.2 L28.404,130.402 L30.614,131.082 L27.146,143.152 L24.528,143.832 L24.528,149 L34.728,149 L34.728,143.832 L33.062,143.152 L33.64,141.044 L38.774,141.044 L39.386,143.152 L37.584,143.832 L37.584,149 L49.654,149 L49.654,143.832 L46.73,143.152 Z M36.122,131.626 L37.652,136.964 L34.626,136.964 L36.122,131.626 Z M83.144,131.252 L83.144,125.2 L64.138,125.2 L64.138,133.564 L70.496,133.564 L71.176,131.082 L76.106,131.082 L67.64,149 L75.222,149 L83.144,131.252 Z M103.714,149 L116.294,149 L117.008,153.624 L122.006,153.624 L122.006,143.798 L119.422,143.118 L119.422,131.082 L121.326,130.402 L121.326,125.2 L106.06,125.2 L100.586,129.756 L100.586,143.118 L98.002,143.798 L98.002,153.624 L103,153.624 L103.714,149 Z M105.652,143.798 L107.658,141.996 L107.658,131.864 L108.644,131.082 L112.35,131.082 L112.35,143.798 L105.652,143.798 Z M150.09,130.402 L150.09,125.2 L138.904,125.2 L138.904,130.402 L140.434,131.082 L140.434,134.924 L134.688,134.924 L134.688,131.082 L136.252,130.402 L136.252,125.2 L125.066,125.2 L125.066,130.402 L127.65,131.082 L127.65,143.152 L125.066,143.832 L125.066,149 L136.252,149 L136.252,143.832 L134.688,143.152 L134.688,139.004 L140.434,139.004 L140.434,143.152 L138.904,143.832 L138.904,149 L150.09,149 L150.09,143.832 L147.506,143.152 L147.506,131.082 L150.09,130.402 Z M174.128,133.564 L174.128,125.2 L153.15,125.2 L153.15,130.402 L155.734,131.082 L155.734,143.152 L153.15,143.832 L153.15,149 L174.162,149 L174.162,140.67 L169.13,140.67 L168.45,143.152 L162.738,143.152 L162.738,139.004 L168.45,139.004 L168.45,134.924 L162.738,134.924 L162.738,131.082 L168.45,131.082 L169.13,133.564 L174.128,133.564 Z M202.144,130.402 L202.144,125.2 L190.958,125.2 L190.958,130.402 L192.488,131.082 L192.488,131.524 L186.742,136.964 L186.742,131.082 L188.306,130.402 L188.306,125.2 L177.12,125.2 L177.12,130.402 L179.704,131.082 L179.704,143.152 L177.12,143.832 L177.12,149 L188.306,149 L188.306,143.832 L186.742,143.152 L186.742,142.744 L192.488,137.304 L192.488,143.152 L190.958,143.832 L190.958,149 L202.144,149 L202.144,143.832 L199.56,143.152 L199.56,131.082 L202.144,130.402 Z" id="ЗА-7-ДНЕи"></path>
                                <path d="M103.729035,23.375044 L103.729035,0.77541296 L66.2106931,0.77541296 L66.2106931,23.375044 L72.5622234,26.3292441 L60.8931329,41.9865048 L47.8946523,26.3292441 L55.8709926,23.375044 L55.8709926,0.77541296 L1.36600017,0.77541296 L1.36600017,23.375044 L13.4782207,26.3292441 L33.2713616,50.1105552 L8.6037905,78.7662965 L0.77516014,81.7204966 L0.77516014,104.172418 L38.7366319,104.172418 L38.7366319,81.7204966 L31.6465515,78.7662965 L43.9064821,62.2227758 L57.2003827,78.7662965 L48.7809123,81.7204966 L48.7809123,104.172418 L104.467585,104.172418 L104.467585,81.7204966 L93.2416243,78.7662965 L71.8236734,53.9510154 L95.6049845,26.3292441 L103.729035,23.375044 Z M213.18215,81.5727866 L201.956189,78.6185865 L201.956189,17.6143537 L181.867628,0.77541296 L136.668366,0.77541296 L116.579805,17.6143537 L116.579805,37.1120746 L144.201577,37.1120746 L147.155777,26.3292441 L167.687468,26.3292441 L171.527928,29.2834443 L171.527928,39.1800147 L132.680196,45.236125 L115.398125,58.6777356 L115.398125,86.7426369 L136.520656,104.172418 L166.062658,104.172418 L175.811518,96.0483673 L178.765718,104.172418 L213.18215,104.172418 L213.18215,81.5727866 Z M148.928297,67.688046 L171.527928,62.5181958 L171.527928,75.6643864 L167.687468,78.7662965 L149.814557,78.7662965 L146.121807,75.6643864 L146.121807,70.1991161 L148.928297,67.688046 Z M331.350155,23.375044 L331.350155,0.77541296 L282.753563,0.77541296 L282.753563,23.375044 L289.400513,26.3292441 L289.400513,28.2494742 L264.437522,51.8830753 L264.437522,26.3292441 L271.232182,23.375044 L271.232182,0.77541296 L222.63559,0.77541296 L222.63559,23.375044 L233.861551,26.3292441 L233.861551,78.7662965 L222.63559,81.7204966 L222.63559,104.172418 L271.232182,104.172418 L271.232182,81.7204966 L264.437522,78.7662965 L264.437522,76.9937764 L289.400513,53.3601753 L289.400513,78.7662965 L282.753563,81.7204966 L282.753563,104.172418 L331.350155,104.172418 L331.350155,81.7204966 L320.124195,78.7662965 L320.124195,26.3292441 L331.350155,23.375044 Z M445.52999,104.172418 L445.52999,81.7204966 L434.30403,78.7662965 L434.30403,26.3292441 L442.57579,23.375044 L442.57579,0.77541296 L376.253997,0.77541296 L352.472686,20.5685539 L352.472686,78.7662965 L341.246726,81.7204966 L341.246726,104.172418 L359.267346,104.172418 L383.048658,84.3792768 L383.196368,29.7265743 L387.479958,26.3292441 L403.580348,26.3292441 L403.580348,78.7662965 L392.354388,81.7204966 L392.354388,104.172418 L445.52999,104.172418 Z M556.607915,81.5727866 L545.381955,78.6185865 L545.381955,17.6143537 L525.293394,0.77541296 L480.094132,0.77541296 L460.005571,17.6143537 L460.005571,37.1120746 L487.627342,37.1120746 L490.581542,26.3292441 L511.113233,26.3292441 L514.953694,29.2834443 L514.953694,39.1800147 L476.105962,45.236125 L458.823891,58.6777356 L458.823891,86.7426369 L479.946422,104.172418 L509.488423,104.172418 L519.237284,96.0483673 L522.191484,104.172418 L556.607915,104.172418 L556.607915,81.5727866 Z M492.354062,67.688046 L514.953694,62.5181958 L514.953694,75.6643864 L511.113233,78.7662965 L493.240323,78.7662965 L489.547572,75.6643864 L489.547572,70.1991161 L492.354062,67.688046 Z M674.775921,23.375044 L674.775921,0.77541296 L626.179329,0.77541296 L626.179329,23.375044 L632.826279,26.3292441 L632.826279,28.2494742 L607.863288,51.8830753 L607.863288,26.3292441 L614.657948,23.375044 L614.657948,0.77541296 L566.061356,0.77541296 L566.061356,23.375044 L577.287316,26.3292441 L577.287316,78.7662965 L566.061356,81.7204966 L566.061356,104.172418 L614.657948,104.172418 L614.657948,81.7204966 L607.863288,78.7662965 L607.863288,76.9937764 L632.826279,53.3601753 L632.826279,78.7662965 L626.179329,81.7204966 L626.179329,104.172418 L674.775921,104.172418 L674.775921,81.7204966 L663.54996,78.7662965 L663.54996,26.3292441 L674.775921,23.375044 Z M796.784386,23.375044 L796.784386,0.77541296 L748.187794,0.77541296 L748.187794,23.375044 L754.834744,26.3292441 L754.834744,43.0204749 L729.871753,43.0204749 L729.871753,26.3292441 L736.666414,23.375044 L736.666414,0.77541296 L688.069821,0.77541296 L688.069821,23.375044 L699.295782,26.3292441 L699.295782,78.7662965 L688.069821,81.7204966 L688.069821,104.172418 L736.666414,104.172418 L736.666414,81.7204966 L729.871753,78.7662965 L729.871753,60.7456757 L754.834744,60.7456757 L754.834744,78.7662965 L748.187794,81.7204966 L748.187794,104.172418 L796.784386,104.172418 L796.784386,81.7204966 L785.558426,78.7662965 L785.558426,26.3292441 L796.784386,23.375044 Z" id="Хаилаин-Copy"></path>
                                <path d="M360.434,131.048 L360.434,125.2 L340.884,125.2 L340.884,138.732 L353.022,138.732 L353.668,139.31 L353.668,142.438 L352.818,143.152 L347.854,143.152 L347.174,140.67 L340.816,140.67 L340.816,144.988 L345.644,149 L355.878,149 L360.74,144.988 L360.74,136.318 L356.762,133.224 L347.922,133.224 L347.922,131.048 L360.434,131.048 Z M386.852,138.63 L386.852,135.06 L362.848,135.06 L362.848,138.63 L386.852,138.63 Z M403.376,149 L403.376,143.832 L400.112,143.152 L400.112,125.2 L396.61,125.2 L388.926,127.342 L390.354,132.238 L393.074,131.456 L393.074,143.152 L389.81,143.832 L389.81,149 L403.376,149 Z M406.776,133.564 L413.134,133.564 L413.814,131.082 L418.54,131.082 L419.424,131.762 L419.424,133.156 L418.676,133.734 L410.482,135.094 L406.504,138.188 L406.504,149 L426.428,149 L426.428,140.704 L420.104,140.704 L419.424,143.152 L413.576,143.152 L413.576,140.84 L414.222,140.262 L422.382,138.902 L426.428,135.57 L426.428,129.076 L421.804,125.2 L411.4,125.2 L406.776,129.076 L406.776,133.564 Z M467.398,130.402 L467.398,125.2 L456.212,125.2 L456.212,130.402 L457.742,131.082 L457.742,134.924 L451.996,134.924 L451.996,131.082 L453.56,130.402 L453.56,125.2 L442.374,125.2 L442.374,130.402 L444.958,131.082 L444.958,143.152 L442.374,143.832 L442.374,149 L453.56,149 L453.56,143.832 L451.996,143.152 L451.996,139.004 L457.742,139.004 L457.742,143.152 L456.212,143.832 L456.212,149 L467.398,149 L467.398,143.832 L464.814,143.152 L464.814,131.082 L467.398,130.402 Z M490.484,144.75 L490.484,129.348 L485.52,125.2 L475.422,125.2 L470.458,129.348 L470.458,144.75 L475.592,149 L485.316,149 C487.05,147.606 488.75,146.144 490.484,144.75 L490.484,144.75 Z M482.562,131.082 L483.48,131.796 L483.48,142.37 L482.528,143.152 L478.414,143.152 L477.462,142.37 L477.462,131.796 L478.38,131.082 L482.562,131.082 Z M506.124,134.958 L501.296,134.958 L500.48,134.278 L500.48,131.762 L501.296,131.082 L506.124,131.082 L506.124,134.958 Z M515.746,149 L515.746,143.832 L513.162,143.152 L513.162,131.082 L515.746,130.402 L515.746,125.2 L498.066,125.2 L493.476,129.076 L493.476,136.182 L496.842,139.038 L494.258,143.152 L492.456,143.492 L492.456,149 L498.916,149 L504.356,139.718 L506.124,139.718 L506.124,143.152 L503.54,143.832 L503.54,149 L515.746,149 Z M528.36,143.118 L528.36,139.276 L533.222,139.276 L534.106,140.024 L534.106,142.404 L533.222,143.118 L528.36,143.118 Z M521.322,143.118 L518.738,143.798 L518.738,149 L536.214,149 L541.144,144.852 L541.144,138.188 L536.214,134.074 L528.36,134.074 L528.36,131.082 L535.058,131.082 L535.738,132.884 L540.736,132.884 L540.736,125.2 L518.738,125.2 L518.738,130.402 L521.322,131.082 L521.322,143.118 Z M565.998,129.348 L561.068,125.2 L543.592,125.2 L543.592,130.402 L546.176,131.082 L546.176,143.152 L543.592,143.832 L543.592,149 L555.798,149 L555.798,143.866 L553.214,143.186 L553.214,140.806 L561.068,140.806 L565.998,136.692 L565.998,129.348 Z M558.076,131.082 L558.96,131.796 L558.96,134.176 L558.076,134.924 L553.214,134.924 L553.214,131.082 L558.076,131.082 Z M581.094,134.958 L576.266,134.958 L575.45,134.278 L575.45,131.762 L576.266,131.082 L581.094,131.082 L581.094,134.958 Z M590.716,149 L590.716,143.832 L588.132,143.152 L588.132,131.082 L590.716,130.402 L590.716,125.2 L573.036,125.2 L568.446,129.076 L568.446,136.182 L571.812,139.038 L569.228,143.152 L567.426,143.492 L567.426,149 L573.886,149 L579.326,139.718 L581.094,139.718 L581.094,143.152 L578.51,143.832 L578.51,149 L590.716,149 Z M601.324,147.878 L601.324,143.152 L594.83,143.152 L594.83,146.96 L593.028,152.808 L595.306,153.624 L601.324,147.878 Z M637.976,143.152 L633.386,125.2 L619.65,125.2 L619.65,130.402 L621.86,131.082 L618.392,143.152 L615.774,143.832 L615.774,149 L625.974,149 L625.974,143.832 L624.308,143.152 L624.886,141.044 L630.02,141.044 L630.632,143.152 L628.83,143.832 L628.83,149 L640.9,149 L640.9,143.832 L637.976,143.152 Z M627.368,131.626 L628.898,136.964 L625.872,136.964 L627.368,131.626 Z M668.032,130.402 L668.032,125.2 L656.846,125.2 L656.846,130.402 L658.376,131.082 L658.376,134.924 L652.63,134.924 L652.63,131.082 L654.194,130.402 L654.194,125.2 L643.008,125.2 L643.008,130.402 L645.592,131.082 L645.592,143.152 L643.008,143.832 L643.008,149 L654.194,149 L654.194,143.832 L652.63,143.152 L652.63,139.004 L658.376,139.004 L658.376,143.152 L656.846,143.832 L656.846,149 L668.032,149 L668.032,143.832 L665.448,143.152 L665.448,131.082 L668.032,130.402 Z M693.838,135.026 L693.838,125.2 L670.174,125.2 L670.174,135.026 L675.206,135.026 L675.886,130.708 L678.504,130.708 L678.504,143.152 L675.614,143.832 L675.614,149 L688.466,149 L688.466,143.832 L685.542,143.152 L685.542,130.708 L688.16,130.708 L688.84,135.026 L693.838,135.026 Z M718.692,143.798 L716.108,143.118 L716.108,129.076 L711.484,125.2 L701.08,125.2 L696.456,129.076 L696.456,133.564 L702.814,133.564 L703.494,131.082 L708.22,131.082 L709.104,131.762 L709.104,134.04 L700.162,135.434 L696.184,138.528 L696.184,144.988 L701.046,149 L707.846,149 L710.09,147.13 L710.77,149 L718.692,149 L718.692,143.798 Z M703.902,140.602 L709.104,139.412 L709.104,142.438 L708.22,143.152 L704.106,143.152 L703.256,142.438 L703.256,141.18 L703.902,140.602 Z M744.09,149 L744.09,143.832 L741.506,143.152 L741.506,131.082 L743.41,130.402 L743.41,125.2 L728.144,125.2 L722.67,129.756 L722.67,143.152 L720.086,143.832 L720.086,149 L724.234,149 L729.708,144.444 L729.742,131.864 L730.728,131.082 L734.434,131.082 L734.434,143.152 L731.85,143.832 L731.85,149 L744.09,149 Z M772.174,130.402 L772.174,125.2 L760.988,125.2 L760.988,130.402 L762.518,131.082 L762.518,131.524 L756.772,136.964 L756.772,131.082 L758.336,130.402 L758.336,125.2 L747.15,125.2 L747.15,130.402 L749.734,131.082 L749.734,143.152 L747.15,143.832 L747.15,149 L758.336,149 L758.336,143.832 L756.772,143.152 L756.772,142.744 L762.518,137.304 L762.518,143.152 L760.988,143.832 L760.988,149 L772.174,149 L772.174,143.832 L769.59,143.152 L769.59,131.082 L772.174,130.402 Z M787.882,134.958 L783.054,134.958 L782.238,134.278 L782.238,131.762 L783.054,131.082 L787.882,131.082 L787.882,134.958 Z M797.504,149 L797.504,143.832 L794.92,143.152 L794.92,131.082 L797.504,130.402 L797.504,125.2 L779.824,125.2 L775.234,129.076 L775.234,136.182 L778.6,139.038 L776.016,143.152 L774.214,143.492 L774.214,149 L780.674,149 L786.114,139.718 L787.882,139.718 L787.882,143.152 L785.298,143.832 L785.298,149 L797.504,149 Z" id="5–12-ноября,-Анталия"></path>
                            </g>
                        </g>
                    </g>
                </g>
            </g>
        </g>
    </g>
</svg>