<?xml version="1.0" encoding="UTF-8" standalone="no"?>
<svg width="797px" height="169px" viewBox="0 0 797 169" version="1.1" xmlns="http://www.w3.org/2000/svg" xmlns:xlink="http://www.w3.org/1999/xlink">
    <!-- Generator: Sketch 3.6.1 (26313) - http://www.bohemiancoding.com/sketch -->
    <title>header</title>
    <desc>Created with Sketch.</desc>
    <defs></defs>
    <g id="Page-1" stroke="none" stroke-width="1" fill="none" fill-rule="evenodd">
        <g id="site" transform="translate(-1102.000000, -127.000000)" fill="#FF604D">
            <g id="Header" transform="translate(1081.000000, -2.000000)">
                <g id="header" transform="translate(18.116380, 0.803774)">
                    <g id="title" transform="translate(0.883620, 0.196226)">
                        <g id="header-copy" transform="translate(2.000000, 128.000000)">
                            <path d="M31.8834977,28.2827736 L31.8834977,21.7037736 L17.5214977,21.7037736 L17.5214977,28.2827736 L19.6284977,29.1427736 L12.9204977,34.9907736 L12.9204977,29.1427736 L14.9844977,28.2827736 L14.9844977,21.7037736 L0.450497681,21.7037736 L0.450497681,28.2827736 L3.71849768,29.1427736 L3.71849768,44.4077736 L0.450497681,45.2677736 L0.450497681,51.8037736 L15.0704977,51.8037736 L15.0704977,45.2677736 L12.9204977,44.4077736 L12.9204977,41.2687736 L16.3604977,38.3877736 L19.7144977,44.4077736 L17.5644977,45.2677736 L17.5644977,51.8037736 L31.8834977,51.8037736 L31.8834977,45.2677736 L28.8304977,44.4077736 L22.8534977,33.1847736 L27.7124977,29.1427736 L31.8834977,28.2827736 Z M38.5484977,34.2597736 L44.6974977,39.3337736 L54.8454977,39.3337736 L54.8454977,43.3757736 L53.5554977,44.4077736 L47.8794977,44.4077736 L47.0194977,41.2687736 L39.0214977,41.2687736 L39.0214977,46.7297736 L45.1274977,51.8037736 L56.8234977,51.8037736 L63.7464977,46.0417736 L63.7464977,29.1427736 L67.0144977,28.2827736 L67.0144977,21.7037736 L52.9104977,21.7037736 L52.9104977,28.2827736 L54.8884977,29.1427736 L54.8884977,32.7977736 L48.5674977,32.7977736 L47.4924977,31.8947736 L47.4924977,29.1427736 L49.4704977,28.2827736 L49.4704977,21.7037736 L35.2804977,21.7037736 L35.2804977,28.2827736 L38.5484977,29.1427736 L38.5484977,34.2597736 Z M99.1354977,26.9497736 L92.9004977,21.7037736 L70.7984977,21.7037736 L70.7984977,28.2827736 L74.0664977,29.1427736 L74.0664977,44.4077736 L70.7984977,45.2677736 L70.7984977,51.8037736 L86.2354977,51.8037736 L86.2354977,45.3107736 L82.9674977,44.4507736 L82.9674977,41.4407736 L92.9004977,41.4407736 L99.1354977,36.2377736 L99.1354977,26.9497736 Z M89.1164977,29.1427736 L90.2344977,30.0457736 L90.2344977,33.0557736 L89.1164977,34.0017736 L82.9674977,34.0017736 L82.9674977,29.1427736 L89.1164977,29.1427736 Z M127.171498,26.6057736 L121.323498,21.7037736 L108.896498,21.7037736 L102.231498,27.2507736 L102.231498,46.0417736 L109.154498,51.8037736 L121.065498,51.8037736 C123.086498,50.1267736 125.150498,48.4497736 127.171498,46.7297736 L127.171498,41.2687736 L119.130498,41.2687736 L118.270498,44.4077736 L112.379498,44.4077736 L111.089498,43.3757736 L111.089498,30.1317736 L112.336498,29.1427736 L118.270498,29.1427736 L119.130498,32.2817736 L127.171498,32.2817736 L127.171498,26.6057736 Z" id="КУРС"></path>
                            <path d="M103.729035,87.375044 L103.729035,64.775413 L66.2106931,64.775413 L66.2106931,87.375044 L72.5622234,90.3292441 L60.8931329,105.986505 L47.8946523,90.3292441 L55.8709926,87.375044 L55.8709926,64.775413 L1.36600017,64.775413 L1.36600017,87.375044 L13.4782207,90.3292441 L33.2713616,114.110555 L8.6037905,142.766297 L0.77516014,145.720497 L0.77516014,168.172418 L38.7366319,168.172418 L38.7366319,145.720497 L31.6465515,142.766297 L43.9064821,126.222776 L57.2003827,142.766297 L48.7809123,145.720497 L48.7809123,168.172418 L104.467585,168.172418 L104.467585,145.720497 L93.2416243,142.766297 L71.8236734,117.951015 L95.6049845,90.3292441 L103.729035,87.375044 Z M213.18215,145.572787 L201.956189,142.618586 L201.956189,81.6143537 L181.867628,64.775413 L136.668366,64.775413 L116.579805,81.6143537 L116.579805,101.112075 L144.201577,101.112075 L147.155777,90.3292441 L167.687468,90.3292441 L171.527928,93.2834443 L171.527928,103.180015 L132.680196,109.236125 L115.398125,122.677736 L115.398125,150.742637 L136.520656,168.172418 L166.062658,168.172418 L175.811518,160.048367 L178.765718,168.172418 L213.18215,168.172418 L213.18215,145.572787 Z M148.928297,131.688046 L171.527928,126.518196 L171.527928,139.664386 L167.687468,142.766297 L149.814557,142.766297 L146.121807,139.664386 L146.121807,134.199116 L148.928297,131.688046 Z M331.350155,87.375044 L331.350155,64.775413 L282.753563,64.775413 L282.753563,87.375044 L289.400513,90.3292441 L289.400513,92.2494742 L264.437522,115.883075 L264.437522,90.3292441 L271.232182,87.375044 L271.232182,64.775413 L222.63559,64.775413 L222.63559,87.375044 L233.861551,90.3292441 L233.861551,142.766297 L222.63559,145.720497 L222.63559,168.172418 L271.232182,168.172418 L271.232182,145.720497 L264.437522,142.766297 L264.437522,140.993776 L289.400513,117.360175 L289.400513,142.766297 L282.753563,145.720497 L282.753563,168.172418 L331.350155,168.172418 L331.350155,145.720497 L320.124195,142.766297 L320.124195,90.3292441 L331.350155,87.375044 Z M445.52999,168.172418 L445.52999,145.720497 L434.30403,142.766297 L434.30403,90.3292441 L442.57579,87.375044 L442.57579,64.775413 L376.253997,64.775413 L352.472686,84.5685539 L352.472686,142.766297 L341.246726,145.720497 L341.246726,168.172418 L359.267346,168.172418 L383.048658,148.379277 L383.196368,93.7265743 L387.479958,90.3292441 L403.580348,90.3292441 L403.580348,142.766297 L392.354388,145.720497 L392.354388,168.172418 L445.52999,168.172418 Z M556.607915,145.572787 L545.381955,142.618586 L545.381955,81.6143537 L525.293394,64.775413 L480.094132,64.775413 L460.005571,81.6143537 L460.005571,101.112075 L487.627342,101.112075 L490.581542,90.3292441 L511.113233,90.3292441 L514.953694,93.2834443 L514.953694,103.180015 L476.105962,109.236125 L458.823891,122.677736 L458.823891,150.742637 L479.946422,168.172418 L509.488423,168.172418 L519.237284,160.048367 L522.191484,168.172418 L556.607915,168.172418 L556.607915,145.572787 Z M492.354062,131.688046 L514.953694,126.518196 L514.953694,139.664386 L511.113233,142.766297 L493.240323,142.766297 L489.547572,139.664386 L489.547572,134.199116 L492.354062,131.688046 Z M674.775921,87.375044 L674.775921,64.775413 L626.179329,64.775413 L626.179329,87.375044 L632.826279,90.3292441 L632.826279,92.2494742 L607.863288,115.883075 L607.863288,90.3292441 L614.657948,87.375044 L614.657948,64.775413 L566.061356,64.775413 L566.061356,87.375044 L577.287316,90.3292441 L577.287316,142.766297 L566.061356,145.720497 L566.061356,168.172418 L614.657948,168.172418 L614.657948,145.720497 L607.863288,142.766297 L607.863288,140.993776 L632.826279,117.360175 L632.826279,142.766297 L626.179329,145.720497 L626.179329,168.172418 L674.775921,168.172418 L674.775921,145.720497 L663.54996,142.766297 L663.54996,90.3292441 L674.775921,87.375044 Z M796.784386,87.375044 L796.784386,64.775413 L748.187794,64.775413 L748.187794,87.375044 L754.834744,90.3292441 L754.834744,107.020475 L729.871753,107.020475 L729.871753,90.3292441 L736.666414,87.375044 L736.666414,64.775413 L688.069821,64.775413 L688.069821,87.375044 L699.295782,90.3292441 L699.295782,142.766297 L688.069821,145.720497 L688.069821,168.172418 L736.666414,168.172418 L736.666414,145.720497 L729.871753,142.766297 L729.871753,124.745676 L754.834744,124.745676 L754.834744,142.766297 L748.187794,145.720497 L748.187794,168.172418 L796.784386,168.172418 L796.784386,145.720497 L785.558426,142.766297 L785.558426,90.3292441 L796.784386,87.375044 Z" id="Хаилаин"></path>
                            <path d="M544.99138,25.6057736 L539.10038,20.7037736 L526.02838,20.7037736 L520.18038,25.6057736 L520.18038,31.2817736 L528.26438,31.2817736 L529.08138,28.1427736 L535.18738,28.1427736 L536.21938,29.0027736 L536.21938,32.0987736 L535.18738,32.9587736 L528.86638,32.9587736 L528.86638,38.2047736 L535.23038,38.2047736 L536.26238,39.0647736 L536.26238,42.5047736 L535.18738,43.4077736 L529.08138,43.4077736 L528.26438,40.2687736 L520.18038,40.2687736 L520.18038,45.7297736 L526.28638,50.8037736 L539.05738,50.8037736 L545.20638,45.7297736 L545.20638,37.6027736 L542.19638,35.1087736 L544.99138,32.7867736 L544.99138,25.6057736 Z M575.95138,43.4077736 L570.14638,20.7037736 L552.77438,20.7037736 L552.77438,27.2827736 L555.56938,28.1427736 L551.18338,43.4077736 L547.87238,44.2677736 L547.87238,50.8037736 L560.77238,50.8037736 L560.77238,44.2677736 L558.66538,43.4077736 L559.39638,40.7417736 L565.88938,40.7417736 L566.66338,43.4077736 L564.38438,44.2677736 L564.38438,50.8037736 L579.64938,50.8037736 L579.64938,44.2677736 L575.95138,43.4077736 Z M562.53538,28.8307736 L564.47038,35.5817736 L560.64338,35.5817736 L562.53538,28.8307736 Z M671.11038,50.8037736 L687.02038,50.8037736 L687.92338,56.6517736 L694.24438,56.6517736 L694.24438,44.2247736 L690.97638,43.3647736 L690.97638,28.1427736 L693.38438,27.2827736 L693.38438,20.7037736 L674.07738,20.7037736 L667.15438,26.4657736 L667.15438,43.3647736 L663.88638,44.2247736 L663.88638,56.6517736 L670.20738,56.6517736 L671.11038,50.8037736 Z M673.56138,44.2247736 L676.09838,41.9457736 L676.09838,29.1317736 L677.34538,28.1427736 L682.03238,28.1427736 L682.03238,44.2247736 L673.56138,44.2247736 Z M729.76238,27.2827736 L729.76238,20.7037736 L715.61538,20.7037736 L715.61538,27.2827736 L717.55038,28.1427736 L717.55038,33.0017736 L710.28338,33.0017736 L710.28338,28.1427736 L712.26138,27.2827736 L712.26138,20.7037736 L698.11438,20.7037736 L698.11438,27.2827736 L701.38238,28.1427736 L701.38238,43.4077736 L698.11438,44.2677736 L698.11438,50.8037736 L712.26138,50.8037736 L712.26138,44.2677736 L710.28338,43.4077736 L710.28338,38.1617736 L717.55038,38.1617736 L717.55038,43.4077736 L715.61538,44.2677736 L715.61538,50.8037736 L729.76238,50.8037736 L729.76238,44.2677736 L726.49438,43.4077736 L726.49438,28.1427736 L729.76238,27.2827736 Z M760.16338,31.2817736 L760.16338,20.7037736 L733.63238,20.7037736 L733.63238,27.2827736 L736.90038,28.1427736 L736.90038,43.4077736 L733.63238,44.2677736 L733.63238,50.8037736 L760.20638,50.8037736 L760.20638,40.2687736 L753.84238,40.2687736 L752.98238,43.4077736 L745.75838,43.4077736 L745.75838,38.1617736 L752.98238,38.1617736 L752.98238,33.0017736 L745.75838,33.0017736 L745.75838,28.1427736 L752.98238,28.1427736 L753.84238,31.2817736 L760.16338,31.2817736 Z M795.59538,27.2827736 L795.59538,20.7037736 L781.44838,20.7037736 L781.44838,27.2827736 L783.38338,28.1427736 L783.38338,28.7017736 L776.11638,35.5817736 L776.11638,28.1427736 L778.09438,27.2827736 L778.09438,20.7037736 L763.94738,20.7037736 L763.94738,27.2827736 L767.21538,28.1427736 L767.21538,43.4077736 L763.94738,44.2677736 L763.94738,50.8037736 L778.09438,50.8037736 L778.09438,44.2677736 L776.11638,43.4077736 L776.11638,42.8917736 L783.38338,36.0117736 L783.38338,43.4077736 L781.44838,44.2677736 L781.44838,50.8037736 L795.59538,50.8037736 L795.59538,44.2677736 L792.32738,43.4077736 L792.32738,28.1427736 L795.59538,27.2827736 Z" id="ЗА-----ДНЕЙ"></path>
                            <path d="M306.460426,51.3839817 L306.460426,31 L247,31 L247,51.3839809 L306.460426,51.3839817 Z" id="ü"></path>
                            <path d="M787.910451,17.5048697 L787.910451,12.5 L772.668616,12.5 L772.668616,17.5048695 L787.910451,17.5048697 Z" id="ü"></path>
                            <path d="M590,16.1919905 L590,31.1919905 L590,51.3839809 L649.460426,51.3839817 L649.460426,31.1919909 L649.460426,16.1919909 L649.460426,1 L590,1 L590,16.1919905 Z M634.15,17.9 L634.15,9 L606.2,9 L606.2,21.3 L615.55,21.3 L616.55,17.65 L623.8,17.65 L611.35,44 L622.5,44 L634.15,17.9 Z" id="Combined-Shape"></path>
                        </g>
                    </g>
                </g>
            </g>
        </g>
    </g>
</svg>