<svg xmlns="http://www.w3.org/2000/svg" viewBox="0 0 3333.7 1789.6" enable-background="new 0 0 3333.7 1789.6"><symbol id="h" viewBox="-1.8 -1.8 3.6 3.6"><path fill="#AE9BCC" d="M1.8 0C1.8-1 1-1.8 0-1.8S-1.8-1-1.8 0-1 1.8 0 1.8 1.8 1 1.8 0z"/></symbol><symbol id="a" viewBox="-2.6 -1.4 5.2 2.7"><path fill="#7A826B" d="M-2.6 1.1c.3.1.7.1 1 .1.3 0 .7-.2 1-.4.4-.4.6-.9.7-1.4 0 .2.1.4.1.6l.3.6c0 .1.1.2.2.3.1.1.2.1.3.1.2.1.4.2.5.2.2.1.4.1.6.1s.4-.1.5-.3c-.3.1-.6 0-.9-.2C1.4.7 1.2.7.9.5.8.4.6-.1.6-.2.4-.4.6-.8.5-1c0-.2-.1-.3-.3-.4l-.3.9c0 .2-.1.3-.2.4-.2.4-.7.5-1 .8l-.6.3c-.2.1-.5.2-.7.1z"/></symbol><g fill="#B1BDB3"><path d="M1720.1 677.7l-29.1 3.1-51.3-2.5-9.9 2.5h-51.3l-69.3-8.7-39.6-10.5-31.5-20.4s-7.4 11.1-13 13.6-10.5-8.7-10.5-8.7l-26.6-33.4-8.7-7.4c-13 27.8-29.7 42.7-29.7 42.7h-3.7l-9.9-7.4c-13 19.8-38.4 42.1-38.4 42.1l6.8 32.2 419.4-2.5-3.7-34.7z"/><path d="M1681.2 690.1l95.3-33.4 23.5 9.9 42.7-17.3 48.8 21 27.3 9.9 9.9-8.7 37.7 11.2 53.8 9.3 56.3 4.3.6 27.8-485.6-11.7M1017.5 691.2s86-14.8 121.2-38.4c0 0 4.9 7.4 13 8 8 .6 32.2-5.6 47.6-21.7l18.6 9.9 17.9 7.4s31.2 18.2 41.4 20.4c22.9 4.9 84.7 4.3 84.7 4.3V711l-350.1 2.5 5.7-22.3z"/><path d="M2017.2 724.5l25.4-15.5 40.2-17.9 30.3-19.2 7.4 3.7 20.4 13 22.3-8.7 38.4-18.5 97.1 42 49.5 22.3M736 711.6l25.3-15.5 40.2-17.9 30.3-19.2 7.5 3.7 20.4 13 22.2-8.6 38.4-18.6 97.1 42.1 49.5 22.2"/><path d="M724 709.9h1765.3V2007H724z"/></g></svg>