<?xml version="1.0" encoding="UTF-8" standalone="no"?>
<svg width="3000px" height="3058px" viewBox="0 0 3000 3058" version="1.1" xmlns="http://www.w3.org/2000/svg" xmlns:xlink="http://www.w3.org/1999/xlink">
    <!-- Generator: Sketch 3.6.1 (26313) - http://www.bohemiancoding.com/sketch -->
    <title>hills</title>
    <desc>Created with Sketch.</desc>
    <defs></defs>
    <g id="Page-1" stroke="none" stroke-width="1" fill="none" fill-rule="evenodd">
        <g id="site" transform="translate(0.000000, -600.000000)">
            <g id="Hills" transform="translate(-1076.000000, 600.000000)">
                <path d="M3088.37206,846.958978 L3074.85241,840.875723 L2983.89459,801.481977 L2947.97581,818.861902 L2927.11912,826.972158 L2908.00071,814.806773 L2901.04848,811.330414 L2872.66075,829.289107 L2862.4377,833.849991 L2814.0374,830.127198 L2763.63442,821.437236 L2728.29446,811.010031 L2719.02513,819.120287 L2693.53423,809.851556 L2647.76545,790.154683 L2607.79035,806.375197 L2585.77604,797.106466 L2528.25183,817.275863 L2505.68544,819.676486 L2457.59956,817.359538 L2448.33023,819.676486 L2400.24435,819.676486 L2335.3581,811.566229 L2298.27984,801.717793 L2268.73355,782.600625 C2268.73355,782.600625 2261.78132,793.027831 2256.56738,795.345716 C2251.35251,797.662664 2246.71831,787.235459 2246.71831,787.235459 L2221.80622,755.952906 L2213.69544,749.001124 C2201.52927,775.070074 2185.88651,788.972702 2185.88651,788.972702 L2182.41086,788.972702 L2173.14153,782.02092 C2163.62183,796.526713 2147.00761,812.45109 2140.22997,818.692673 C2131.55408,818.092587 2123.6858,817.248475 2118.20429,816.063489 C2108.57718,813.981606 2079.38774,796.946321 2079.38774,796.946321 L2062.58643,789.994538 L2045.20632,780.725807 C2030.72305,795.787847 2008.12806,801.580218 2000.59702,801.001449 C1993.06505,800.421744 1988.43085,793.469961 1988.43085,793.469961 C1957.40827,814.15034 1884.46044,827.673229 1875.73692,829.235595 L1874.83373,828.829183 L1783.87591,789.436373 L1747.95714,806.816297 L1727.10044,814.926554 L1707.98204,802.761169 L1701.0298,799.284809 L1672.64207,817.243503 L1634.985,834.043722 L1613.80174,846.958978 L1600,846.958978 L1600,2061.69095 L3253.33971,2061.69095 L3253.33971,846.958978 L3088.37206,846.958978 L3088.37206,846.958978 Z" id="Combined-Shape" fill="#D6E9E5"></path>
                <path d="M1488.37206,846.958978 L1474.85241,840.875723 L1383.89459,801.481977 L1347.97581,818.861902 L1327.11912,826.972158 L1308.00071,814.806773 L1301.04848,811.330414 L1272.66075,829.289107 L1262.4377,833.849991 L1214.0374,830.127198 L1163.63442,821.437236 L1128.29446,811.010031 L1119.02513,819.120287 L1093.53423,809.851556 L1047.76545,790.154683 L1007.79035,806.375197 L985.776039,797.106466 L928.251826,817.275863 L905.685444,819.676486 L857.599562,817.359538 L848.330231,819.676486 L800.244349,819.676486 L735.358098,811.566229 L698.279838,801.717793 L668.733554,782.600625 C668.733554,782.600625 661.781322,793.027831 656.567382,795.345716 C651.352505,797.662664 646.718308,787.235459 646.718308,787.235459 L621.806221,755.952906 L613.69544,749.001124 C601.529267,775.070074 585.886511,788.972702 585.886511,788.972702 L582.410863,788.972702 L573.141533,782.02092 C563.621833,796.526713 547.007611,812.45109 540.229975,818.692673 C531.554081,818.092587 523.685803,817.248475 518.204288,816.063489 C508.577184,813.981606 479.387736,796.946321 479.387736,796.946321 L462.58643,789.994538 L445.206318,780.725807 C430.723048,795.787847 408.128059,801.580218 400.59702,801.001449 C393.065045,800.421744 388.430848,793.469961 388.430848,793.469961 C357.408274,814.15034 284.460436,827.673229 275.736921,829.235595 L274.833735,828.829183 L183.875911,789.436373 L147.957137,806.816297 L127.100441,814.926554 L107.982036,802.761169 L101.029804,799.284809 L72.6420691,817.243503 L34.9850034,834.043722 L13.8017445,846.958978 L0,846.958978 L0,2061.69095 L1653.33971,2061.69095 L1653.33971,846.958978 L1488.37206,846.958978 L1488.37206,846.958978 Z" id="Combined-Shape-Copy-2" fill="#D0EDE6"></path>
                <path d="M4728.37206,846.958978 L4714.85241,840.875723 L4623.89459,801.481977 L4587.97581,818.861902 L4567.11912,826.972158 L4548.00071,814.806773 L4541.04848,811.330414 L4512.66075,829.289107 L4502.4377,833.849991 L4454.0374,830.127198 L4403.63442,821.437236 L4368.29446,811.010031 L4359.02513,819.120287 L4333.53423,809.851556 L4287.76545,790.154683 L4247.79035,806.375197 L4225.77604,797.106466 L4168.25183,817.275863 L4145.68544,819.676486 L4097.59956,817.359538 L4088.33023,819.676486 L4040.24435,819.676486 L3975.3581,811.566229 L3938.27984,801.717793 L3908.73355,782.600625 C3908.73355,782.600625 3901.78132,793.027831 3896.56738,795.345716 C3891.35251,797.662664 3886.71831,787.235459 3886.71831,787.235459 L3861.80622,755.952906 L3853.69544,749.001124 C3841.52927,775.070074 3825.88651,788.972702 3825.88651,788.972702 L3822.41086,788.972702 L3813.14153,782.02092 C3803.62183,796.526713 3787.00761,812.45109 3780.22997,818.692673 C3771.55408,818.092587 3763.6858,817.248475 3758.20429,816.063489 C3748.57718,813.981606 3719.38774,796.946321 3719.38774,796.946321 L3702.58643,789.994538 L3685.20632,780.725807 C3670.72305,795.787847 3648.12806,801.580218 3640.59702,801.001449 C3633.06505,800.421744 3628.43085,793.469961 3628.43085,793.469961 C3597.40827,814.15034 3524.46044,827.673229 3515.73692,829.235595 L3514.83373,828.829183 L3423.87591,789.436373 L3387.95714,806.816297 L3367.10044,814.926554 L3347.98204,802.761169 L3341.0298,799.284809 L3312.64207,817.243503 L3274.985,834.043722 L3253.80174,846.958978 L3240,846.958978 L3240,2061.69095 L4893.33971,2061.69095 L4893.33971,846.958978 L4728.37206,846.958978 L4728.37206,846.958978 Z" id="Combined-Shape-Copy" fill="#D6E9E5"></path>
            </g>
        </g>
    </g>
</svg>