<?xml version="1.0" encoding="UTF-8" standalone="no"?>
<svg width="3000px" height="3058px" viewBox="0 0 3000 3058" version="1.1" xmlns="http://www.w3.org/2000/svg" xmlns:xlink="http://www.w3.org/1999/xlink">
    <!-- Generator: Sketch 3.6.1 (26313) - http://www.bohemiancoding.com/sketch -->
    <title>hills</title>
    <desc>Created with Sketch.</desc>
    <defs>
        <path id="path-1" d="M0,1312.69095 L1653.33971,1312.69095 L1653.33971,0.000936519258 L0,0.000936519258 L0,1312.69095 Z"></path>
    </defs>
    <g id="Page-1" stroke="none" stroke-width="1" fill="none" fill-rule="evenodd">
        <g id="site" transform="translate(0.000000, -600.000000)">
            <g id="art" transform="translate(-670.000000, -948.000000)">
                <g id="Hills" transform="translate(670.000000, 1548.000000)">
                    <g transform="translate(524.000000, 749.000000)">
                        <path d="M932.91463,67.7798321 L905.685444,70.6764862 L857.599562,68.3595375 L848.330231,70.6764862 L800.244349,70.6764862 L735.358098,62.5662294 L698.279838,52.7177929 L668.733554,33.6006252 C668.733554,33.6006252 661.781322,44.0278307 656.567382,46.3457158 C651.352505,48.6626645 646.718308,38.2354591 646.718308,38.2354591 L621.806221,6.95290628 L613.69544,0.00112382311 C601.529267,26.0700739 585.886511,39.9727023 585.886511,39.9727023 L582.410863,39.9727023 L573.141533,33.0209198 C560.97536,51.5593185 537.221822,72.4146659 537.221822,72.4146659 L543.594312,102.538744 L936.390278,100.220859 L932.91463,67.7798321 L932.91463,67.7798321 Z" id="Fill-1" fill="#D6E9E5"></path>
                        <path d="M896.556507,79.3890185 L985.776039,48.1064657 L1007.79035,57.3751968 L1047.76545,41.1546832 L1093.53423,60.8515563 L1119.02513,70.1202874 L1128.29446,62.0100306 L1163.63442,72.437236 L1214.0374,81.1271982 L1266.75842,85.1823266 L1267.33723,111.251277 L812.551851,100.244366 L896.556507,79.3890185 Z" id="Fill-3" fill="#D6E9E5"></path>
                        <path d="M274.878972,80.387348 C274.878972,80.387348 355.40798,66.4837831 388.430848,44.4699614 C388.430848,44.4699614 393.065045,51.4217439 400.59702,52.0014493 C408.128059,52.5802182 430.723048,46.7878466 445.206318,31.7258073 L462.58643,40.9945384 L479.387736,47.9463209 C479.387736,47.9463209 508.577184,64.9816062 518.204288,67.0634885 C539.639791,71.6973858 597.57381,71.1186169 597.57381,71.1186169 L597.57381,98.9248102 L269.665032,101.242695 L274.878972,80.387348 Z" id="Fill-5" fill="#D6E9E5"></path>
                        <path d="M1211.25014,111.57166 L1235.00368,97.0893261 L1272.66075,80.2891071 L1301.04848,62.3304138 L1308.00071,65.8067733 L1327.11912,77.9721585 L1347.97581,69.8619017 L1383.89459,52.4819773 L1474.85241,91.8757234 L1521.2,112.730134 L1211.25014,111.57166 Z" id="Fill-7" fill="#D6E9E5"></path>
                        <path d="M11.2314655,99.5260556 L34.9850034,85.0437218 L72.6420691,68.2435028 L101.029804,50.2848095 L107.982036,53.761169 L127.100441,65.9265541 L147.957137,57.8162974 L183.875911,40.436373 L274.833735,79.8291825 L321.181325,100.68453 L11.2314655,99.5260556 Z" id="Fill-9" fill="#D6E9E5"></path>
                        <mask id="mask-2" fill="white">
                            <use xlink:href="#path-1"></use>
                        </mask>
                        <g id="Clip-12"></g>
                        <path d="M0,1312.69095 L1653.33971,1312.69095 L1653.33971,97.9589779 L0,97.9589779 L0,1312.69095 Z" id="Fill-11" fill="#D6E9E5" mask="url(#mask-2)"></path>
                    </g>
                </g>
            </g>
        </g>
    </g>
</svg>