<?xml version="1.0" encoding="UTF-8" standalone="no"?>
<svg width="3000px" height="3058px" viewBox="0 0 3000 3058" version="1.1" xmlns="http://www.w3.org/2000/svg" xmlns:xlink="http://www.w3.org/1999/xlink">
    <!-- Generator: Sketch 3.6.1 (26313) - http://www.bohemiancoding.com/sketch -->
    <title>rocks</title>
    <desc>Created with Sketch.</desc>
    <defs></defs>
    <g id="Page-1" stroke="none" stroke-width="1" fill="none" fill-rule="evenodd">
        <g id="site" transform="translate(0.000000, -600.000000)">
            <g id="Rocks" transform="translate(0.000000, 600.000000)">
                <g transform="translate(160.000000, 27.000000)">
                    <path d="M1824.68557,275.991134 L1815.60963,257.085874 L1834.51785,244.986079 L1851.91274,255.194946 L1853.0469,264.647576 L1847.75327,272.209948 L1824.68557,275.991134 Z" id="Fill-1" fill="#657C7A" transform="translate(1834.328265, 260.488606) rotate(-2.000000) translate(-1834.328265, -260.488606) "></path>
                    <path d="M1890.51152,2.25474921 L1886.13299,3.56828431 L1879.12907,16.2628877 L1855.92472,52.1590357 L1866.43226,115.633392 L1869.4971,176.919417 L1863.80554,250.462647 L1873.87497,274.976387 L1887.8848,314.81247 L1891.82454,339.32688 L1935.90934,433.96906 L1955.69514,295.481199 L1975.48161,275.697793 L1981.80356,238.903404 L1981.1859,216.683159 L1976.24799,209.276857 L1978.51162,119.573328 L1973.69563,111.256059 L1949.17758,43.8417663 L1949.6157,25.4562938 L1946.98898,15.8254892 L1923.34718,18.0138213 L1890.51152,2.25474921 Z" id="Fill-2" fill="#768E88" transform="translate(1918.864137, 218.111905) rotate(-2.000000) translate(-1918.864137, -218.111905) "></path>
                    <path d="M1903.65742,241.972655 L1910.84221,207.942651 L1910.08588,180.718782 L1950.54846,176.937596 L1978.53196,170.132131 L2005.0028,166.350945 L2008.40661,190.171412 L1928.23777,242.350438 L1902.14476,242.728892 L1903.65742,241.972655 Z" id="Fill-3" fill="#667E78" transform="translate(1955.275686, 204.539919) rotate(-2.000000) translate(-1955.275686, -204.539919) "></path>
                    <path d="M1881.50269,272.250558 L1901.9229,238.599008 L1903.43556,218.936841 L1915.91465,186.041528 L1959.78105,201.544056 L1978.31077,201.544056 L1994.57083,197.385086 L2030.11762,264.688186 L2046.00052,328.967008 L1964.69685,400.807532 L1881.50269,272.250558 Z" id="Fill-4" fill="#6A817E" transform="translate(1963.751607, 293.424530) rotate(-2.000000) translate(-1963.751607, -293.424530) "></path>
                    <path d="M1948.49235,405.739582 L2026.60189,328.709222 L2050.14254,314.800888 L2135.74235,340.477451 L2129.32193,586.547254 L2033.02231,661.43818 L1954.9121,517.006254 L1948.49235,405.739582 Z" id="Fill-5" fill="#78908A" transform="translate(2042.117351, 488.119534) rotate(-2.000000) translate(-2042.117351, -488.119534) "></path>
                    <path d="M2112.75176,422.799644 L2089.21178,387.494285 L2100.98143,365.026873 L2117.03181,274.088179 L2117.03181,246.271511 L2191.93181,193.847327 L2222.96139,166.031329 L2234.73172,178.869276 L2251.85195,188.498071 L2252.92179,213.105587 L2264.69145,331.860949 L2279.67131,401.401949 L2288.23143,458.105002 L2300.00175,496.620852 L2249.71158,529.786777 L2171.60137,491.271596 L2112.75176,422.799644 Z" id="Fill-6" fill="#758D87" transform="translate(2194.606765, 347.909053) rotate(-2.000000) translate(-2194.606765, -347.909053) "></path>
                    <path d="M1767.28547,843.992487 L1779.62924,797.659723 L1768.82827,624.169846 L1767.28547,567.087 L1754.9417,526.974947 L1779.62924,494.576647 L1799.68769,451.37869 L1810.48866,361.897544 L1825.91803,270.873781 L1946.26944,263.160028 L1960.15601,304.814698 L1967.8707,368.068681 L1988.52672,404.870438 L2003.50658,416.639337 L1999.22653,434.82721 L1999.22653,464.783313 L2046.30649,617.774317 L2079.47643,773.975812 L2033.46632,821.05007 L2079.47643,1110.81048 L1767.28547,843.992487 Z" id="Fill-7" fill="#758D87" transform="translate(1917.209065, 686.985254) rotate(-2.000000) translate(-1917.209065, -686.985254) "></path>
                    <path d="M2105.94657,439.806802 L2098.45697,454.784853 L2093.1064,503.999216 L2067.42672,574.609933 L2048.16613,612.056066 L1966.84638,923.387999 L2263.23617,1605.96474 L2328.5062,1377.01309 L2356.32624,1218.67216 L2376.65601,1156.61919 L2390.56603,1125.59337 L2376.65601,1060.33123 L2371.30611,961.90318 L2371.30611,877.383459 L2323.1563,719.042529 L2312.45649,658.060607 L2315.66603,577.819755 L2300.68616,552.143191 L2285.70563,520.046984 L2241.83655,506.13865 L2135.9063,417.33939 L2105.94657,439.806802 Z" id="Fill-8" fill="#6D8781" transform="translate(2178.706205, 1011.652066) rotate(-2.000000) translate(-2178.706205, -1011.652066) "></path>
                    <path d="M715.092322,818.055561 L796.755067,813.218054 L832.846488,819.984669 L864.426733,815.473369 L902.773742,720.745451 L882.472108,583.163198 L864.426733,569.630639 L885.818981,404.983936 L903.865026,335.065153 L888.074569,271.912984 L831.682184,267.402354 L775.289129,129.820771 L703.106956,105.010967 L577.254244,22.4304013 L552.188878,29.1179763 L522.64985,114.032227 L443.699573,260.635739 L466.256795,310.255348 L473.024229,398.217322 L423.398609,452.348231 L560.996859,474.90272 L562.161163,788.40825 L715.092322,818.055561 Z" id="Fill-10" fill="#425C59"></path>
                    <path d="M491,1021.78906 L622.184799,1268.61975 L736.380798,1121.74701 L751.527473,1121.747 L803.027503,1076.31114 L845.438859,1049.05043 L857.556198,1018.76009 L836.350855,864.279383 L842.409524,734.031761 L869.674206,643.160719 L818.174177,576.522089 L757.586813,522 L736.3808,534.115871 L690.94011,621.957945 L633.38141,709.799349 L569.764042,767.351076 L569.764042,837.018674 L506.146673,997.556643 L491,1021.78906 Z" id="Fill-13" fill="#405955"></path>
                    <path d="M680.143616,2178 L0.101806641,2178 L0.101806641,1387.71143 L150,780.83178 L210.588034,641.496584 L240.882051,496.103454 L262.087394,417.348283 L307.528754,381 L425.518728,399.098786 L572.174836,446.631207 L608.840371,436.767972 L661.967613,535.480704 L646.820269,632.409681 L680.143621,777.802812 L635.104553,1223.81818 L734.521179,1974.41162 L680.143616,2178 Z" id="Fill-11" fill="#416261"></path>
                    <path d="M748.898458,116.10997 C748.898458,116.10997 739.259118,111.105676 735.464076,102.504399 L742.936256,102.504399 C742.921518,102.493682 742.90879,102.482964 742.894052,102.472247 L742.936256,102.472247 C742.552397,102.191589 742.165859,101.629602 742.165859,101.629602 C742.165859,101.629602 742.145092,101.617545 742.110257,101.595441 L742.165859,101.595441 C742.165859,101.595441 740.653202,100.677775 738.813628,98.9717195 C736.743605,96.9240516 735.323395,94.984896 734.374132,93.3840042 C733.686804,92.1408011 733.108671,90.7770288 732.74022,89.285989 L737.331786,89.285989 L737.82484,88.9939435 C737.82484,88.9939435 736.564069,87.1646398 734.979061,84.6534501 C734.807564,84.3520269 734.628028,84.0425658 734.437103,83.7230573 L729.210462,73.7921693 C729.132083,73.5738049 729.051694,73.3534311 728.990062,73.1504729 L728.93178,73.2616645 L728.873498,73.1504729 C728.811866,73.3534311 728.730807,73.5738049 728.652427,73.7921693 L723.426456,83.7230573 C723.235532,84.0425658 723.055326,84.3520269 722.883829,84.6534501 C721.299491,87.1646398 720.03872,88.9939435 720.03872,88.9939435 L720.652357,88.9939435 L720.684513,88.9959529 L725.122669,89.285989 C724.754219,90.7770288 724.176756,92.1408011 723.489428,93.3840042 C722.539495,94.984896 721.119955,96.9240516 719.049932,98.9717195 C717.209688,100.677775 715.6977,101.595441 715.6977,101.595441 L715.752633,101.595441 C715.717798,101.617545 715.6977,101.629602 715.6977,101.629602 C715.6977,101.629602 715.311162,102.191589 714.926634,102.472247 L714.969508,102.472247 C714.95477,102.482964 714.941372,102.493682 714.926634,102.504399 L722.398814,102.504399 C718.603772,111.105676 708.964431,116.10997 708.964431,116.10997 L708.968451,116.10997 L708.964431,116.11198 L710.323009,116.177623 C709.87417,116.410054 727.580571,117.043042 728.687932,117.081892 C728.723438,117.083232 728.742195,117.083902 728.742195,117.083902 L728.93178,117.075194 L729.121364,117.083902 C729.121364,117.083902 729.139452,117.083232 729.174957,117.081892 C730.282319,117.043042 747.98872,116.410054 747.54055,116.177623 L748.898458,116.11198 L748.895109,116.10997 L748.898458,116.10997 Z" id="Fill-16" fill="#425C59"></path>
                    <path d="M759.328293,122.247816 C759.328293,122.247816 753.270293,119.102298 750.884743,113.696776 L755.580814,113.696776 C755.572106,113.690078 755.563397,113.68338 755.554688,113.676681 L755.580814,113.676681 C755.339647,113.499846 755.096469,113.146846 755.096469,113.146846 C755.096469,113.146846 755.083741,113.139478 755.062304,113.125412 L755.096469,113.125412 C755.096469,113.125412 754.146536,112.548689 752.989601,111.476292 C751.688635,110.18955 750.796314,108.970461 750.199424,107.964378 C749.768002,107.183357 749.404911,106.325976 749.173122,105.388884 L752.058426,105.388884 L752.368594,105.205351 C752.368594,105.205351 751.57609,104.055924 750.579933,102.477137 C750.472078,102.288245 750.358863,102.093325 750.238949,101.893046 L746.954378,95.6509072 C746.905475,95.514262 746.854562,95.3756074 746.815707,95.2483398 L746.778862,95.3180021 L746.742687,95.2483398 C746.703832,95.3756074 746.652919,95.514262 746.604015,95.6509072 L743.319445,101.893046 C743.198861,102.093325 743.086316,102.288245 742.97846,102.477137 C741.982304,104.055924 741.1898,105.205351 741.1898,105.205351 L741.575668,105.205351 L741.595765,105.206691 L744.385272,105.388884 C744.153483,106.325976 743.790392,107.183357 743.3583,107.964378 C742.762079,108.970461 741.869759,110.18955 740.568793,111.476292 C739.411858,112.548689 738.461255,113.125412 738.461255,113.125412 L738.49609,113.125412 C738.474653,113.139478 738.461255,113.146846 738.461255,113.146846 C738.461255,113.146846 738.218747,113.499846 737.97691,113.676681 L738.003706,113.676681 C737.994327,113.68338 737.986288,113.690078 737.97691,113.696776 L742.673651,113.696776 C740.2881,119.102298 734.230101,122.247816 734.230101,122.247816 L734.232111,122.247816 L734.230101,122.249156 L735.083567,122.290015 C734.801534,122.436038 745.930086,122.833917 746.626122,122.8587 C746.648229,122.85937 746.660288,122.86004 746.660288,122.86004 L746.778862,122.854012 L746.898106,122.86004 C746.898106,122.86004 746.910164,122.85937 746.932271,122.8587 C747.628308,122.833917 758.75619,122.436038 758.474827,122.290015 L759.328293,122.249156 L759.325613,122.247816 L759.328293,122.247816 Z" id="Fill-18" fill="#425C59"></path>
                    <g id="slack" transform="translate(1346.500000, 292.951935) scale(-1, 1) translate(-1346.500000, -292.951935) translate(881.000000, 270.951935)">
                        <path d="M0.303729921,7.76813531 L204.964405,43.7851508 L930.865313,1.1341483 L930.853581,0.934492683 L204.975871,43.5868364 L0.338394044,7.57116222 L0.303729921,7.76813531 L0.303729921,7.76813531 Z" fill="#425C59"></path>
                        <path d="M197.715996,41.6574008 C197.779676,41.5636247 197.890241,41.4705184 197.89164,41.3760725 C197.89234,41.3010516 197.759382,41.2246911 197.685206,41.1483306 C197.628524,41.2226816 197.571143,41.2977025 197.487869,41.4062148 C197.57954,41.5066892 197.647418,41.5823799 197.715996,41.6574008 M201.545873,18.2656247 C201.592059,18.3084937 201.697725,18.3480137 201.740411,18.3259093 C201.801292,18.2944273 201.873369,18.1986417 201.864272,18.1417063 C201.824385,17.8791332 201.770502,17.61723 201.689328,17.3640345 C201.671133,17.3070991 201.522781,17.2575317 201.437408,17.2622205 C201.376528,17.2655696 201.30515,17.3586759 201.270162,17.4263287 C201.24287,17.4779055 201.264563,17.5535962 201.264563,17.6038334 C201.232374,17.883822 201.356934,18.0914691 201.545873,18.2656247 M199.236611,17.3004008 C199.196024,17.2950421 199.172931,17.2983913 199.164534,17.2896835 C198.92591,17.0418467 198.92591,17.0418467 198.762162,17.3734121 C198.747467,17.4028846 198.718776,17.4283381 198.714577,17.4584805 C198.695684,17.5931161 198.683787,17.7284216 198.669092,17.8637271 C198.821643,17.8690858 199.022479,17.9367385 199.116949,17.8690858 C199.369568,17.6882319 199.599795,17.4665184 199.793633,17.2267195 C199.935688,17.0518941 199.816026,16.8475962 199.510223,16.6359302 C199.178529,16.7598486 199.329681,17.0840459 199.236611,17.3004008 M195.934365,43.3004918 C196.082718,43.2837461 196.238768,43.2897746 196.375224,43.2422167 C196.485789,43.2040364 196.623645,43.119638 196.660033,43.0245222 C196.813984,42.6259738 196.932247,42.2153685 197.068003,41.8107917 C197.091096,41.7417992 197.132383,41.6788353 197.168071,41.6145317 C197.308027,41.3559776 197.371006,41.0900554 197.318523,40.7939909 C197.292632,40.6479681 197.315724,40.4865393 197.351413,40.3398467 C197.488569,39.7725013 197.636222,39.2064956 197.788073,38.6424994 C197.932927,38.1032869 198.095275,37.5680934 198.233831,37.0275412 C198.264621,36.9083116 198.252725,36.765638 198.213537,36.647748 C198.158255,36.4856493 198.068684,36.3436455 198.17435,36.1641313 C198.373087,35.8272072 198.547331,35.4762167 198.748867,35.1406323 C198.914014,34.8646626 198.985391,34.612137 198.812546,34.2999966 C198.58022,33.8800137 198.404576,33.4325677 198.198142,32.9991882 C197.989609,32.5611199 197.918232,32.0614273 197.564845,31.6896721 C197.447982,31.5670934 197.291932,31.4773362 197.179268,31.3514083 C196.668431,30.7780345 196.246466,30.1571028 196.142199,29.3867992 C196.133802,29.3204861 196.161793,29.2133135 196.212176,29.1811617 C196.571862,28.9514102 196.590756,28.619175 196.564864,28.254118 C196.526376,27.7135658 196.694323,27.2245905 197.081299,26.8300611 C197.26674,26.6411693 197.315724,26.4542869 197.274437,26.214488 C197.245746,26.0483704 197.238749,25.8782338 197.231751,25.7094368 C197.224053,25.5178657 197.232451,25.3249548 197.225453,25.1327139 C197.220555,25.0034368 197.180667,24.8734899 197.190464,24.7468922 C197.285634,23.5197651 197.385702,22.2939776 197.492068,21.0675203 C197.510262,20.8585336 197.54665,20.6482072 197.600533,20.4445791 C197.909135,19.2851047 198.216337,18.1263002 198.328301,16.9299852 C198.377985,16.4055089 198.42347,15.8803628 198.485051,15.3565564 C198.541733,14.8762888 198.635503,14.4094178 199.086159,14.0939283 C199.534016,13.781118 199.973476,13.4569207 200.415734,13.1360725 C200.482213,13.087175 200.55429,13.0389472 200.603974,12.9759833 C200.919573,12.5767651 201.226076,12.1701787 201.543074,11.7716304 C201.716619,11.5539359 201.966439,11.6055127 202.198765,11.6369947 C202.392603,11.6624482 202.414996,11.8205279 202.430391,11.9685602 C202.459082,12.2498884 202.467479,12.5245184 202.177772,12.7093913 C202.140684,12.7335051 202.114792,12.7891009 202.104995,12.8339795 C202.046214,13.1153078 201.822985,13.2097537 201.571065,13.2419055 C201.21068,13.2874539 200.979754,13.4750061 200.794313,13.7623628 C200.55569,14.1321085 200.287675,14.4837689 200.032257,14.8427973 C199.893001,15.0383875 199.734152,15.2232603 199.619389,15.4302376 C199.530517,15.5916664 199.505325,15.7845772 199.432548,15.9553837 C199.362571,16.1194918 199.42695,16.2199662 199.564806,16.3010156 C199.698463,16.3800554 199.808328,16.3767063 199.915394,16.2414008 C199.981873,16.1563324 200.088939,16.0518391 200.184108,16.0451408 C200.614471,16.0163381 201.046933,15.9922243 201.4633,16.1556626 C201.653639,16.2306835 201.765603,16.3485734 201.813188,16.5388049 C201.905559,16.9065412 202.004927,17.2729378 202.107094,17.6379947 C202.125988,17.7063173 202.164476,17.7753097 202.212761,17.8282262 C202.449985,18.0921389 202.510865,18.3875336 202.315628,18.6795791 C202.118291,18.9756436 202.117591,19.2891237 202.125988,19.6146607 C202.138584,20.107655 202.009825,20.2208562 201.498289,20.174638 C201.039235,20.1337784 200.905578,20.3005658 201.041335,20.71586 C201.270861,21.417841 201.529079,22.1151332 201.699125,22.8305108 C201.87127,23.5572755 201.632646,24.2753324 201.496889,24.9907101 C201.49549,24.9980782 201.487792,25.0047765 201.485693,25.0121446 C201.43251,25.1896493 201.335941,25.3658144 201.335241,25.5433192 C201.333141,25.9545943 201.382826,26.3658694 201.401719,26.7771446 C201.423413,27.2614311 201.549372,27.7584444 201.032937,28.1308694 C200.771921,28.3197613 200.781717,28.5769757 200.92937,28.8743799 C201.027339,29.0713097 201.140003,29.2655602 201.202983,29.4732072 C201.280658,29.729082 201.311448,29.9976835 201.366731,30.2595867 C201.381426,30.3285791 201.392622,30.4096285 201.436009,30.4605355 C201.602555,30.6574653 201.805491,30.8296114 201.951744,31.0392679 C202.212761,31.4123628 202.461181,31.796175 202.679512,32.1927139 C202.974117,32.7272376 203.24913,33.2724786 203.507347,33.823748 C203.745971,34.3314786 203.989493,34.8378694 203.958003,35.4246398 C203.918816,36.1607822 203.933511,36.898934 203.890825,37.6344065 C203.872631,37.9465469 203.943308,38.2915089 203.678093,38.5594406 C203.648702,38.5889131 203.6536,38.651877 203.648002,38.7001047 C203.59272,39.1174083 203.545135,39.5360516 203.482855,39.9520156 C203.420575,40.3679795 203.12317,40.5026152 202.763485,40.2668353 C202.561249,40.1348789 202.389104,40.1295203 202.174973,40.2333438 C201.927951,40.3525734 201.664835,40.3646304 201.428311,40.1971731 C201.202983,40.0384235 201.220477,39.8073324 201.252667,39.5769112 C201.291155,39.2962528 201.345737,39.0162641 201.366731,38.734266 C201.405918,38.2104596 201.428311,37.6859833 201.451404,37.161507 C201.457702,37.0248619 201.4633,36.8815184 201.426212,36.7529112 C201.405218,36.6825791 201.296053,36.5908125 201.224676,36.588803 C201.135804,36.5861237 200.99235,36.6464083 200.96296,36.7154008 C200.819505,37.0483059 200.706142,37.3932679 200.583681,37.7348808 C200.548692,37.8346854 200.517902,37.9364994 200.49061,38.0383135 C200.42973,38.2700744 200.373748,38.5038448 200.312167,38.7356057 C200.235192,39.0236323 200.172212,39.3170175 200.070744,39.5970061 C199.943385,39.9459871 199.768441,40.279562 199.641082,40.6292129 C199.453542,41.1416323 199.253405,41.2354083 198.729273,41.0083362 C198.45566,40.8897765 198.308707,41.1222072 198.120467,41.2159833 C198.060286,41.2454558 198.029496,41.4557822 198.075681,41.5341522 C198.259723,41.8449529 198.398978,42.2039814 198.80205,42.3366076 C199.128145,42.4437803 199.469636,42.5221503 199.775439,42.6688429 C200.063047,42.8081674 200.342958,42.9106512 200.666954,42.9066323 C200.733433,42.9059624 200.800611,42.9622281 200.86779,42.9917006 C200.864991,43.0178239 200.862192,43.0439472 200.860092,43.0700706 C200.750927,43.092175 200.641062,43.1116 200.532597,43.1357139 C199.820224,43.2931237 199.094556,43.1316949 198.365389,43.2636512 C197.577441,43.405655 196.750305,43.3467101 195.939963,43.3755127 C195.937864,43.350729 195.936465,43.3252755 195.934365,43.3004918 L195.934365,43.3004918 Z M204.831534,42.4191975 C205.170926,42.2818825 205.519415,42.346856 205.863005,42.374319 C205.996662,42.3857061 206.057543,42.6268446 205.943479,42.6831102 C205.687361,42.8103778 205.415848,42.9557307 205.138037,42.9845334 C204.809841,43.0193645 204.46905,42.9262583 204.133157,42.911522 C203.636316,42.8900875 203.138775,42.8472184 202.648931,43.0039584 C202.389314,43.0876871 202.115702,43.0923759 201.825994,43.0186947 C201.859583,42.9443436 201.863782,42.9028142 201.886875,42.8887478 C202.154889,42.7219603 202.101006,42.484171 202.101706,42.2242772 C202.103805,41.7252545 202.181481,41.2262317 202.231165,40.7272089 C202.233964,40.7004157 202.265454,40.6763019 202.289246,40.6434803 C202.429201,40.6950571 202.560759,40.7848142 202.690918,40.7841444 C202.990422,40.7814651 203.09119,40.9696871 203.201755,41.1753247 C203.269633,41.3012526 203.336812,41.440577 203.443877,41.5303342 C203.733585,41.7734822 204.049184,41.9831387 204.442459,42.0554803 C204.520134,42.0695467 204.592211,42.1157649 204.672685,42.1485865 C204.630699,42.2477213 204.597109,42.3260913 204.541827,42.4553683 C204.667087,42.4413019 204.757358,42.44867 204.831534,42.4191975 L204.831534,42.4191975 Z M202.920724,26.1465004 C203.253118,26.073489 203.546325,26.0038268 203.84163,25.9462214 C204.15513,25.8845972 204.463032,25.8926351 204.759737,26.0286104 C204.910889,26.0982727 205.026352,26.0580829 205.171206,25.9602879 C205.362245,25.8310108 205.607167,25.7760848 205.822698,25.6762803 C205.943059,25.6206844 206.062021,25.551692 206.158591,25.4652841 C206.210374,25.4190658 206.248162,25.3112233 206.227169,25.2522784 C206.208975,25.2007015 206.09701,25.1424264 206.033331,25.1484548 C205.68974,25.1819463 205.355947,25.1598419 205.00046,25.2643353 C204.509917,25.4090184 203.951495,25.4317926 203.437859,25.2241455 C203.169145,25.1156332 202.908828,24.9876958 202.636615,24.8878913 C202.568037,24.8624378 202.40219,24.9012879 202.396592,24.9300905 C202.376998,25.037933 202.377698,25.1658704 202.425283,25.2623258 C202.455373,25.3232803 202.585532,25.3353372 202.661807,25.3828951 C202.712191,25.4137072 202.74578,25.4679634 202.787067,25.5115023 C202.726187,25.5456636 202.667405,25.6032689 202.604425,25.6079577 C202.534448,25.6126465 202.460272,25.5470032 202.389594,25.5503524 C202.24544,25.5577205 202.087291,25.5617395 201.96413,25.6220241 C201.846567,25.6796294 201.855665,25.8209634 201.990721,25.8671816 C202.300023,25.9750241 202.619121,26.0574131 202.920724,26.1465004 L202.920724,26.1465004 Z M201.335731,29.2888032 C201.467289,29.1280442 201.77519,29.0898639 201.687718,28.7750442 C201.655528,28.6591638 201.601646,28.5774446 201.486882,28.6437577 C201.360223,28.7167691 201.217468,28.815234 201.162886,28.9364731 C201.121599,29.0289095 201.206972,29.1735926 201.235663,29.2948317 C201.269252,29.2928222 201.302141,29.2908127 201.335731,29.2888032 L201.335731,29.2888032 Z M201.829283,24.6319841 C201.853283,24.7607327 201.858283,24.8928694 201.912283,25.0155194 C201.931283,25.0561768 202.109283,25.1090315 202.155283,25.090058 C202.226283,25.0609202 202.302283,24.9606318 202.277283,24.915231 C202.216283,24.8007125 202.099283,24.7004242 202.004283,24.5940372 C201.946283,24.606912 201.887283,24.6191093 201.829283,24.6319841 L201.829283,24.6319841 Z" id="Combined-Shape" fill="#38504D" transform="translate(201.083721, 27.491795) scale(-1, 1) translate(-201.083721, -27.491795) "></path>
                    </g>
                </g>
            </g>
        </g>
    </g>
</svg>