<?xml version="1.0" encoding="UTF-8" standalone="no"?>
<svg width="3000px" height="3058px" viewBox="0 0 3000 3058" version="1.1" xmlns="http://www.w3.org/2000/svg" xmlns:xlink="http://www.w3.org/1999/xlink">
    <!-- Generator: Sketch 3.6.1 (26313) - http://www.bohemiancoding.com/sketch -->
    <title>rocks</title>
    <desc>Created with Sketch.</desc>
    <defs></defs>
    <g id="Page-1" stroke="none" stroke-width="1" fill="none" fill-rule="evenodd">
        <g id="site" transform="translate(0.000000, 2.000000)">
            <g id="Rocks" transform="translate(0.000000, -2.000000)">
                <g transform="translate(160.000000, 137.000000)">
                    <path d="M1824.68557,275.991134 L1815.60963,257.085874 L1834.51785,244.986079 L1851.91274,255.194946 L1853.0469,264.647576 L1847.75327,272.209948 L1824.68557,275.991134 Z" id="Fill-1" fill="#657C7A" transform="translate(1834.328265, 260.488606) rotate(-2.000000) translate(-1834.328265, -260.488606) "></path>
                    <path d="M1890.51152,2.25474921 L1886.13299,3.56828431 L1879.12907,16.2628877 L1855.92472,52.1590357 L1866.43226,115.633392 L1869.4971,176.919417 L1863.80554,250.462647 L1873.87497,274.976387 L1887.8848,314.81247 L1891.82454,339.32688 L1935.90934,433.96906 L1955.69514,295.481199 L1975.48161,275.697793 L1981.80356,238.903404 L1981.1859,216.683159 L1976.24799,209.276857 L1978.51162,119.573328 L1973.69563,111.256059 L1949.17758,43.8417663 L1949.6157,25.4562938 L1946.98898,15.8254892 L1923.34718,18.0138213 L1890.51152,2.25474921 Z" id="Fill-2" fill="#768E88" transform="translate(1918.864137, 218.111905) rotate(-2.000000) translate(-1918.864137, -218.111905) "></path>
                    <path d="M1903.65742,241.972655 L1910.84221,207.942651 L1910.08588,180.718782 L1950.54846,176.937596 L1978.53196,170.132131 L2005.0028,166.350945 L2008.40661,190.171412 L1928.23777,242.350438 L1902.14476,242.728892 L1903.65742,241.972655 Z" id="Fill-3" fill="#667E78" transform="translate(1955.275686, 204.539919) rotate(-2.000000) translate(-1955.275686, -204.539919) "></path>
                    <path d="M1881.50269,272.250558 L1901.9229,238.599008 L1903.43556,218.936841 L1915.91465,186.041528 L1959.78105,201.544056 L1978.31077,201.544056 L1994.57083,197.385086 L2030.11762,264.688186 L2046.00052,328.967008 L1964.69685,400.807532 L1881.50269,272.250558 Z" id="Fill-4" fill="#6A817E" transform="translate(1963.751607, 293.424530) rotate(-2.000000) translate(-1963.751607, -293.424530) "></path>
                    <path d="M1948.49235,405.739582 L2026.60189,328.709222 L2050.14254,314.800888 L2135.74235,340.477451 L2129.32193,586.547254 L2033.02231,661.43818 L1954.9121,517.006254 L1948.49235,405.739582 Z" id="Fill-5" fill="#78908A" transform="translate(2042.117351, 488.119534) rotate(-2.000000) translate(-2042.117351, -488.119534) "></path>
                    <path d="M2112.75176,422.799644 L2089.21178,387.494285 L2100.98143,365.026873 L2117.03181,274.088179 L2117.03181,246.271511 L2191.93181,193.847327 L2222.96139,166.031329 L2234.73172,178.869276 L2251.85195,188.498071 L2252.92179,213.105587 L2264.69145,331.860949 L2279.67131,401.401949 L2288.23143,458.105002 L2300.00175,496.620852 L2249.71158,529.786777 L2171.60137,491.271596 L2112.75176,422.799644 Z" id="Fill-6" fill="#758D87" transform="translate(2194.606765, 347.909053) rotate(-2.000000) translate(-2194.606765, -347.909053) "></path>
                    <path d="M1767.28547,843.992487 L1779.62924,797.659723 L1768.82827,624.169846 L1767.28547,567.087 L1754.9417,526.974947 L1779.62924,494.576647 L1799.68769,451.37869 L1810.48866,361.897544 L1825.91803,270.873781 L1946.26944,263.160028 L1960.15601,304.814698 L1967.8707,368.068681 L1988.52672,404.870438 L2003.50658,416.639337 L1999.22653,434.82721 L1999.22653,464.783313 L2046.30649,617.774317 L2079.47643,773.975812 L2033.46632,821.05007 L2079.47643,1110.81048 L1767.28547,843.992487 Z" id="Fill-7" fill="#758D87" transform="translate(1917.209065, 686.985254) rotate(-2.000000) translate(-1917.209065, -686.985254) "></path>
                    <path d="M2105.94657,439.806802 L2098.45697,454.784853 L2093.1064,503.999216 L2067.42672,574.609933 L2048.16613,612.056066 L1966.84638,923.387999 L2263.23617,1605.96474 L2328.5062,1377.01309 L2356.32624,1218.67216 L2376.65601,1156.61919 L2390.56603,1125.59337 L2376.65601,1060.33123 L2371.30611,961.90318 L2371.30611,877.383459 L2323.1563,719.042529 L2312.45649,658.060607 L2315.66603,577.819755 L2300.68616,552.143191 L2285.70563,520.046984 L2241.83655,506.13865 L2135.9063,417.33939 L2105.94657,439.806802 Z" id="Fill-8" fill="#6D8781" transform="translate(2178.706205, 1011.652066) rotate(-2.000000) translate(-2178.706205, -1011.652066) "></path>
                    <path d="M715.092322,818.055561 L796.755067,813.218054 L832.846488,819.984669 L864.426733,815.473369 L902.773742,720.745451 L882.472108,583.163198 L864.426733,569.630639 L885.818981,404.983936 L903.865026,335.065153 L888.074569,271.912984 L831.682184,267.402354 L775.289129,129.820771 L703.106956,105.010967 L577.254244,22.4304013 L552.188878,29.1179763 L522.64985,114.032227 L443.699573,260.635739 L466.256795,310.255348 L473.024229,398.217322 L423.398609,452.348231 L560.996859,474.90272 L562.161163,788.40825 L715.092322,818.055561 Z" id="Fill-10" fill="#425C59"></path>
                    <path d="M680.143616,2178 L0.101806641,2178 L0.101806641,1387.71143 L150,780.83178 L210.588034,641.496584 L240.882051,496.103454 L262.087394,417.348283 L307.528754,381 L425.518728,399.098786 L572.174836,446.631207 L608.840371,436.767972 L661.967613,535.480704 L646.820269,632.409681 L680.143621,777.802812 L635.104553,1223.81818 L734.521179,1974.41162 L680.143616,2178 Z" id="Fill-11" fill="#416261"></path>
                    <path d="M491,1021.78906 L524.323352,1103.57252 L675.792766,1191.4146 L709.116118,1167.18219 L751.527473,1121.747 L803.027503,1076.31114 L845.438859,1049.05043 L857.556198,1018.76009 L836.350855,864.279383 L842.409524,734.031761 L869.674206,643.160719 L818.174177,576.522089 L757.586813,522 L736.3808,534.115871 L690.94011,621.957945 L633.38141,709.799349 L569.764042,767.351076 L569.764042,837.018674 L506.146673,997.556643 L491,1021.78906 Z" id="Fill-13" fill="#406160"></path>
                    <path d="M748.898458,116.10997 C748.898458,116.10997 739.259118,111.105676 735.464076,102.504399 L742.936256,102.504399 C742.921518,102.493682 742.90879,102.482964 742.894052,102.472247 L742.936256,102.472247 C742.552397,102.191589 742.165859,101.629602 742.165859,101.629602 C742.165859,101.629602 742.145092,101.617545 742.110257,101.595441 L742.165859,101.595441 C742.165859,101.595441 740.653202,100.677775 738.813628,98.9717195 C736.743605,96.9240516 735.323395,94.984896 734.374132,93.3840042 C733.686804,92.1408011 733.108671,90.7770288 732.74022,89.285989 L737.331786,89.285989 L737.82484,88.9939435 C737.82484,88.9939435 736.564069,87.1646398 734.979061,84.6534501 C734.807564,84.3520269 734.628028,84.0425658 734.437103,83.7230573 L729.210462,73.7921693 C729.132083,73.5738049 729.051694,73.3534311 728.990062,73.1504729 L728.93178,73.2616645 L728.873498,73.1504729 C728.811866,73.3534311 728.730807,73.5738049 728.652427,73.7921693 L723.426456,83.7230573 C723.235532,84.0425658 723.055326,84.3520269 722.883829,84.6534501 C721.299491,87.1646398 720.03872,88.9939435 720.03872,88.9939435 L720.652357,88.9939435 L720.684513,88.9959529 L725.122669,89.285989 C724.754219,90.7770288 724.176756,92.1408011 723.489428,93.3840042 C722.539495,94.984896 721.119955,96.9240516 719.049932,98.9717195 C717.209688,100.677775 715.6977,101.595441 715.6977,101.595441 L715.752633,101.595441 C715.717798,101.617545 715.6977,101.629602 715.6977,101.629602 C715.6977,101.629602 715.311162,102.191589 714.926634,102.472247 L714.969508,102.472247 C714.95477,102.482964 714.941372,102.493682 714.926634,102.504399 L722.398814,102.504399 C718.603772,111.105676 708.964431,116.10997 708.964431,116.10997 L708.968451,116.10997 L708.964431,116.11198 L710.323009,116.177623 C709.87417,116.410054 727.580571,117.043042 728.687932,117.081892 C728.723438,117.083232 728.742195,117.083902 728.742195,117.083902 L728.93178,117.075194 L729.121364,117.083902 C729.121364,117.083902 729.139452,117.083232 729.174957,117.081892 C730.282319,117.043042 747.98872,116.410054 747.54055,116.177623 L748.898458,116.11198 L748.895109,116.10997 L748.898458,116.10997 Z" id="Fill-16" fill="#425C59"></path>
                    <path d="M759.328293,122.247816 C759.328293,122.247816 753.270293,119.102298 750.884743,113.696776 L755.580814,113.696776 C755.572106,113.690078 755.563397,113.68338 755.554688,113.676681 L755.580814,113.676681 C755.339647,113.499846 755.096469,113.146846 755.096469,113.146846 C755.096469,113.146846 755.083741,113.139478 755.062304,113.125412 L755.096469,113.125412 C755.096469,113.125412 754.146536,112.548689 752.989601,111.476292 C751.688635,110.18955 750.796314,108.970461 750.199424,107.964378 C749.768002,107.183357 749.404911,106.325976 749.173122,105.388884 L752.058426,105.388884 L752.368594,105.205351 C752.368594,105.205351 751.57609,104.055924 750.579933,102.477137 C750.472078,102.288245 750.358863,102.093325 750.238949,101.893046 L746.954378,95.6509072 C746.905475,95.514262 746.854562,95.3756074 746.815707,95.2483398 L746.778862,95.3180021 L746.742687,95.2483398 C746.703832,95.3756074 746.652919,95.514262 746.604015,95.6509072 L743.319445,101.893046 C743.198861,102.093325 743.086316,102.288245 742.97846,102.477137 C741.982304,104.055924 741.1898,105.205351 741.1898,105.205351 L741.575668,105.205351 L741.595765,105.206691 L744.385272,105.388884 C744.153483,106.325976 743.790392,107.183357 743.3583,107.964378 C742.762079,108.970461 741.869759,110.18955 740.568793,111.476292 C739.411858,112.548689 738.461255,113.125412 738.461255,113.125412 L738.49609,113.125412 C738.474653,113.139478 738.461255,113.146846 738.461255,113.146846 C738.461255,113.146846 738.218747,113.499846 737.97691,113.676681 L738.003706,113.676681 C737.994327,113.68338 737.986288,113.690078 737.97691,113.696776 L742.673651,113.696776 C740.2881,119.102298 734.230101,122.247816 734.230101,122.247816 L734.232111,122.247816 L734.230101,122.249156 L735.083567,122.290015 C734.801534,122.436038 745.930086,122.833917 746.626122,122.8587 C746.648229,122.85937 746.660288,122.86004 746.660288,122.86004 L746.778862,122.854012 L746.898106,122.86004 C746.898106,122.86004 746.910164,122.85937 746.932271,122.8587 C747.628308,122.833917 758.75619,122.436038 758.474827,122.290015 L759.328293,122.249156 L759.325613,122.247816 L759.328293,122.247816 Z" id="Fill-18" fill="#425C59"></path>
                    <g id="slack" transform="translate(1346.500000, 293.451935) scale(-1, 1) translate(-1346.500000, -293.451935) translate(881.000000, 271.951935)">
                        <path d="M0.321061982,6.66964877 L204.981737,42.6866642 L930.859447,0.0343204934" stroke="#425C59" stroke-width="0.5"></path>
                        <g id="man" transform="translate(201.000000, 26.500000) scale(-1, 1) translate(-201.000000, -26.500000) translate(195.000000, 10.000000)" fill="#425C59">
                            <path d="M2.5485539,30.6574008 C2.61223357,30.5636247 2.72279826,30.4705184 2.72419782,30.3760725 C2.72489759,30.3010516 2.59194005,30.2246911 2.51776373,30.1483306 C2.46108183,30.2226816 2.40370015,30.2977025 2.32042674,30.4062148 C2.41209747,30.5066892 2.4799758,30.5823799 2.5485539,30.6574008 M6.37843105,7.26562467 C6.4246163,7.30849374 6.53028256,7.34801366 6.57296893,7.3259093 C6.63384949,7.29442732 6.70592648,7.19864175 6.69682938,7.14170626 C6.65694212,6.87913321 6.60305932,6.61722998 6.52188524,6.36403454 C6.50369105,6.30709905 6.35533842,6.25753169 6.26996568,6.26222049 C6.20908512,6.26556964 6.13770791,6.3586759 6.10271908,6.42632865 C6.07542779,6.4779055 6.09712087,6.5535962 6.09712087,6.6038334 C6.06493114,6.88382201 6.18949137,7.09146907 6.37843105,7.26562467 M4.06916838,6.30040076 C4.02858134,6.29504213 4.00548871,6.29839127 3.99709139,6.28968349 C3.75846758,6.04184668 3.75846758,6.04184668 3.59471987,6.37341214 C3.58002456,6.40288463 3.55133372,6.42833814 3.54713506,6.45848046 C3.52824109,6.59311613 3.51634489,6.72842163 3.50164958,6.86372713 C3.65420087,6.86908577 3.85503675,6.93673852 3.94950658,6.86908577 C4.20212593,6.68823188 4.43235242,6.46651841 4.62619052,6.22671954 C4.76824517,6.05189412 4.64858337,5.8475962 4.34278101,5.63593017 C4.01108692,5.75984858 4.16223866,6.08404592 4.06916838,6.30040076 M0.766922763,32.3004918 C0.915275395,32.2837461 1.07132557,32.2897746 1.207782,32.2422167 C1.3183467,32.2040364 1.45620268,32.119638 1.49259106,32.0245222 C1.64654191,31.6259738 1.76480415,31.2153685 1.9005608,30.8107917 C1.92365343,30.7417992 1.96494024,30.6788353 2.00062885,30.6145317 C2.14058416,30.3559776 2.20356405,30.0900554 2.15108081,29.7939909 C2.12518908,29.6479681 2.1482817,29.4865393 2.18397031,29.3398467 C2.32112652,28.7725013 2.46877937,28.2064956 2.62063089,27.6424994 C2.76548464,27.1032869 2.9278328,26.5680934 3.06638856,26.0275412 C3.09717873,25.9083116 3.08528253,25.765638 3.04609504,25.647748 C2.99081269,25.4856493 2.90124129,25.3436455 3.00690755,25.1641313 C3.2056441,24.8272072 3.37988846,24.4762167 3.58142411,24.1406323 C3.74657138,23.8646626 3.81794859,23.612137 3.64510378,23.2999966 C3.41277796,22.8800137 3.23713404,22.4325677 3.03069995,21.9991882 C2.82216654,21.5611199 2.75078933,21.0614273 2.39740216,20.6896721 C2.28053947,20.5670934 2.1244893,20.4773362 2.01182527,20.3514083 C1.50098838,19.7780345 1.07902311,19.1571028 0.974756403,18.3867992 C0.966359084,18.3204861 0.994350147,18.2133135 1.04473406,18.1811617 C1.40441921,17.9514102 1.42331318,17.619175 1.39742145,17.254118 C1.35893374,16.7135658 1.52688011,16.2245905 1.91385655,15.8300611 C2.09929734,15.6411693 2.1482817,15.4542869 2.10699489,15.214488 C2.07830405,15.0483704 2.07130628,14.8782338 2.06430852,14.7094368 C2.05661097,14.5178657 2.06500829,14.3249548 2.05801053,14.1327139 C2.05311209,14.0034368 2.01322483,13.8734899 2.0230217,13.7468922 C2.11819131,12.5197651 2.21825936,11.2939776 2.3246254,10.0675203 C2.34281959,9.85853359 2.37920797,9.64820721 2.43309077,9.44457913 C2.74169223,8.28510474 3.04889414,7.12630019 3.16085839,5.9299852 C3.21054253,5.40550892 3.25602801,4.88036281 3.31760835,4.35655636 C3.37429025,3.8762888 3.46806031,3.40941784 3.91871642,3.09392827 C4.36657342,2.78111803 4.8060331,2.45692068 5.24829189,2.13607249 C5.31477067,2.08717495 5.38684765,2.03894725 5.43653179,1.9759833 C5.75213102,1.57676509 6.05863315,1.17017875 6.37563194,0.771630361 C6.54917653,0.553935863 6.79899676,0.605512713 7.03132258,0.636994687 C7.22516069,0.662448197 7.24755354,0.820527894 7.26294863,0.968560152 C7.29163946,1.24988843 7.30003678,1.52451841 7.01032928,1.70939127 C6.97324113,1.73350512 6.94734939,1.78910095 6.93755252,1.83397951 C6.87877129,2.11530778 6.65554257,2.2097537 6.403623,2.2419055 C6.04323807,2.28745389 5.8123118,2.47500607 5.62687101,2.76236281 C5.3882472,3.13210854 5.12023278,3.48376888 4.86481433,3.84279734 C4.7255588,4.03838748 4.56670952,4.22326034 4.45194616,4.43023757 C4.36307454,4.59166641 4.33788258,4.78457723 4.26510582,4.95538368 C4.19512816,5.11949184 4.2595076,5.21996622 4.39736359,5.30101556 C4.53102091,5.38005541 4.64088583,5.37670626 4.74795165,5.24140076 C4.81443042,5.15633245 4.92149624,5.05183909 5.01666585,5.0451408 C5.44702844,5.01633814 5.87949035,4.99222429 6.29585741,5.15566262 C6.48619664,5.23068349 6.59816089,5.34857343 6.64574569,5.53880493 C6.7381162,5.90654118 6.83748447,6.27293776 6.93965185,6.63799469 C6.95854582,6.70631727 6.99703353,6.77530968 7.04531811,6.82822619 C7.28254237,7.0921389 7.34342293,7.38753359 7.14818527,7.67957913 C6.95084828,7.97564364 6.9501485,8.28912372 6.95854582,8.61466072 C6.9711418,9.10765503 6.84238291,9.22085617 6.33084624,9.17463795 C5.87179281,9.13377837 5.73813549,9.30056584 5.87389214,9.71585996 C6.10341886,10.417841 6.36163641,11.1151332 6.53168211,11.8305108 C6.70382715,12.5572755 6.46520334,13.2753324 6.32944669,13.9907101 C6.32804713,13.9980782 6.32034959,14.0047765 6.31825026,14.0121446 C6.26506724,14.1896493 6.16849808,14.3658144 6.1677983,14.5433192 C6.16569897,14.9545943 6.21538311,15.3658694 6.23427707,15.7771446 C6.25597015,16.2614311 6.38192993,16.7584444 5.86549482,17.1308694 C5.60447816,17.3197613 5.61427504,17.5769757 5.76192789,17.8743799 C5.85989661,18.0713097 5.97256064,18.2655602 6.03554053,18.4732072 C6.11321573,18.729082 6.1440059,18.9976835 6.19928824,19.2595867 C6.21398355,19.3285791 6.22517998,19.4096285 6.26856612,19.4605355 C6.43511295,19.6574653 6.63804815,19.8296114 6.78430145,20.0392679 C7.04531811,20.4123628 7.29373879,20.796175 7.51206908,21.1927139 C7.80667502,21.7272376 8.08168721,22.2724786 8.33990476,22.823748 C8.57852857,23.3314786 8.82205081,23.8378694 8.79056087,24.4246398 C8.75137338,25.1607822 8.76606869,25.898934 8.72338232,26.6344065 C8.70518813,26.9465469 8.77586556,27.2915089 8.51065024,27.5594406 C8.48125963,27.5889131 8.48615806,27.651877 8.48055985,27.7001047 C8.4252775,28.1174083 8.37769269,28.5360516 8.31541258,28.9520156 C8.25313247,29.3679795 7.95572743,29.5026152 7.59604227,29.2668353 C7.39380684,29.1348789 7.22166181,29.1295203 7.00753018,29.2333438 C6.76050905,29.3525734 6.49739306,29.3646304 6.26086858,29.1971731 C6.03554053,29.0384235 6.05303494,28.8073324 6.08522466,28.5769112 C6.12371238,28.2962528 6.17829495,28.0162641 6.19928824,27.734266 C6.23847573,27.2104596 6.26086858,26.6859833 6.28396121,26.161507 C6.2902592,26.0248619 6.29585741,25.8815184 6.25876925,25.7529112 C6.23777596,25.6825791 6.12861081,25.5908125 6.0572336,25.588803 C5.96836198,25.5861237 5.82490778,25.6464083 5.79551717,25.7154008 C5.65206297,26.0483059 5.53869917,26.3932679 5.41623827,26.7348808 C5.38124944,26.8346854 5.35045927,26.9364994 5.32316798,27.0383135 C5.26228742,27.2700744 5.2063053,27.5038448 5.14472496,27.7356057 C5.06774954,28.0236323 5.00476965,28.3170175 4.90330204,28.5970061 C4.77594271,28.9459871 4.60099857,29.279562 4.47363923,29.6292129 C4.28609911,30.1416323 4.08596302,30.2354083 3.56183037,30.0083362 C3.28821773,29.8897765 3.14126465,30.1222072 2.95302475,30.2159833 C2.89284397,30.2454558 2.8620538,30.4557822 2.90823905,30.5341522 C3.09228029,30.8449529 3.23153583,31.2039814 3.63460713,31.3366076 C3.96070301,31.4437803 4.30219397,31.5221503 4.60799633,31.6688429 C4.8956045,31.8081674 5.17551513,31.9106512 5.49951168,31.9066323 C5.56599045,31.9059624 5.633169,31.9622281 5.70034755,31.9917006 C5.69754845,32.0178239 5.69474934,32.0439472 5.69265001,32.0700706 C5.58348487,32.092175 5.47361995,32.1116 5.36515458,32.1357139 C4.65278203,32.2931237 3.92711373,32.1316949 3.19794655,32.2636512 C2.40999814,32.405655 1.58286224,32.3467101 0.772520975,32.3755127 C0.770421645,32.350729 0.769022092,32.3252755 0.766922763,32.3004918" id="Fill-22"></path>
                            <path d="M7.63473991,30.2992431 C7.63194081,30.2416378 7.52487499,30.1887213 7.46469421,30.1337953 C7.41780918,30.1853721 7.33173666,30.2382886 7.33383599,30.2885258 C7.3366351,30.3682355 7.39751566,30.4466055 7.43460382,30.5249755 C7.46119533,30.5263152 7.48848661,30.526985 7.51507812,30.5276548 C7.55916405,30.4512943 7.6382388,30.3735941 7.63473991,30.2992431 M8.4891671,31.0099319 C8.27783458,30.9844784 8.08399647,30.8377858 7.87686261,30.7580761 C7.7606997,30.7138674 7.63334036,30.6964518 7.51157924,30.6669793 C7.4919855,30.770133 7.47798996,30.8746264 7.45139845,30.9757706 C7.4262065,31.0728958 7.40591298,31.1793987 7.34923108,31.2591083 C7.2379666,31.4158484 7.29814739,31.484171 7.46329466,31.5049357 C7.57106025,31.5183323 7.68232472,31.5129736 7.79218964,31.5089546 C8.07070072,31.4989072 8.34921179,31.4868503 8.62772286,31.4714442 C8.74108667,31.4647459 8.85375069,31.4459907 9.00350288,31.4285751 C8.87124511,31.1961444 8.76557885,31.0434233 8.4891671,31.0099319 M9.66409196,31.4191975 C10.0034836,31.2818825 10.3519723,31.346856 10.6955626,31.374319 C10.8292199,31.3857061 10.8901005,31.6268446 10.7760369,31.6831102 C10.5199187,31.8103778 10.2484054,31.9557307 9.97059409,31.9845334 C9.64239888,32.0193645 9.30160769,31.9262583 8.96571494,31.911522 C8.46887358,31.8900875 7.97133244,31.8472184 7.48148885,32.0039584 C7.22187174,32.0876871 6.9482591,32.0923759 6.6585516,32.0186947 C6.69214088,31.9443436 6.69633954,31.9028142 6.71943217,31.8887478 C6.98744659,31.7219603 6.9335638,31.484171 6.93426357,31.2242772 C6.9363629,30.7252545 7.0140381,30.2262317 7.06372224,29.7272089 C7.06652134,29.7004157 7.09801129,29.6763019 7.12180369,29.6434803 C7.261759,29.6950571 7.393317,29.7848142 7.52347544,29.7841444 C7.82297981,29.7814651 7.92374764,29.9696871 8.03431233,30.1753247 C8.10219066,30.3012526 8.16936921,30.440577 8.27643503,30.5303342 C8.56614252,30.7734822 8.88174176,30.9831387 9.27501619,31.0554803 C9.35269138,31.0695467 9.42476837,31.1157649 9.50524268,31.1485865 C9.46325608,31.2477213 9.42966681,31.3260913 9.37438446,31.4553683 C9.49964446,31.4413019 9.58991564,31.44867 9.66409196,31.4191975" id="Fill-24"></path>
                            <path d="M7.75328206,15.1465004 C8.08567593,15.073489 8.37888231,15.0038268 8.67418803,14.9462214 C8.98768793,14.8845972 9.29558962,14.8926351 9.59229488,15.0286104 C9.74344662,15.0982727 9.85890975,15.0580829 10.0037635,14.9602879 C10.1948025,14.8310108 10.4397243,14.7760848 10.6552555,14.6762803 C10.7756171,14.6206844 10.8945791,14.551692 10.9911482,14.4652841 C11.0429317,14.4190658 11.0807196,14.3112233 11.0597263,14.2522784 C11.0415321,14.2007015 10.9295679,14.1424264 10.8658882,14.1484548 C10.5222979,14.1819463 10.1885045,14.1598419 9.83301802,14.2643353 C9.34247465,14.4090184 8.78405295,14.4317926 8.27041695,14.2241455 C8.00170275,14.1156332 7.74138586,13.9876958 7.46917278,13.8878913 C7.40059468,13.8624378 7.23474763,13.9012879 7.22914942,13.9300905 C7.20955567,14.037933 7.21025545,14.1658704 7.25784026,14.2623258 C7.28793065,14.3232803 7.41808909,14.3353372 7.49436474,14.3828951 C7.54474865,14.4137072 7.57833792,14.4679634 7.61962474,14.5115023 C7.55874418,14.5456636 7.49996295,14.6032689 7.43698306,14.6079577 C7.3670054,14.6126465 7.29282908,14.5470032 7.22215165,14.5503524 C7.07799768,14.5577205 6.91984817,14.5617395 6.7966875,14.6220241 C6.67912504,14.6796294 6.68822213,14.8209634 6.82327901,14.8671816 C7.13258025,14.9750241 7.45167836,15.0574131 7.75328206,15.1465004" id="Fill-26"></path>
                            <path d="M6.16828814,18.2888032 C6.29984614,18.1280442 6.60774783,18.0898639 6.52027576,17.7750442 C6.48808603,17.6591638 6.43420324,17.5774446 6.31943988,17.6437577 C6.19278032,17.7167691 6.0500259,17.815234 5.99544333,17.9364731 C5.95415651,18.0289095 6.03952925,18.1735926 6.06822009,18.2948317 C6.10180937,18.2928222 6.13469887,18.2908127 6.16828814,18.2888032" id="Fill-28"></path>
                            <path id="Fill-30" d="M6.66184055,13.6319841 C6.68584055,13.7607327 6.69084055,13.8928694 6.74484055,14.0155194 C6.76384055,14.0561768 6.94184055,14.1090315 6.98784055,14.090058 C7.05884055,14.0609202 7.13484055,13.9606318 7.10984055,13.915231 C7.04884055,13.8007125 6.93184055,13.7004242 6.83684055,13.5940372 C6.77884055,13.606912 6.71984055,13.6191093 6.66184055,13.6319841"></path>
                        </g>
                    </g>
                </g>
            </g>
        </g>
    </g>
</svg>