<?xml version="1.0" encoding="UTF-8" standalone="no"?>
<svg
   xmlns:dc="http://purl.org/dc/elements/1.1/"
   xmlns:cc="http://creativecommons.org/ns#"
   xmlns:rdf="http://www.w3.org/1999/02/22-rdf-syntax-ns#"
   xmlns:svg="http://www.w3.org/2000/svg"
   xmlns="http://www.w3.org/2000/svg"
   xmlns:sodipodi="http://sodipodi.sourceforge.net/DTD/sodipodi-0.dtd"
   xmlns:inkscape="http://www.inkscape.org/namespaces/inkscape"
   viewBox="0 0 3333.7 1789.6"
   enable-background="new 0 0 3333.7 1789.6"
   id="svg2"
   version="1.1"
   inkscape:version="0.91 r13725"
   sodipodi:docname="rocks.svg">
  <metadata
     id="metadata60">
    <rdf:RDF>
      <cc:Work
         rdf:about="">
        <dc:format>image/svg+xml</dc:format>
        <dc:type
           rdf:resource="http://purl.org/dc/dcmitype/StillImage" />
      </cc:Work>
    </rdf:RDF>
  </metadata>
  <defs
     id="defs58" />
  <sodipodi:namedview
     pagecolor="#ffffff"
     bordercolor="#666666"
     borderopacity="1"
     objecttolerance="10"
     gridtolerance="10"
     guidetolerance="10"
     inkscape:pageopacity="0"
     inkscape:pageshadow="2"
     inkscape:window-width="1061"
     inkscape:window-height="679"
     id="namedview56"
     showgrid="false"
     inkscape:zoom="0.24232179"
     inkscape:cx="1666.85"
     inkscape:cy="894.79999"
     inkscape:window-x="0"
     inkscape:window-y="203"
     inkscape:window-maximized="0"
     inkscape:current-layer="svg2" />
  <symbol
     id="h"
     viewBox="-1.8 -1.8 3.6 3.6">
    <path
       d="M1.8 0C1.8-1 1-1.8 0-1.8S-1.8-1-1.8 0-1 1.8 0 1.8 1.8 1 1.8 0z"
       id="path5"
       fill="#AE9BCC" />
  </symbol>
  <symbol
     id="a"
     viewBox="-2.6 -1.4 5.2 2.7">
    <path
       d="M-2.6 1.1c.3.1.7.1 1 .1.3 0 .7-.2 1-.4.4-.4.6-.9.7-1.4 0 .2.1.4.1.6l.3.6c0 .1.1.2.2.3.1.1.2.1.3.1.2.1.4.2.5.2.2.1.4.1.6.1s.4-.1.5-.3c-.3.1-.6 0-.9-.2C1.4.7 1.2.7.9.5.8.4.6-.1.6-.2.4-.4.6-.8.5-1c0-.2-.1-.3-.3-.4l-.3.9c0 .2-.1.3-.2.4-.2.4-.7.5-1 .8l-.6.3c-.2.1-.5.2-.7.1z"
       id="path8"
       fill="#7A826B" />
  </symbol>
  <path
     d="M2168.4 357.7l-9.5-19.7 19.7-12.7 18.2 10.7 1.2 9.9-5.5 7.9"
     id="path10"
     fill="#657C7A" />
  <path
     d="M2306.8 381.2l20.7-20.7 6.6-38.4-.7-23.3-5.1-7.7 2.3-93.8-5-8.7-25.6-70.4.4-19.2-2.7-10.1-24.7 2.3-34.3-16.5-4.6 1.4-7.3 13.3-24.3 37.5 11 66.3 3.2 64.1-6 76.8 10.6 25.7 14.6 41.6 4.1 25.6 46.1 98.9"
     id="path12"
     fill="#768E88" />
  <path
     d="M2252.9 326.6l7.5-35.6-.8-28.4 42.3-4 29.2-7.1 27.7-3.9 3.5 24.9-83.7 54.5-27.3.4"
     id="path14"
     fill="#667E78" />
  <path
     d="M2226.5 358.5l21.3-35.2 1.6-20.5 13-34.4 45.9 16.2h19.3l17-4.3 37.2 70.3 16.6 67.2-85 75.1"
     id="path16"
     fill="#6A817E" />
  <path
     d="M2289.3 500.8l81.7-80.5 24.6-14.6 89.4 26.9-6.7 257.2-100.6 78.2-81.7-150.9"
     id="path18"
     fill="#78908A" />
  <path
     d="M2466 524.3l-24.6-37 12.3-23.4 16.8-95.1v-29.1l78.3-54.8 32.4-29 12.3 13.4 17.9 10.1 1.1 25.7 12.3 124.1 15.7 72.7 8.9 59.3 12.3 40.2-52.6 34.7-81.6-40.3M2133.1 976l-43.6-62.9 4.9-188.7-1.6-59.7-12.9-41.9 25.8-33.9 20.9-45.1 11.3-93.5 16.1-95.2 125.8-8 14.5 43.5 8.1 66.1 21.6 38.5 15.6 12.3-4.4 19v31.3l49.2 159.9L2419 881l-48 49.2-40.3 54.8"
     id="path20"
     fill="#758D87" />
  <path
     d="M2374.3 721.1l20.1-39.2 26.9-73.8 5.6-51.4 7.8-15.7 31.3-23.5 110.7 92.9 45.9 14.5 15.6 33.5 15.7 26.9-3.4 83.8 11.2 63.8 50.3 165.5v88.3l5.6 102.9 14.6 68.2-14.6 32.5-21.2 64.8-29.1 165.5-68.2 239.3-309.8-713.4"
     id="path22"
     fill="#6D8781" />
  <path
     d="M2044.4 1820.9V1779l16.1-62.9 11.3-112.9 33.9-154.8 19.3-51.6-8-48.3-3.3-79.1-14.5-54.8-3.2-51.6-29-158 87-62.9 35.5-38.7 61.3 33.9 67.7 37h17.8l50 22.6 64.5 33.9 38.7 24.2 17.7 156.4 1.6 32.2 30.6 140.3v48.4l45.2 188.7 24.2 93.5 30.6 96.8"
     id="path24"
     fill="#708A84" />
  <g
     id="g26">
    <path
       d="M1042.3 932.9l85.3-5.1 37.7 7.1 33-4.7 40.1-99-21.2-143.8-18.9-14.2 22.4-172.1 18.9-73-16.6-66-58.9-4.8-58.9-143.8-75.5-25.9-131.5-86.3-26.2 7-30.9 88.7-82.5 153.3 23.6 51.8 7.1 92-51.9 56.6 143.8 23.5 1.2 327.7"
       id="path28"
       fill="#425C59" />
    <path
       d="M527.2 1040.5l-38-72.8-57-41.1-41.1-47.5 63.3-145.7 31.7-151.9 22.1-82.3 47.5-38L679 480.1l153.3 49.7 38.3-10.3 55.5 103.1-15.8 101.3 34.8 152-117.1 285"
       id="path30"
       fill="#416261" />
    <path
       d="M109.3 1990.3l-3.2-148.8-12.6-167.8-25.4-183.6 91.9-72.8 189.8-221.6 101.4-85.5 41.2-82.3 31.6-12.7 142.5 41.2L885 1145l120.3 88.7 19 113.9 50.6 107.7 15.9 38 50.6 44.3-541.4 266-47.5 237.4"
       id="path32"
       fill="#3F605F" />
    <path
       d="M714 1243.2l34.8 85.4 158.3 91.9 34.9-25.4 44.3-47.5 53.8-47.4 44.3-28.5 12.7-31.7-22.2-161.5 6.4-136.1 28.5-95-53.9-69.6-63.3-57-22.1 12.6-47.5 91.9-60.2 91.8-66.5 60.1v72.8l-66.5 167.8"
       id="path34"
       fill="#406160" />
    <path
       d="M596.9 1553.4l44.3-123.4 31.6-129.8H733l57 25.3 82.3 66.5 63.3 25.3 25.4 66.5 12.6 69.6 22.2 41.2-316.6 167.8-6.4-66.5-41.1-85.5"
       id="path36"
       fill="#446564" />
    <path
       d="M470.2 2094.8l88.7-186.8 19-129.8 85.4-31.6 373.6-190 145.7-79.1 60.1 107.6 22.2 60.2 41.1 66.4 12.7 91.9 19 85.4 72.8 199.5-104.5 152"
       id="path38"
       fill="#3C595A" />
    <g
       id="g40"
       fill="#425C59">
      <path
         d="M1067.1 199.2s-10.1-5.2-14-14.2h7.8c-.4-.3-.8-.9-.8-.9h-.1.1s-1.6-1-3.5-2.7c-2.2-2.1-3.6-4.2-4.6-5.8-.7-1.3-1.3-2.7-1.7-4.3h4.8l.5-.3s-1.3-1.9-3-4.5c-.2-.3-.4-.6-.6-1l-5.5-10.4c-.1-.2-.2-.5-.2-.7l-.1.1-.1-.1c-.1.2-.1.4-.2.7l-5.5 10.4c-.2.3-.4.7-.6 1-1.7 2.6-3 4.5-3 4.5h.6l4.6.3c-.4 1.6-1 3-1.7 4.3-1 1.7-2.5 3.7-4.6 5.8-1.9 1.8-3.5 2.7-3.5 2.7h0s-.4.6-.8.9h7.8c-4 9-14 14.2-14 14.2l1.4.1c-.5.2 18 .9 19.2.9h.6c1.2 0 19.7-.7 19.2-.9l1.5-.1z"
         id="path42" />
      <path
         d="M1078 205.6s-6.3-3.3-8.8-8.9h4.9c-.3-.2-.5-.6-.5-.6s-1-.6-2.2-1.7c-1.4-1.3-2.3-2.6-2.9-3.7-.5-.8-.8-1.7-1.1-2.7h3l.3-.2s-.8-1.2-1.9-2.9c-.1-.2-.2-.4-.4-.6l-3.4-6.5c-.1-.1-.1-.3-.1-.4v.1-.1c0 .1-.1.3-.1.4l-3.4 6.5c-.1.2-.2.4-.4.6-1 1.6-1.9 2.9-1.9 2.9h.4l2.9.2c-.2 1-.6 1.9-1.1 2.7-.6 1.1-1.6 2.3-2.9 3.7-1.2 1.1-2.2 1.7-2.2 1.7s-.3.4-.5.6h4.9c-2.5 5.7-8.8 8.9-8.8 8.9h.9c-.3.2 11.3.6 12.1.6h.2c.7 0 12.4-.4 12.1-.6h.9z"
         id="path44" />
    </g>
  </g>
  <g
     id="g46">
    <path
       stroke-miterlimit="10"
       d="M1223 363.8l246.7 47.5 684.3-54.4"
       id="path48"
       stroke-width=".5"
       stroke="#425C59"
       fill="none" />
    <g
       id="g50"
       fill="#425C59">
      <path
         d="M1468.6 411.5c.1 0 .3 0 .4-.1.1 0 .2-.1.3-.2.2-.4.3-.8.4-1.3 0-.1.1-.1.1-.2.1-.3.2-.5.2-.9v-.5c.1-.6.3-1.2.4-1.8.1-.6.3-1.1.4-1.7v-.4c-.1-.2-.1-.3 0-.5.2-.4.4-.7.6-1.1.2-.3.2-.6.1-.9-.2-.4-.4-.9-.6-1.4-.2-.5-.3-1-.6-1.4-.1-.1-.3-.2-.4-.4-.5-.6-.9-1.2-1-2.1 0-.1 0-.2.1-.2.4-.2.4-.6.4-1 0-.6.1-1.1.5-1.5.2-.2.2-.4.2-.6v-.5-.6-.4c.1-1.3.2-2.6.3-3.8 0-.2.1-.4.1-.7.3-1.2.6-2.4.7-3.7 0-.5.1-1.1.2-1.6s.2-1 .6-1.3c.4-.3.9-.7 1.3-1l.2-.2c.3-.4.6-.8.9-1.3.2-.2.4-.2.7-.1.2 0 .2.2.2.3 0 .3 0 .6-.3.8l-.1.1c-.1.3-.3.4-.5.4-.4 0-.6.2-.8.5-.2.4-.5.8-.8 1.1-.1.2-.3.4-.4.6-.1.2-.1.4-.2.5-.1.2 0 .3.1.4.1.1.2.1.4-.1.1-.1.2-.2.3-.2.4 0 .9-.1 1.3.1.2.1.3.2.3.4.1.4.2.8.3 1.1 0 .1.1.1.1.2.2.3.3.6.1.9-.2.3-.2.6-.2 1 0 .5-.1.6-.6.6s-.6.1-.5.6c.2.7.5 1.5.7 2.2.2.8-.1 1.5-.2 2.3-.1.2-.1.4-.2.6 0 .4 0 .9.1 1.3 0 .5.1 1-.4 1.4-.3.2-.3.5-.1.8l.3.6c.1.3.1.5.2.8 0 .1 0 .2.1.2.2.2.4.4.5.6.3.4.5.8.7 1.2.3.6.6 1.1.8 1.7.2.5.5 1.1.5 1.7 0 .8 0 1.5-.1 2.3 0 .3.1.7-.2 1v.1c-.1.4-.1.9-.2 1.3s-.4.6-.7.3c-.2-.1-.4-.1-.6 0-.2.1-.5.1-.7 0-.2-.2-.2-.4-.2-.6 0-.3.1-.6.1-.9 0-.5.1-1.1.1-1.6v-.4c0-.1-.1-.2-.2-.2s-.2.1-.3.1c-.1.3-.3.7-.4 1.1 0 .1-.1.2-.1.3-.1.2-.1.5-.2.7-.1.3-.1.6-.2.9-.1.4-.3.7-.4 1.1-.2.5-.4.6-.9.4-.3-.1-.4.1-.6.2-.1 0-.1.3 0 .3.2.3.3.7.7.8.3.1.7.2 1 .3.3.1.6.3.9.2.1 0 .1.1.2.1v.1c-.1 0-.2 0-.3.1-.7.2-1.4 0-2.2.1-1 .7-1.9.7-2.7.6 0 .1 0 .1 0 0zm3.3-27.1c-.3-.3-.3-.3-.5.1v.5c.2 0 .4.1.4 0 .3-.2.5-.4.7-.7.1-.2 0-.4-.3-.6-.3.1-.2.4-.3.7zm2.3 1l.2.1c.1 0 .1-.1.1-.2 0-.3-.1-.5-.2-.8 0-.1-.2-.1-.3-.1-.1 0-.1.1-.2.2v.2c.1.2.2.4.4.6zm-3.8 24.4c.1-.1.2-.2.2-.3 0-.1-.1-.2-.2-.2-.1.1-.1.2-.2.3l.2.2z"
         id="path52" />
      <path
         d="M1477.5 410.6c.3-.1.7-.1 1 0 .1 0 .2.3.1.3-.3.1-.5.3-.8.3-.3 0-.7-.1-1-.1-.5 0-1-.1-1.5.1-.3.1-.5.1-.8 0 0-.1 0-.1.1-.1.3-.2.2-.4.2-.7 0-.5.1-1 .1-1.6 0 0 0-.1.1-.1.1.1.3.1.4.1.3 0 .4.2.5.4.1.1.1.3.2.4.3.3.6.5 1 .5.1 0 .2.1.2.1 0 .1-.1.2-.1.3.2.1.2.1.3.1zm-1.2-.4c-.2 0-.4-.2-.6-.3-.1 0-.2-.1-.4-.1 0 .1 0 .2-.1.3 0 .1 0 .2-.1.3-.1.2-.1.2.1.3h1.5c0-.3-.1-.5-.4-.5zm-.8-.8c0-.1-.1-.1-.2-.2 0 .1-.1.1-.1.2s.1.2.1.2h.1s.1-.1.1-.2zM1475.6 393.6c.3-.1.6-.1.9-.2.3-.1.6-.1.9.1.2.1.3 0 .4-.1.2-.1.4-.2.7-.3.1-.1.2-.1.3-.2.1 0 .1-.2.1-.2 0-.1-.1-.1-.2-.1-.3 0-.7 0-1 .1-.5.2-1 .2-1.6 0-.3-.1-.5-.2-.8-.4h-.2v.3c0 .1.2.1.2.1l.1.1c-.1 0-.1.1-.2.1s-.1-.1-.2-.1-.3 0-.4.1c-.1.1-.1.2 0 .3.4.2.7.3 1 .4zM1474 396.9c.1-.2.4-.2.4-.5 0-.1-.1-.2-.2-.1s-.3.2-.3.3c-.1 0 0 .2.1.3zM1474.5 392c0 .1 0 .3.1.4 0 0 .1.1.2.1 0 0 .1-.1.1-.2s-.1-.2-.2-.3h-.2z"
         id="path54" />
    </g>
  </g>
</svg>
