<?xml version="1.0" encoding="UTF-8" standalone="no"?>
<svg width="3000px" height="3058px" viewBox="0 0 3000 3058" version="1.1" xmlns="http://www.w3.org/2000/svg" xmlns:xlink="http://www.w3.org/1999/xlink">
    <!-- Generator: Sketch 3.6.1 (26313) - http://www.bohemiancoding.com/sketch -->
    <title>rocks2</title>
    <desc>Created with Sketch.</desc>
    <defs>
        <path id="path-1" d="M451.938889,303.116541 L412.556868,381.871042 L315.478146,463.65518 L133.852046,675.686941 L46,745.354539 L70.2346776,921.038017 L82.3526863,1081.57599 L85.3826909,1223.94015 L509.496918,1272.40497 L554.937608,1045.22837 L986.171265,883.737183 L1024.49387,748.382837 L1009.34719,712.034554 L960.876497,609.048311 L942.699819,500.003463 L827.58309,415.190357 L618.554977,330.37792 L482.232906,291 L451.938889,303.116541 Z"></path>
        <path id="path-3" d="M600.830416,1007.40855 L643.241772,889.276802 L673.535789,765.086446 L731.094488,765.086446 L785.623183,789.318857 L864.387895,852.92852 L924.975258,877.160262 L949.210606,940.769924 L961.327945,1007.40855 L982.533958,1046.7858 L679.594458,1207.32444 L673.535789,1143.71478 L634.153768,1061.93131 L600.830416,1007.40855 Z"></path>
        <path id="path-5" d="M1907,242.322108 L1949.41136,124.190357 L1979.70537,0 L2037.26407,0 L2091.79277,24.2324118 L2170.55748,87.842074 L2231.14484,112.073816 L2255.38019,175.683478 L2267.49753,242.322108 L2288.70354,281.699359 L1985.76404,442.237998 L1979.70537,378.628336 L1940.32335,296.844867 L1907,242.322108 Z"></path>
        <path id="path-7" d="M764.01875,857.725533 L406.550556,1039.46695 L324.75651,1069.75729 L0,1175.77316 L37.031292,2336.11023 L920.807007,2294.73425 L1121.48627,1366.60149 L1051.81091,1175.77317 L1033.63423,1093.98971 L1021.51689,1006.14763 L982.134868,942.53797 L960.873922,884.986913 L903.370826,782 L764.01875,857.725533 Z"></path>
        <path id="path-9" d="M1900.04489,1023.83866 L1900.04489,983.726605 L1915.47426,923.557855 L1926.27523,815.563299 L1958.67745,667.45669 L1977.19311,618.087597 L1969.47842,571.804408 L1966.39281,496.208151 L1952.50557,443.753825 L1949.41996,394.384732 L1921.64615,243.19289 L2004.96692,183.02414 L2038.91195,145.99799 L2097.54451,178.39562 L2162.34896,213.879823 L2179.32181,213.879823 L2227.15341,235.478466 L2288.87226,267.877436 L2325.90356,291.018696 L2342.87641,440.668592 L2344.41921,471.524275 L2373.73516,605.745324 L2373.73516,652.029184 L2416.93835,832.534093 L2440.08309,922.015239 L2469.39903,1014.58229 L1900.04489,1023.83866 Z"></path>
        <path id="path-11" d="M2892.91954,2185.86017 L1879.9629,2216.55988 L2278.47056,1384.48185 L2302.85301,1334.44668 L2319.92136,1244.6405 L2371.12535,1121.47792 L2400.38493,1080.42353 L2388.1937,1041.93533 L2383.31764,979.070948 L2361.37216,935.450947 L2356.4961,894.396565 L2312.60621,768.668358 L2444.27482,718.633192 L2497.91685,687.842963 L2590.57164,714.784204 L2692.97962,744.29218 L2719.80116,744.29218 L2795.3876,762.253193 L2892.91952,789.195549 L2951.43867,808.439372 L2978.26021,932.885326 L2980.69824,958.544315 L3027.02511,1070.15994 L3027.02511,1108.6487 L2980.69822,1220.97228 L2980.69822,1354.10534 L3027.02508,1468.94626 L2892.91954,2185.86017 Z"></path>
    </defs>
    <g id="Page-1" stroke="none" stroke-width="1" fill="none" fill-rule="evenodd">
        <g id="site" transform="translate(0.000000, -593.000000)">
            <g id="Rocks2" transform="translate(0.000000, 593.000000)">
                <g transform="translate(0.000000, 699.000000)">
                    <path d="M600.264072,913.311814 L563.911385,843.644216 L509.382021,804.266966 L470,758.83178 L530.588034,619.496584 L560.882051,474.103454 L582.087394,395.348283 L627.528754,359 L745.518728,377.098786 L892.174836,424.631207 L928.840371,414.767972 L981.967613,513.480704 L966.820269,610.409681 L1000.14362,755.802812 L888.056227,1028.4146 L600.264072,913.311814 Z" id="Fill-11-Copy" fill="#4D6F6E"></path>
                    <mask id="mask-2" fill="white">
                        <use xlink:href="#path-1"></use>
                    </mask>
                    <use id="Mask" fill="#3F605F" xlink:href="#path-1"></use>
                    <mask id="mask-4" fill="white">
                        <use xlink:href="#path-3"></use>
                    </mask>
                    <use id="Mask" fill="#4A6C6B" transform="translate(791.682187, 986.205445) rotate(46.000000) translate(-791.682187, -986.205445) " xlink:href="#path-3"></use>
                    <mask id="mask-6" fill="white">
                        <use xlink:href="#path-5"></use>
                    </mask>
                    <use id="Mask-Copy" fill="#7D9690" xlink:href="#path-5"></use>
                    <mask id="mask-8" fill="white">
                        <use xlink:href="#path-7"></use>
                    </mask>
                    <use id="Mask" fill="#3C595A" xlink:href="#path-7"></use>
                    <mask id="mask-10" fill="white">
                        <use xlink:href="#path-9"></use>
                    </mask>
                    <use id="Mask" fill="#708A84" xlink:href="#path-9"></use>
                    <mask id="mask-12" fill="white">
                        <use xlink:href="#path-11"></use>
                    </mask>
                    <use id="Mask" fill="#708A84" transform="translate(2453.494006, 1452.201422) scale(-1, 1) translate(-2453.494006, -1452.201422) " xlink:href="#path-11"></use>
                </g>
            </g>
        </g>
    </g>
</svg>