<svg xmlns="http://www.w3.org/2000/svg" viewBox="0 0 3333.7 1789.6" enable-background="new 0 0 3333.7 1789.6"><symbol id="h" viewBox="-1.8 -1.8 3.6 3.6"><path fill="#AE9BCC" d="M1.8 0C1.8-1 1-1.8 0-1.8S-1.8-1-1.8 0-1 1.8 0 1.8 1.8 1 1.8 0z"/></symbol><symbol id="a" viewBox="-2.6 -1.4 5.2 2.7"><path fill="#7A826B" d="M-2.6 1.1c.3.1.7.1 1 .1.3 0 .7-.2 1-.4.4-.4.6-.9.7-1.4 0 .2.1.4.1.6l.3.6c0 .1.1.2.2.3.1.1.2.1.3.1.2.1.4.2.5.2.2.1.4.1.6.1s.4-.1.5-.3c-.3.1-.6 0-.9-.2C1.4.7 1.2.7.9.5.8.4.6-.1.6-.2.4-.4.6-.8.5-1c0-.2-.1-.3-.3-.4l-.3.9c0 .2-.1.3-.2.4-.2.4-.7.5-1 .8l-.6.3c-.2.1-.5.2-.7.1z"/></symbol><circle fill="#B5C7B9" cx="1661" cy="1232" r="2139.7"/><circle fill="#B5C7B9" cx="1661" cy="1232" r="1440.3"/><circle fill="#BACAB9" cx="1661" cy="1232" r="1324.8"/><circle fill="#BECEBA" cx="1661" cy="1232" r="1209.2"/><circle fill="#C3D1BA" cx="1661" cy="1232" r="1093.7"/><circle fill="#C8D5BA" cx="1661" cy="1232" r="978.1"/><circle fill="#CDD8BB" cx="1661" cy="1232" r="862.5"/><circle fill="#D1DCBB" cx="1661" cy="1232" r="747"/><circle fill="#D6DFBC" cx="1661" cy="1232" r="631.4"/><circle fill="#DBE3BC" cx="1661" cy="1232" r="515.9"/><circle fill="#E0E6BC" cx="1661" cy="1232" r="400.3"/><circle fill="#E4EABD" cx="1661" cy="1232" r="284.7"/><circle fill="#E9EDBD" cx="1661" cy="1232" r="169.2"/><circle fill="#E9EDBD" cx="1661" cy="1232" r="62.2"/></svg>