<?xml version="1.0" encoding="UTF-8" standalone="no"?>
<svg width="3000px" height="3058px" viewBox="0 0 3000 3058" version="1.1" xmlns="http://www.w3.org/2000/svg" xmlns:xlink="http://www.w3.org/1999/xlink">
    <!-- Generator: Sketch 3.6.1 (26313) - http://www.bohemiancoding.com/sketch -->
    <title>sky</title>
    <desc>Created with Sketch.</desc>
    <defs></defs>
    <g id="Page-1" stroke="none" stroke-width="1" fill="none" fill-rule="evenodd" opacity="0.467059235">
        <g id="site" transform="translate(0.000000, -593.000000)">
            <g id="Sky" transform="translate(-670.000000, -955.000000)">
                <g>
                    <path d="M4279.4839,2070.73031 C4279.4839,3213.83107 3321.4889,4140.4971 2139.7419,4140.4971 C957.9949,4140.4971 -0.0001,3213.83107 -0.0001,2070.73031 C-0.0001,927.62956 957.9949,0.963524901 2139.7419,0.963524901 C3321.4889,0.963524901 4279.4839,927.62956 4279.4839,2070.73031" id="Fill-1" fill="#B5C7B9"></path>
                    <path d="M3580.0698,2070.73031 C3580.0698,2840.18731 2935.2128,3463.95579 2139.7418,3463.95579 C1344.2708,3463.95579 699.4138,2840.18731 699.4138,2070.73031 C699.4138,1301.27331 1344.2708,677.504841 2139.7418,677.504841 C2935.2128,677.504841 3580.0698,1301.27331 3580.0698,2070.73031" id="Fill-4" fill="#B5C7B9"></path>
                    <path d="M3464.5117,2070.73031 C3464.5117,2778.45343 2871.3917,3352.17684 2139.7417,3352.17684 C1408.0917,3352.17684 814.9727,2778.45343 814.9727,2070.73031 C814.9727,1363.0072 1408.0917,789.283789 2139.7417,789.283789 C2871.3917,789.283789 3464.5117,1363.0072 3464.5117,2070.73031" id="Fill-6" fill="#BBCCB8"></path>
                    <path d="M3348.9534,2070.73031 C3348.9534,2716.71954 2807.5714,3240.39692 2139.7424,3240.39692 C1471.9134,3240.39692 930.5304,2716.71954 930.5304,2070.73031 C930.5304,1424.74108 1471.9134,901.063705 2139.7424,901.063705 C2807.5714,901.063705 3348.9534,1424.74108 3348.9534,2070.73031" id="Fill-8" fill="#C2D1B8"></path>
                    <path d="M3233.3953,2070.73031 C3233.3953,2654.98566 2743.7503,3128.61797 2139.7423,3128.61797 C1535.7343,3128.61797 1046.0883,2654.98566 1046.0883,2070.73031 C1046.0883,1486.47497 1535.7343,1012.84265 2139.7423,1012.84265 C2743.7503,1012.84265 3233.3953,1486.47497 3233.3953,2070.73031" id="Fill-10" fill="#C8D6B7"></path>
                    <path d="M3117.8369,2070.73031 C3117.8369,2593.25177 2679.9289,3016.83903 2139.7419,3016.83903 C1599.5549,3016.83903 1161.6469,2593.25177 1161.6469,2070.73031 C1161.6469,1548.20885 1599.5549,1124.6216 2139.7419,1124.6216 C2679.9289,1124.6216 3117.8369,1548.20885 3117.8369,2070.73031" id="Fill-12" fill="#CEDBB7"></path>
                    <path d="M3002.2788,2070.73031 C3002.2788,2531.51789 2616.1078,2905.06008 2139.7418,2905.06008 C1663.3758,2905.06008 1277.2048,2531.51789 1277.2048,2070.73031 C1277.2048,1609.94274 1663.3758,1236.40055 2139.7418,1236.40055 C2616.1078,1236.40055 3002.2788,1609.94274 3002.2788,2070.73031" id="Fill-14" fill="#D5E0B6"></path>
                    <path d="M2886.7205,2070.73031 C2886.7205,2469.784 2552.2865,2793.28113 2139.7415,2793.28113 C1727.1975,2793.28113 1392.7635,2469.784 1392.7635,2070.73031 C1392.7635,1671.67662 1727.1975,1348.1795 2139.7415,1348.1795 C2552.2865,1348.1795 2886.7205,1671.67662 2886.7205,2070.73031" id="Fill-16" fill="#DBE6B6"></path>
                    <path d="M2771.1624,2070.73031 C2771.1624,2408.05012 2488.4654,2681.50121 2139.7424,2681.50121 C1791.0184,2681.50121 1508.3214,2408.05012 1508.3214,2070.73031 C1508.3214,1733.41051 1791.0184,1459.95941 2139.7424,1459.95941 C2488.4654,1459.95941 2771.1624,1733.41051 2771.1624,2070.73031" id="Fill-18" fill="#E2ECB5"></path>
                    <path d="M2655.6042,2070.73031 C2655.6042,2346.31623 2424.6452,2569.72226 2139.7422,2569.72226 C1854.8392,2569.72226 1623.8802,2346.31623 1623.8802,2070.73031 C1623.8802,1795.14439 1854.8392,1571.73836 2139.7422,1571.73836 C2424.6452,1571.73836 2655.6042,1795.14439 2655.6042,2070.73031" id="Fill-20" fill="#E8F0B5"></path>
                    <path d="M2540.0459,2070.73031 C2540.0459,2284.58235 2360.8239,2457.94332 2139.7419,2457.94332 C1918.6599,2457.94332 1739.4379,2284.58235 1739.4379,2070.73031 C1739.4379,1856.87828 1918.6599,1683.51731 2139.7419,1683.51731 C2360.8239,1683.51731 2540.0459,1856.87828 2540.0459,2070.73031" id="Fill-22" fill="#EEF6B4"></path>
                    <path d="M2424.4878,2070.73031 C2424.4878,2222.84846 2297.0028,2346.16437 2139.7418,2346.16437 C1982.4818,2346.16437 1854.9968,2222.84846 1854.9968,2070.73031 C1854.9968,1918.61216 1982.4818,1795.29626 2139.7418,1795.29626 C2297.0028,1795.29626 2424.4878,1918.61216 2424.4878,2070.73031" id="Fill-24" fill="#F6FAB4"></path>
                    <path d="M2308.9294,2070.73031 C2308.9294,2161.11458 2233.1814,2234.38445 2139.7424,2234.38445 C2046.3024,2234.38445 1970.5544,2161.11458 1970.5544,2070.73031 C1970.5544,1980.34605 2046.3024,1907.07617 2139.7424,1907.07617 C2233.1814,1907.07617 2308.9294,1980.34605 2308.9294,2070.73031" id="Fill-26" fill="#FBFFB3"></path>
                    <path d="M2201.9524,2070.73031 C2201.9524,2103.96472 2174.0994,2130.90588 2139.7424,2130.90588 C2105.3844,2130.90588 2077.5314,2103.96472 2077.5314,2070.73031 C2077.5314,2037.49591 2105.3844,2010.55474 2139.7424,2010.55474 C2174.0994,2010.55474 2201.9524,2037.49591 2201.9524,2070.73031" id="Fill-28" fill="#FFFFFF"></path>
                </g>
            </g>
        </g>
    </g>
</svg>