<?xml version="1.0" encoding="UTF-8" standalone="no"?>
<svg width="3000px" height="3058px" viewBox="0 0 3000 3058" version="1.1" xmlns="http://www.w3.org/2000/svg" xmlns:xlink="http://www.w3.org/1999/xlink">
    <!-- Generator: Sketch 3.6.1 (26313) - http://www.bohemiancoding.com/sketch -->
    <title>sun</title>
    <desc>Created with Sketch.</desc>
    <defs></defs>
    <g id="Page-1" stroke="none" stroke-width="1" fill="none" fill-rule="evenodd">
        <g id="site" transform="translate(0.000000, -600.000000)">
            <g id="Sky" transform="translate(0.000000, 278.000000)">
                <path d="M1467.9,1691.3 C1353.8,1691.3 1243.1,1668.9 1138.8,1624.8 C1038.1,1582.2 947.7,1521.3 870.1,1443.6 C792.5,1366 731.5,1275.6 689,1175 C644.9,1070.8 622.5,960 622.5,845.9 C622.5,731.8 644.9,621.1 689,516.8 C731.6,416.1 792.5,325.7 870.2,248.1 C947.8,170.5 1038.2,109.5 1138.9,66.9 C1243.1,22.8 1353.9,0.4 1468,0.4 C1582.1,0.4 1692.7,22.9 1797,67 C1897.7,109.6 1988.1,170.5 2065.7,248.2 C2143.3,325.8 2204.3,416.2 2246.9,516.9 C2291,621.1 2313.4,731.9 2313.4,846 C2313.4,960.1 2291,1070.8 2246.9,1175.1 C2204.3,1275.8 2143.4,1366.2 2065.7,1443.8 C1988.1,1521.4 1897.7,1582.4 1797,1625 C1692.7,1668.9 1582,1691.3 1467.9,1691.3 L1467.9,1691.3 Z M1467.9,77.5 C1364.2,77.5 1263.5,97.8 1168.8,137.9 C1077.3,176.6 995.1,232 924.5,302.6 C853.9,373.2 798.5,455.4 759.8,546.9 C719.7,641.6 699.4,742.2 699.4,846 C699.4,949.8 719.7,1050.4 759.8,1145.1 C798.5,1236.6 853.9,1318.8 924.5,1389.4 C995.1,1460 1077.3,1515.4 1168.8,1554.1 C1263.5,1594.2 1364.1,1614.5 1467.9,1614.5 C1571.7,1614.5 1672.3,1594.2 1767,1554.1 C1858.5,1515.4 1940.7,1460 2011.3,1389.4 C2081.9,1318.8 2137.3,1236.6 2176,1145.1 C2216.1,1050.4 2236.4,949.8 2236.4,846 C2236.4,742.2 2216.1,641.6 2176,546.9 C2137.3,455.4 2081.9,373.2 2011.3,302.6 C1940.7,232 1858.5,176.6 1767,137.9 C1672.3,97.8 1571.6,77.5 1467.9,77.5 L1467.9,77.5 Z" id="Shape" fill="#FFED00" opacity="0.02"></path>
                <path d="M1467.9,1615 C1364.1,1615 1263.4,1594.7 1168.5,1554.5 C1076.9,1515.8 994.7,1460.3 924,1389.7 C853.4,1319.1 797.9,1236.8 759.2,1145.2 C719.1,1050.4 698.7,949.6 698.7,845.8 C698.7,742 719,641.3 759.2,546.4 C798,454.9 853.4,372.7 924,302 C994.7,231.4 1076.9,176 1168.5,137.2 C1263.3,97.1 1364.1,76.7 1467.9,76.7 C1571.7,76.7 1672.4,97 1767.3,137.2 C1858.9,175.9 1941.1,231.4 2011.8,302 C2082.4,372.6 2137.9,454.9 2176.6,546.5 C2216.7,641.3 2237.1,742.1 2237.1,845.9 C2237.1,949.7 2216.8,1050.4 2176.6,1145.3 C2137.9,1236.9 2082.4,1319.1 2011.8,1389.8 C1941.2,1460.4 1858.9,1515.9 1767.3,1554.6 C1672.4,1594.6 1571.7,1615 1467.9,1615 L1467.9,1615 Z M1467.9,153.8 C1374.4,153.8 1283.8,172.1 1198.5,208.2 C1116.1,243.1 1042.1,293 978.5,356.5 C914.9,420.1 865,494.1 830.2,576.5 C794.1,661.8 775.8,752.4 775.8,845.9 C775.8,939.4 794.1,1030 830.2,1115.3 C865.1,1197.7 915,1271.7 978.5,1335.3 C1042.1,1398.9 1116.1,1448.8 1198.5,1483.6 C1283.8,1519.7 1374.4,1538 1467.9,1538 C1561.4,1538 1652,1519.7 1737.3,1483.6 C1819.7,1448.7 1893.7,1398.8 1957.3,1335.3 C2020.9,1271.7 2070.8,1197.7 2105.6,1115.3 C2141.7,1030 2160,939.4 2160,845.9 C2160,752.4 2141.7,661.8 2105.6,576.5 C2070.7,494.1 2020.8,420.1 1957.3,356.5 C1893.7,292.9 1819.7,243 1737.3,208.2 C1652,172.1 1561.3,153.8 1467.9,153.8 L1467.9,153.8 Z" id="Shape" fill="#FFED00" opacity="0.05"></path>
                <path d="M1467.9,1538.7 C1374.4,1538.7 1283.7,1520.4 1198.2,1484.2 C1115.7,1449.3 1041.6,1399.4 978,1335.7 C914.4,1272.1 864.4,1198 829.5,1115.5 C793.4,1030.1 775,939.3 775,845.8 C775,752.3 793.3,661.5 829.5,576.1 C864.4,493.7 914.4,419.6 978,356 C1041.6,292.4 1115.7,242.4 1198.2,207.5 C1283.6,171.4 1374.4,153 1467.9,153 C1561.4,153 1652.1,171.3 1737.6,207.5 C1820.1,242.4 1894.2,292.3 1957.8,356 C2021.4,419.6 2071.4,493.7 2106.3,576.2 C2142.4,661.6 2160.8,752.4 2160.8,845.9 C2160.8,939.4 2142.5,1030.2 2106.3,1115.6 C2071.4,1198.1 2021.5,1272.2 1957.8,1335.8 C1894.2,1399.4 1820.1,1449.4 1737.6,1484.3 C1652.1,1520.4 1561.4,1538.7 1467.9,1538.7 L1467.9,1538.7 Z M1467.9,230.1 C1384.7,230.1 1304.1,246.4 1228.2,278.5 C1154.9,309.5 1089,353.9 1032.4,410.5 C975.8,467.1 931.4,532.9 900.4,606.3 C868.3,682.2 852,762.8 852,846 C852,929.2 868.3,1009.8 900.4,1085.7 C931.4,1159 975.8,1224.9 1032.4,1281.5 C1089,1338.1 1154.8,1382.5 1228.2,1413.5 C1304.1,1445.6 1384.7,1461.9 1467.9,1461.9 C1551.1,1461.9 1631.7,1445.6 1707.6,1413.5 C1780.9,1382.5 1846.8,1338.1 1903.4,1281.5 C1960,1224.9 2004.4,1159.1 2035.4,1085.7 C2067.5,1009.8 2083.8,929.2 2083.8,846 C2083.8,762.8 2067.5,682.2 2035.4,606.3 C2004.4,533 1960,467.1 1903.4,410.5 C1846.8,353.9 1781,309.5 1707.6,278.5 C1631.7,246.3 1551,230.1 1467.9,230.1 L1467.9,230.1 Z" id="Shape" fill="#FFED00" opacity="0.15"></path>
                <path d="M1467.9,1462.4 C1384.7,1462.4 1303.9,1446.1 1227.9,1413.9 C1154.5,1382.8 1088.5,1338.4 1031.9,1281.8 C975.3,1225.2 930.8,1159.3 899.8,1085.8 C867.6,1009.8 851.3,929 851.3,845.8 C851.3,762.6 867.6,681.8 899.8,605.8 C930.9,532.4 975.3,466.4 1031.9,409.8 C1088.5,353.2 1154.4,308.7 1227.9,277.7 C1303.9,245.5 1384.7,229.2 1467.9,229.2 C1551.1,229.2 1631.9,245.5 1707.9,277.7 C1781.3,308.8 1847.3,353.2 1903.9,409.8 C1960.5,466.4 2005,532.3 2036,605.8 C2068.2,681.8 2084.5,762.6 2084.5,845.8 C2084.5,929 2068.2,1009.8 2036,1085.8 C2004.9,1159.2 1960.5,1225.2 1903.9,1281.8 C1847.3,1338.4 1781.4,1382.9 1707.9,1413.9 C1631.8,1446.1 1551.1,1462.4 1467.9,1462.4 L1467.9,1462.4 Z M1467.9,306.3 C1395,306.3 1324.4,320.6 1257.9,348.7 C1193.7,375.9 1136,414.8 1086.4,464.3 C1036.8,513.9 997.9,571.6 970.8,635.8 C942.7,702.3 928.4,772.9 928.4,845.8 C928.4,918.7 942.7,989.3 970.8,1055.8 C998,1120 1036.9,1177.7 1086.4,1227.3 C1135.9,1276.9 1193.7,1315.8 1257.9,1342.9 C1324.4,1371 1395,1385.3 1467.9,1385.3 C1540.8,1385.3 1611.4,1371 1677.9,1342.9 C1742.1,1315.7 1799.8,1276.8 1849.4,1227.3 C1899,1177.7 1937.9,1120 1965,1055.8 C1993.1,989.3 2007.4,918.7 2007.4,845.8 C2007.4,772.9 1993.1,702.3 1965,635.8 C1937.8,571.6 1898.9,513.9 1849.4,464.3 C1799.8,414.7 1742.1,375.8 1677.9,348.7 C1611.4,320.6 1540.7,306.3 1467.9,306.3 L1467.9,306.3 Z" id="Shape-Copy" fill="#FFED00" opacity="0.24"></path>
                <path d="M1467.9,1386.1 C1395,1386.1 1324.2,1371.8 1257.6,1343.6 C1193.3,1316.4 1135.5,1277.4 1085.9,1227.8 C1036.3,1178.2 997.3,1120.4 970.1,1056.1 C941.9,989.5 927.6,918.7 927.6,845.8 C927.6,772.9 941.9,702.1 970.1,635.5 C997.3,571.2 1036.3,513.4 1085.9,463.8 C1135.5,414.2 1193.3,375.2 1257.6,348 C1324.2,319.8 1395,305.5 1467.9,305.5 C1540.8,305.5 1611.6,319.8 1678.2,348 C1742.5,375.2 1800.3,414.2 1849.9,463.8 C1899.5,513.4 1938.5,571.2 1965.7,635.5 C1993.9,702.1 2008.2,772.9 2008.2,845.8 C2008.2,918.7 1993.9,989.5 1965.7,1056.1 C1938.5,1120.4 1899.5,1178.2 1849.9,1227.8 C1800.3,1277.4 1742.5,1316.4 1678.2,1343.6 C1611.6,1371.9 1540.8,1386.1 1467.9,1386.1 L1467.9,1386.1 Z M1467.9,382.6 C1405.3,382.6 1344.7,394.8 1287.6,419 C1232.4,442.3 1182.9,475.7 1140.3,518.3 C1097.7,560.9 1064.3,610.4 1041,665.6 C1016.9,722.7 1004.6,783.4 1004.6,845.9 C1004.6,908.4 1016.8,969.1 1041,1026.2 C1064.3,1081.4 1097.7,1130.9 1140.3,1173.5 C1182.9,1216.1 1232.4,1249.5 1287.6,1272.8 C1344.7,1296.9 1405.4,1309.2 1467.9,1309.2 C1530.4,1309.2 1591.1,1297 1648.2,1272.8 C1703.4,1249.5 1752.9,1216.1 1795.5,1173.5 C1838.1,1130.9 1871.5,1081.4 1894.8,1026.2 C1918.9,969.1 1931.2,908.4 1931.2,845.9 C1931.2,783.4 1919,722.7 1894.8,665.6 C1871.5,610.4 1838.1,560.9 1795.5,518.3 C1752.9,475.7 1703.4,442.3 1648.2,419 C1591.1,394.9 1530.4,382.6 1467.9,382.6 L1467.9,382.6 Z" id="Shape" fill="#FFED00" opacity="0.34"></path>
                <path d="M1467.9,1309.9 C1405.3,1309.9 1344.5,1297.6 1287.3,1273.4 C1232,1250 1182.4,1216.6 1139.8,1174 C1097.2,1131.4 1063.8,1081.8 1040.4,1026.5 C1016.2,969.3 1003.9,908.5 1003.9,845.9 C1003.9,783.3 1016.2,722.5 1040.4,665.3 C1063.8,610 1097.2,560.4 1139.8,517.8 C1182.4,475.2 1232,441.8 1287.3,418.4 C1344.5,394.2 1405.3,381.9 1467.9,381.9 C1530.5,381.9 1591.3,394.2 1648.5,418.4 C1703.8,441.8 1753.4,475.2 1796,517.8 C1838.6,560.4 1872,610 1895.4,665.3 C1919.6,722.5 1931.9,783.3 1931.9,845.9 C1931.9,908.5 1919.6,969.3 1895.4,1026.5 C1872,1081.8 1838.6,1131.4 1796,1174 C1753.4,1216.6 1703.8,1250 1648.5,1273.4 C1591.3,1297.6 1530.5,1309.9 1467.9,1309.9 L1467.9,1309.9 Z M1467.9,458.9 C1364.5,458.9 1267.4,499.2 1194.3,572.2 C1121.2,645.2 1080.9,742.5 1080.9,845.9 C1080.9,949.3 1121.2,1046.4 1194.2,1119.5 C1267.3,1192.6 1364.5,1232.8 1467.8,1232.8 C1571.1,1232.8 1668.3,1192.5 1741.4,1119.5 C1814.5,1046.4 1854.7,949.2 1854.7,845.9 C1854.7,742.6 1814.4,645.4 1741.4,572.3 C1668.4,499.2 1571.3,458.9 1467.9,458.9 L1467.9,458.9 Z" id="Shape" fill="#FFED00" opacity="0.43"></path>
                <path d="M1467.9,1233.6 C1415.6,1233.6 1364.8,1223.3 1317,1203.1 C1270.8,1183.6 1229.4,1155.6 1193.8,1120 C1158.2,1084.4 1130.3,1042.9 1110.7,996.8 C1090.5,949 1080.2,898.2 1080.2,845.9 C1080.2,793.6 1090.5,742.8 1110.7,695 C1130.2,648.8 1158.2,607.4 1193.8,571.8 C1229.4,536.2 1270.9,508.3 1317,488.7 C1364.8,468.5 1415.6,458.2 1467.9,458.2 C1520.2,458.2 1571,468.5 1618.8,488.7 C1665,508.2 1706.4,536.2 1742,571.8 C1777.6,607.4 1805.5,648.9 1825.1,695 C1845.3,742.8 1855.6,793.6 1855.6,845.9 C1855.6,898.2 1845.3,949 1825.1,996.8 C1805.6,1043 1777.6,1084.4 1742,1120 C1706.4,1155.6 1664.9,1183.5 1618.8,1203.1 C1571,1223.3 1520.2,1233.6 1467.9,1233.6 L1467.9,1233.6 Z M1467.9,535.2 C1384.9,535.2 1306.9,567.5 1248.2,626.2 C1189.5,684.9 1157.2,762.9 1157.2,845.9 C1157.2,928.9 1189.5,1006.9 1248.2,1065.6 C1306.9,1124.3 1384.9,1156.6 1467.9,1156.6 C1550.9,1156.6 1628.9,1124.3 1687.6,1065.6 C1746.3,1006.9 1778.6,928.9 1778.6,845.9 C1778.6,762.9 1746.3,684.9 1687.6,626.2 C1628.9,567.5 1550.9,535.2 1467.9,535.2 L1467.9,535.2 Z" id="Shape" fill="#FFED00" opacity="0.52"></path>
                <path d="M1467.9,1157.3 C1384.7,1157.3 1306.5,1124.9 1247.7,1066.1 C1188.9,1007.3 1156.5,929.1 1156.5,845.9 C1156.5,762.7 1188.9,684.5 1247.7,625.7 C1306.5,566.9 1384.7,534.5 1467.9,534.5 C1551.1,534.5 1629.3,566.9 1688.1,625.7 C1746.9,684.5 1779.3,762.7 1779.3,845.9 C1779.3,929.1 1746.9,1007.3 1688.1,1066.1 C1629.3,1124.9 1551.1,1157.3 1467.9,1157.3 L1467.9,1157.3 Z M1467.9,611.5 C1405.3,611.5 1346.4,635.9 1302.1,680.2 C1257.8,724.5 1233.4,783.3 1233.4,846 C1233.4,908.7 1257.8,967.5 1302.1,1011.8 C1346.4,1056.1 1405.2,1080.5 1467.9,1080.5 C1530.6,1080.5 1589.4,1056.1 1633.7,1011.8 C1678,967.5 1702.4,908.7 1702.4,846 C1702.4,783.3 1678,724.5 1633.7,680.2 C1589.4,635.8 1530.5,611.5 1467.9,611.5 L1467.9,611.5 Z" id="Shape" fill="#FFED00" opacity="0.6"></path>
                <path d="M1467.9,1081 C1405.1,1081 1346,1056.5 1301.6,1012.1 C1257.2,967.7 1232.7,908.6 1232.7,845.8 C1232.7,783 1257.2,723.9 1301.6,679.5 C1346,635.1 1405.1,610.6 1467.9,610.6 C1530.7,610.6 1589.8,635.1 1634.2,679.5 C1678.6,723.9 1703.1,783 1703.1,845.8 C1703.1,908.6 1678.6,967.7 1634.2,1012.1 C1589.8,1056.5 1530.7,1081 1467.9,1081 L1467.9,1081 Z M1467.9,687.7 C1380.7,687.7 1309.8,758.6 1309.8,845.8 C1309.8,933 1380.7,1004 1467.9,1004 C1555.1,1004 1626,933.1 1626,845.9 C1626,758.7 1555.1,687.7 1467.9,687.7 L1467.9,687.7 Z" id="Shape" fill="#FFED00" opacity="0.69"></path>
                <path d="M1309,845.8 C1309,758.2 1380.3,686.9 1467.9,686.9 C1555.5,686.9 1626.8,758.2 1626.8,845.8 C1626.7,933.5 1555.5,1004.7 1467.9,1004.7 C1380.3,1004.7 1309,933.4 1309,845.8 Z M1386,845.9 C1386,891.1 1422.7,927.8 1467.9,927.8 C1513.1,927.8 1549.8,891.1 1549.8,845.9 C1549.8,800.7 1513,764 1467.9,764 C1422.8,764 1386,800.7 1386,845.9 Z" id="Shape" fill="#FFED00" opacity="0.79"></path>
                <path d="M1467.9,928.5 C1422.4,928.5 1385.3,891.5 1385.3,845.9 C1385.3,800.3 1422.3,763.3 1467.9,763.3 C1513.5,763.3 1550.5,800.3 1550.5,845.9 C1550.5,891.5 1513.4,928.5 1467.9,928.5 L1467.9,928.5 Z M1467.9,840.3 C1464.8,840.3 1462.3,842.8 1462.3,845.9 C1462.3,849 1464.8,851.5 1467.9,851.5 C1471,851.5 1473.5,849 1473.5,845.9 C1473.5,842.8 1471,840.3 1467.9,840.3 L1467.9,840.3 Z" id="Shape" fill-opacity="0.879999995" fill="#FFED00" opacity="0.949999988"></path>
                <circle id="sun" fill="#FFFFFF" cx="1467.9" cy="845.9" r="44.1"></circle>
            </g>
        </g>
    </g>
</svg>