<?xml version="1.0" encoding="UTF-8" standalone="no"?>
<svg width="170px" height="35px" viewBox="0 0 170 35" version="1.1" xmlns="http://www.w3.org/2000/svg" xmlns:xlink="http://www.w3.org/1999/xlink">
    <!-- Generator: Sketch 3.6.1 (26313) - http://www.bohemiancoding.com/sketch -->
    <title>../../assets/img/logo</title>
    <desc>Created with Sketch.</desc>
    <defs></defs>
    <g id="Page-1" stroke="none" stroke-width="1" fill="none" fill-rule="evenodd">
        <g id="Header" transform="translate(-5.000000, -14.000000)" fill="#446251">
            <g id="logo" transform="translate(4.767475, 13.500857)">
                <path d="M27.7865386,14.5854313 C27.1888047,14.3542204 26.5393585,14.2370938 25.8381999,14.2370938 L25.8001762,14.1990657 L25.8001762,14.2370938 L24.5925408,14.2370938 C24.0465193,14.2127558 23.6054434,14.0058828 23.2677922,13.6195172 C22.930141,13.2316304 22.7871716,12.7555185 22.8388839,12.188139 L23.5020187,6.8535552 C23.5795872,6.28617575 23.8381489,5.81006376 24.2807458,5.42369813 C24.7218217,5.03581137 25.2282985,4.84262855 25.8001762,4.84262855 L28.994174,4.84262855 L32.8513066,4.84262855 L33.3182386,1.01547918 L29.461106,1.01547918 L26.2671082,1.01547918 C25.5400935,1.01547918 24.8511025,1.13108465 24.2031773,1.3638167 C23.0077095,1.77604146 21.9886721,2.478801 21.1445441,3.4705742 C20.3004161,4.46386854 19.8000232,5.59102183 19.6448861,6.8535552 L18.9832723,12.188139 L18.9437276,12.5364765 C18.8920152,13.2848698 18.9832723,13.9921927 19.2159778,14.6630086 C19.4502043,15.3338246 19.7939393,15.913373 20.2487038,16.401654 C20.7034682,16.8929772 21.2479688,17.2854274 21.8852474,17.5820467 C22.5210051,17.8786659 23.2282475,18.0399051 24.0084955,18.0642431 L24.0465193,18.0642431 L24.1636325,18.0642431 L25.3317232,18.0642431 C25.9036009,18.0642431 26.3583653,18.2650316 26.6960165,18.6635662 C27.0336677,19.063622 27.1629486,19.5336495 27.08538,20.0751698 L26.3340301,25.8128516 C26.2823177,26.3543719 26.0344027,26.8183149 25.5933268,27.2046806 C25.1522509,27.5925673 24.6594627,27.7979191 24.1134411,27.8237783 L16.8524195,28.8064247 L16.3854874,32.6335741 L23.5674196,31.6509276 L23.6845329,31.6509276 L23.7240776,31.6509276 C24.0617288,31.6509276 24.3917752,31.618984 24.7172588,31.5550968 C25.0412215,31.4912095 25.3606212,31.4060266 25.6724163,31.3025901 C26.8146507,30.8918865 27.7941434,30.227155 28.6124152,29.3129592 C29.430687,28.3972422 29.9432476,27.3339761 30.1516179,26.123161 L30.2291865,25.7748235 L30.5516281,23.4383762 L30.6307176,22.7432223 L30.9805364,20.0751698 C31.1371944,18.8126364 30.9151355,17.6854831 30.3189226,16.6921888 C29.7211887,15.7004156 28.8770607,14.997656 27.7865386,14.5854313 L27.7865386,14.5854313 Z" id="Fill-1"></path>
                <path d="M39.1739012,1.01593552 L35.2787449,1.01593552 L31.461157,31.9829891 L44.433351,31.9829891 L44.900283,28.1543186 L35.8232455,28.1543186 L39.1739012,1.01593552 Z" id="Fill-3"></path>
                <path d="M59.3522105,6.85340309 L58.6905967,12.1119307 L57.3034891,23.4716888 L51.9375727,24.1501104 L53.4706917,12.1119307 L54.1323055,6.85340309 C54.1840179,6.28754476 54.4364958,5.80991165 54.8912602,5.42354601 C55.3460247,5.03718038 55.8464177,4.84247644 56.3909183,4.84247644 L57.5605298,4.84247644 C58.1308866,4.84247644 58.585651,5.03718038 58.9233022,5.42354601 C59.2609534,5.80991165 59.4039228,6.28754476 59.3522105,6.85340309 M63.0329127,4.57323739 C62.8123748,3.85070323 62.4686398,3.23312666 62.0017077,2.71746544 C61.5332547,2.20180422 60.9552932,1.78957946 60.2678232,1.47927006 C59.5788322,1.17048177 58.8320451,1.01532707 58.0274619,1.01532707 L56.8593713,1.01532707 C56.0532671,1.01532707 55.27454,1.17048177 54.5216691,1.47927006 C53.7687982,1.78957946 53.0934958,2.20180422 52.4957619,2.71746544 C51.898028,3.23312666 51.399156,3.85070323 50.9961039,4.57323739 C50.5930518,5.29425043 50.3405738,6.0548127 50.2371492,6.85340309 L48.0439373,24.6520815 L46.8210925,24.8087573 L46.3541604,28.6359066 L47.5770053,28.4792308 L47.1207199,31.9823807 L51.0158762,31.9823807 L51.5025807,27.9742175 L51.431096,27.9772597 L56.7970123,27.2988382 L56.2357812,31.9823807 L60.1111652,31.802888 L63.2275945,6.67391039 C63.3127678,6.0548127 63.2534507,5.29425043 63.0329127,4.57323739" id="Fill-5"></path>
                <path d="M67.5439023,27.5559082 C67.1925625,27.1573736 67.0571979,26.673656 67.1347664,26.1062765 L67.3294481,24.2505046 L67.7583564,20.8872982 L67.8359249,20.4233552 L68.8488785,12.1119307 L69.5104924,6.85340309 C69.5622047,6.28754476 69.8162036,5.80991165 70.270968,5.42354601 C70.7242115,5.03718038 71.2246045,4.84247644 71.770626,4.84247644 L78.8597802,4.84247644 L79.3282332,1.01532707 L72.2771028,1.01532707 C71.522711,1.01532707 70.8215524,1.13245366 70.1736271,1.36366459 C69.0040156,1.77588934 67.9925829,2.47864889 67.1347664,3.47042209 C66.2784708,4.46371642 65.771994,5.59086972 65.615336,6.85340309 L63.9407686,20.4233552 L63.4738365,24.2505046 L63.23961,26.1062765 C63.082952,27.394669 63.30349,28.5355124 63.9012238,29.5272856 C64.4989577,30.52058 65.3430857,31.2218184 66.4336078,31.6340431 C67.0571979,31.8667752 67.7188117,31.9823807 68.4199703,31.9823807 L75.4711006,31.9823807 L75.9775774,28.1552313 L68.8884233,28.1552313 C68.3424017,28.1552313 67.8937211,27.955964 67.5439023,27.5559082" id="Fill-7"></path>
                <path d="M94.3868682,1.01593552 L90.4917118,1.01593552 L90.4521671,1.36427304 L89.7905533,6.85401154 L89.1274185,12.111018 L88.4612418,17.7148408 C88.3562962,18.2305021 88.0840459,18.6746704 87.64297,19.0488671 C87.2003731,19.4230637 86.7212735,19.6086409 86.2011081,19.6086409 L82.921937,20.0299924 L83.9075135,12.111018 L84.5706483,6.85401154 L85.2322621,1.36427304 L85.2718068,1.01593552 L81.4146743,1.01593552 L80.6754919,6.85401154 L78.9309607,20.5410902 L77.548416,20.7281886 L77.0814839,24.5751126 L78.4640287,24.4077888 L77.5590626,31.9829891 L81.454219,31.9829891 L81.9211511,28.1543186 L82.4154602,23.8571418 L85.7341761,23.4357903 C86.2528205,23.4357903 86.6878125,23.6168041 87.0391523,23.9773106 C87.3889711,24.3393382 87.5517129,24.7774221 87.5258567,25.2915622 L87.141056,28.1543186 L86.674124,31.9829891 L90.5297356,31.9829891 L91.3829893,25.4862662 C91.3829893,25.3311115 91.3951569,25.215506 91.4210131,25.1379286 C91.4985816,23.7460997 91.1350742,22.5474535 90.330491,21.5419902 C90.8491354,21.026329 91.2780437,20.4543861 91.6156949,19.8215983 C91.9533461,19.1903316 92.0750222,19.0321347 92.205824,18.3354596 C92.205824,18.2335443 92.2179916,18.1559669 92.2438478,18.1042487 L93.6461649,6.85401154 L94.3868682,1.01593552 Z" id="Fill-9"></path>
                <path d="M103.313788,17.9258208 C102.716054,17.6946099 102.066608,17.5774833 101.365449,17.5774833 L101.327425,17.5774833 L100.081766,17.7539337 C99.5372657,17.7280746 99.0946689,17.5227228 98.7585386,17.134836 C98.4208874,16.7484704 98.276397,16.2723584 98.3296303,15.704979 L99.4262362,6.8535552 C99.5038048,6.28617575 99.7638874,5.81006376 100.206484,5.42369813 C100.64756,5.03581137 101.154037,4.84262855 101.724394,4.84262855 L104.919912,4.84262855 L108.775524,4.84262855 L109.243977,1.01547918 L105.386845,1.01547918 L102.192847,1.01547918 C101.465832,1.01547918 100.776841,1.13108465 100.127395,1.3638167 C98.933448,1.77604146 97.9128897,2.478801 97.0702826,3.4705742 C96.2261546,4.46386854 95.7257616,5.59102183 95.5706246,6.8535552 L94.4724978,15.704979 L94.434474,16.0533165 C94.3812407,16.8001886 94.4724978,17.5090327 94.7067243,18.1798486 C94.9409508,18.8506645 95.2846858,19.430213 95.7394502,19.918494 C96.1926937,20.4098172 96.7387152,20.8022673 97.3744729,21.0988866 C98.0117515,21.3955059 98.7189939,21.5567451 99.497721,21.5810831 L99.5372657,21.5810831 L99.6543789,21.5810831 L100.858972,21.4046327 C101.43085,21.4046327 101.885615,21.6054211 102.223266,22.0039557 C102.560917,22.4040115 102.690198,22.874039 102.612629,23.4155593 L102.270415,26.1444567 C102.218703,26.6859771 101.970788,27.1499201 101.529712,27.5362857 C101.088636,27.9226513 100.595848,28.1295243 100.049826,28.1553834 L96.8162838,28.1553834 L92.9211274,28.1553834 L92.4541953,31.9825328 L96.309807,31.9825328 L99.5038048,31.9825328 L99.620918,31.9825328 L99.6604628,31.9825328 C99.9981139,31.9825328 100.32816,31.9505892 100.653644,31.8851808 C100.977607,31.8212936 101.297006,31.7376317 101.608801,31.6341952 C102.751036,31.2219705 103.730529,30.5587602 104.5488,29.6430432 C105.367072,28.7288474 105.879633,27.6655813 106.088003,26.4547662 L106.165572,26.1064286 L106.507786,23.4155593 C106.664444,22.1530259 106.442385,21.0258726 105.846172,20.0325783 C105.248438,19.0408051 104.40431,18.3380456 103.313788,17.9258208" id="Fill-11"></path>
                <path d="M120.278175,1.01593552 L120.23863,1.36427304 L118.915402,12.111018 L118.515392,15.3327598 L113.214877,16.006618 L115.018725,1.36427304 L115.05827,1.01593552 L111.201137,1.01593552 L109.252799,16.5314059 L107.812458,16.7261099 L107.345526,20.5532592 L108.785867,20.3585553 L107.345526,31.9829891 L111.240682,31.9829891 L112.7084,19.8337673 L118.008915,19.1599092 L116.460587,31.9829891 L120.31772,31.9829891 L124.173331,1.01593552 L120.278175,1.01593552 Z" id="Fill-13"></path>
                <path d="M134.990489,6.85340309 L132.614763,26.1062765 C132.535674,26.673656 132.275591,27.1558525 131.834515,27.5559082 C131.393439,27.955964 130.886962,28.1552313 130.316606,28.1552313 L129.146994,28.1552313 C128.602494,28.1552313 128.153813,27.955964 127.802473,27.5559082 C127.452654,27.1558525 127.315769,26.673656 127.394858,26.1062765 L129.770584,6.85340309 C129.822297,6.28754476 130.074774,5.80991165 130.529539,5.42354601 C130.984303,5.03718038 131.484696,4.84247644 132.029197,4.84247644 L133.198809,4.84247644 C133.769165,4.84247644 134.22393,5.03718038 134.561581,5.42354601 C134.899232,5.80991165 135.042202,6.28754476 134.990489,6.85340309 M138.184487,3.47042209 C137.586753,2.47864889 136.744146,1.77588934 135.652103,1.36366459 C135.054369,1.13245366 134.392755,1.01532707 133.665741,1.01532707 L132.535674,1.01532707 C131.782803,1.01532707 131.081644,1.13245366 130.432198,1.36366459 C129.264107,1.77588934 128.251154,2.47864889 127.394858,3.47042209 C126.537042,4.46371642 126.030565,5.59086972 125.875428,6.85340309 L123.498181,26.1062765 C123.343044,27.394669 123.563582,28.5355124 124.161316,29.5272856 C124.757529,30.52058 125.601657,31.2218184 126.6937,31.6340431 C127.315769,31.8667752 127.978904,31.9823807 128.680062,31.9823807 L129.848153,31.9823807 C130.549311,31.9823807 131.236781,31.8667752 131.913605,31.6340431 C133.107551,31.2218184 134.126589,30.52058 134.970717,29.5272856 C135.814845,28.5355124 136.315238,27.394669 136.470375,26.1062765 L138.847622,6.85340309 C139.002759,5.59086972 138.782221,4.46371642 138.184487,3.47042209" id="Fill-15"></path>
                <path d="M150.686859,6.84366789 L150.378106,9.33222766 C150.326394,9.89960712 150.079999,10.3757191 149.638924,10.7636059 C149.196327,11.1499715 148.650305,11.3127318 148.171206,11.3568444 L144.858574,11.7903649 L145.138429,9.62732582 L145.739204,4.83274124 L148.895178,4.83274124 C149.465535,4.83274124 149.926383,5.02744518 150.277723,5.41381082 C150.627542,5.80017645 150.764428,6.27780956 150.686859,6.84366789 M151.388018,1.35392939 C150.764428,1.12271846 150.102814,1.00559187 149.401655,1.00559187 L146.207657,1.00559187 L142.31098,1.00559187 L140.901058,12.3151529 L139.46528,12.5022512 L138.998348,16.3172316 L140.434126,16.1438234 L138.493392,31.9726455 L142.350525,31.9726455 L144.3886,15.6372889 L147.73013,15.2083318 C147.73013,15.2083318 149.293668,15.0227546 150.008515,14.7261353 C150.721841,14.429516 151.371287,14.0355448 151.956853,13.5457427 C152.540899,13.0574617 153.027603,12.4763921 153.416967,11.8070973 C153.80633,11.1362814 154.066413,10.4274373 154.195694,9.68056518 L154.582015,6.84366789 C154.738673,5.58113452 154.516615,4.45398123 153.920402,3.4606869 C153.322668,2.46891369 152.47854,1.76615415 151.388018,1.35392939" id="Fill-17"></path>
                <path d="M156.068441,14.0598828 L164.637481,12.9372928 L165.104413,9.11014347 L156.535373,10.2327334 L156.068441,14.0598828 Z" id="Fill-20"></path>
                <path d="M167.321352,8.7966397 L166.85442,12.6237891 L169.523689,12.2845783 L169.992142,8.45742893 L167.321352,8.7966397 Z" id="Fill-22"></path>
                <path d="M1,34.6686866 L3.67079054,34.3294758 L4.1377226,30.5023265 L1.46693206,30.8415372 L1,34.6686866 Z" id="Fill-25"></path>
                <path d="M5.67281878,34.0445692 L13.5498257,32.9965144 L14.0182788,29.169365 L6.13975084,30.2174198 L5.67281878,34.0445692 Z" id="Fill-27"></path>
            </g>
        </g>
    </g>
</svg>